%TF.GenerationSoftware,KiCad,Pcbnew,10.0.0*%
%TF.CreationDate,2026-04-17T00:55:58-07:00*%
%TF.ProjectId,PC2GCAdaptorPCB,50433247-4341-4646-9170-746f72504342,rev?*%
%TF.SameCoordinates,Original*%
%TF.FileFunction,Copper,L2,Bot*%
%TF.FilePolarity,Positive*%
%FSLAX46Y46*%
G04 Gerber Fmt 4.6, Leading zero omitted, Abs format (unit mm)*
G04 Created by KiCad (PCBNEW 10.0.0) date 2026-04-17 00:55:58*
%MOMM*%
%LPD*%
G01*
G04 APERTURE LIST*
%TA.AperFunction,ComponentPad*%
%ADD10C,1.400000*%
%TD*%
%TA.AperFunction,ComponentPad*%
%ADD11C,1.600000*%
%TD*%
%TA.AperFunction,ComponentPad*%
%ADD12C,1.500000*%
%TD*%
%TA.AperFunction,ComponentPad*%
%ADD13R,1.800000X1.800000*%
%TD*%
%TA.AperFunction,ComponentPad*%
%ADD14C,1.800000*%
%TD*%
%TA.AperFunction,ComponentPad*%
%ADD15C,2.000000*%
%TD*%
%TA.AperFunction,ComponentPad*%
%ADD16C,1.440000*%
%TD*%
%TA.AperFunction,ViaPad*%
%ADD17C,0.600000*%
%TD*%
%TA.AperFunction,Conductor*%
%ADD18C,0.500000*%
%TD*%
%TA.AperFunction,Conductor*%
%ADD19C,1.000000*%
%TD*%
G04 APERTURE END LIST*
D10*
%TO.P,LED_Resistor1,1*%
%TO.N,Net-(SwitchLED1-A)*%
X113240000Y-140980000D03*
%TO.P,LED_Resistor1,2*%
%TO.N,Net-(Transmitter1-A6)*%
X113240000Y-135900000D03*
%TD*%
%TO.P,Pullup_Resistor1,1*%
%TO.N,Data_Out*%
X78586291Y-147644868D03*
%TO.P,Pullup_Resistor1,2*%
%TO.N,3.3V*%
X83666291Y-147644868D03*
%TD*%
D11*
%TO.P,Decouple_3_3V1,1*%
%TO.N,3.3V*%
X71100000Y-142900000D03*
%TO.P,Decouple_3_3V1,2*%
%TO.N,GND*%
X66100000Y-142900000D03*
%TD*%
D12*
%TO.P,GameCubePinOut1,0,Blue_0*%
%TO.N,3.3V*%
X79426291Y-154444868D03*
%TO.P,GameCubePinOut1,1,Yellow_1*%
%TO.N,unconnected-(GameCubePinOut1-Yellow-Pad1)*%
X81126291Y-154444868D03*
%TO.P,GameCubePinOut1,2,Red_2*%
%TO.N,Data_Out*%
X82826291Y-154444868D03*
%TO.P,GameCubePinOut1,3,Green_3*%
%TO.N,GND*%
X84526291Y-154444868D03*
%TO.P,GameCubePinOut1,4,White_4*%
X86226291Y-154444868D03*
%TO.P,GameCubePinOut1,5,Black_5*%
X87926291Y-154444868D03*
%TD*%
D13*
%TO.P,SwitchLED1,1,K_1*%
%TO.N,GND*%
X103370000Y-151040000D03*
D14*
%TO.P,SwitchLED1,2,A_2*%
%TO.N,Net-(SwitchLED1-A)*%
X105910000Y-151040000D03*
%TD*%
D15*
%TO.P,Level_Shifter_5V_3_3V1,0,HV1_0*%
%TO.N,Data_In*%
X78513709Y-132595132D03*
%TO.P,Level_Shifter_5V_3_3V1,1,HV2_1*%
%TO.N,unconnected-(Level_Shifter_5V_3_3V1-HV2-Pad1)*%
X81053709Y-132595132D03*
%TO.P,Level_Shifter_5V_3_3V1,2,HV_2*%
%TO.N,5V*%
X83593709Y-132595132D03*
%TO.P,Level_Shifter_5V_3_3V1,3,GND_3*%
%TO.N,GND*%
X86133709Y-132595132D03*
%TO.P,Level_Shifter_5V_3_3V1,4,HV3_4*%
%TO.N,unconnected-(Level_Shifter_5V_3_3V1-HV3-Pad4)*%
X88673709Y-132595132D03*
%TO.P,Level_Shifter_5V_3_3V1,5,Hv4_5*%
%TO.N,unconnected-(Level_Shifter_5V_3_3V1-Hv4-Pad5)*%
X91213709Y-132595132D03*
%TO.P,Level_Shifter_5V_3_3V1,6,LV1_6*%
%TO.N,Data_Out*%
X78513709Y-142914132D03*
%TO.P,Level_Shifter_5V_3_3V1,7,LV2_7*%
%TO.N,unconnected-(Level_Shifter_5V_3_3V1-LV2-Pad7)*%
X81053709Y-142914132D03*
%TO.P,Level_Shifter_5V_3_3V1,8,LV_8*%
%TO.N,3.3V*%
X83593709Y-142914132D03*
%TO.P,Level_Shifter_5V_3_3V1,9,GND_9*%
%TO.N,GND*%
X86133709Y-142914132D03*
%TO.P,Level_Shifter_5V_3_3V1,10,LV3_10*%
%TO.N,unconnected-(Level_Shifter_5V_3_3V1-LV3-Pad10)*%
X88673709Y-142914132D03*
%TO.P,Level_Shifter_5V_3_3V1,11,LV4_11*%
%TO.N,unconnected-(Level_Shifter_5V_3_3V1-LV4-Pad11)*%
X91213709Y-142914132D03*
%TD*%
%TO.P,Transmitter1,0,TX1_0*%
%TO.N,unconnected-(Transmitter1-TX1-Pad0)*%
X119180000Y-112270000D03*
%TO.P,Transmitter1,1,RX0_1*%
%TO.N,unconnected-(Transmitter1-RX0-Pad1)*%
X119180000Y-109730000D03*
%TO.P,Transmitter1,2,RST_2*%
%TO.N,unconnected-(Transmitter1-RST-Pad2)*%
X119180000Y-107190000D03*
%TO.P,Transmitter1,3,GND_3*%
%TO.N,unconnected-(Transmitter1-GND-Pad3)*%
X119180000Y-104650000D03*
%TO.P,Transmitter1,4,D2_4*%
%TO.N,D2*%
X119180000Y-102110000D03*
%TO.P,Transmitter1,5,D3_5*%
%TO.N,D3*%
X119180000Y-99570000D03*
%TO.P,Transmitter1,6,D4_6*%
%TO.N,D4*%
X119180000Y-97030000D03*
%TO.P,Transmitter1,7,D5_7*%
%TO.N,D5*%
X119180000Y-94490000D03*
%TO.P,Transmitter1,8,D6_8*%
%TO.N,D6*%
X119180000Y-91950000D03*
%TO.P,Transmitter1,9,D7_9*%
%TO.N,D7*%
X119180000Y-89410000D03*
%TO.P,Transmitter1,10,D8_10*%
%TO.N,D8*%
X119180000Y-86870000D03*
%TO.P,Transmitter1,11,D9_11*%
%TO.N,D9*%
X119180000Y-84330000D03*
%TO.P,Transmitter1,12,D10_12*%
%TO.N,D10*%
X119180000Y-81790000D03*
%TO.P,Transmitter1,13,D11_13*%
%TO.N,D11*%
X119180000Y-79250000D03*
%TO.P,Transmitter1,14,D12_14*%
%TO.N,unconnected-(Transmitter1-D12-Pad14)*%
X119180000Y-76620000D03*
%TO.P,Transmitter1,15,D13_15*%
%TO.N,Data_In*%
X104500000Y-76620000D03*
%TO.P,Transmitter1,16,3V3_16*%
%TO.N,unconnected-(Transmitter1-3V3-Pad16)*%
X104500000Y-79250000D03*
%TO.P,Transmitter1,17,REF_17*%
%TO.N,unconnected-(Transmitter1-REF-Pad17)*%
X104500000Y-81790000D03*
%TO.P,Transmitter1,18,A0_18*%
%TO.N,A0*%
X104500000Y-84330000D03*
%TO.P,Transmitter1,19,A1_19*%
%TO.N,A1*%
X104500000Y-86870000D03*
%TO.P,Transmitter1,20,A2_20*%
%TO.N,A2*%
X104500000Y-89410000D03*
%TO.P,Transmitter1,21,A3_21*%
%TO.N,A3*%
X104500000Y-91950000D03*
%TO.P,Transmitter1,22,A4_22*%
%TO.N,A4*%
X104500000Y-94490000D03*
%TO.P,Transmitter1,23,A5_23*%
%TO.N,A5*%
X104500000Y-97030000D03*
%TO.P,Transmitter1,24,A6_24*%
%TO.N,Net-(Transmitter1-A6)*%
X104500000Y-99570000D03*
%TO.P,Transmitter1,25,A7_25*%
%TO.N,unconnected-(Transmitter1-A7-Pad25)*%
X104500000Y-102110000D03*
%TO.P,Transmitter1,26,5V_26*%
%TO.N,5V*%
X104500000Y-104650000D03*
%TO.P,Transmitter1,27,RST_27*%
%TO.N,unconnected-(Transmitter1-RST-Pad27)*%
X104500000Y-107190000D03*
%TO.P,Transmitter1,28,GND_28*%
%TO.N,GND*%
X104500000Y-109730000D03*
%TO.P,Transmitter1,29,VIN_29*%
%TO.N,unconnected-(Transmitter1-VIN-Pad29)*%
X104500000Y-112270000D03*
%TD*%
%TO.P,Reciever1,0,TX1_0*%
%TO.N,unconnected-(Reciever1-TX1-Pad0)*%
X79180000Y-112270000D03*
%TO.P,Reciever1,1,RX0_1*%
%TO.N,unconnected-(Reciever1-RX0-Pad1)*%
X79180000Y-109730000D03*
%TO.P,Reciever1,2,RST_2*%
%TO.N,unconnected-(Reciever1-RST-Pad2)*%
X79180000Y-107190000D03*
%TO.P,Reciever1,3,GND_3*%
%TO.N,unconnected-(Reciever1-GND-Pad3)*%
X79180000Y-104650000D03*
%TO.P,Reciever1,4,D2_4*%
%TO.N,D2*%
X79180000Y-102110000D03*
%TO.P,Reciever1,5,D3_5*%
%TO.N,D3*%
X79180000Y-99570000D03*
%TO.P,Reciever1,6,D4_6*%
%TO.N,D4*%
X79180000Y-97030000D03*
%TO.P,Reciever1,7,D5_7*%
%TO.N,D5*%
X79180000Y-94490000D03*
%TO.P,Reciever1,8,D6_8*%
%TO.N,D6*%
X79180000Y-91950000D03*
%TO.P,Reciever1,9,D7_9*%
%TO.N,D7*%
X79180000Y-89410000D03*
%TO.P,Reciever1,10,D8_10*%
%TO.N,D8*%
X79180000Y-86870000D03*
%TO.P,Reciever1,11,D9_11*%
%TO.N,D9*%
X79180000Y-84330000D03*
%TO.P,Reciever1,12,D10_12*%
%TO.N,D10*%
X79180000Y-81790000D03*
%TO.P,Reciever1,13,D11_13*%
%TO.N,D11*%
X79180000Y-79250000D03*
%TO.P,Reciever1,14,D12_14*%
%TO.N,unconnected-(Reciever1-D12-Pad14)*%
X79180000Y-76620000D03*
%TO.P,Reciever1,15,D13_15*%
%TO.N,unconnected-(Reciever1-D13-Pad15)*%
X64500000Y-76620000D03*
%TO.P,Reciever1,16,3V3_16*%
%TO.N,unconnected-(Reciever1-3V3-Pad16)*%
X64500000Y-79250000D03*
%TO.P,Reciever1,17,REF_17*%
%TO.N,unconnected-(Reciever1-REF-Pad17)*%
X64500000Y-81790000D03*
%TO.P,Reciever1,18,A0_18*%
%TO.N,A0*%
X64500000Y-84330000D03*
%TO.P,Reciever1,19,A1_19*%
%TO.N,A1*%
X64500000Y-86870000D03*
%TO.P,Reciever1,20,A2_20*%
%TO.N,A2*%
X64500000Y-89410000D03*
%TO.P,Reciever1,21,A3_21*%
%TO.N,A3*%
X64500000Y-91950000D03*
%TO.P,Reciever1,22,A4_22*%
%TO.N,A4*%
X64500000Y-94490000D03*
%TO.P,Reciever1,23,A5_23*%
%TO.N,A5*%
X64500000Y-97030000D03*
%TO.P,Reciever1,24,A6_24*%
%TO.N,unconnected-(Reciever1-A6-Pad24)*%
X64500000Y-99570000D03*
%TO.P,Reciever1,25,A7_25*%
%TO.N,unconnected-(Reciever1-A7-Pad25)*%
X64500000Y-102110000D03*
%TO.P,Reciever1,26,5V_26*%
%TO.N,5V*%
X64500000Y-104650000D03*
%TO.P,Reciever1,27,RST_27*%
%TO.N,unconnected-(Reciever1-RST-Pad27)*%
X64500000Y-107190000D03*
%TO.P,Reciever1,28,GND_28*%
%TO.N,GND*%
X64500000Y-109730000D03*
%TO.P,Reciever1,29,VIN_29*%
%TO.N,unconnected-(Reciever1-VIN-Pad29)*%
X64500000Y-112270000D03*
%TD*%
D16*
%TO.P,R1,1,1_1*%
%TO.N,GND*%
X103440000Y-138440000D03*
%TO.P,R1,2,2_2*%
%TO.N,Net-(Transmitter1-A6)*%
X103440000Y-135900000D03*
%TO.P,R1,3,3_3*%
%TO.N,5V*%
X103440000Y-133360000D03*
%TD*%
D11*
%TO.P,Decouple_5V1,1*%
%TO.N,5V*%
X71200000Y-133300000D03*
%TO.P,Decouple_5V1,2*%
%TO.N,GND*%
X66200000Y-133300000D03*
%TD*%
D17*
%TO.N,5V*%
X83450000Y-125350000D03*
%TO.N,A0*%
X78300000Y-118300000D03*
%TO.N,A1*%
X76500000Y-118300000D03*
%TO.N,A2*%
X75000000Y-118400000D03*
%TO.N,A3*%
X73300000Y-118500000D03*
%TO.N,A4*%
X71600000Y-118500000D03*
%TO.N,A5*%
X70300000Y-118500000D03*
%TD*%
%TO.N,Net-(Transmitter1-A6)*%
D18*
X77063709Y-134663709D02*
X79000000Y-136600000D01*
X78700000Y-127700000D02*
X77063709Y-129336291D01*
X105950000Y-112870610D02*
X91120610Y-127700000D01*
X105950000Y-101020000D02*
X105950000Y-112870610D01*
X91120610Y-127700000D02*
X78700000Y-127700000D01*
X104500000Y-99570000D02*
X105950000Y-101020000D01*
X79000000Y-136600000D02*
X99200000Y-136600000D01*
X99900000Y-135900000D02*
X103440000Y-135900000D01*
X77063709Y-129336291D02*
X77063709Y-134663709D01*
X99200000Y-136600000D02*
X99900000Y-135900000D01*
%TO.N,Data_Out*%
X78586291Y-147644868D02*
X78586291Y-148886291D01*
X81500000Y-150400000D02*
X82826291Y-151726291D01*
X78586291Y-148886291D02*
X80100000Y-150400000D01*
X80100000Y-150400000D02*
X81500000Y-150400000D01*
X82826291Y-151726291D02*
X82826291Y-154444868D01*
%TO.N,Data_In*%
X78513709Y-132595132D02*
X78513709Y-134113709D01*
X79500000Y-135100000D02*
X97400000Y-135100000D01*
X106920000Y-76620000D02*
X104500000Y-76620000D01*
X78513709Y-134113709D02*
X79500000Y-135100000D01*
X107700000Y-77400000D02*
X106920000Y-76620000D01*
X107700000Y-124800000D02*
X107700000Y-77400000D01*
X97400000Y-135100000D02*
X107700000Y-124800000D01*
%TO.N,5V*%
D19*
X84700000Y-125300000D02*
X83600000Y-125300000D01*
X91100000Y-106900000D02*
X91100000Y-118900000D01*
X91100000Y-118900000D02*
X84700000Y-125300000D01*
X93350000Y-104650000D02*
X91100000Y-106900000D01*
X104500000Y-104650000D02*
X93350000Y-104650000D01*
%TO.N,A0*%
D18*
X80900000Y-118300000D02*
X81600000Y-117600000D01*
X78300000Y-118300000D02*
X80900000Y-118300000D01*
X81600000Y-85600000D02*
X82870000Y-84330000D01*
X82870000Y-84330000D02*
X104500000Y-84330000D01*
X81600000Y-117600000D02*
X81600000Y-85600000D01*
%TO.N,A1*%
X77500000Y-119300000D02*
X81300000Y-119300000D01*
X82900000Y-117700000D02*
X82900000Y-88200000D01*
X76500000Y-118300000D02*
X77500000Y-119300000D01*
X84230000Y-86870000D02*
X104500000Y-86870000D01*
X82900000Y-88200000D02*
X84230000Y-86870000D01*
X81300000Y-119300000D02*
X82900000Y-117700000D01*
%TO.N,A2*%
X76800000Y-120200000D02*
X82000000Y-120200000D01*
X84400000Y-117800000D02*
X84400000Y-91400000D01*
X86390000Y-89410000D02*
X104500000Y-89410000D01*
X75000000Y-118400000D02*
X76800000Y-120200000D01*
X84400000Y-91400000D02*
X86390000Y-89410000D01*
X82000000Y-120200000D02*
X84400000Y-117800000D01*
%TO.N,A3*%
X89050000Y-91950000D02*
X104500000Y-91950000D01*
X73300000Y-118500000D02*
X76000000Y-121200000D01*
X76000000Y-121200000D02*
X82700000Y-121200000D01*
X86000000Y-117900000D02*
X86000000Y-95000000D01*
X82700000Y-121200000D02*
X86000000Y-117900000D01*
X86000000Y-95000000D02*
X89050000Y-91950000D01*
%TO.N,A4*%
X83200000Y-122200000D02*
X87400000Y-118000000D01*
X71600000Y-118500000D02*
X75300000Y-122200000D01*
X87400000Y-97300000D02*
X90210000Y-94490000D01*
X75300000Y-122200000D02*
X83200000Y-122200000D01*
X87400000Y-118000000D02*
X87400000Y-97300000D01*
X90210000Y-94490000D02*
X104500000Y-94490000D01*
%TO.N,A5*%
X75100000Y-123300000D02*
X83900000Y-123300000D01*
X89200000Y-99700000D02*
X91870000Y-97030000D01*
X91870000Y-97030000D02*
X104500000Y-97030000D01*
X83900000Y-123300000D02*
X89200000Y-118000000D01*
X89200000Y-118000000D02*
X89200000Y-99700000D01*
X70300000Y-118500000D02*
X75100000Y-123300000D01*
%TD*%
%TA.AperFunction,Conductor*%
%TO.N,GND*%
G36*
X106664161Y-77425643D02*
G01*
X106667384Y-77428752D01*
X106900573Y-77661940D01*
X106921723Y-77690192D01*
X106934331Y-77713281D01*
X106949500Y-77772710D01*
X106949500Y-124419940D01*
X106944476Y-124454877D01*
X106937064Y-124480118D01*
X106905769Y-124532862D01*
X97138058Y-134300573D01*
X97109807Y-134321722D01*
X97086719Y-134334330D01*
X97027289Y-134349500D01*
X79880059Y-134349500D01*
X79845123Y-134344477D01*
X79819881Y-134337065D01*
X79767136Y-134305769D01*
X79752309Y-134290942D01*
X79654402Y-134193034D01*
X79620918Y-134131713D01*
X79623953Y-134067656D01*
X79750841Y-133670078D01*
X79789976Y-133612200D01*
X79854191Y-133584666D01*
X79923099Y-133596220D01*
X79956651Y-133620101D01*
X80076199Y-133739649D01*
X80267276Y-133878475D01*
X80366700Y-133929134D01*
X80477712Y-133985698D01*
X80478585Y-133986143D01*
X80482339Y-133987202D01*
X80520747Y-133999681D01*
X80598119Y-134024820D01*
X80598120Y-134024821D01*
X80598121Y-134024821D01*
X80702340Y-134058685D01*
X80935612Y-134095632D01*
X80935617Y-134095632D01*
X81171805Y-134095632D01*
X81171806Y-134095632D01*
X81405077Y-134058685D01*
X81406579Y-134058197D01*
X81629701Y-133985700D01*
X81840142Y-133878475D01*
X82031219Y-133739649D01*
X82198226Y-133572642D01*
X82212911Y-133552428D01*
X82237507Y-133527118D01*
X82248501Y-133518641D01*
X82313608Y-133493293D01*
X82382081Y-133507166D01*
X82388260Y-133510426D01*
X82430716Y-133547213D01*
X82449187Y-133572636D01*
X82449191Y-133572641D01*
X82449192Y-133572642D01*
X82616199Y-133739649D01*
X82807276Y-133878475D01*
X82906700Y-133929134D01*
X83017712Y-133985698D01*
X83018585Y-133986143D01*
X83022339Y-133987202D01*
X83060747Y-133999681D01*
X83138119Y-134024820D01*
X83138120Y-134024821D01*
X83138121Y-134024821D01*
X83242340Y-134058685D01*
X83475612Y-134095632D01*
X83475617Y-134095632D01*
X83711805Y-134095632D01*
X83711806Y-134095632D01*
X83945077Y-134058685D01*
X83946579Y-134058197D01*
X84169701Y-133985700D01*
X84380142Y-133878475D01*
X84571219Y-133739649D01*
X84738226Y-133572642D01*
X84773500Y-133524091D01*
X84806604Y-133492774D01*
X84807636Y-133492107D01*
X84813859Y-133488274D01*
X84815282Y-133487176D01*
X84819421Y-133484507D01*
X84828474Y-133481832D01*
X84868544Y-133466037D01*
X84877452Y-133464724D01*
X84905256Y-133463781D01*
X84911049Y-133464237D01*
X85597211Y-132778074D01*
X85658532Y-132744591D01*
X85728223Y-132749575D01*
X85784157Y-132791446D01*
X85792276Y-132803756D01*
X85813624Y-132840731D01*
X85813628Y-132840736D01*
X85813629Y-132840738D01*
X85888103Y-132915212D01*
X85888104Y-132915213D01*
X85888106Y-132915214D01*
X85925082Y-132936562D01*
X85973297Y-132987128D01*
X85986521Y-133055735D01*
X85960553Y-133120600D01*
X85950763Y-133131630D01*
X85264601Y-133817789D01*
X85264602Y-133817789D01*
X85264602Y-133817790D01*
X85347537Y-133878046D01*
X85557906Y-133985234D01*
X85689491Y-134027989D01*
X85718961Y-134048139D01*
X85782458Y-134058196D01*
X85782461Y-134058197D01*
X85782460Y-134058197D01*
X86015657Y-134095132D01*
X86251760Y-134095132D01*
X86251761Y-134095132D01*
X86484956Y-134058197D01*
X86709511Y-133985234D01*
X86919872Y-133878050D01*
X86919878Y-133878046D01*
X86970218Y-133841472D01*
X86996956Y-133831931D01*
X87002814Y-133817789D01*
X86316653Y-133131630D01*
X86283168Y-133070307D01*
X86288152Y-133000616D01*
X86330023Y-132944682D01*
X86342323Y-132936569D01*
X86379315Y-132915212D01*
X86453789Y-132840738D01*
X86475139Y-132803757D01*
X86525703Y-132755543D01*
X86594310Y-132742318D01*
X86659175Y-132768285D01*
X86670207Y-132778076D01*
X87356364Y-133464235D01*
X87356364Y-133464234D01*
X87356366Y-133464236D01*
X87358344Y-133464080D01*
X87393552Y-133466345D01*
X87412825Y-133470394D01*
X87468871Y-133498325D01*
X87474190Y-133502967D01*
X87475614Y-133504210D01*
X87494389Y-133524741D01*
X87529191Y-133572641D01*
X87529192Y-133572642D01*
X87696199Y-133739649D01*
X87887276Y-133878475D01*
X87986700Y-133929134D01*
X88097712Y-133985698D01*
X88098585Y-133986143D01*
X88102339Y-133987202D01*
X88140747Y-133999681D01*
X88218119Y-134024820D01*
X88218120Y-134024821D01*
X88218121Y-134024821D01*
X88322340Y-134058685D01*
X88555612Y-134095632D01*
X88555617Y-134095632D01*
X88791805Y-134095632D01*
X88791806Y-134095632D01*
X89025077Y-134058685D01*
X89026579Y-134058197D01*
X89249701Y-133985700D01*
X89460142Y-133878475D01*
X89651219Y-133739649D01*
X89818226Y-133572642D01*
X89832911Y-133552428D01*
X89857507Y-133527118D01*
X89868501Y-133518641D01*
X89933608Y-133493293D01*
X90002081Y-133507166D01*
X90008260Y-133510426D01*
X90050716Y-133547213D01*
X90069187Y-133572636D01*
X90069191Y-133572641D01*
X90069192Y-133572642D01*
X90236199Y-133739649D01*
X90427276Y-133878475D01*
X90526700Y-133929134D01*
X90637712Y-133985698D01*
X90638585Y-133986143D01*
X90642339Y-133987202D01*
X90680747Y-133999681D01*
X90758119Y-134024820D01*
X90758120Y-134024821D01*
X90758121Y-134024821D01*
X90862340Y-134058685D01*
X91095612Y-134095632D01*
X91095617Y-134095632D01*
X91331805Y-134095632D01*
X91331806Y-134095632D01*
X91565077Y-134058685D01*
X91566579Y-134058197D01*
X91789701Y-133985700D01*
X92000142Y-133878475D01*
X92191219Y-133739649D01*
X92358226Y-133572642D01*
X92497052Y-133381565D01*
X92604277Y-133171124D01*
X92677262Y-132946500D01*
X92677271Y-132946446D01*
X92678837Y-132936562D01*
X92694013Y-132840739D01*
X92714209Y-132713229D01*
X92714209Y-132477034D01*
X92677262Y-132243763D01*
X92604275Y-132019135D01*
X92497051Y-131808698D01*
X92438115Y-131727580D01*
X92438115Y-131727579D01*
X92438114Y-131727579D01*
X92436984Y-131726024D01*
X92358226Y-131617622D01*
X92191219Y-131450615D01*
X92000142Y-131311789D01*
X91789705Y-131204565D01*
X91565077Y-131131578D01*
X91546704Y-131128668D01*
X91331811Y-131094632D01*
X91331806Y-131094632D01*
X91331801Y-131094632D01*
X91095617Y-131094632D01*
X91095612Y-131094632D01*
X91095607Y-131094632D01*
X90862345Y-131131577D01*
X90862343Y-131131577D01*
X90862340Y-131131578D01*
X90637712Y-131204565D01*
X90566681Y-131240757D01*
X90427275Y-131311788D01*
X90343756Y-131372470D01*
X90343755Y-131372470D01*
X90248069Y-131441990D01*
X90240690Y-131446122D01*
X90069196Y-131617615D01*
X90069190Y-131617622D01*
X90054505Y-131637835D01*
X90029905Y-131663147D01*
X90018915Y-131671621D01*
X89953805Y-131696968D01*
X89885344Y-131683099D01*
X89879162Y-131679838D01*
X89836696Y-131643044D01*
X89818231Y-131617628D01*
X89818227Y-131617623D01*
X89651221Y-131450617D01*
X89651219Y-131450615D01*
X89460142Y-131311789D01*
X89249705Y-131204565D01*
X89025077Y-131131578D01*
X89006704Y-131128668D01*
X88791811Y-131094632D01*
X88791806Y-131094632D01*
X88791801Y-131094632D01*
X88555617Y-131094632D01*
X88555612Y-131094632D01*
X88555607Y-131094632D01*
X88322345Y-131131577D01*
X88322343Y-131131577D01*
X88322340Y-131131578D01*
X88097712Y-131204565D01*
X88026681Y-131240757D01*
X87887275Y-131311788D01*
X87803756Y-131372470D01*
X87803755Y-131372470D01*
X87708069Y-131441990D01*
X87700690Y-131446122D01*
X87529190Y-131617622D01*
X87496639Y-131662425D01*
X87472043Y-131687734D01*
X87456454Y-131699755D01*
X87398813Y-131724233D01*
X87392611Y-131725148D01*
X87389965Y-131725538D01*
X87362152Y-131726480D01*
X87356369Y-131726024D01*
X87356366Y-131726025D01*
X86670206Y-132412185D01*
X86608883Y-132445670D01*
X86539191Y-132440686D01*
X86483258Y-132398814D01*
X86475139Y-132386506D01*
X86453789Y-132349526D01*
X86379315Y-132275052D01*
X86379314Y-132275051D01*
X86379311Y-132275049D01*
X86342335Y-132253701D01*
X86294119Y-132203134D01*
X86280897Y-132134527D01*
X86306865Y-132069662D01*
X86316648Y-132058638D01*
X87002814Y-131372472D01*
X87002813Y-131372470D01*
X86919883Y-131312219D01*
X86916089Y-131310286D01*
X86709515Y-131205030D01*
X86617384Y-131175095D01*
X86577924Y-131162273D01*
X86548455Y-131142123D01*
X86251766Y-131095132D01*
X86251761Y-131095132D01*
X86015657Y-131095132D01*
X86015652Y-131095132D01*
X85782464Y-131132065D01*
X85557903Y-131205030D01*
X85347534Y-131312218D01*
X85264603Y-131372471D01*
X85264602Y-131372472D01*
X85950764Y-132058633D01*
X85984249Y-132119956D01*
X85979265Y-132189647D01*
X85937393Y-132245581D01*
X85925083Y-132253701D01*
X85888106Y-132275049D01*
X85888101Y-132275053D01*
X85813630Y-132349524D01*
X85813624Y-132349532D01*
X85792277Y-132386506D01*
X85741710Y-132434721D01*
X85673102Y-132447943D01*
X85608238Y-132421975D01*
X85597210Y-132412186D01*
X84911049Y-131726025D01*
X84911047Y-131726024D01*
X84909077Y-131726180D01*
X84873856Y-131723915D01*
X84851679Y-131719256D01*
X84790121Y-131686212D01*
X84776857Y-131670794D01*
X84738226Y-131617622D01*
X84571219Y-131450615D01*
X84380142Y-131311789D01*
X84169705Y-131204565D01*
X83945077Y-131131578D01*
X83926704Y-131128668D01*
X83711811Y-131094632D01*
X83711806Y-131094632D01*
X83711801Y-131094632D01*
X83475617Y-131094632D01*
X83475612Y-131094632D01*
X83475607Y-131094632D01*
X83242345Y-131131577D01*
X83242343Y-131131577D01*
X83242340Y-131131578D01*
X83017712Y-131204565D01*
X82946681Y-131240757D01*
X82807275Y-131311788D01*
X82723756Y-131372470D01*
X82723755Y-131372470D01*
X82628069Y-131441990D01*
X82620690Y-131446122D01*
X82449196Y-131617615D01*
X82449190Y-131617622D01*
X82434505Y-131637835D01*
X82409905Y-131663147D01*
X82398915Y-131671621D01*
X82333805Y-131696968D01*
X82265344Y-131683099D01*
X82259162Y-131679838D01*
X82216696Y-131643044D01*
X82198231Y-131617628D01*
X82198227Y-131617623D01*
X82031221Y-131450617D01*
X82031219Y-131450615D01*
X81840142Y-131311789D01*
X81629705Y-131204565D01*
X81405077Y-131131578D01*
X81386704Y-131128668D01*
X81171811Y-131094632D01*
X81171806Y-131094632D01*
X81171801Y-131094632D01*
X80935617Y-131094632D01*
X80935612Y-131094632D01*
X80935607Y-131094632D01*
X80702345Y-131131577D01*
X80702343Y-131131577D01*
X80702340Y-131131578D01*
X80477712Y-131204565D01*
X80406681Y-131240757D01*
X80267275Y-131311788D01*
X80183756Y-131372470D01*
X80183755Y-131372470D01*
X80088069Y-131441990D01*
X80080690Y-131446122D01*
X79909196Y-131617615D01*
X79909190Y-131617622D01*
X79894505Y-131637835D01*
X79869905Y-131663147D01*
X79858915Y-131671621D01*
X79793805Y-131696968D01*
X79725344Y-131683099D01*
X79719162Y-131679838D01*
X79676696Y-131643044D01*
X79658231Y-131617628D01*
X79658227Y-131617623D01*
X79491221Y-131450617D01*
X79491219Y-131450615D01*
X79300142Y-131311789D01*
X79089705Y-131204565D01*
X78865077Y-131131578D01*
X78846704Y-131128668D01*
X78631811Y-131094632D01*
X78631806Y-131094632D01*
X78631801Y-131094632D01*
X78395617Y-131094632D01*
X78395612Y-131094632D01*
X78365921Y-131099334D01*
X78180712Y-131128668D01*
X78180705Y-131128670D01*
X78162339Y-131131579D01*
X78162336Y-131131579D01*
X77992624Y-131186722D01*
X77991732Y-131186998D01*
X77990153Y-131187019D01*
X77958701Y-131192462D01*
X77944830Y-131192858D01*
X77925981Y-131187903D01*
X77921869Y-131187960D01*
X77918713Y-131185992D01*
X77877256Y-131175095D01*
X77830013Y-131123618D01*
X77826925Y-131117337D01*
X77814209Y-131062639D01*
X77814209Y-129716350D01*
X77819231Y-129681417D01*
X77826643Y-129656172D01*
X77857937Y-129603430D01*
X78961944Y-128499423D01*
X78990194Y-128478275D01*
X79013286Y-128465667D01*
X79072711Y-128450500D01*
X91194530Y-128450500D01*
X91292072Y-128431096D01*
X91339523Y-128421658D01*
X91476105Y-128365084D01*
X91525339Y-128332186D01*
X91599026Y-128282952D01*
X106532951Y-113349026D01*
X106615084Y-113226105D01*
X106671658Y-113089523D01*
X106678240Y-113056433D01*
X106700500Y-112944528D01*
X106700500Y-100946082D01*
X106700500Y-100946079D01*
X106699353Y-100940315D01*
X106691010Y-100898373D01*
X106683723Y-100861741D01*
X106682053Y-100853343D01*
X106671659Y-100801088D01*
X106616024Y-100666777D01*
X106615399Y-100664975D01*
X106532954Y-100541588D01*
X106532953Y-100541587D01*
X106532951Y-100541584D01*
X106532950Y-100541582D01*
X106532856Y-100541468D01*
X106532805Y-100541406D01*
X106530683Y-100538817D01*
X106512005Y-100507618D01*
X106362393Y-100145994D01*
X105928093Y-99096257D01*
X105926091Y-99091787D01*
X105915142Y-99067345D01*
X105910375Y-99054969D01*
X105890568Y-98994008D01*
X105890566Y-98994002D01*
X105783341Y-98783565D01*
X105783339Y-98783562D01*
X105644517Y-98592490D01*
X105477510Y-98425483D01*
X105457294Y-98410795D01*
X105431988Y-98386203D01*
X105423509Y-98375208D01*
X105398161Y-98310102D01*
X105412036Y-98241624D01*
X105412035Y-98241624D01*
X105415300Y-98235437D01*
X105452082Y-98192991D01*
X105477510Y-98174517D01*
X105644517Y-98007510D01*
X105783343Y-97816433D01*
X105890568Y-97605992D01*
X105963553Y-97381368D01*
X106000500Y-97148097D01*
X106000500Y-96911902D01*
X105963553Y-96678631D01*
X105890566Y-96454003D01*
X105816346Y-96308340D01*
X105783343Y-96243567D01*
X105644517Y-96052490D01*
X105477510Y-95885483D01*
X105457294Y-95870795D01*
X105431988Y-95846203D01*
X105423509Y-95835208D01*
X105398161Y-95770102D01*
X105412036Y-95701624D01*
X105412035Y-95701624D01*
X105415300Y-95695437D01*
X105452082Y-95652991D01*
X105477510Y-95634517D01*
X105644517Y-95467510D01*
X105783343Y-95276433D01*
X105890568Y-95065992D01*
X105963553Y-94841368D01*
X106000500Y-94608097D01*
X106000500Y-94371902D01*
X105963553Y-94138631D01*
X105890566Y-93914003D01*
X105816346Y-93768340D01*
X105783343Y-93703567D01*
X105644517Y-93512490D01*
X105477510Y-93345483D01*
X105457294Y-93330795D01*
X105431988Y-93306203D01*
X105423509Y-93295208D01*
X105398161Y-93230102D01*
X105412036Y-93161624D01*
X105412035Y-93161624D01*
X105415300Y-93155437D01*
X105452082Y-93112991D01*
X105477510Y-93094517D01*
X105644517Y-92927510D01*
X105783343Y-92736433D01*
X105890568Y-92525992D01*
X105963553Y-92301368D01*
X106000500Y-92068097D01*
X106000500Y-91831902D01*
X105963553Y-91598631D01*
X105890566Y-91374003D01*
X105816346Y-91228340D01*
X105783343Y-91163567D01*
X105644517Y-90972490D01*
X105477510Y-90805483D01*
X105457294Y-90790795D01*
X105431988Y-90766203D01*
X105423509Y-90755208D01*
X105398161Y-90690102D01*
X105412036Y-90621624D01*
X105412035Y-90621624D01*
X105415300Y-90615437D01*
X105452082Y-90572991D01*
X105477510Y-90554517D01*
X105644517Y-90387510D01*
X105783343Y-90196433D01*
X105890568Y-89985992D01*
X105963553Y-89761368D01*
X106000500Y-89528097D01*
X106000500Y-89291902D01*
X105963553Y-89058631D01*
X105890566Y-88834003D01*
X105816346Y-88688340D01*
X105783343Y-88623567D01*
X105644517Y-88432490D01*
X105477510Y-88265483D01*
X105457294Y-88250795D01*
X105431988Y-88226203D01*
X105423509Y-88215208D01*
X105398161Y-88150102D01*
X105412036Y-88081624D01*
X105412035Y-88081624D01*
X105415300Y-88075437D01*
X105452082Y-88032991D01*
X105477510Y-88014517D01*
X105644517Y-87847510D01*
X105783343Y-87656433D01*
X105890568Y-87445992D01*
X105963553Y-87221368D01*
X106000500Y-86988097D01*
X106000500Y-86751902D01*
X105963553Y-86518631D01*
X105890566Y-86294003D01*
X105816346Y-86148340D01*
X105783343Y-86083567D01*
X105644517Y-85892490D01*
X105477510Y-85725483D01*
X105457294Y-85710795D01*
X105431988Y-85686203D01*
X105423509Y-85675208D01*
X105398161Y-85610102D01*
X105412036Y-85541624D01*
X105412035Y-85541624D01*
X105415300Y-85535437D01*
X105452082Y-85492991D01*
X105477510Y-85474517D01*
X105644517Y-85307510D01*
X105783343Y-85116433D01*
X105890568Y-84905992D01*
X105963553Y-84681368D01*
X106000500Y-84448097D01*
X106000500Y-84211902D01*
X105963553Y-83978631D01*
X105890566Y-83754003D01*
X105816346Y-83608340D01*
X105783343Y-83543567D01*
X105644517Y-83352490D01*
X105477510Y-83185483D01*
X105457294Y-83170795D01*
X105431988Y-83146203D01*
X105423509Y-83135208D01*
X105398161Y-83070102D01*
X105412036Y-83001624D01*
X105412035Y-83001624D01*
X105415300Y-82995437D01*
X105452082Y-82952991D01*
X105477510Y-82934517D01*
X105644517Y-82767510D01*
X105783343Y-82576433D01*
X105890568Y-82365992D01*
X105963553Y-82141368D01*
X106000500Y-81908097D01*
X106000500Y-81671902D01*
X105963553Y-81438631D01*
X105890566Y-81214003D01*
X105783342Y-81003566D01*
X105644517Y-80812490D01*
X105477510Y-80645483D01*
X105457294Y-80630795D01*
X105431988Y-80606203D01*
X105423509Y-80595208D01*
X105398161Y-80530102D01*
X105412036Y-80461624D01*
X105412035Y-80461624D01*
X105415300Y-80455437D01*
X105452082Y-80412991D01*
X105477510Y-80394517D01*
X105644517Y-80227510D01*
X105783343Y-80036433D01*
X105890568Y-79825992D01*
X105963553Y-79601368D01*
X105972756Y-79543264D01*
X106000500Y-79368097D01*
X106000500Y-79131902D01*
X105963553Y-78898631D01*
X105890566Y-78674003D01*
X105783342Y-78463566D01*
X105644517Y-78272490D01*
X105477510Y-78105483D01*
X105423292Y-78066091D01*
X105380627Y-78010762D01*
X105374648Y-77941149D01*
X105407254Y-77879354D01*
X105448675Y-77851233D01*
X106532202Y-77401891D01*
X106601669Y-77394394D01*
X106664161Y-77425643D01*
G37*
%TD.AperFunction*%
%TA.AperFunction,Conductor*%
G36*
X135892606Y-74505523D02*
G01*
X135907604Y-74509927D01*
X135966355Y-74547672D01*
X135967542Y-74549041D01*
X135995018Y-74603902D01*
X135996663Y-74611460D01*
X135999500Y-74637831D01*
X135999500Y-162357670D01*
X135994475Y-162392614D01*
X135990070Y-162407612D01*
X135952327Y-162466355D01*
X135950958Y-162467542D01*
X135896097Y-162495018D01*
X135888539Y-162496663D01*
X135862168Y-162499500D01*
X47742330Y-162499500D01*
X47707389Y-162494475D01*
X47692390Y-162490070D01*
X47633644Y-162452327D01*
X47632457Y-162450958D01*
X47604977Y-162396083D01*
X47603332Y-162388521D01*
X47600500Y-162362168D01*
X47600500Y-150135521D01*
X52249500Y-150135521D01*
X52249500Y-150444477D01*
X52284083Y-150751422D01*
X52284089Y-150751457D01*
X52310303Y-150866306D01*
X52352831Y-151052635D01*
X52352832Y-151052638D01*
X52352835Y-151052650D01*
X52352842Y-151052671D01*
X52454859Y-151344216D01*
X52454865Y-151344231D01*
X52454866Y-151344233D01*
X52588899Y-151622556D01*
X52588903Y-151622562D01*
X52639750Y-151703485D01*
X52753265Y-151884143D01*
X52883436Y-152047372D01*
X52931993Y-152108261D01*
X52945880Y-152125674D01*
X53164326Y-152344120D01*
X53405857Y-152536735D01*
X53667435Y-152701095D01*
X53945771Y-152835135D01*
X53945775Y-152835136D01*
X53945877Y-152835178D01*
X53946639Y-152835438D01*
X54033658Y-152865888D01*
X54237327Y-152937156D01*
X54237348Y-152937163D01*
X54237352Y-152937164D01*
X54237364Y-152937168D01*
X54462889Y-152988642D01*
X54537381Y-153005645D01*
X54537380Y-153005645D01*
X54538539Y-153005909D01*
X54538548Y-153005911D01*
X54538554Y-153005911D01*
X54538562Y-153005913D01*
X54743206Y-153028970D01*
X54842520Y-153040159D01*
X54844994Y-153040500D01*
X55154468Y-153040500D01*
X55164262Y-153040500D01*
X55171860Y-153038539D01*
X55311356Y-153022822D01*
X55460751Y-153005990D01*
X55461379Y-153005923D01*
X55461447Y-153005911D01*
X55461452Y-153005911D01*
X55762636Y-152937168D01*
X56054229Y-152835135D01*
X56332565Y-152701095D01*
X56594143Y-152536735D01*
X56835674Y-152344120D01*
X57054120Y-152125674D01*
X57246735Y-151884143D01*
X57411095Y-151622565D01*
X57545135Y-151344229D01*
X57647168Y-151052636D01*
X57715911Y-150751452D01*
X57715915Y-150751422D01*
X57737656Y-150558462D01*
X57750500Y-150444465D01*
X57750500Y-150135535D01*
X57732747Y-149977968D01*
X57715913Y-149828562D01*
X57715910Y-149828544D01*
X57713285Y-149817045D01*
X57647168Y-149527364D01*
X57647162Y-149527348D01*
X57640080Y-149507110D01*
X57590253Y-149364712D01*
X57545409Y-149236556D01*
X57545176Y-149235873D01*
X57545133Y-149235767D01*
X57411096Y-148957437D01*
X57397506Y-148935808D01*
X57246735Y-148695857D01*
X57054120Y-148454326D01*
X56835674Y-148235880D01*
X56835673Y-148235879D01*
X56835672Y-148235878D01*
X56675916Y-148108477D01*
X56594143Y-148043265D01*
X56333977Y-147879792D01*
X56332918Y-147879106D01*
X56332560Y-147878902D01*
X56304917Y-147865589D01*
X56054236Y-147744868D01*
X56054227Y-147744864D01*
X56054216Y-147744859D01*
X55819006Y-147662556D01*
X55818989Y-147662550D01*
X55806514Y-147658184D01*
X55762650Y-147642835D01*
X55762638Y-147642832D01*
X55762635Y-147642831D01*
X55639601Y-147614749D01*
X55461457Y-147574089D01*
X55461422Y-147574083D01*
X55250999Y-147550375D01*
X77385791Y-147550375D01*
X77385791Y-147739359D01*
X77386664Y-147744868D01*
X77415350Y-147925986D01*
X77454169Y-148045455D01*
X77473747Y-148105711D01*
X77501391Y-148159965D01*
X77509803Y-148181053D01*
X77514184Y-148195851D01*
X77532572Y-148235879D01*
X77786530Y-148788713D01*
X77822343Y-148866672D01*
X77832440Y-148935808D01*
X77831404Y-148938165D01*
X77864629Y-149105190D01*
X77864635Y-149105210D01*
X77921202Y-149241778D01*
X77921203Y-149241780D01*
X77949490Y-149284114D01*
X77949498Y-149284129D01*
X78003333Y-149364700D01*
X78003335Y-149364702D01*
X78003345Y-149364714D01*
X79621570Y-150982939D01*
X79621587Y-150982955D01*
X79655910Y-151005888D01*
X79655932Y-151005902D01*
X79744505Y-151065084D01*
X79744506Y-151065084D01*
X79744507Y-151065085D01*
X79875478Y-151119334D01*
X79879884Y-151121418D01*
X79881383Y-151121717D01*
X80026077Y-151150500D01*
X80026079Y-151150500D01*
X80026082Y-151150500D01*
X80026083Y-151150500D01*
X80173918Y-151150500D01*
X81119940Y-151150500D01*
X81154872Y-151155521D01*
X81180116Y-151162934D01*
X81232862Y-151194230D01*
X82026864Y-151988232D01*
X82048014Y-152016484D01*
X82060622Y-152039573D01*
X82075791Y-152099002D01*
X82075791Y-152823292D01*
X82068245Y-152865888D01*
X81914226Y-153286962D01*
X81872710Y-153343160D01*
X81807402Y-153367992D01*
X81741478Y-153354851D01*
X81657734Y-153312182D01*
X81606320Y-153285985D01*
X81419117Y-153225158D01*
X81419111Y-153225157D01*
X81224718Y-153194368D01*
X81224713Y-153194368D01*
X81224708Y-153194368D01*
X81027874Y-153194368D01*
X81027869Y-153194368D01*
X81027864Y-153194368D01*
X80833469Y-153225157D01*
X80833467Y-153225157D01*
X80833464Y-153225158D01*
X80646261Y-153285985D01*
X80587063Y-153316147D01*
X80470882Y-153375345D01*
X80363596Y-153453293D01*
X80332383Y-153469762D01*
X80317664Y-153475014D01*
X80247908Y-153479004D01*
X80247906Y-153479003D01*
X80237766Y-153476645D01*
X80192967Y-153456187D01*
X80188984Y-153453293D01*
X80089586Y-153381076D01*
X80089246Y-153380785D01*
X80081689Y-153375338D01*
X80081325Y-153375155D01*
X80023424Y-153345653D01*
X80016149Y-153341946D01*
X79906320Y-153285985D01*
X79719117Y-153225158D01*
X79719111Y-153225157D01*
X79524718Y-153194368D01*
X79524713Y-153194368D01*
X79524708Y-153194368D01*
X79327874Y-153194368D01*
X79327869Y-153194368D01*
X79327864Y-153194368D01*
X79133469Y-153225157D01*
X79133467Y-153225157D01*
X79133464Y-153225158D01*
X78946261Y-153285985D01*
X78887065Y-153316147D01*
X78770885Y-153375343D01*
X78719481Y-153412692D01*
X78623516Y-153482415D01*
X78616135Y-153486548D01*
X78467971Y-153634712D01*
X78463839Y-153642091D01*
X78422776Y-153698609D01*
X78356767Y-153789461D01*
X78356632Y-153789726D01*
X78267408Y-153964838D01*
X78206581Y-154152041D01*
X78206580Y-154152044D01*
X78206580Y-154152046D01*
X78175791Y-154346439D01*
X78175791Y-154543295D01*
X78199102Y-154690472D01*
X78206581Y-154737694D01*
X78267408Y-154924897D01*
X78296181Y-154981366D01*
X78356634Y-155100011D01*
X78356720Y-155100182D01*
X78356762Y-155100266D01*
X78356766Y-155100272D01*
X78356767Y-155100273D01*
X78472463Y-155259514D01*
X78611645Y-155398696D01*
X78770886Y-155514392D01*
X78853746Y-155556611D01*
X78939812Y-155600464D01*
X78941415Y-155601402D01*
X78945114Y-155603194D01*
X78947122Y-155604192D01*
X78950888Y-155605254D01*
X78988373Y-155617433D01*
X79046606Y-155636354D01*
X79046607Y-155636355D01*
X79068322Y-155643410D01*
X79133464Y-155664577D01*
X79327869Y-155695368D01*
X79327874Y-155695368D01*
X79524712Y-155695368D01*
X79524713Y-155695368D01*
X79719117Y-155664577D01*
X79720619Y-155664089D01*
X79906316Y-155603752D01*
X80081696Y-155514392D01*
X80188986Y-155436440D01*
X80220195Y-155419972D01*
X80234920Y-155414718D01*
X80304675Y-155410731D01*
X80314815Y-155413089D01*
X80359614Y-155433547D01*
X80470886Y-155514392D01*
X80553746Y-155556611D01*
X80639812Y-155600464D01*
X80641415Y-155601402D01*
X80645114Y-155603194D01*
X80647122Y-155604192D01*
X80650888Y-155605254D01*
X80688373Y-155617433D01*
X80746606Y-155636354D01*
X80746607Y-155636355D01*
X80768322Y-155643410D01*
X80833464Y-155664577D01*
X81027869Y-155695368D01*
X81027874Y-155695368D01*
X81224712Y-155695368D01*
X81224713Y-155695368D01*
X81419117Y-155664577D01*
X81420619Y-155664089D01*
X81606316Y-155603752D01*
X81781696Y-155514392D01*
X81888986Y-155436440D01*
X81920195Y-155419972D01*
X81934920Y-155414718D01*
X82004675Y-155410731D01*
X82014815Y-155413089D01*
X82059614Y-155433547D01*
X82170886Y-155514392D01*
X82253746Y-155556611D01*
X82339812Y-155600464D01*
X82341415Y-155601402D01*
X82345114Y-155603194D01*
X82347122Y-155604192D01*
X82350888Y-155605254D01*
X82388373Y-155617433D01*
X82446606Y-155636354D01*
X82446607Y-155636355D01*
X82468322Y-155643410D01*
X82533464Y-155664577D01*
X82727869Y-155695368D01*
X82727874Y-155695368D01*
X82924712Y-155695368D01*
X82924713Y-155695368D01*
X83119117Y-155664577D01*
X83120619Y-155664089D01*
X83306316Y-155603752D01*
X83481696Y-155514392D01*
X83589415Y-155436128D01*
X83620619Y-155419663D01*
X83635345Y-155414408D01*
X83705099Y-155410421D01*
X83715239Y-155412779D01*
X83760038Y-155433237D01*
X83871143Y-155513961D01*
X84046455Y-155603286D01*
X84233585Y-155664089D01*
X84427909Y-155694868D01*
X84624672Y-155694868D01*
X84624673Y-155694868D01*
X84818996Y-155664089D01*
X85006126Y-155603286D01*
X85181434Y-155513963D01*
X85183818Y-155512230D01*
X85184878Y-155511852D01*
X85185587Y-155511418D01*
X85185678Y-155511566D01*
X85210558Y-155502688D01*
X85216417Y-155488545D01*
X84709236Y-154981366D01*
X84675751Y-154920043D01*
X84680735Y-154850352D01*
X84722606Y-154794418D01*
X84734909Y-154786302D01*
X84771897Y-154764948D01*
X84846371Y-154690474D01*
X84867721Y-154653493D01*
X84918285Y-154605279D01*
X84986892Y-154592054D01*
X85051757Y-154618021D01*
X85062789Y-154627812D01*
X85376291Y-154941314D01*
X85376292Y-154941314D01*
X85689794Y-154627811D01*
X85751115Y-154594328D01*
X85820806Y-154599312D01*
X85876740Y-154641183D01*
X85884860Y-154653494D01*
X85906208Y-154690470D01*
X85906210Y-154690472D01*
X85906211Y-154690474D01*
X85980685Y-154764948D01*
X85980686Y-154764949D01*
X85980688Y-154764950D01*
X86017664Y-154786298D01*
X86065879Y-154836864D01*
X86079103Y-154905471D01*
X86053135Y-154970336D01*
X86043345Y-154981366D01*
X85536164Y-155488544D01*
X85536164Y-155488545D01*
X85536164Y-155488546D01*
X85571149Y-155513964D01*
X85746455Y-155603286D01*
X85933585Y-155664089D01*
X86127909Y-155694868D01*
X86324672Y-155694868D01*
X86324673Y-155694868D01*
X86518996Y-155664089D01*
X86706126Y-155603286D01*
X86881434Y-155513963D01*
X86883818Y-155512230D01*
X86884878Y-155511852D01*
X86885587Y-155511418D01*
X86885678Y-155511566D01*
X86910558Y-155502688D01*
X86916417Y-155488545D01*
X86409237Y-154981365D01*
X86375752Y-154920042D01*
X86380736Y-154850350D01*
X86422608Y-154794417D01*
X86434913Y-154786300D01*
X86471897Y-154764948D01*
X86546371Y-154690474D01*
X86567721Y-154653493D01*
X86618285Y-154605279D01*
X86686892Y-154592054D01*
X86751757Y-154618021D01*
X86762789Y-154627812D01*
X87076291Y-154941314D01*
X87076292Y-154941314D01*
X87389794Y-154627811D01*
X87451115Y-154594328D01*
X87520806Y-154599312D01*
X87576740Y-154641183D01*
X87584860Y-154653494D01*
X87606208Y-154690470D01*
X87606210Y-154690472D01*
X87606211Y-154690474D01*
X87680685Y-154764948D01*
X87680686Y-154764949D01*
X87680688Y-154764950D01*
X87717664Y-154786298D01*
X87765879Y-154836864D01*
X87779103Y-154905471D01*
X87753135Y-154970336D01*
X87743345Y-154981366D01*
X87236164Y-155488544D01*
X87236164Y-155488545D01*
X87236164Y-155488546D01*
X87271149Y-155513964D01*
X87446455Y-155603286D01*
X87633585Y-155664089D01*
X87827909Y-155694868D01*
X88024672Y-155694868D01*
X88024673Y-155694868D01*
X88218996Y-155664089D01*
X88406126Y-155603286D01*
X88581434Y-155513963D01*
X88583818Y-155512230D01*
X88584878Y-155511852D01*
X88585587Y-155511418D01*
X88585678Y-155511566D01*
X88610558Y-155502688D01*
X88616417Y-155488545D01*
X88109237Y-154981365D01*
X88075752Y-154920042D01*
X88080736Y-154850350D01*
X88122608Y-154794417D01*
X88134913Y-154786300D01*
X88171897Y-154764948D01*
X88246371Y-154690474D01*
X88267720Y-154653495D01*
X88318285Y-154605281D01*
X88386891Y-154592056D01*
X88451757Y-154618023D01*
X88462788Y-154627814D01*
X88969968Y-155134994D01*
X88969968Y-155134993D01*
X88969969Y-155134994D01*
X88969969Y-155134993D01*
X88983437Y-155129414D01*
X88989654Y-155108245D01*
X88993644Y-155102407D01*
X88995386Y-155100011D01*
X89084709Y-154924703D01*
X89145512Y-154737573D01*
X89176291Y-154543250D01*
X89176291Y-154346485D01*
X89145512Y-154152162D01*
X89084709Y-153965032D01*
X88995387Y-153789726D01*
X88995175Y-153789435D01*
X88969970Y-153754741D01*
X88969969Y-153754741D01*
X88969968Y-153754741D01*
X88969967Y-153754741D01*
X88462788Y-154261921D01*
X88401465Y-154295406D01*
X88331773Y-154290422D01*
X88275840Y-154248550D01*
X88267723Y-154236245D01*
X88246371Y-154199262D01*
X88171897Y-154124788D01*
X88171896Y-154124787D01*
X88171893Y-154124785D01*
X88134917Y-154103437D01*
X88086701Y-154052870D01*
X88073479Y-153984263D01*
X88099447Y-153919398D01*
X88109231Y-153908374D01*
X88616416Y-153401188D01*
X88616416Y-153401187D01*
X88616415Y-153401186D01*
X88581438Y-153375774D01*
X88406130Y-153286451D01*
X88406129Y-153286450D01*
X88406126Y-153286449D01*
X88218996Y-153225646D01*
X88024673Y-153194868D01*
X88024672Y-153194868D01*
X87827910Y-153194868D01*
X87827909Y-153194868D01*
X87743924Y-153208169D01*
X87633590Y-153225645D01*
X87633588Y-153225645D01*
X87633585Y-153225646D01*
X87510488Y-153265643D01*
X87446451Y-153286450D01*
X87446444Y-153286453D01*
X87271154Y-153375766D01*
X87271066Y-153375821D01*
X87270412Y-153376305D01*
X87268786Y-153377487D01*
X87267869Y-153377814D01*
X87266617Y-153378595D01*
X87266447Y-153378322D01*
X87242021Y-153387044D01*
X87236162Y-153401188D01*
X87743345Y-153908369D01*
X87776830Y-153969692D01*
X87771846Y-154039383D01*
X87729975Y-154095317D01*
X87717665Y-154103436D01*
X87680691Y-154124783D01*
X87680683Y-154124789D01*
X87606212Y-154199260D01*
X87606208Y-154199265D01*
X87584861Y-154236241D01*
X87534295Y-154284456D01*
X87465688Y-154297680D01*
X87400823Y-154271712D01*
X87389793Y-154261922D01*
X87076292Y-153948421D01*
X87076291Y-153948421D01*
X87076290Y-153948421D01*
X86762789Y-154261922D01*
X86701466Y-154295407D01*
X86631774Y-154290423D01*
X86575841Y-154248551D01*
X86567721Y-154236241D01*
X86546373Y-154199265D01*
X86546369Y-154199260D01*
X86471898Y-154124789D01*
X86471893Y-154124785D01*
X86434917Y-154103437D01*
X86386701Y-154052870D01*
X86373479Y-153984263D01*
X86399447Y-153919398D01*
X86409231Y-153908374D01*
X86916416Y-153401188D01*
X86916416Y-153401187D01*
X86916415Y-153401186D01*
X86881438Y-153375774D01*
X86706130Y-153286451D01*
X86706129Y-153286450D01*
X86706126Y-153286449D01*
X86518996Y-153225646D01*
X86324673Y-153194868D01*
X86324672Y-153194868D01*
X86127910Y-153194868D01*
X86127909Y-153194868D01*
X86043924Y-153208169D01*
X85933590Y-153225645D01*
X85933588Y-153225645D01*
X85933585Y-153225646D01*
X85810488Y-153265643D01*
X85746451Y-153286450D01*
X85746444Y-153286453D01*
X85571154Y-153375766D01*
X85571065Y-153375822D01*
X85570386Y-153376324D01*
X85536164Y-153401186D01*
X85536164Y-153401188D01*
X85532093Y-153452880D01*
X85532093Y-153452881D01*
X85532094Y-153452881D01*
X85532094Y-153452882D01*
X85724126Y-153630220D01*
X86028613Y-153911407D01*
X86064509Y-153971350D01*
X86062298Y-154041185D01*
X86033382Y-154088954D01*
X86021385Y-154101289D01*
X85980685Y-154124788D01*
X85906211Y-154199262D01*
X85877137Y-154249618D01*
X85866370Y-154260691D01*
X85848851Y-154270576D01*
X85834295Y-154284456D01*
X85819045Y-154287395D01*
X85805519Y-154295028D01*
X85785438Y-154293873D01*
X85765688Y-154297680D01*
X85751269Y-154291907D01*
X85735765Y-154291016D01*
X85719495Y-154279187D01*
X85700823Y-154271712D01*
X85689793Y-154261922D01*
X85376292Y-153948421D01*
X85376291Y-153948421D01*
X85376290Y-153948421D01*
X85062789Y-154261922D01*
X85001466Y-154295407D01*
X84931774Y-154290423D01*
X84875841Y-154248551D01*
X84867721Y-154236241D01*
X84846373Y-154199265D01*
X84846369Y-154199260D01*
X84771898Y-154124789D01*
X84771897Y-154124788D01*
X84734916Y-154103437D01*
X84686701Y-154052871D01*
X84673477Y-153984264D01*
X84699445Y-153919399D01*
X84709228Y-153908376D01*
X85216416Y-153401188D01*
X85216416Y-153401187D01*
X85216415Y-153401186D01*
X85181438Y-153375774D01*
X85006130Y-153286451D01*
X85006129Y-153286450D01*
X85006126Y-153286449D01*
X84818996Y-153225646D01*
X84624673Y-153194868D01*
X84624672Y-153194868D01*
X84427910Y-153194868D01*
X84427909Y-153194868D01*
X84343924Y-153208169D01*
X84233590Y-153225645D01*
X84233588Y-153225645D01*
X84233585Y-153225646D01*
X84046455Y-153286449D01*
X84046452Y-153286450D01*
X84046450Y-153286451D01*
X83944728Y-153338280D01*
X83937536Y-153341946D01*
X83911276Y-153355326D01*
X83842607Y-153368222D01*
X83777866Y-153341946D01*
X83738527Y-153287437D01*
X83738353Y-153286962D01*
X83584337Y-152865888D01*
X83576791Y-152823293D01*
X83576791Y-151648248D01*
X83574408Y-151640392D01*
X83561919Y-151577606D01*
X83547950Y-151507379D01*
X83492062Y-151372456D01*
X83491637Y-151371188D01*
X83458477Y-151321561D01*
X83453424Y-151313999D01*
X83452007Y-151311560D01*
X83450388Y-151309314D01*
X83447887Y-151305712D01*
X83409245Y-151247877D01*
X83409243Y-151247875D01*
X82337901Y-150176532D01*
X82253515Y-150092146D01*
X101970000Y-150092146D01*
X101970000Y-150092155D01*
X101970000Y-150790000D01*
X102809513Y-150790000D01*
X102876552Y-150809685D01*
X102922307Y-150862489D01*
X102932251Y-150931647D01*
X102929288Y-150946093D01*
X102920000Y-150980756D01*
X102920000Y-151099243D01*
X102929288Y-151133907D01*
X102927625Y-151203757D01*
X102888462Y-151261619D01*
X102824233Y-151289123D01*
X102809513Y-151290000D01*
X101970000Y-151290000D01*
X101970000Y-151987852D01*
X101976400Y-152047370D01*
X101976402Y-152047377D01*
X102026646Y-152182088D01*
X102026648Y-152182091D01*
X102112807Y-152297185D01*
X102112813Y-152297191D01*
X102141747Y-152318850D01*
X102227906Y-152383350D01*
X102227913Y-152383354D01*
X102362620Y-152433596D01*
X102362627Y-152433598D01*
X102369468Y-152434333D01*
X102422138Y-152439998D01*
X102422155Y-152439999D01*
X102422172Y-152440000D01*
X103120000Y-152440000D01*
X103120000Y-151600486D01*
X103139685Y-151533447D01*
X103192489Y-151487692D01*
X103261647Y-151477748D01*
X103276086Y-151480710D01*
X103310756Y-151490000D01*
X103429242Y-151490000D01*
X103429244Y-151490000D01*
X103463906Y-151480712D01*
X103533755Y-151482373D01*
X103591618Y-151521535D01*
X103619123Y-151585763D01*
X103620000Y-151600486D01*
X103620000Y-152440000D01*
X104317828Y-152440000D01*
X104317836Y-152440000D01*
X104317847Y-152439999D01*
X104353560Y-152436158D01*
X104377372Y-152433598D01*
X104377379Y-152433596D01*
X104512086Y-152383354D01*
X104512093Y-152383350D01*
X104627187Y-152297190D01*
X104627190Y-152297187D01*
X104713350Y-152182093D01*
X104713354Y-152182086D01*
X104736983Y-152118733D01*
X104753894Y-152087762D01*
X104762213Y-152076649D01*
X104818143Y-152034778D01*
X104887833Y-152029791D01*
X104892316Y-152030766D01*
X104953641Y-152064248D01*
X104953646Y-152064253D01*
X104997628Y-152108236D01*
X104997636Y-152108243D01*
X104997660Y-152108261D01*
X105146969Y-152216740D01*
X105146975Y-152216743D01*
X105153192Y-152221260D01*
X105175978Y-152237815D01*
X105292501Y-152297187D01*
X105372393Y-152337895D01*
X105372396Y-152337896D01*
X105372405Y-152337899D01*
X105372419Y-152337904D01*
X105477221Y-152371955D01*
X105582049Y-152406015D01*
X105799778Y-152440500D01*
X105799779Y-152440500D01*
X106020221Y-152440500D01*
X106020222Y-152440500D01*
X106237951Y-152406015D01*
X106447606Y-152337895D01*
X106644022Y-152237815D01*
X106822365Y-152108242D01*
X106978242Y-151952365D01*
X107107815Y-151774022D01*
X107207895Y-151577606D01*
X107207896Y-151577605D01*
X107207896Y-151577603D01*
X107237109Y-151487692D01*
X107276015Y-151367951D01*
X107310500Y-151150222D01*
X107310500Y-150929778D01*
X107276015Y-150712049D01*
X107241955Y-150607221D01*
X107240340Y-150602251D01*
X107207904Y-150502419D01*
X107207897Y-150502400D01*
X107207897Y-150502399D01*
X107207896Y-150502398D01*
X107207896Y-150502396D01*
X107207895Y-150502393D01*
X107107815Y-150305978D01*
X107036379Y-150207655D01*
X107034407Y-150204939D01*
X107034407Y-150204938D01*
X107013769Y-150176532D01*
X106983973Y-150135521D01*
X125929500Y-150135521D01*
X125929500Y-150444477D01*
X125964083Y-150751422D01*
X125964089Y-150751457D01*
X125990303Y-150866306D01*
X126032831Y-151052635D01*
X126032832Y-151052638D01*
X126032835Y-151052650D01*
X126032842Y-151052671D01*
X126134859Y-151344216D01*
X126134865Y-151344231D01*
X126134866Y-151344233D01*
X126268899Y-151622556D01*
X126268903Y-151622562D01*
X126319750Y-151703485D01*
X126433265Y-151884143D01*
X126563436Y-152047372D01*
X126611993Y-152108261D01*
X126625880Y-152125674D01*
X126844326Y-152344120D01*
X127085857Y-152536735D01*
X127347435Y-152701095D01*
X127625771Y-152835135D01*
X127625775Y-152835136D01*
X127625877Y-152835178D01*
X127626639Y-152835438D01*
X127713658Y-152865888D01*
X127917327Y-152937156D01*
X127917348Y-152937163D01*
X127917352Y-152937164D01*
X127917364Y-152937168D01*
X128142889Y-152988642D01*
X128217381Y-153005645D01*
X128217380Y-153005645D01*
X128218539Y-153005909D01*
X128218548Y-153005911D01*
X128218554Y-153005911D01*
X128218562Y-153005913D01*
X128423206Y-153028970D01*
X128522520Y-153040159D01*
X128524994Y-153040500D01*
X128834468Y-153040500D01*
X128844262Y-153040500D01*
X128851860Y-153038539D01*
X128991356Y-153022822D01*
X129140751Y-153005990D01*
X129141379Y-153005923D01*
X129141447Y-153005911D01*
X129141452Y-153005911D01*
X129442636Y-152937168D01*
X129734229Y-152835135D01*
X130012565Y-152701095D01*
X130274143Y-152536735D01*
X130515674Y-152344120D01*
X130734120Y-152125674D01*
X130926735Y-151884143D01*
X131091095Y-151622565D01*
X131225135Y-151344229D01*
X131327168Y-151052636D01*
X131395911Y-150751452D01*
X131395915Y-150751422D01*
X131417656Y-150558462D01*
X131430500Y-150444465D01*
X131430500Y-150135535D01*
X131412747Y-149977968D01*
X131395913Y-149828562D01*
X131395910Y-149828544D01*
X131393285Y-149817045D01*
X131327168Y-149527364D01*
X131327162Y-149527348D01*
X131320080Y-149507110D01*
X131270253Y-149364712D01*
X131225409Y-149236556D01*
X131225176Y-149235873D01*
X131225133Y-149235767D01*
X131091096Y-148957437D01*
X131077506Y-148935808D01*
X130926735Y-148695857D01*
X130734120Y-148454326D01*
X130515674Y-148235880D01*
X130515673Y-148235879D01*
X130515672Y-148235878D01*
X130355916Y-148108477D01*
X130274143Y-148043265D01*
X130013977Y-147879792D01*
X130012918Y-147879106D01*
X130012560Y-147878902D01*
X129984917Y-147865589D01*
X129734236Y-147744868D01*
X129734227Y-147744864D01*
X129734216Y-147744859D01*
X129442671Y-147642842D01*
X129442650Y-147642835D01*
X129442638Y-147642832D01*
X129442635Y-147642831D01*
X129319601Y-147614749D01*
X129141457Y-147574089D01*
X129141422Y-147574083D01*
X128834477Y-147539500D01*
X128834471Y-147539500D01*
X128834465Y-147539500D01*
X128525535Y-147539500D01*
X128525528Y-147539500D01*
X128525521Y-147539500D01*
X128218576Y-147574083D01*
X128218541Y-147574089D01*
X127917360Y-147642832D01*
X127917348Y-147642835D01*
X127917327Y-147642842D01*
X127625782Y-147744859D01*
X127625767Y-147744865D01*
X127625765Y-147744866D01*
X127347442Y-147878899D01*
X127085859Y-148043263D01*
X126844326Y-148235878D01*
X126625878Y-148454326D01*
X126433263Y-148695859D01*
X126268899Y-148957442D01*
X126134866Y-149235765D01*
X126134865Y-149235767D01*
X126134859Y-149235782D01*
X126032842Y-149527327D01*
X126032835Y-149527348D01*
X126032832Y-149527360D01*
X125964089Y-149828541D01*
X125964083Y-149828576D01*
X125929500Y-150135521D01*
X106983973Y-150135521D01*
X106978251Y-150127646D01*
X106978246Y-150127639D01*
X106978244Y-150127637D01*
X106978235Y-150127627D01*
X106822369Y-149971761D01*
X106822364Y-149971757D01*
X106822363Y-149971756D01*
X106822358Y-149971752D01*
X106808940Y-149962003D01*
X106654630Y-149849891D01*
X106654618Y-149849883D01*
X106644025Y-149842187D01*
X106644024Y-149842186D01*
X106644022Y-149842185D01*
X106637909Y-149839070D01*
X106637898Y-149839063D01*
X106581098Y-149810123D01*
X106581096Y-149810122D01*
X106447606Y-149742104D01*
X106447602Y-149742102D01*
X106447579Y-149742094D01*
X106237954Y-149673985D01*
X106237955Y-149673985D01*
X106083359Y-149649500D01*
X106063793Y-149646401D01*
X106020222Y-149639500D01*
X106020221Y-149639500D01*
X105799779Y-149639500D01*
X105799778Y-149639500D01*
X105756207Y-149646401D01*
X105736641Y-149649500D01*
X105582046Y-149673985D01*
X105582039Y-149673986D01*
X105372419Y-149742094D01*
X105372396Y-149742102D01*
X105372392Y-149742104D01*
X105175972Y-149842187D01*
X104997658Y-149971739D01*
X104997629Y-149971761D01*
X104997627Y-149971763D01*
X104959683Y-150009708D01*
X104931430Y-150030859D01*
X104919248Y-150037511D01*
X104850975Y-150052363D01*
X104785511Y-150027947D01*
X104785507Y-150027944D01*
X104781835Y-150025195D01*
X104739967Y-149969265D01*
X104713354Y-149897913D01*
X104713350Y-149897906D01*
X104627190Y-149782812D01*
X104627187Y-149782809D01*
X104627185Y-149782807D01*
X104563207Y-149734913D01*
X104512093Y-149696649D01*
X104512088Y-149696646D01*
X104512089Y-149696646D01*
X104377377Y-149646402D01*
X104377370Y-149646400D01*
X104317852Y-149640000D01*
X104317844Y-149640000D01*
X103620000Y-149640000D01*
X103620000Y-150479513D01*
X103600315Y-150546552D01*
X103547511Y-150592307D01*
X103478353Y-150602251D01*
X103463907Y-150599288D01*
X103429244Y-150590000D01*
X103429243Y-150590000D01*
X103310756Y-150590000D01*
X103276093Y-150599288D01*
X103206243Y-150597625D01*
X103148381Y-150558462D01*
X103120877Y-150494233D01*
X103120000Y-150479513D01*
X103120000Y-149640000D01*
X102422155Y-149640000D01*
X102422146Y-149640000D01*
X102362628Y-149646400D01*
X102362621Y-149646402D01*
X102227910Y-149696646D01*
X102227907Y-149696648D01*
X102112813Y-149782807D01*
X102112807Y-149782813D01*
X102026648Y-149897907D01*
X102026646Y-149897910D01*
X101976402Y-150032621D01*
X101976400Y-150032628D01*
X101970000Y-150092146D01*
X82253515Y-150092146D01*
X81978421Y-149817052D01*
X81978414Y-149817046D01*
X81968051Y-149810122D01*
X81855493Y-149734914D01*
X81718932Y-149678348D01*
X81718921Y-149678345D01*
X81718917Y-149678343D01*
X81718907Y-149678340D01*
X81718904Y-149678339D01*
X81718900Y-149678338D01*
X81573922Y-149649500D01*
X81573920Y-149649500D01*
X81573918Y-149649500D01*
X80480060Y-149649500D01*
X80445124Y-149644477D01*
X80419882Y-149637065D01*
X80367137Y-149605769D01*
X79520309Y-148758941D01*
X79486824Y-148697618D01*
X79491808Y-148627926D01*
X79492650Y-148625735D01*
X79692554Y-148119271D01*
X79697415Y-148108491D01*
X79698838Y-148105700D01*
X79701974Y-148096045D01*
X79704545Y-148088889D01*
X79721690Y-148045455D01*
X79728811Y-148026286D01*
X79729122Y-148025394D01*
X79748389Y-147953481D01*
X79748403Y-147953152D01*
X79757231Y-147925986D01*
X79764688Y-147878903D01*
X79786791Y-147739354D01*
X79786791Y-147550381D01*
X79786790Y-147550375D01*
X82465791Y-147550375D01*
X82465791Y-147739359D01*
X82466664Y-147744868D01*
X82495350Y-147925986D01*
X82553745Y-148105704D01*
X82592138Y-148181053D01*
X82620072Y-148235878D01*
X82639529Y-148274064D01*
X82639531Y-148274067D01*
X82750601Y-148426941D01*
X82884218Y-148560558D01*
X82970520Y-148623261D01*
X83037087Y-148671625D01*
X83037088Y-148671625D01*
X83037092Y-148671628D01*
X83116638Y-148712158D01*
X83199013Y-148754131D01*
X83200611Y-148755067D01*
X83204328Y-148756867D01*
X83206312Y-148757853D01*
X83210066Y-148758911D01*
X83301788Y-148788714D01*
X83385172Y-148815808D01*
X83571805Y-148845368D01*
X83571810Y-148845368D01*
X83760776Y-148845368D01*
X83760777Y-148845368D01*
X83947409Y-148815808D01*
X84127123Y-148757415D01*
X84295490Y-148671628D01*
X84448364Y-148560558D01*
X84581981Y-148426941D01*
X84693051Y-148274067D01*
X84778838Y-148105700D01*
X84837231Y-147925986D01*
X84844688Y-147878903D01*
X84866791Y-147739354D01*
X84866791Y-147550381D01*
X84837231Y-147363749D01*
X84778836Y-147184031D01*
X84693050Y-147015668D01*
X84581981Y-146862795D01*
X84448364Y-146729178D01*
X84295490Y-146618108D01*
X84127127Y-146532322D01*
X83947409Y-146473927D01*
X83947403Y-146473926D01*
X83760782Y-146444368D01*
X83760777Y-146444368D01*
X83760772Y-146444368D01*
X83571810Y-146444368D01*
X83571805Y-146444368D01*
X83571800Y-146444368D01*
X83385177Y-146473926D01*
X83385175Y-146473926D01*
X83385172Y-146473927D01*
X83205454Y-146532322D01*
X83121272Y-146575215D01*
X83037090Y-146618108D01*
X82949870Y-146681478D01*
X82949869Y-146681478D01*
X82896085Y-146720554D01*
X82888710Y-146724684D01*
X82746107Y-146867287D01*
X82741977Y-146874662D01*
X82702901Y-146928446D01*
X82702901Y-146928447D01*
X82639531Y-147015667D01*
X82596638Y-147099849D01*
X82553745Y-147184031D01*
X82495350Y-147363749D01*
X82495349Y-147363752D01*
X82495349Y-147363754D01*
X82465791Y-147550375D01*
X79786790Y-147550375D01*
X79757231Y-147363749D01*
X79698836Y-147184031D01*
X79613050Y-147015668D01*
X79501981Y-146862795D01*
X79368364Y-146729178D01*
X79215490Y-146618108D01*
X79047127Y-146532322D01*
X78867409Y-146473927D01*
X78867403Y-146473926D01*
X78680782Y-146444368D01*
X78680777Y-146444368D01*
X78680772Y-146444368D01*
X78491810Y-146444368D01*
X78491805Y-146444368D01*
X78491800Y-146444368D01*
X78305177Y-146473926D01*
X78305175Y-146473926D01*
X78305172Y-146473927D01*
X78125454Y-146532322D01*
X78041272Y-146575215D01*
X77957090Y-146618108D01*
X77869870Y-146681478D01*
X77869869Y-146681478D01*
X77816085Y-146720554D01*
X77808710Y-146724684D01*
X77666107Y-146867287D01*
X77661977Y-146874662D01*
X77622901Y-146928446D01*
X77622901Y-146928447D01*
X77559531Y-147015667D01*
X77516638Y-147099849D01*
X77473745Y-147184031D01*
X77415350Y-147363749D01*
X77415349Y-147363752D01*
X77415349Y-147363754D01*
X77385791Y-147550375D01*
X55250999Y-147550375D01*
X55154477Y-147539500D01*
X55154471Y-147539500D01*
X55154465Y-147539500D01*
X54845535Y-147539500D01*
X54845528Y-147539500D01*
X54845521Y-147539500D01*
X54538576Y-147574083D01*
X54538541Y-147574089D01*
X54237360Y-147642832D01*
X54237348Y-147642835D01*
X54237327Y-147642842D01*
X53945782Y-147744859D01*
X53945767Y-147744865D01*
X53945765Y-147744866D01*
X53667442Y-147878899D01*
X53405859Y-148043263D01*
X53164326Y-148235878D01*
X52945878Y-148454326D01*
X52753263Y-148695859D01*
X52588899Y-148957442D01*
X52454866Y-149235765D01*
X52454865Y-149235767D01*
X52454859Y-149235782D01*
X52352842Y-149527327D01*
X52352835Y-149527348D01*
X52352832Y-149527360D01*
X52284089Y-149828541D01*
X52284083Y-149828576D01*
X52249500Y-150135521D01*
X47600500Y-150135521D01*
X47600500Y-142797676D01*
X64800000Y-142797676D01*
X64800000Y-143002322D01*
X64824933Y-143159739D01*
X64832009Y-143204417D01*
X64895244Y-143399031D01*
X64941659Y-143490124D01*
X64988144Y-143581357D01*
X64988147Y-143581360D01*
X65020517Y-143625914D01*
X65020521Y-143625919D01*
X65020523Y-143625921D01*
X65020524Y-143625922D01*
X65563503Y-143082942D01*
X65624824Y-143049459D01*
X65694515Y-143054443D01*
X65750449Y-143096314D01*
X65758567Y-143108622D01*
X65779920Y-143145606D01*
X65854394Y-143220080D01*
X65854395Y-143220081D01*
X65854397Y-143220082D01*
X65891373Y-143241430D01*
X65939588Y-143291996D01*
X65952812Y-143360603D01*
X65926844Y-143425468D01*
X65917054Y-143436498D01*
X65374075Y-143979473D01*
X65374076Y-143979473D01*
X65374076Y-143979474D01*
X65418650Y-144011859D01*
X65504786Y-144055747D01*
X65600963Y-144104753D01*
X65600965Y-144104753D01*
X65600968Y-144104755D01*
X65795582Y-144167990D01*
X65997683Y-144200000D01*
X66202316Y-144200000D01*
X66202317Y-144200000D01*
X66404417Y-144167990D01*
X66599031Y-144104755D01*
X66604572Y-144101932D01*
X66781347Y-144011860D01*
X66781346Y-144011860D01*
X66781349Y-144011859D01*
X66825921Y-143979474D01*
X66282945Y-143436498D01*
X66249460Y-143375175D01*
X66254444Y-143305483D01*
X66296316Y-143249550D01*
X66308618Y-143241434D01*
X66345606Y-143220080D01*
X66420080Y-143145606D01*
X66441430Y-143108625D01*
X66491995Y-143060411D01*
X66560602Y-143047187D01*
X66625467Y-143073154D01*
X66636498Y-143082945D01*
X67179473Y-143625920D01*
X67179474Y-143625921D01*
X67211859Y-143581349D01*
X67304755Y-143399031D01*
X67367990Y-143204417D01*
X67400000Y-143002317D01*
X67400000Y-142797682D01*
X67399994Y-142797642D01*
X69799500Y-142797642D01*
X69799500Y-143002356D01*
X69831503Y-143204417D01*
X69831522Y-143204534D01*
X69886967Y-143375175D01*
X69894782Y-143399225D01*
X69958691Y-143524653D01*
X69987542Y-143581275D01*
X69987715Y-143581613D01*
X70108026Y-143747211D01*
X70108028Y-143747213D01*
X70252786Y-143891971D01*
X70373226Y-143979474D01*
X70418390Y-144012287D01*
X70509372Y-144058645D01*
X70534607Y-144071503D01*
X70594327Y-144101932D01*
X70594326Y-144101932D01*
X70598600Y-144104109D01*
X70599867Y-144104755D01*
X70601650Y-144105663D01*
X70605403Y-144106722D01*
X70645488Y-144119746D01*
X70705135Y-144139126D01*
X70705136Y-144139127D01*
X70741465Y-144150931D01*
X70795465Y-144168477D01*
X70896557Y-144184488D01*
X70997648Y-144200500D01*
X70997649Y-144200500D01*
X71202351Y-144200500D01*
X71202352Y-144200500D01*
X71404534Y-144168477D01*
X71599219Y-144105220D01*
X71781610Y-144012287D01*
X71874590Y-143944732D01*
X71947213Y-143891971D01*
X71947213Y-143891969D01*
X71947272Y-143891927D01*
X71948031Y-143891153D01*
X72091966Y-143747219D01*
X72091968Y-143747215D01*
X72091971Y-143747213D01*
X72144730Y-143674593D01*
X72144732Y-143674591D01*
X72180092Y-143625922D01*
X72212287Y-143581610D01*
X72305220Y-143399219D01*
X72368477Y-143204534D01*
X72400500Y-143002352D01*
X72400500Y-142797648D01*
X72400243Y-142796028D01*
X77013209Y-142796028D01*
X77013209Y-143032234D01*
X77046343Y-143241430D01*
X77050155Y-143265500D01*
X77123142Y-143490128D01*
X77230366Y-143700565D01*
X77369192Y-143891642D01*
X77536199Y-144058649D01*
X77727276Y-144197475D01*
X77826700Y-144248134D01*
X77937712Y-144304698D01*
X77938585Y-144305143D01*
X77942339Y-144306202D01*
X77990044Y-144321701D01*
X78058119Y-144343820D01*
X78058120Y-144343821D01*
X78058121Y-144343821D01*
X78162340Y-144377685D01*
X78395612Y-144414632D01*
X78395617Y-144414632D01*
X78631805Y-144414632D01*
X78631806Y-144414632D01*
X78865077Y-144377685D01*
X78866579Y-144377197D01*
X79089701Y-144304700D01*
X79300142Y-144197475D01*
X79491219Y-144058649D01*
X79658226Y-143891642D01*
X79672911Y-143871428D01*
X79697507Y-143846118D01*
X79708501Y-143837641D01*
X79773608Y-143812293D01*
X79842081Y-143826166D01*
X79848260Y-143829426D01*
X79890716Y-143866213D01*
X79909187Y-143891636D01*
X79909191Y-143891641D01*
X79909192Y-143891642D01*
X80076199Y-144058649D01*
X80267276Y-144197475D01*
X80366700Y-144248134D01*
X80477712Y-144304698D01*
X80478585Y-144305143D01*
X80482339Y-144306202D01*
X80530044Y-144321701D01*
X80598119Y-144343820D01*
X80598120Y-144343821D01*
X80598121Y-144343821D01*
X80702340Y-144377685D01*
X80935612Y-144414632D01*
X80935617Y-144414632D01*
X81171805Y-144414632D01*
X81171806Y-144414632D01*
X81405077Y-144377685D01*
X81406579Y-144377197D01*
X81629701Y-144304700D01*
X81840142Y-144197475D01*
X82031219Y-144058649D01*
X82198226Y-143891642D01*
X82212911Y-143871428D01*
X82237507Y-143846118D01*
X82248501Y-143837641D01*
X82313608Y-143812293D01*
X82382081Y-143826166D01*
X82388260Y-143829426D01*
X82430716Y-143866213D01*
X82449187Y-143891636D01*
X82449191Y-143891641D01*
X82449192Y-143891642D01*
X82616199Y-144058649D01*
X82807276Y-144197475D01*
X82906700Y-144248134D01*
X83017712Y-144304698D01*
X83018585Y-144305143D01*
X83022339Y-144306202D01*
X83070044Y-144321701D01*
X83138119Y-144343820D01*
X83138120Y-144343821D01*
X83138121Y-144343821D01*
X83242340Y-144377685D01*
X83475612Y-144414632D01*
X83475617Y-144414632D01*
X83711805Y-144414632D01*
X83711806Y-144414632D01*
X83945077Y-144377685D01*
X83946579Y-144377197D01*
X84169701Y-144304700D01*
X84380142Y-144197475D01*
X84571219Y-144058649D01*
X84738226Y-143891642D01*
X84773500Y-143843091D01*
X84806604Y-143811774D01*
X84807636Y-143811107D01*
X84813859Y-143807274D01*
X84815282Y-143806176D01*
X84819421Y-143803507D01*
X84828474Y-143800832D01*
X84868544Y-143785037D01*
X84877452Y-143783724D01*
X84905256Y-143782781D01*
X84911049Y-143783237D01*
X85597211Y-143097074D01*
X85658532Y-143063591D01*
X85728223Y-143068575D01*
X85784157Y-143110446D01*
X85792276Y-143122756D01*
X85813624Y-143159731D01*
X85813628Y-143159736D01*
X85813629Y-143159738D01*
X85888103Y-143234212D01*
X85888104Y-143234213D01*
X85888106Y-143234214D01*
X85925082Y-143255562D01*
X85973297Y-143306128D01*
X85986521Y-143374735D01*
X85960553Y-143439600D01*
X85950763Y-143450630D01*
X85264601Y-144136789D01*
X85264602Y-144136789D01*
X85264602Y-144136790D01*
X85347537Y-144197046D01*
X85557906Y-144304234D01*
X85689491Y-144346989D01*
X85718961Y-144367139D01*
X85782458Y-144377196D01*
X85782461Y-144377197D01*
X85782460Y-144377197D01*
X86015657Y-144414132D01*
X86251760Y-144414132D01*
X86251761Y-144414132D01*
X86484956Y-144377197D01*
X86709511Y-144304234D01*
X86919872Y-144197050D01*
X86919878Y-144197046D01*
X86970218Y-144160472D01*
X86996956Y-144150931D01*
X87002814Y-144136789D01*
X86316653Y-143450630D01*
X86283168Y-143389307D01*
X86288152Y-143319616D01*
X86330023Y-143263682D01*
X86342323Y-143255569D01*
X86379315Y-143234212D01*
X86453789Y-143159738D01*
X86475139Y-143122757D01*
X86525703Y-143074543D01*
X86594310Y-143061318D01*
X86659175Y-143087285D01*
X86670207Y-143097076D01*
X87356364Y-143783235D01*
X87356364Y-143783234D01*
X87356366Y-143783236D01*
X87358344Y-143783080D01*
X87393552Y-143785345D01*
X87412825Y-143789394D01*
X87468871Y-143817325D01*
X87474190Y-143821967D01*
X87475614Y-143823210D01*
X87494389Y-143843741D01*
X87529191Y-143891641D01*
X87529192Y-143891642D01*
X87696199Y-144058649D01*
X87887276Y-144197475D01*
X87986700Y-144248134D01*
X88097712Y-144304698D01*
X88098585Y-144305143D01*
X88102339Y-144306202D01*
X88150044Y-144321701D01*
X88218119Y-144343820D01*
X88218120Y-144343821D01*
X88218121Y-144343821D01*
X88322340Y-144377685D01*
X88555612Y-144414632D01*
X88555617Y-144414632D01*
X88791805Y-144414632D01*
X88791806Y-144414632D01*
X89025077Y-144377685D01*
X89026579Y-144377197D01*
X89249701Y-144304700D01*
X89460142Y-144197475D01*
X89651219Y-144058649D01*
X89818226Y-143891642D01*
X89832911Y-143871428D01*
X89857507Y-143846118D01*
X89868501Y-143837641D01*
X89933608Y-143812293D01*
X90002081Y-143826166D01*
X90008260Y-143829426D01*
X90050716Y-143866213D01*
X90069187Y-143891636D01*
X90069191Y-143891641D01*
X90069192Y-143891642D01*
X90236199Y-144058649D01*
X90427276Y-144197475D01*
X90526700Y-144248134D01*
X90637712Y-144304698D01*
X90638585Y-144305143D01*
X90642339Y-144306202D01*
X90690044Y-144321701D01*
X90758119Y-144343820D01*
X90758120Y-144343821D01*
X90758121Y-144343821D01*
X90862340Y-144377685D01*
X91095612Y-144414632D01*
X91095617Y-144414632D01*
X91331805Y-144414632D01*
X91331806Y-144414632D01*
X91565077Y-144377685D01*
X91566579Y-144377197D01*
X91789701Y-144304700D01*
X92000142Y-144197475D01*
X92191219Y-144058649D01*
X92358226Y-143891642D01*
X92497052Y-143700565D01*
X92604277Y-143490124D01*
X92677262Y-143265500D01*
X92679154Y-143253553D01*
X92714209Y-143032229D01*
X92714209Y-142796034D01*
X92677262Y-142562763D01*
X92604275Y-142338135D01*
X92523955Y-142180500D01*
X92497052Y-142127699D01*
X92358226Y-141936622D01*
X92191219Y-141769615D01*
X92000142Y-141630789D01*
X91789705Y-141523565D01*
X91565077Y-141450578D01*
X91565071Y-141450577D01*
X91331811Y-141413632D01*
X91331806Y-141413632D01*
X91331801Y-141413632D01*
X91095617Y-141413632D01*
X91095612Y-141413632D01*
X91095607Y-141413632D01*
X90862345Y-141450577D01*
X90862343Y-141450577D01*
X90862340Y-141450578D01*
X90637712Y-141523565D01*
X90441919Y-141623327D01*
X90427271Y-141630791D01*
X90318258Y-141709993D01*
X90318259Y-141709994D01*
X90248070Y-141760990D01*
X90240689Y-141765123D01*
X90069196Y-141936615D01*
X90069190Y-141936622D01*
X90054505Y-141956835D01*
X90029905Y-141982147D01*
X90018915Y-141990621D01*
X89953805Y-142015968D01*
X89885344Y-142002099D01*
X89879162Y-141998838D01*
X89836696Y-141962044D01*
X89818231Y-141936628D01*
X89818227Y-141936623D01*
X89651221Y-141769617D01*
X89651219Y-141769615D01*
X89460142Y-141630789D01*
X89249705Y-141523565D01*
X89025077Y-141450578D01*
X89025071Y-141450577D01*
X88791811Y-141413632D01*
X88791806Y-141413632D01*
X88791801Y-141413632D01*
X88555617Y-141413632D01*
X88555612Y-141413632D01*
X88555607Y-141413632D01*
X88322345Y-141450577D01*
X88322343Y-141450577D01*
X88322340Y-141450578D01*
X88097712Y-141523565D01*
X87901919Y-141623327D01*
X87887271Y-141630791D01*
X87778258Y-141709993D01*
X87778259Y-141709994D01*
X87708070Y-141760990D01*
X87700689Y-141765123D01*
X87529190Y-141936622D01*
X87496639Y-141981425D01*
X87472043Y-142006734D01*
X87456454Y-142018755D01*
X87398813Y-142043233D01*
X87392611Y-142044148D01*
X87389965Y-142044538D01*
X87362152Y-142045480D01*
X87356369Y-142045024D01*
X87356366Y-142045025D01*
X86670206Y-142731185D01*
X86608883Y-142764670D01*
X86539191Y-142759686D01*
X86483258Y-142717814D01*
X86475139Y-142705506D01*
X86453789Y-142668526D01*
X86379315Y-142594052D01*
X86379314Y-142594051D01*
X86379311Y-142594049D01*
X86342335Y-142572701D01*
X86294119Y-142522134D01*
X86280897Y-142453527D01*
X86306865Y-142388662D01*
X86316648Y-142377638D01*
X87002814Y-141691472D01*
X87002813Y-141691470D01*
X86919883Y-141631219D01*
X86916089Y-141629286D01*
X86709515Y-141524030D01*
X86640108Y-141501478D01*
X86577924Y-141481273D01*
X86548455Y-141461123D01*
X86251766Y-141414132D01*
X86251761Y-141414132D01*
X86015657Y-141414132D01*
X86015652Y-141414132D01*
X85782464Y-141451065D01*
X85557903Y-141524030D01*
X85347534Y-141631218D01*
X85264603Y-141691471D01*
X85264602Y-141691472D01*
X85950764Y-142377633D01*
X85984249Y-142438956D01*
X85979265Y-142508647D01*
X85937393Y-142564581D01*
X85925083Y-142572701D01*
X85888106Y-142594049D01*
X85888101Y-142594053D01*
X85813630Y-142668524D01*
X85813624Y-142668532D01*
X85792277Y-142705506D01*
X85741710Y-142753721D01*
X85673102Y-142766943D01*
X85608238Y-142740975D01*
X85597210Y-142731186D01*
X84911049Y-142045025D01*
X84911047Y-142045024D01*
X84909077Y-142045180D01*
X84873856Y-142042915D01*
X84851679Y-142038256D01*
X84790121Y-142005212D01*
X84776857Y-141989794D01*
X84738226Y-141936622D01*
X84571219Y-141769615D01*
X84380142Y-141630789D01*
X84169705Y-141523565D01*
X83945077Y-141450578D01*
X83945071Y-141450577D01*
X83711811Y-141413632D01*
X83711806Y-141413632D01*
X83711801Y-141413632D01*
X83475617Y-141413632D01*
X83475612Y-141413632D01*
X83475607Y-141413632D01*
X83242345Y-141450577D01*
X83242343Y-141450577D01*
X83242340Y-141450578D01*
X83017712Y-141523565D01*
X82821919Y-141623327D01*
X82807271Y-141630791D01*
X82698258Y-141709993D01*
X82698259Y-141709994D01*
X82628070Y-141760990D01*
X82620689Y-141765123D01*
X82449196Y-141936615D01*
X82449190Y-141936622D01*
X82434505Y-141956835D01*
X82409905Y-141982147D01*
X82398915Y-141990621D01*
X82333805Y-142015968D01*
X82265344Y-142002099D01*
X82259162Y-141998838D01*
X82216696Y-141962044D01*
X82198231Y-141936628D01*
X82198227Y-141936623D01*
X82031221Y-141769617D01*
X82031219Y-141769615D01*
X81840142Y-141630789D01*
X81629705Y-141523565D01*
X81405077Y-141450578D01*
X81405071Y-141450577D01*
X81171811Y-141413632D01*
X81171806Y-141413632D01*
X81171801Y-141413632D01*
X80935617Y-141413632D01*
X80935612Y-141413632D01*
X80935607Y-141413632D01*
X80702345Y-141450577D01*
X80702343Y-141450577D01*
X80702340Y-141450578D01*
X80477712Y-141523565D01*
X80281919Y-141623327D01*
X80267271Y-141630791D01*
X80158258Y-141709993D01*
X80158259Y-141709994D01*
X80088070Y-141760990D01*
X80080689Y-141765123D01*
X79909196Y-141936615D01*
X79909190Y-141936622D01*
X79894505Y-141956835D01*
X79869905Y-141982147D01*
X79858915Y-141990621D01*
X79793805Y-142015968D01*
X79725344Y-142002099D01*
X79719162Y-141998838D01*
X79676696Y-141962044D01*
X79658231Y-141936628D01*
X79658227Y-141936623D01*
X79491221Y-141769617D01*
X79491219Y-141769615D01*
X79300142Y-141630789D01*
X79089705Y-141523565D01*
X78865077Y-141450578D01*
X78865071Y-141450577D01*
X78631811Y-141413632D01*
X78631806Y-141413632D01*
X78631801Y-141413632D01*
X78395617Y-141413632D01*
X78395612Y-141413632D01*
X78395607Y-141413632D01*
X78162345Y-141450577D01*
X78162343Y-141450577D01*
X78162340Y-141450578D01*
X77937712Y-141523565D01*
X77741919Y-141623327D01*
X77727271Y-141630791D01*
X77618258Y-141709993D01*
X77618259Y-141709994D01*
X77548070Y-141760990D01*
X77540689Y-141765123D01*
X77364699Y-141941113D01*
X77360567Y-141948492D01*
X77326161Y-141995848D01*
X77243709Y-142109333D01*
X77230366Y-142127698D01*
X77230364Y-142127700D01*
X77230362Y-142127705D01*
X77203462Y-142180499D01*
X77123142Y-142338135D01*
X77050155Y-142562763D01*
X77050154Y-142562766D01*
X77050154Y-142562768D01*
X77013209Y-142796028D01*
X72400243Y-142796028D01*
X72375397Y-142639156D01*
X72368477Y-142595465D01*
X72340268Y-142508647D01*
X72337458Y-142499999D01*
X72322358Y-142453527D01*
X72305220Y-142400781D01*
X72305218Y-142400778D01*
X72305218Y-142400776D01*
X72302975Y-142396375D01*
X72302665Y-142395579D01*
X72301933Y-142394329D01*
X72212419Y-142218650D01*
X72212287Y-142218390D01*
X72180092Y-142174077D01*
X72091971Y-142052786D01*
X71947213Y-141908028D01*
X71947212Y-141908027D01*
X71947211Y-141908026D01*
X71792209Y-141795413D01*
X71792205Y-141795410D01*
X71781613Y-141787715D01*
X71781612Y-141787714D01*
X71781610Y-141787713D01*
X71746092Y-141769615D01*
X71724654Y-141758691D01*
X71724653Y-141758691D01*
X71599223Y-141694781D01*
X71404534Y-141631522D01*
X71404532Y-141631521D01*
X71404530Y-141631521D01*
X71404529Y-141631520D01*
X71229995Y-141603878D01*
X71213409Y-141601251D01*
X71202354Y-141599500D01*
X71202352Y-141599500D01*
X70997648Y-141599500D01*
X70997647Y-141599500D01*
X70973327Y-141603351D01*
X70973326Y-141603350D01*
X70795468Y-141631521D01*
X70600777Y-141694780D01*
X70600764Y-141694786D01*
X70418397Y-141787708D01*
X70418385Y-141787715D01*
X70252787Y-141908027D01*
X70252784Y-141908029D01*
X70108029Y-142052784D01*
X70108027Y-142052787D01*
X69987715Y-142218385D01*
X69987708Y-142218397D01*
X69894786Y-142400764D01*
X69894780Y-142400777D01*
X69831521Y-142595468D01*
X69799500Y-142797642D01*
X67399994Y-142797642D01*
X67367990Y-142595582D01*
X67304755Y-142400968D01*
X67304753Y-142400965D01*
X67304753Y-142400963D01*
X67211859Y-142218650D01*
X67203156Y-142206672D01*
X67193615Y-142179933D01*
X67179473Y-142174075D01*
X66636497Y-142717053D01*
X66575174Y-142750538D01*
X66505483Y-142745554D01*
X66449549Y-142703683D01*
X66441430Y-142691374D01*
X66420080Y-142654394D01*
X66345606Y-142579920D01*
X66308625Y-142558569D01*
X66260410Y-142508003D01*
X66247186Y-142439396D01*
X66273154Y-142374531D01*
X66282936Y-142363509D01*
X66825922Y-141820524D01*
X66825921Y-141820523D01*
X66825920Y-141820522D01*
X66825919Y-141820521D01*
X66825914Y-141820517D01*
X66781360Y-141788147D01*
X66781357Y-141788144D01*
X66716198Y-141754944D01*
X66599031Y-141695244D01*
X66404417Y-141632009D01*
X66404411Y-141632008D01*
X66202322Y-141600000D01*
X66202317Y-141600000D01*
X65997683Y-141600000D01*
X65997678Y-141600000D01*
X65795587Y-141632008D01*
X65795585Y-141632008D01*
X65795582Y-141632009D01*
X65698275Y-141663626D01*
X65600963Y-141695245D01*
X65418640Y-141788145D01*
X65374077Y-141820522D01*
X65374077Y-141820523D01*
X65374077Y-141820524D01*
X65704493Y-142150940D01*
X65917055Y-142363501D01*
X65950540Y-142424824D01*
X65945556Y-142494515D01*
X65903685Y-142550449D01*
X65891374Y-142558569D01*
X65854397Y-142579917D01*
X65854392Y-142579921D01*
X65779921Y-142654392D01*
X65779915Y-142654400D01*
X65758568Y-142691374D01*
X65708001Y-142739589D01*
X65639393Y-142752811D01*
X65574529Y-142726843D01*
X65563501Y-142717054D01*
X65020524Y-142174077D01*
X65020523Y-142174077D01*
X65020522Y-142174077D01*
X64988145Y-142218640D01*
X64895245Y-142400963D01*
X64878166Y-142453527D01*
X64832009Y-142595582D01*
X64832008Y-142595585D01*
X64832008Y-142595587D01*
X64800000Y-142797676D01*
X47600500Y-142797676D01*
X47600500Y-140885507D01*
X112039500Y-140885507D01*
X112039500Y-141074491D01*
X112069058Y-141261112D01*
X112069059Y-141261118D01*
X112127454Y-141440836D01*
X112208298Y-141599500D01*
X112213240Y-141609199D01*
X112286472Y-141709994D01*
X112321853Y-141758692D01*
X112324310Y-141762073D01*
X112457927Y-141895690D01*
X112610801Y-142006760D01*
X112673122Y-142038514D01*
X112779163Y-142092545D01*
X112780036Y-142092990D01*
X112783790Y-142094049D01*
X112802004Y-142099967D01*
X112830828Y-142109332D01*
X112830829Y-142109333D01*
X112873513Y-142123202D01*
X112958881Y-142150940D01*
X113145514Y-142180500D01*
X113145519Y-142180500D01*
X113334485Y-142180500D01*
X113334486Y-142180500D01*
X113521118Y-142150940D01*
X113700832Y-142092547D01*
X113869199Y-142006760D01*
X114022073Y-141895690D01*
X114155690Y-141762073D01*
X114266760Y-141609199D01*
X114352547Y-141440832D01*
X114410940Y-141261118D01*
X114440500Y-141074486D01*
X114440500Y-140885513D01*
X114410940Y-140698881D01*
X114352545Y-140519163D01*
X114266759Y-140350800D01*
X114155690Y-140197927D01*
X114022073Y-140064310D01*
X113869199Y-139953240D01*
X113700836Y-139867454D01*
X113521118Y-139809059D01*
X113521112Y-139809058D01*
X113334491Y-139779500D01*
X113334486Y-139779500D01*
X113334481Y-139779500D01*
X113145519Y-139779500D01*
X113145514Y-139779500D01*
X113145509Y-139779500D01*
X112958886Y-139809058D01*
X112958884Y-139809058D01*
X112958881Y-139809059D01*
X112779163Y-139867454D01*
X112694981Y-139910347D01*
X112610799Y-139953240D01*
X112523579Y-140016610D01*
X112523578Y-140016610D01*
X112469794Y-140055686D01*
X112462419Y-140059816D01*
X112319816Y-140202419D01*
X112315686Y-140209794D01*
X112276610Y-140263578D01*
X112276610Y-140263579D01*
X112213240Y-140350799D01*
X112170347Y-140434981D01*
X112127454Y-140519163D01*
X112069059Y-140698881D01*
X112069058Y-140698884D01*
X112069058Y-140698886D01*
X112039500Y-140885507D01*
X47600500Y-140885507D01*
X47600500Y-133197676D01*
X64900000Y-133197676D01*
X64900000Y-133402322D01*
X64926977Y-133572644D01*
X64932009Y-133604417D01*
X64995244Y-133799031D01*
X65035504Y-133878045D01*
X65088144Y-133981357D01*
X65088147Y-133981360D01*
X65120517Y-134025914D01*
X65120521Y-134025919D01*
X65120523Y-134025921D01*
X65120524Y-134025922D01*
X65663503Y-133482942D01*
X65724824Y-133449459D01*
X65794515Y-133454443D01*
X65850449Y-133496314D01*
X65858567Y-133508622D01*
X65879920Y-133545606D01*
X65954394Y-133620080D01*
X65954395Y-133620081D01*
X65954397Y-133620082D01*
X65991373Y-133641430D01*
X66039588Y-133691996D01*
X66052812Y-133760603D01*
X66026844Y-133825468D01*
X66017054Y-133836498D01*
X65474075Y-134379473D01*
X65474076Y-134379473D01*
X65474076Y-134379474D01*
X65518650Y-134411859D01*
X65604786Y-134455747D01*
X65700963Y-134504753D01*
X65700965Y-134504753D01*
X65700968Y-134504755D01*
X65895582Y-134567990D01*
X66097683Y-134600000D01*
X66302316Y-134600000D01*
X66302317Y-134600000D01*
X66504417Y-134567990D01*
X66699031Y-134504755D01*
X66704572Y-134501932D01*
X66881347Y-134411860D01*
X66881346Y-134411860D01*
X66881349Y-134411859D01*
X66925921Y-134379474D01*
X66382945Y-133836498D01*
X66349460Y-133775175D01*
X66354444Y-133705483D01*
X66396316Y-133649550D01*
X66408618Y-133641434D01*
X66445606Y-133620080D01*
X66520080Y-133545606D01*
X66541430Y-133508625D01*
X66591995Y-133460411D01*
X66660602Y-133447187D01*
X66725467Y-133473154D01*
X66736498Y-133482945D01*
X67279473Y-134025920D01*
X67279474Y-134025921D01*
X67311859Y-133981349D01*
X67404755Y-133799031D01*
X67467990Y-133604417D01*
X67500000Y-133402317D01*
X67500000Y-133197682D01*
X67499994Y-133197642D01*
X69899500Y-133197642D01*
X69899500Y-133402356D01*
X69931503Y-133604417D01*
X69931522Y-133604534D01*
X69944931Y-133645801D01*
X69994780Y-133799221D01*
X69994783Y-133799228D01*
X70035162Y-133878473D01*
X70035162Y-133878475D01*
X70035163Y-133878475D01*
X70087537Y-133981265D01*
X70087715Y-133981614D01*
X70208026Y-134147211D01*
X70208028Y-134147213D01*
X70352786Y-134291971D01*
X70473226Y-134379474D01*
X70518390Y-134412287D01*
X70634607Y-134471503D01*
X70675984Y-134492586D01*
X70694327Y-134501932D01*
X70694326Y-134501932D01*
X70698600Y-134504109D01*
X70699867Y-134504755D01*
X70701650Y-134505663D01*
X70705403Y-134506722D01*
X70721860Y-134512069D01*
X70805135Y-134539126D01*
X70805136Y-134539127D01*
X70817084Y-134543009D01*
X70895465Y-134568477D01*
X70971375Y-134580500D01*
X71097648Y-134600500D01*
X71097649Y-134600500D01*
X71302351Y-134600500D01*
X71302352Y-134600500D01*
X71504534Y-134568477D01*
X71699219Y-134505220D01*
X71881610Y-134412287D01*
X72018019Y-134313181D01*
X72047213Y-134291971D01*
X72047214Y-134291969D01*
X72047273Y-134291926D01*
X72048032Y-134291152D01*
X72191966Y-134147219D01*
X72191968Y-134147215D01*
X72191971Y-134147213D01*
X72256289Y-134058686D01*
X72256645Y-134058196D01*
X72280093Y-134025922D01*
X72312287Y-133981610D01*
X72405220Y-133799219D01*
X72468477Y-133604534D01*
X72500500Y-133402352D01*
X72500500Y-133197648D01*
X72480947Y-133074197D01*
X72468477Y-132995465D01*
X72418203Y-132840738D01*
X72405220Y-132800781D01*
X72405218Y-132800778D01*
X72405218Y-132800776D01*
X72402974Y-132796373D01*
X72402666Y-132795582D01*
X72401933Y-132794329D01*
X72393651Y-132778076D01*
X72360607Y-132713224D01*
X72312287Y-132618390D01*
X72312286Y-132618388D01*
X72295389Y-132595131D01*
X72295388Y-132595130D01*
X72191972Y-132452787D01*
X72047211Y-132308026D01*
X71892202Y-132195408D01*
X71892199Y-132195406D01*
X71881613Y-132187715D01*
X71881612Y-132187714D01*
X71881610Y-132187713D01*
X71786987Y-132139500D01*
X71786987Y-132139499D01*
X71786985Y-132139499D01*
X71699228Y-132094783D01*
X71699221Y-132094780D01*
X71587972Y-132058633D01*
X71504534Y-132031522D01*
X71504532Y-132031521D01*
X71504530Y-132031521D01*
X71504529Y-132031520D01*
X71329995Y-132003878D01*
X71313409Y-132001251D01*
X71302354Y-131999500D01*
X71302352Y-131999500D01*
X71097648Y-131999500D01*
X71097647Y-131999500D01*
X71073327Y-132003351D01*
X71073326Y-132003350D01*
X70895468Y-132031521D01*
X70700777Y-132094780D01*
X70700764Y-132094786D01*
X70518397Y-132187708D01*
X70518385Y-132187715D01*
X70352787Y-132308027D01*
X70352784Y-132308029D01*
X70208029Y-132452784D01*
X70208027Y-132452787D01*
X70087715Y-132618385D01*
X70087708Y-132618397D01*
X69994786Y-132800764D01*
X69994780Y-132800777D01*
X69931521Y-132995468D01*
X69899500Y-133197642D01*
X67499994Y-133197642D01*
X67467990Y-132995582D01*
X67404755Y-132800968D01*
X67404753Y-132800965D01*
X67404753Y-132800963D01*
X67311859Y-132618650D01*
X67303156Y-132606672D01*
X67293615Y-132579933D01*
X67279473Y-132574075D01*
X66736497Y-133117053D01*
X66675174Y-133150538D01*
X66605483Y-133145554D01*
X66549549Y-133103683D01*
X66541430Y-133091374D01*
X66520080Y-133054394D01*
X66445606Y-132979920D01*
X66408625Y-132958569D01*
X66360410Y-132908003D01*
X66347186Y-132839396D01*
X66373154Y-132774531D01*
X66382936Y-132763509D01*
X66925922Y-132220524D01*
X66925921Y-132220523D01*
X66925920Y-132220522D01*
X66925919Y-132220521D01*
X66925914Y-132220517D01*
X66881360Y-132188147D01*
X66881357Y-132188144D01*
X66805547Y-132149517D01*
X66699031Y-132095244D01*
X66504417Y-132032009D01*
X66504411Y-132032008D01*
X66302322Y-132000000D01*
X66302317Y-132000000D01*
X66097683Y-132000000D01*
X66097678Y-132000000D01*
X65895587Y-132032008D01*
X65895585Y-132032008D01*
X65895582Y-132032009D01*
X65813643Y-132058633D01*
X65700963Y-132095245D01*
X65518640Y-132188145D01*
X65474077Y-132220522D01*
X65474077Y-132220523D01*
X65474077Y-132220524D01*
X65802238Y-132548685D01*
X66017055Y-132763501D01*
X66050540Y-132824824D01*
X66045556Y-132894515D01*
X66003685Y-132950449D01*
X65991374Y-132958569D01*
X65954397Y-132979917D01*
X65954392Y-132979921D01*
X65879921Y-133054392D01*
X65879915Y-133054400D01*
X65858568Y-133091374D01*
X65808001Y-133139589D01*
X65739393Y-133152811D01*
X65674529Y-133126843D01*
X65663501Y-133117054D01*
X65120524Y-132574077D01*
X65120523Y-132574077D01*
X65120522Y-132574077D01*
X65088145Y-132618640D01*
X64995245Y-132800963D01*
X64964848Y-132894515D01*
X64932009Y-132995582D01*
X64932008Y-132995585D01*
X64932008Y-132995587D01*
X64900000Y-133197676D01*
X47600500Y-133197676D01*
X47600500Y-118578848D01*
X69499499Y-118578848D01*
X69530257Y-118733471D01*
X69530264Y-118733502D01*
X69590598Y-118879165D01*
X69590603Y-118879174D01*
X69590613Y-118879191D01*
X69678212Y-119010291D01*
X69678217Y-119010297D01*
X69794020Y-119126100D01*
X69793977Y-119126142D01*
X69796642Y-119128703D01*
X69796820Y-119128522D01*
X69799987Y-119131606D01*
X69871406Y-119191839D01*
X70211558Y-119478715D01*
X70211566Y-119478721D01*
X70211568Y-119478723D01*
X70233351Y-119495920D01*
X70244196Y-119505564D01*
X74517049Y-123778416D01*
X74621586Y-123882953D01*
X74621589Y-123882955D01*
X74744481Y-123965069D01*
X74744485Y-123965071D01*
X74744498Y-123965080D01*
X74744511Y-123965087D01*
X74744513Y-123965087D01*
X74744517Y-123965090D01*
X74864170Y-124014651D01*
X74864175Y-124014653D01*
X74875479Y-124019335D01*
X74879886Y-124021419D01*
X75026076Y-124050500D01*
X75026079Y-124050500D01*
X75026082Y-124050500D01*
X83973920Y-124050500D01*
X84071462Y-124031096D01*
X84071465Y-124031095D01*
X84071470Y-124031095D01*
X84091771Y-124027056D01*
X84118913Y-124021658D01*
X84255495Y-123965084D01*
X84292361Y-123940449D01*
X84324231Y-123925207D01*
X84330055Y-123923385D01*
X84399912Y-123922162D01*
X84459343Y-123958901D01*
X84489477Y-124021938D01*
X84480764Y-124091221D01*
X84480058Y-124092843D01*
X84454042Y-124131037D01*
X84334502Y-124250576D01*
X84306252Y-124271724D01*
X84283168Y-124284330D01*
X84223737Y-124299500D01*
X83501453Y-124299500D01*
X83308176Y-124337945D01*
X83308170Y-124337947D01*
X83308160Y-124337950D01*
X83308155Y-124337951D01*
X83308137Y-124337958D01*
X83126098Y-124413360D01*
X83126089Y-124413365D01*
X83126072Y-124413375D01*
X82962215Y-124522861D01*
X82962214Y-124522862D01*
X82962208Y-124522867D01*
X82822867Y-124662208D01*
X82822862Y-124662214D01*
X82822861Y-124662215D01*
X82713375Y-124826072D01*
X82713365Y-124826089D01*
X82713360Y-124826098D01*
X82637958Y-125008137D01*
X82637945Y-125008176D01*
X82599500Y-125201451D01*
X82599500Y-125354174D01*
X82594237Y-125372094D01*
X82637945Y-125591822D01*
X82637946Y-125591826D01*
X82637947Y-125591829D01*
X82637950Y-125591839D01*
X82637953Y-125591847D01*
X82637958Y-125591861D01*
X82713360Y-125773900D01*
X82713365Y-125773909D01*
X82713375Y-125773926D01*
X82822861Y-125937783D01*
X82822862Y-125937784D01*
X82822867Y-125937790D01*
X82962208Y-126077131D01*
X82962214Y-126077136D01*
X82962218Y-126077139D01*
X83126079Y-126186628D01*
X83126092Y-126186635D01*
X83308160Y-126262049D01*
X83308165Y-126262051D01*
X83308169Y-126262051D01*
X83308170Y-126262052D01*
X83308442Y-126262106D01*
X83308469Y-126262112D01*
X83501453Y-126300500D01*
X83501456Y-126300500D01*
X83501459Y-126300500D01*
X84798541Y-126300500D01*
X84798542Y-126300500D01*
X84813848Y-126297454D01*
X84829562Y-126294329D01*
X84829563Y-126294328D01*
X84829566Y-126294328D01*
X84895188Y-126281275D01*
X84991836Y-126262051D01*
X85045165Y-126239961D01*
X85173914Y-126186632D01*
X85337782Y-126077139D01*
X85477139Y-125937782D01*
X85477139Y-125937780D01*
X85487347Y-125927573D01*
X85487349Y-125927570D01*
X91737778Y-119677141D01*
X91737782Y-119677139D01*
X91877139Y-119537782D01*
X91986632Y-119373914D01*
X92062051Y-119191835D01*
X92098163Y-119010292D01*
X92100500Y-118998543D01*
X92100500Y-107383611D01*
X92105522Y-107348678D01*
X92112934Y-107323433D01*
X92144228Y-107270691D01*
X93715497Y-105699423D01*
X93743747Y-105678275D01*
X93766839Y-105665667D01*
X93826264Y-105650500D01*
X102403267Y-105650500D01*
X102435368Y-105654727D01*
X103393436Y-105911504D01*
X103453092Y-105947872D01*
X103483617Y-106010721D01*
X103475318Y-106080096D01*
X103451008Y-106116917D01*
X103450009Y-106117962D01*
X103355485Y-106212487D01*
X103355485Y-106212488D01*
X103355483Y-106212490D01*
X103341971Y-106231087D01*
X103341964Y-106231095D01*
X103319353Y-106262218D01*
X103319353Y-106262219D01*
X103216657Y-106403566D01*
X103216654Y-106403570D01*
X103216653Y-106403573D01*
X103205187Y-106426077D01*
X103109433Y-106614003D01*
X103036446Y-106838631D01*
X103036445Y-106838634D01*
X103036445Y-106838636D01*
X102999500Y-107071896D01*
X102999500Y-107308102D01*
X103005927Y-107348678D01*
X103036446Y-107541368D01*
X103109433Y-107765996D01*
X103216657Y-107976433D01*
X103355483Y-108167510D01*
X103522490Y-108334517D01*
X103567293Y-108367068D01*
X103592602Y-108391664D01*
X103604621Y-108407250D01*
X103629100Y-108464886D01*
X103630405Y-108473738D01*
X103631348Y-108501556D01*
X103630892Y-108507337D01*
X103630893Y-108507340D01*
X104317054Y-109193501D01*
X104350539Y-109254824D01*
X104345555Y-109324516D01*
X104303683Y-109380449D01*
X104291374Y-109388568D01*
X104254400Y-109409915D01*
X104254392Y-109409921D01*
X104179921Y-109484392D01*
X104179917Y-109484397D01*
X104158569Y-109521374D01*
X104108002Y-109569590D01*
X104039395Y-109582812D01*
X103974530Y-109556844D01*
X103963501Y-109547055D01*
X103277340Y-108860893D01*
X103277339Y-108860894D01*
X103217088Y-108943823D01*
X103217085Y-108943828D01*
X103217084Y-108943830D01*
X103168799Y-109038594D01*
X103109898Y-109154194D01*
X103036933Y-109378755D01*
X103000000Y-109611941D01*
X103000000Y-109848057D01*
X103035379Y-110071430D01*
X103036934Y-110081247D01*
X103097126Y-110266498D01*
X103109898Y-110305804D01*
X103217086Y-110516172D01*
X103217087Y-110516174D01*
X103277337Y-110599103D01*
X103277339Y-110599105D01*
X103277339Y-110599104D01*
X103277340Y-110599105D01*
X103963502Y-109912942D01*
X104024823Y-109879459D01*
X104094514Y-109884443D01*
X104150448Y-109926314D01*
X104158567Y-109938624D01*
X104179915Y-109975599D01*
X104179919Y-109975604D01*
X104179920Y-109975606D01*
X104254394Y-110050080D01*
X104291372Y-110071429D01*
X104339587Y-110121995D01*
X104352811Y-110190602D01*
X104326843Y-110255467D01*
X104317053Y-110266497D01*
X103630893Y-110952657D01*
X103630892Y-110952659D01*
X103631048Y-110954629D01*
X103628783Y-110989850D01*
X103624735Y-111009117D01*
X103596804Y-111065165D01*
X103590921Y-111071905D01*
X103570388Y-111090681D01*
X103522496Y-111125477D01*
X103522487Y-111125484D01*
X103350991Y-111296980D01*
X103346858Y-111304361D01*
X103295862Y-111374550D01*
X103295861Y-111374549D01*
X103216659Y-111483562D01*
X103216657Y-111483566D01*
X103109433Y-111694003D01*
X103036446Y-111918631D01*
X103036445Y-111918634D01*
X103036445Y-111918636D01*
X102999500Y-112151896D01*
X102999500Y-112388102D01*
X103036445Y-112621362D01*
X103036446Y-112621368D01*
X103109433Y-112845996D01*
X103216657Y-113056433D01*
X103355483Y-113247510D01*
X103522490Y-113414517D01*
X103713567Y-113553343D01*
X103871762Y-113633947D01*
X103900611Y-113654285D01*
X103910700Y-113663814D01*
X103945921Y-113724156D01*
X103942927Y-113793960D01*
X103940673Y-113800574D01*
X103910983Y-113848256D01*
X90858668Y-126900573D01*
X90830417Y-126921722D01*
X90807329Y-126934330D01*
X90747899Y-126949500D01*
X78626077Y-126949500D01*
X78481104Y-126978336D01*
X78481096Y-126978338D01*
X78481076Y-126978345D01*
X78344519Y-127034908D01*
X78344505Y-127034915D01*
X78344494Y-127034922D01*
X78295269Y-127067813D01*
X78221591Y-127117041D01*
X78221575Y-127117053D01*
X76480759Y-128857869D01*
X76406940Y-128968345D01*
X76406875Y-128968446D01*
X76398637Y-128980775D01*
X76398624Y-128980796D01*
X76398617Y-128980810D01*
X76342054Y-129117367D01*
X76342047Y-129117387D01*
X76342045Y-129117395D01*
X76313209Y-129262365D01*
X76313209Y-134693260D01*
X76307946Y-134711180D01*
X76342047Y-134882608D01*
X76342053Y-134882628D01*
X76398620Y-135019196D01*
X76398621Y-135019198D01*
X76414254Y-135042594D01*
X76414258Y-135042601D01*
X76418867Y-135049500D01*
X76418868Y-135049501D01*
X76480755Y-135142123D01*
X76480761Y-135142130D01*
X78521584Y-137182952D01*
X78521586Y-137182954D01*
X78551058Y-137202645D01*
X78595270Y-137232186D01*
X78644505Y-137265084D01*
X78644506Y-137265084D01*
X78644507Y-137265085D01*
X78644510Y-137265086D01*
X78645527Y-137265766D01*
X78650112Y-137267406D01*
X78751452Y-137309383D01*
X78775475Y-137319333D01*
X78779885Y-137321419D01*
X78926076Y-137350500D01*
X78926079Y-137350500D01*
X78926082Y-137350500D01*
X99273920Y-137350500D01*
X99371462Y-137331096D01*
X99418913Y-137321658D01*
X99555495Y-137265084D01*
X99604729Y-137232186D01*
X99604734Y-137232183D01*
X99629071Y-137215921D01*
X99678416Y-137182952D01*
X100161946Y-136699419D01*
X100190197Y-136678273D01*
X100213287Y-136665666D01*
X100272710Y-136650500D01*
X101880308Y-136650500D01*
X101922064Y-136657742D01*
X103032323Y-137054800D01*
X103088818Y-137095910D01*
X103114120Y-137161037D01*
X103100194Y-137229505D01*
X103081921Y-137255406D01*
X103080212Y-137257268D01*
X103027177Y-137291351D01*
X102971673Y-137309385D01*
X102800569Y-137396568D01*
X102796422Y-137399110D01*
X102795265Y-137397223D01*
X102777207Y-137403658D01*
X102771350Y-137417798D01*
X103257055Y-137903501D01*
X103290540Y-137964824D01*
X103285556Y-138034515D01*
X103243685Y-138090449D01*
X103231374Y-138098569D01*
X103194397Y-138119917D01*
X103194392Y-138119921D01*
X103119921Y-138194392D01*
X103119915Y-138194400D01*
X103098568Y-138231374D01*
X103048001Y-138279589D01*
X102979393Y-138292811D01*
X102914529Y-138266843D01*
X102903501Y-138257054D01*
X102417798Y-137771350D01*
X102404329Y-137776930D01*
X102398682Y-137796160D01*
X102399110Y-137796422D01*
X102398141Y-137798002D01*
X102398113Y-137798100D01*
X102397810Y-137798542D01*
X102396568Y-137800569D01*
X102350737Y-137890516D01*
X102309383Y-137971678D01*
X102309383Y-137971679D01*
X102309382Y-137971681D01*
X102250039Y-138154318D01*
X102220000Y-138343978D01*
X102220000Y-138536020D01*
X102250039Y-138725680D01*
X102250040Y-138725684D01*
X102309383Y-138908321D01*
X102396561Y-139079415D01*
X102417798Y-139108646D01*
X102903503Y-138622940D01*
X102964823Y-138589458D01*
X103034514Y-138594442D01*
X103090448Y-138636313D01*
X103098568Y-138648624D01*
X103119917Y-138685602D01*
X103119919Y-138685604D01*
X103119920Y-138685606D01*
X103194394Y-138760080D01*
X103194395Y-138760081D01*
X103194397Y-138760082D01*
X103231373Y-138781430D01*
X103279588Y-138831996D01*
X103292812Y-138900603D01*
X103266844Y-138965468D01*
X103257054Y-138976498D01*
X102771351Y-139462199D01*
X102771351Y-139462200D01*
X102771355Y-139462204D01*
X102800576Y-139483434D01*
X102971671Y-139570613D01*
X102971675Y-139570614D01*
X102971678Y-139570616D01*
X103154315Y-139629959D01*
X103343985Y-139660000D01*
X103536014Y-139660000D01*
X103536015Y-139660000D01*
X103725684Y-139629959D01*
X103908321Y-139570616D01*
X104079419Y-139483436D01*
X104108646Y-139462201D01*
X104108646Y-139462200D01*
X103622945Y-138976498D01*
X103589460Y-138915175D01*
X103594444Y-138845483D01*
X103636316Y-138789550D01*
X103648618Y-138781434D01*
X103685606Y-138760080D01*
X103760080Y-138685606D01*
X103781430Y-138648625D01*
X103831994Y-138600411D01*
X103900601Y-138587186D01*
X103965466Y-138613153D01*
X103976498Y-138622944D01*
X104462200Y-139108646D01*
X104462201Y-139108646D01*
X104483436Y-139079419D01*
X104570616Y-138908321D01*
X104629959Y-138725684D01*
X104660000Y-138536015D01*
X104660000Y-138343984D01*
X104629959Y-138154315D01*
X104570616Y-137971678D01*
X104570614Y-137971675D01*
X104570613Y-137971671D01*
X104483434Y-137800576D01*
X104462204Y-137771355D01*
X104462200Y-137771351D01*
X104462199Y-137771351D01*
X103976497Y-138257053D01*
X103915174Y-138290538D01*
X103845482Y-138285554D01*
X103789549Y-138243682D01*
X103781430Y-138231374D01*
X103760080Y-138194394D01*
X103685606Y-138119920D01*
X103648625Y-138098569D01*
X103600410Y-138048003D01*
X103587186Y-137979396D01*
X103613154Y-137914531D01*
X103622933Y-137903512D01*
X104108646Y-137417798D01*
X104089183Y-137403658D01*
X104079415Y-137396561D01*
X104079413Y-137396560D01*
X103989016Y-137350500D01*
X103908321Y-137309383D01*
X103908317Y-137309381D01*
X103908312Y-137309379D01*
X103860064Y-137293703D01*
X103803236Y-137255292D01*
X103802358Y-137254242D01*
X103793042Y-137247870D01*
X103765852Y-137183508D01*
X103777774Y-137114663D01*
X103797691Y-137085541D01*
X103799798Y-137083246D01*
X103852817Y-137049177D01*
X103903903Y-137032578D01*
X103907637Y-137031525D01*
X103908499Y-137031085D01*
X103908504Y-137031084D01*
X103908506Y-137031082D01*
X103908509Y-137031082D01*
X104079681Y-136943865D01*
X104235102Y-136830945D01*
X104370945Y-136695102D01*
X104483865Y-136539681D01*
X104571082Y-136368509D01*
X104630447Y-136185801D01*
X104660500Y-135996055D01*
X104660500Y-135805507D01*
X112039500Y-135805507D01*
X112039500Y-135994491D01*
X112069058Y-136181112D01*
X112069059Y-136181118D01*
X112127454Y-136360836D01*
X112213240Y-136529199D01*
X112324310Y-136682073D01*
X112457927Y-136815690D01*
X112478924Y-136830945D01*
X112610796Y-136926757D01*
X112610797Y-136926757D01*
X112610801Y-136926760D01*
X112644370Y-136943864D01*
X112772720Y-137009262D01*
X112774312Y-137010194D01*
X112778025Y-137011993D01*
X112780022Y-137012986D01*
X112783790Y-137014049D01*
X112804055Y-137020633D01*
X112836217Y-137031083D01*
X112836218Y-137031084D01*
X112877106Y-137044369D01*
X112958881Y-137070940D01*
X113145514Y-137100500D01*
X113145519Y-137100500D01*
X113334485Y-137100500D01*
X113334486Y-137100500D01*
X113521118Y-137070940D01*
X113542246Y-137064075D01*
X113700832Y-137012547D01*
X113869199Y-136926760D01*
X114022073Y-136815690D01*
X114155690Y-136682073D01*
X114266760Y-136529199D01*
X114352547Y-136360832D01*
X114410940Y-136181118D01*
X114440251Y-135996055D01*
X114440500Y-135994486D01*
X114440500Y-135805513D01*
X114410940Y-135618881D01*
X114352545Y-135439163D01*
X114266759Y-135270800D01*
X114259144Y-135260319D01*
X114155690Y-135117927D01*
X114022073Y-134984310D01*
X113869199Y-134873240D01*
X113700836Y-134787454D01*
X113521118Y-134729059D01*
X113521112Y-134729058D01*
X113334491Y-134699500D01*
X113334486Y-134699500D01*
X113334481Y-134699500D01*
X113145519Y-134699500D01*
X113145514Y-134699500D01*
X113145509Y-134699500D01*
X112958886Y-134729058D01*
X112958884Y-134729058D01*
X112958881Y-134729059D01*
X112779163Y-134787454D01*
X112694981Y-134830347D01*
X112610799Y-134873240D01*
X112523579Y-134936610D01*
X112523578Y-134936610D01*
X112469794Y-134975686D01*
X112462419Y-134979816D01*
X112319818Y-135122417D01*
X112315688Y-135129793D01*
X112301374Y-135149496D01*
X112301371Y-135149500D01*
X112213239Y-135270800D01*
X112189672Y-135317054D01*
X112127454Y-135439163D01*
X112069059Y-135618881D01*
X112069058Y-135618884D01*
X112069058Y-135618886D01*
X112039500Y-135805507D01*
X104660500Y-135805507D01*
X104660500Y-135803945D01*
X104630447Y-135614199D01*
X104600764Y-135522845D01*
X104571083Y-135431493D01*
X104571082Y-135431491D01*
X104483865Y-135260319D01*
X104370945Y-135104898D01*
X104235102Y-134969055D01*
X104079681Y-134856135D01*
X103944886Y-134787453D01*
X103946222Y-134784830D01*
X103934141Y-134781283D01*
X103928633Y-134774926D01*
X103924499Y-134774891D01*
X103912996Y-134770776D01*
X103908501Y-134768913D01*
X103860871Y-134753438D01*
X103804048Y-134715031D01*
X103803183Y-134713996D01*
X103793870Y-134707630D01*
X103766665Y-134643274D01*
X103778571Y-134574426D01*
X103798484Y-134545297D01*
X103800587Y-134543005D01*
X103853627Y-134508914D01*
X103903890Y-134492583D01*
X103908578Y-134491260D01*
X103912824Y-134488883D01*
X104079681Y-134403865D01*
X104235102Y-134290945D01*
X104370945Y-134155102D01*
X104483865Y-133999681D01*
X104571082Y-133828509D01*
X104630447Y-133645801D01*
X104660500Y-133456055D01*
X104660500Y-133263945D01*
X104630447Y-133074199D01*
X104589666Y-132948686D01*
X104588956Y-132946500D01*
X104571085Y-132891497D01*
X104524958Y-132800968D01*
X104513294Y-132778076D01*
X104483865Y-132720319D01*
X104370945Y-132564898D01*
X104235102Y-132429055D01*
X104125637Y-132349524D01*
X104079676Y-132316131D01*
X103999052Y-132275051D01*
X103908516Y-132228920D01*
X103908500Y-132228913D01*
X103725804Y-132169553D01*
X103725805Y-132169553D01*
X103536059Y-132139500D01*
X103536055Y-132139500D01*
X103343945Y-132139500D01*
X103343941Y-132139500D01*
X103280696Y-132149517D01*
X103154193Y-132169553D01*
X102971498Y-132228913D01*
X102971482Y-132228920D01*
X102800325Y-132316130D01*
X102800321Y-132316132D01*
X102754360Y-132349526D01*
X102754359Y-132349526D01*
X102656768Y-132420430D01*
X102649389Y-132424562D01*
X102504562Y-132569389D01*
X102500433Y-132576763D01*
X102487092Y-132595127D01*
X102487089Y-132595131D01*
X102396139Y-132720312D01*
X102396135Y-132720318D01*
X102396133Y-132720321D01*
X102396125Y-132720335D01*
X102308920Y-132891482D01*
X102308913Y-132891498D01*
X102249554Y-133074191D01*
X102248027Y-133083835D01*
X102248026Y-133083834D01*
X102248026Y-133083840D01*
X102219500Y-133263945D01*
X102219500Y-133456055D01*
X102222825Y-133477048D01*
X102249553Y-133645805D01*
X102308912Y-133828497D01*
X102308914Y-133828502D01*
X102308916Y-133828506D01*
X102334377Y-133878475D01*
X102396135Y-133999681D01*
X102509055Y-134155102D01*
X102644898Y-134290945D01*
X102800319Y-134403865D01*
X102971491Y-134491082D01*
X102971493Y-134491083D01*
X102971495Y-134491083D01*
X102971496Y-134491084D01*
X103019123Y-134506559D01*
X103050793Y-134522129D01*
X103057939Y-134527015D01*
X103102169Y-134581103D01*
X103110135Y-134650517D01*
X103079309Y-134713219D01*
X103029707Y-134746134D01*
X101922061Y-135142258D01*
X101880305Y-135149500D01*
X99826078Y-135149500D01*
X99681096Y-135178338D01*
X99681079Y-135178344D01*
X99544517Y-135234908D01*
X99544508Y-135234913D01*
X99544491Y-135234923D01*
X99421581Y-135317049D01*
X99421580Y-135317050D01*
X99421575Y-135317054D01*
X98938058Y-135800573D01*
X98909807Y-135821722D01*
X98886719Y-135834330D01*
X98827289Y-135849500D01*
X98029060Y-135849500D01*
X97994125Y-135844477D01*
X97983271Y-135841290D01*
X97924493Y-135803516D01*
X97895468Y-135739960D01*
X97905408Y-135670811D01*
X97908598Y-135663824D01*
X97933707Y-135627660D01*
X108282947Y-125278421D01*
X108282952Y-125278416D01*
X108334372Y-125201459D01*
X108365084Y-125155495D01*
X108412148Y-125041873D01*
X108421659Y-125018912D01*
X108450500Y-124873917D01*
X108450500Y-124726082D01*
X108450500Y-77326082D01*
X108442345Y-77285084D01*
X108421659Y-77181088D01*
X108387415Y-77098416D01*
X108365084Y-77044505D01*
X108365082Y-77044502D01*
X108365080Y-77044498D01*
X108282952Y-76921585D01*
X108282951Y-76921584D01*
X108178416Y-76817049D01*
X108099459Y-76738092D01*
X107946085Y-76584717D01*
X107863264Y-76501896D01*
X117679500Y-76501896D01*
X117679500Y-76738102D01*
X117708561Y-76921584D01*
X117716446Y-76971368D01*
X117789433Y-77195996D01*
X117855715Y-77326080D01*
X117896657Y-77406433D01*
X118035483Y-77597510D01*
X118202490Y-77764517D01*
X118202493Y-77764519D01*
X118284638Y-77824201D01*
X118309946Y-77848795D01*
X118318422Y-77859786D01*
X118343774Y-77924894D01*
X118329901Y-77993373D01*
X118329890Y-77993393D01*
X118326628Y-77999573D01*
X118289854Y-78042007D01*
X118214360Y-78096858D01*
X118206981Y-78100990D01*
X118030991Y-78276980D01*
X118026858Y-78284361D01*
X117975862Y-78354550D01*
X117975861Y-78354549D01*
X117896659Y-78463562D01*
X117896657Y-78463566D01*
X117789433Y-78674003D01*
X117716446Y-78898631D01*
X117716445Y-78898634D01*
X117716445Y-78898636D01*
X117679500Y-79131896D01*
X117679500Y-79368102D01*
X117716445Y-79601362D01*
X117716446Y-79601368D01*
X117789433Y-79825996D01*
X117854821Y-79954326D01*
X117896657Y-80036433D01*
X118035483Y-80227510D01*
X118035486Y-80227513D01*
X118202486Y-80394514D01*
X118202495Y-80394521D01*
X118222703Y-80409204D01*
X118248015Y-80433804D01*
X118256489Y-80444794D01*
X118281836Y-80509904D01*
X118267959Y-80578381D01*
X118267956Y-80578387D01*
X118264695Y-80584566D01*
X118227926Y-80627001D01*
X118219375Y-80633215D01*
X118219367Y-80633220D01*
X118202491Y-80645481D01*
X118202485Y-80645486D01*
X118030991Y-80816980D01*
X118026858Y-80824361D01*
X117975862Y-80894550D01*
X117975861Y-80894549D01*
X117896659Y-81003562D01*
X117896657Y-81003566D01*
X117789433Y-81214003D01*
X117716446Y-81438631D01*
X117716445Y-81438634D01*
X117716445Y-81438636D01*
X117679500Y-81671896D01*
X117679500Y-81908102D01*
X117685263Y-81944485D01*
X117716446Y-82141368D01*
X117789433Y-82365996D01*
X117884531Y-82552635D01*
X117896657Y-82576433D01*
X118035483Y-82767510D01*
X118035486Y-82767513D01*
X118202486Y-82934514D01*
X118202495Y-82934521D01*
X118222703Y-82949204D01*
X118248015Y-82973804D01*
X118256489Y-82984794D01*
X118281836Y-83049904D01*
X118267959Y-83118381D01*
X118267956Y-83118387D01*
X118264695Y-83124566D01*
X118227926Y-83167001D01*
X118219375Y-83173215D01*
X118219367Y-83173220D01*
X118202491Y-83185481D01*
X118202485Y-83185486D01*
X118030990Y-83356981D01*
X118026860Y-83364357D01*
X118012489Y-83384138D01*
X118012487Y-83384141D01*
X117896657Y-83543565D01*
X117854821Y-83625673D01*
X117789433Y-83754003D01*
X117716446Y-83978631D01*
X117716445Y-83978634D01*
X117716445Y-83978636D01*
X117679500Y-84211896D01*
X117679500Y-84448102D01*
X117694135Y-84540500D01*
X117716446Y-84681368D01*
X117789433Y-84905996D01*
X117849457Y-85023799D01*
X117878347Y-85080499D01*
X117896655Y-85116431D01*
X117900402Y-85121588D01*
X118035483Y-85307510D01*
X118035486Y-85307513D01*
X118202486Y-85474514D01*
X118202495Y-85474521D01*
X118222703Y-85489204D01*
X118248015Y-85513804D01*
X118256489Y-85524794D01*
X118281836Y-85589904D01*
X118267959Y-85658381D01*
X118267956Y-85658387D01*
X118264695Y-85664566D01*
X118227926Y-85707001D01*
X118219375Y-85713215D01*
X118219367Y-85713220D01*
X118202491Y-85725481D01*
X118202485Y-85725486D01*
X118030991Y-85896980D01*
X118026858Y-85904361D01*
X117975862Y-85974550D01*
X117975861Y-85974549D01*
X117896659Y-86083562D01*
X117896657Y-86083566D01*
X117789433Y-86294003D01*
X117716446Y-86518631D01*
X117716445Y-86518634D01*
X117716445Y-86518636D01*
X117679500Y-86751896D01*
X117679500Y-86988102D01*
X117716445Y-87221362D01*
X117716446Y-87221368D01*
X117789433Y-87445996D01*
X117819633Y-87505266D01*
X117878347Y-87620499D01*
X117896655Y-87656431D01*
X117896937Y-87656819D01*
X118035483Y-87847510D01*
X118035486Y-87847513D01*
X118202486Y-88014514D01*
X118202495Y-88014521D01*
X118222703Y-88029204D01*
X118248015Y-88053804D01*
X118256489Y-88064794D01*
X118281836Y-88129904D01*
X118267959Y-88198381D01*
X118267956Y-88198387D01*
X118264695Y-88204566D01*
X118227926Y-88247001D01*
X118219375Y-88253215D01*
X118219367Y-88253220D01*
X118202491Y-88265481D01*
X118202485Y-88265486D01*
X118030990Y-88436981D01*
X118026858Y-88444360D01*
X117989928Y-88495190D01*
X117928267Y-88580059D01*
X117896657Y-88623566D01*
X117896655Y-88623568D01*
X117896653Y-88623573D01*
X117863655Y-88688336D01*
X117789433Y-88834003D01*
X117716446Y-89058631D01*
X117716445Y-89058634D01*
X117716445Y-89058636D01*
X117679500Y-89291896D01*
X117679500Y-89528102D01*
X117716445Y-89761362D01*
X117716446Y-89761368D01*
X117789433Y-89985996D01*
X117849457Y-90103799D01*
X117878347Y-90160499D01*
X117896655Y-90196431D01*
X117896937Y-90196819D01*
X118035483Y-90387510D01*
X118035486Y-90387513D01*
X118202486Y-90554514D01*
X118202495Y-90554521D01*
X118222703Y-90569204D01*
X118248015Y-90593804D01*
X118256489Y-90604794D01*
X118281836Y-90669904D01*
X118267963Y-90738372D01*
X118264702Y-90744553D01*
X118227929Y-90787000D01*
X118225510Y-90788758D01*
X118225495Y-90788769D01*
X118202485Y-90805485D01*
X118202483Y-90805487D01*
X118030992Y-90976979D01*
X118026859Y-90984358D01*
X117983161Y-91044505D01*
X117983160Y-91044504D01*
X117896661Y-91163560D01*
X117896657Y-91163566D01*
X117896655Y-91163568D01*
X117896653Y-91163573D01*
X117863654Y-91228338D01*
X117789433Y-91374003D01*
X117716446Y-91598631D01*
X117716445Y-91598634D01*
X117716445Y-91598636D01*
X117679500Y-91831896D01*
X117679500Y-92068102D01*
X117716445Y-92301362D01*
X117716446Y-92301368D01*
X117789433Y-92525996D01*
X117849457Y-92643799D01*
X117878347Y-92700499D01*
X117896655Y-92736431D01*
X117896937Y-92736819D01*
X118035483Y-92927510D01*
X118035486Y-92927513D01*
X118202486Y-93094514D01*
X118202495Y-93094521D01*
X118222703Y-93109204D01*
X118248015Y-93133804D01*
X118256489Y-93144794D01*
X118281836Y-93209904D01*
X118267959Y-93278381D01*
X118267956Y-93278387D01*
X118264695Y-93284566D01*
X118227926Y-93327001D01*
X118219375Y-93333215D01*
X118219367Y-93333220D01*
X118202491Y-93345481D01*
X118202485Y-93345486D01*
X118030991Y-93516980D01*
X118026858Y-93524361D01*
X117975862Y-93594550D01*
X117975861Y-93594549D01*
X117896659Y-93703562D01*
X117896657Y-93703566D01*
X117789433Y-93914003D01*
X117716446Y-94138631D01*
X117716445Y-94138634D01*
X117716445Y-94138636D01*
X117679500Y-94371896D01*
X117679500Y-94608102D01*
X117683623Y-94634132D01*
X117716446Y-94841368D01*
X117789433Y-95065996D01*
X117849457Y-95183799D01*
X117878347Y-95240499D01*
X117896655Y-95276431D01*
X117928226Y-95319884D01*
X118035483Y-95467510D01*
X118035486Y-95467513D01*
X118202486Y-95634514D01*
X118202495Y-95634521D01*
X118222703Y-95649204D01*
X118248015Y-95673804D01*
X118256489Y-95684794D01*
X118281836Y-95749904D01*
X118267959Y-95818381D01*
X118267956Y-95818387D01*
X118264695Y-95824566D01*
X118227926Y-95867001D01*
X118219375Y-95873215D01*
X118219367Y-95873220D01*
X118202491Y-95885481D01*
X118202485Y-95885486D01*
X118030991Y-96056980D01*
X118026858Y-96064361D01*
X117975862Y-96134550D01*
X117975861Y-96134549D01*
X117896659Y-96243562D01*
X117896657Y-96243566D01*
X117789433Y-96454003D01*
X117716446Y-96678631D01*
X117716445Y-96678634D01*
X117716445Y-96678636D01*
X117679500Y-96911896D01*
X117679500Y-97148102D01*
X117716445Y-97381362D01*
X117716446Y-97381368D01*
X117789433Y-97605996D01*
X117827170Y-97680058D01*
X117878347Y-97780499D01*
X117896655Y-97816431D01*
X117896937Y-97816819D01*
X118035483Y-98007510D01*
X118035486Y-98007513D01*
X118202486Y-98174514D01*
X118202495Y-98174521D01*
X118222703Y-98189204D01*
X118248015Y-98213804D01*
X118256489Y-98224794D01*
X118281836Y-98289904D01*
X118267959Y-98358381D01*
X118267956Y-98358387D01*
X118264695Y-98364566D01*
X118227926Y-98407001D01*
X118219375Y-98413215D01*
X118219367Y-98413220D01*
X118202491Y-98425481D01*
X118202485Y-98425486D01*
X118030991Y-98596980D01*
X118026858Y-98604361D01*
X117975862Y-98674550D01*
X117975861Y-98674549D01*
X117896659Y-98783562D01*
X117896657Y-98783566D01*
X117789433Y-98994003D01*
X117716446Y-99218631D01*
X117716445Y-99218634D01*
X117716445Y-99218636D01*
X117679500Y-99451896D01*
X117679500Y-99688102D01*
X117716445Y-99921362D01*
X117716446Y-99921368D01*
X117789433Y-100145996D01*
X117896657Y-100356433D01*
X118035483Y-100547510D01*
X118035486Y-100547513D01*
X118202486Y-100714514D01*
X118202495Y-100714521D01*
X118222703Y-100729204D01*
X118248015Y-100753804D01*
X118256489Y-100764794D01*
X118281836Y-100829904D01*
X118267963Y-100898373D01*
X118264703Y-100904552D01*
X118227919Y-100947006D01*
X118202491Y-100965480D01*
X118030991Y-101136980D01*
X118026858Y-101144361D01*
X117975862Y-101214550D01*
X117975861Y-101214549D01*
X117896659Y-101323562D01*
X117896657Y-101323566D01*
X117789433Y-101534003D01*
X117716446Y-101758631D01*
X117716445Y-101758634D01*
X117716445Y-101758636D01*
X117679500Y-101991896D01*
X117679500Y-102228102D01*
X117716445Y-102461362D01*
X117716446Y-102461368D01*
X117789433Y-102685996D01*
X117896657Y-102896433D01*
X118035483Y-103087510D01*
X118035486Y-103087513D01*
X118202486Y-103254514D01*
X118202495Y-103254521D01*
X118222703Y-103269204D01*
X118248015Y-103293804D01*
X118256489Y-103304794D01*
X118281836Y-103369904D01*
X118267959Y-103438381D01*
X118267956Y-103438387D01*
X118264695Y-103444566D01*
X118227926Y-103487001D01*
X118219375Y-103493215D01*
X118219367Y-103493220D01*
X118202491Y-103505481D01*
X118202485Y-103505486D01*
X118030991Y-103676980D01*
X118026858Y-103684361D01*
X117975862Y-103754550D01*
X117975861Y-103754549D01*
X117896659Y-103863562D01*
X117896657Y-103863566D01*
X117789433Y-104074003D01*
X117716446Y-104298631D01*
X117716445Y-104298634D01*
X117716445Y-104298636D01*
X117679500Y-104531896D01*
X117679500Y-104768102D01*
X117716445Y-105001362D01*
X117716446Y-105001368D01*
X117789433Y-105225996D01*
X117896657Y-105436433D01*
X118035483Y-105627510D01*
X118035485Y-105627512D01*
X118202486Y-105794514D01*
X118202495Y-105794521D01*
X118222703Y-105809204D01*
X118248015Y-105833804D01*
X118256489Y-105844794D01*
X118281836Y-105909904D01*
X118267959Y-105978381D01*
X118267956Y-105978387D01*
X118264695Y-105984566D01*
X118227926Y-106027001D01*
X118219375Y-106033215D01*
X118219367Y-106033220D01*
X118202491Y-106045481D01*
X118202485Y-106045486D01*
X118030990Y-106216981D01*
X118026859Y-106224359D01*
X117999353Y-106262218D01*
X117999353Y-106262219D01*
X117896657Y-106403566D01*
X117896654Y-106403570D01*
X117896653Y-106403573D01*
X117885187Y-106426077D01*
X117789433Y-106614003D01*
X117716446Y-106838631D01*
X117716445Y-106838634D01*
X117716445Y-106838636D01*
X117679500Y-107071896D01*
X117679500Y-107308102D01*
X117685927Y-107348678D01*
X117716446Y-107541368D01*
X117789433Y-107765996D01*
X117896657Y-107976433D01*
X118035483Y-108167510D01*
X118035486Y-108167513D01*
X118202486Y-108334514D01*
X118202495Y-108334521D01*
X118222703Y-108349204D01*
X118248015Y-108373804D01*
X118256489Y-108384794D01*
X118281836Y-108449904D01*
X118267959Y-108518381D01*
X118267956Y-108518387D01*
X118264695Y-108524566D01*
X118227926Y-108567001D01*
X118219375Y-108573215D01*
X118219367Y-108573220D01*
X118202491Y-108585481D01*
X118202485Y-108585486D01*
X118030991Y-108756980D01*
X118026858Y-108764361D01*
X117975862Y-108834550D01*
X117975861Y-108834549D01*
X117896659Y-108943562D01*
X117896522Y-108943830D01*
X117789433Y-109154003D01*
X117716446Y-109378631D01*
X117716445Y-109378634D01*
X117716445Y-109378636D01*
X117679500Y-109611896D01*
X117679500Y-109848102D01*
X117711491Y-110050082D01*
X117716446Y-110081368D01*
X117776599Y-110266497D01*
X117789436Y-110306005D01*
X117896484Y-110516095D01*
X117896519Y-110516163D01*
X117896524Y-110516172D01*
X117896659Y-110516437D01*
X117933039Y-110566509D01*
X118035483Y-110707510D01*
X118035486Y-110707513D01*
X118202486Y-110874514D01*
X118202495Y-110874521D01*
X118222703Y-110889204D01*
X118248015Y-110913804D01*
X118256489Y-110924794D01*
X118281836Y-110989904D01*
X118267959Y-111058381D01*
X118267956Y-111058387D01*
X118264695Y-111064566D01*
X118227926Y-111107001D01*
X118219375Y-111113215D01*
X118219367Y-111113220D01*
X118202491Y-111125481D01*
X118202485Y-111125486D01*
X118030991Y-111296980D01*
X118026858Y-111304361D01*
X117975862Y-111374550D01*
X117975861Y-111374549D01*
X117896659Y-111483562D01*
X117896657Y-111483566D01*
X117789433Y-111694003D01*
X117716446Y-111918631D01*
X117716445Y-111918634D01*
X117716445Y-111918636D01*
X117679500Y-112151896D01*
X117679500Y-112388102D01*
X117716445Y-112621362D01*
X117716446Y-112621368D01*
X117789433Y-112845996D01*
X117896657Y-113056433D01*
X118035483Y-113247510D01*
X118202490Y-113414517D01*
X118393567Y-113553343D01*
X118492991Y-113604002D01*
X118604003Y-113660566D01*
X118604876Y-113661011D01*
X118608630Y-113662070D01*
X118613998Y-113663814D01*
X118724410Y-113699688D01*
X118724411Y-113699689D01*
X118724412Y-113699689D01*
X118828631Y-113733553D01*
X119061903Y-113770500D01*
X119061908Y-113770500D01*
X119298096Y-113770500D01*
X119298097Y-113770500D01*
X119531368Y-113733553D01*
X119755992Y-113660568D01*
X119966433Y-113553343D01*
X120157510Y-113414517D01*
X120324517Y-113247510D01*
X120463343Y-113056433D01*
X120570568Y-112845992D01*
X120643553Y-112621368D01*
X120680500Y-112388097D01*
X120680500Y-112151902D01*
X120643553Y-111918631D01*
X120570566Y-111694003D01*
X120463342Y-111483566D01*
X120324517Y-111292490D01*
X120157510Y-111125483D01*
X120137294Y-111110795D01*
X120111988Y-111086203D01*
X120103509Y-111075208D01*
X120078161Y-111010102D01*
X120092036Y-110941624D01*
X120092035Y-110941624D01*
X120095300Y-110935437D01*
X120132082Y-110892991D01*
X120157510Y-110874517D01*
X120324517Y-110707510D01*
X120463343Y-110516433D01*
X120570568Y-110305992D01*
X120643553Y-110081368D01*
X120643571Y-110081251D01*
X120643580Y-110081252D01*
X120643599Y-110081171D01*
X120643597Y-110081088D01*
X120680500Y-109848097D01*
X120680500Y-109611902D01*
X120643553Y-109378631D01*
X120570566Y-109154003D01*
X120570564Y-109154000D01*
X120570564Y-109153998D01*
X120463477Y-108943830D01*
X120463474Y-108943823D01*
X120463345Y-108943569D01*
X120403277Y-108860894D01*
X120324517Y-108752490D01*
X120157510Y-108585483D01*
X120137294Y-108570795D01*
X120111988Y-108546203D01*
X120103509Y-108535208D01*
X120078161Y-108470102D01*
X120092036Y-108401624D01*
X120092035Y-108401624D01*
X120095300Y-108395437D01*
X120132082Y-108352991D01*
X120157510Y-108334517D01*
X120324517Y-108167510D01*
X120463343Y-107976433D01*
X120570568Y-107765992D01*
X120643553Y-107541368D01*
X120671363Y-107365782D01*
X120680500Y-107308097D01*
X120680500Y-107071902D01*
X120643553Y-106838631D01*
X120570566Y-106614003D01*
X120463342Y-106403566D01*
X120324517Y-106212490D01*
X120157510Y-106045483D01*
X120137294Y-106030795D01*
X120111988Y-106006203D01*
X120103509Y-105995208D01*
X120078161Y-105930102D01*
X120092036Y-105861624D01*
X120092035Y-105861624D01*
X120095300Y-105855437D01*
X120132082Y-105812991D01*
X120157510Y-105794517D01*
X120324517Y-105627510D01*
X120463343Y-105436433D01*
X120570568Y-105225992D01*
X120643553Y-105001368D01*
X120680500Y-104768097D01*
X120680500Y-104531902D01*
X120643553Y-104298631D01*
X120570566Y-104074003D01*
X120570564Y-104074000D01*
X120570564Y-104073998D01*
X120468078Y-103872860D01*
X120468078Y-103872859D01*
X120463344Y-103863569D01*
X120463339Y-103863562D01*
X120324517Y-103672490D01*
X120157510Y-103505483D01*
X120137294Y-103490795D01*
X120111988Y-103466203D01*
X120103509Y-103455208D01*
X120078161Y-103390102D01*
X120092036Y-103321624D01*
X120092035Y-103321624D01*
X120095300Y-103315437D01*
X120132082Y-103272991D01*
X120157510Y-103254517D01*
X120324517Y-103087510D01*
X120463343Y-102896433D01*
X120570568Y-102685992D01*
X120643553Y-102461368D01*
X120680500Y-102228097D01*
X120680500Y-101991902D01*
X120643553Y-101758631D01*
X120570566Y-101534003D01*
X120463342Y-101323566D01*
X120324517Y-101132490D01*
X120157510Y-100965483D01*
X120137294Y-100950795D01*
X120111988Y-100926203D01*
X120103509Y-100915208D01*
X120078161Y-100850102D01*
X120092036Y-100781624D01*
X120092035Y-100781624D01*
X120095300Y-100775437D01*
X120132082Y-100732991D01*
X120157510Y-100714517D01*
X120324517Y-100547510D01*
X120463343Y-100356433D01*
X120570568Y-100145992D01*
X120643553Y-99921368D01*
X120680500Y-99688097D01*
X120680500Y-99451902D01*
X120643553Y-99218631D01*
X120570566Y-98994003D01*
X120463342Y-98783566D01*
X120324517Y-98592490D01*
X120157510Y-98425483D01*
X120137294Y-98410795D01*
X120111988Y-98386203D01*
X120103509Y-98375208D01*
X120078161Y-98310102D01*
X120092036Y-98241624D01*
X120092035Y-98241624D01*
X120095300Y-98235437D01*
X120132082Y-98192991D01*
X120157510Y-98174517D01*
X120324517Y-98007510D01*
X120463343Y-97816433D01*
X120570568Y-97605992D01*
X120643553Y-97381368D01*
X120680500Y-97148097D01*
X120680500Y-96911902D01*
X120643553Y-96678631D01*
X120570566Y-96454003D01*
X120496346Y-96308340D01*
X120463343Y-96243567D01*
X120324517Y-96052490D01*
X120157510Y-95885483D01*
X120137294Y-95870795D01*
X120111988Y-95846203D01*
X120103509Y-95835208D01*
X120078161Y-95770102D01*
X120092036Y-95701624D01*
X120092035Y-95701624D01*
X120095300Y-95695437D01*
X120132082Y-95652991D01*
X120157510Y-95634517D01*
X120324517Y-95467510D01*
X120463343Y-95276433D01*
X120570568Y-95065992D01*
X120643553Y-94841368D01*
X120680500Y-94608097D01*
X120680500Y-94371902D01*
X120643553Y-94138631D01*
X120570566Y-93914003D01*
X120496346Y-93768340D01*
X120463343Y-93703567D01*
X120324517Y-93512490D01*
X120157510Y-93345483D01*
X120137294Y-93330795D01*
X120111988Y-93306203D01*
X120103509Y-93295208D01*
X120078161Y-93230102D01*
X120092036Y-93161624D01*
X120092035Y-93161624D01*
X120095300Y-93155437D01*
X120132082Y-93112991D01*
X120157510Y-93094517D01*
X120324517Y-92927510D01*
X120463343Y-92736433D01*
X120570568Y-92525992D01*
X120643553Y-92301368D01*
X120680500Y-92068097D01*
X120680500Y-91831902D01*
X120643553Y-91598631D01*
X120570566Y-91374003D01*
X120496346Y-91228340D01*
X120463343Y-91163567D01*
X120324517Y-90972490D01*
X120157510Y-90805483D01*
X120137294Y-90790795D01*
X120111988Y-90766203D01*
X120103509Y-90755208D01*
X120078161Y-90690102D01*
X120092036Y-90621624D01*
X120092035Y-90621624D01*
X120095300Y-90615437D01*
X120132082Y-90572991D01*
X120157510Y-90554517D01*
X120324517Y-90387510D01*
X120463343Y-90196433D01*
X120570568Y-89985992D01*
X120643553Y-89761368D01*
X120680500Y-89528097D01*
X120680500Y-89291902D01*
X120643553Y-89058631D01*
X120570566Y-88834003D01*
X120496346Y-88688340D01*
X120463343Y-88623567D01*
X120324517Y-88432490D01*
X120157510Y-88265483D01*
X120137294Y-88250795D01*
X120111988Y-88226203D01*
X120103509Y-88215208D01*
X120078161Y-88150102D01*
X120092036Y-88081624D01*
X120092035Y-88081624D01*
X120095300Y-88075437D01*
X120132082Y-88032991D01*
X120157510Y-88014517D01*
X120324517Y-87847510D01*
X120463343Y-87656433D01*
X120570568Y-87445992D01*
X120643553Y-87221368D01*
X120680500Y-86988097D01*
X120680500Y-86751902D01*
X120643553Y-86518631D01*
X120570566Y-86294003D01*
X120496346Y-86148340D01*
X120463343Y-86083567D01*
X120324517Y-85892490D01*
X120157510Y-85725483D01*
X120137294Y-85710795D01*
X120111988Y-85686203D01*
X120103509Y-85675208D01*
X120078161Y-85610102D01*
X120092036Y-85541624D01*
X120092035Y-85541624D01*
X120095300Y-85535437D01*
X120132082Y-85492991D01*
X120157510Y-85474517D01*
X120324517Y-85307510D01*
X120463343Y-85116433D01*
X120570568Y-84905992D01*
X120643553Y-84681368D01*
X120680500Y-84448097D01*
X120680500Y-84211902D01*
X120643553Y-83978631D01*
X120570566Y-83754003D01*
X120496346Y-83608340D01*
X120463343Y-83543567D01*
X120324517Y-83352490D01*
X120157510Y-83185483D01*
X120137294Y-83170795D01*
X120111988Y-83146203D01*
X120103509Y-83135208D01*
X120078161Y-83070102D01*
X120092036Y-83001624D01*
X120092035Y-83001624D01*
X120095300Y-82995437D01*
X120132082Y-82952991D01*
X120157510Y-82934517D01*
X120324517Y-82767510D01*
X120463343Y-82576433D01*
X120570568Y-82365992D01*
X120643553Y-82141368D01*
X120680500Y-81908097D01*
X120680500Y-81671903D01*
X120677261Y-81651455D01*
X120677261Y-81651454D01*
X120674737Y-81635521D01*
X125929500Y-81635521D01*
X125929500Y-81944477D01*
X125964083Y-82251422D01*
X125964089Y-82251455D01*
X126032831Y-82552635D01*
X126032833Y-82552641D01*
X126032835Y-82552650D01*
X126032842Y-82552671D01*
X126134859Y-82844216D01*
X126134862Y-82844222D01*
X126134868Y-82844236D01*
X126197157Y-82973580D01*
X126268902Y-83122560D01*
X126269106Y-83122918D01*
X126269792Y-83123977D01*
X126308440Y-83185485D01*
X126433265Y-83384143D01*
X126548295Y-83528386D01*
X126612056Y-83608340D01*
X126625882Y-83625677D01*
X126747254Y-83747048D01*
X126844326Y-83844120D01*
X127085857Y-84036735D01*
X127347435Y-84201095D01*
X127625771Y-84335135D01*
X127625775Y-84335136D01*
X127625877Y-84335178D01*
X127626639Y-84335438D01*
X127714686Y-84366247D01*
X127917327Y-84437156D01*
X127917348Y-84437163D01*
X127917352Y-84437164D01*
X127917364Y-84437168D01*
X128142889Y-84488642D01*
X128217381Y-84505645D01*
X128217380Y-84505645D01*
X128218539Y-84505909D01*
X128218548Y-84505911D01*
X128218554Y-84505911D01*
X128218562Y-84505913D01*
X128423206Y-84528970D01*
X128522520Y-84540159D01*
X128524994Y-84540500D01*
X128834468Y-84540500D01*
X128844262Y-84540500D01*
X128851860Y-84538539D01*
X128991356Y-84522822D01*
X129140751Y-84505990D01*
X129141379Y-84505923D01*
X129141447Y-84505911D01*
X129141452Y-84505911D01*
X129442636Y-84437168D01*
X129734229Y-84335135D01*
X130012565Y-84201095D01*
X130274143Y-84036735D01*
X130515674Y-83844120D01*
X130734120Y-83625674D01*
X130926735Y-83384143D01*
X131091095Y-83122565D01*
X131225135Y-82844229D01*
X131327168Y-82552636D01*
X131395911Y-82251452D01*
X131408315Y-82141368D01*
X131430437Y-81945020D01*
X131430500Y-81944485D01*
X131430500Y-81635511D01*
X131430435Y-81634961D01*
X131395913Y-81328562D01*
X131395910Y-81328544D01*
X131327168Y-81027364D01*
X131327164Y-81027352D01*
X131327163Y-81027348D01*
X131327156Y-81027327D01*
X131225453Y-80736681D01*
X131225178Y-80735877D01*
X131225133Y-80735767D01*
X131091096Y-80457437D01*
X131083152Y-80444794D01*
X130926735Y-80195857D01*
X130734120Y-79954326D01*
X130515674Y-79735880D01*
X130515671Y-79735878D01*
X130454334Y-79686963D01*
X130274143Y-79543265D01*
X130013977Y-79379792D01*
X130012918Y-79379106D01*
X130012560Y-79378902D01*
X129984917Y-79365589D01*
X129734236Y-79244868D01*
X129734227Y-79244864D01*
X129734216Y-79244859D01*
X129442671Y-79142842D01*
X129442650Y-79142835D01*
X129442638Y-79142832D01*
X129442635Y-79142831D01*
X129319601Y-79114749D01*
X129141457Y-79074089D01*
X129141422Y-79074083D01*
X128834477Y-79039500D01*
X128834471Y-79039500D01*
X128834465Y-79039500D01*
X128525535Y-79039500D01*
X128525528Y-79039500D01*
X128525521Y-79039500D01*
X128218576Y-79074083D01*
X128218541Y-79074089D01*
X127917360Y-79142832D01*
X127917348Y-79142835D01*
X127917327Y-79142842D01*
X127625782Y-79244859D01*
X127625767Y-79244865D01*
X127625765Y-79244866D01*
X127347442Y-79378899D01*
X127085859Y-79543263D01*
X126844326Y-79735878D01*
X126625878Y-79954326D01*
X126433263Y-80195859D01*
X126268899Y-80457442D01*
X126134866Y-80735765D01*
X126134865Y-80735767D01*
X126134859Y-80735782D01*
X126032842Y-81027327D01*
X126032835Y-81027348D01*
X126032832Y-81027360D01*
X125964089Y-81328541D01*
X125964083Y-81328576D01*
X125929500Y-81635521D01*
X120674737Y-81635521D01*
X120643553Y-81438631D01*
X120570566Y-81214003D01*
X120463342Y-81003566D01*
X120324517Y-80812490D01*
X120157510Y-80645483D01*
X120137294Y-80630795D01*
X120111988Y-80606203D01*
X120103509Y-80595208D01*
X120078161Y-80530102D01*
X120092036Y-80461624D01*
X120092035Y-80461624D01*
X120095300Y-80455437D01*
X120132082Y-80412991D01*
X120157510Y-80394517D01*
X120324517Y-80227510D01*
X120463343Y-80036433D01*
X120570568Y-79825992D01*
X120643553Y-79601368D01*
X120652756Y-79543264D01*
X120680500Y-79368097D01*
X120680500Y-79131902D01*
X120643553Y-78898631D01*
X120570566Y-78674003D01*
X120463342Y-78463566D01*
X120324517Y-78272490D01*
X120157510Y-78105483D01*
X120075357Y-78045795D01*
X120050049Y-78021200D01*
X120041575Y-78010211D01*
X120016225Y-77945102D01*
X120030100Y-77876624D01*
X120030101Y-77876621D01*
X120033363Y-77870439D01*
X120070142Y-77827992D01*
X120157510Y-77764517D01*
X120324517Y-77597510D01*
X120463343Y-77406433D01*
X120570568Y-77195992D01*
X120643553Y-76971368D01*
X120651438Y-76921584D01*
X120680500Y-76738097D01*
X120680500Y-76501902D01*
X120643553Y-76268631D01*
X120570566Y-76044003D01*
X120496346Y-75898340D01*
X120463343Y-75833567D01*
X120324517Y-75642490D01*
X120157510Y-75475483D01*
X119966433Y-75336657D01*
X119755996Y-75229433D01*
X119531368Y-75156446D01*
X119531362Y-75156445D01*
X119298102Y-75119500D01*
X119298097Y-75119500D01*
X119298092Y-75119500D01*
X119061908Y-75119500D01*
X119061903Y-75119500D01*
X119061898Y-75119500D01*
X118828636Y-75156445D01*
X118828634Y-75156445D01*
X118828631Y-75156446D01*
X118604003Y-75229433D01*
X118408210Y-75329195D01*
X118393562Y-75336659D01*
X118284549Y-75415861D01*
X118284550Y-75415862D01*
X118214361Y-75466858D01*
X118206980Y-75470991D01*
X118030991Y-75646980D01*
X118026858Y-75654361D01*
X117975862Y-75724550D01*
X117975861Y-75724549D01*
X117896659Y-75833562D01*
X117896657Y-75833566D01*
X117789433Y-76044003D01*
X117716446Y-76268631D01*
X117716445Y-76268634D01*
X117716445Y-76268636D01*
X117679500Y-76501896D01*
X107863264Y-76501896D01*
X107398421Y-76037052D01*
X107398414Y-76037046D01*
X107324730Y-75987813D01*
X107275493Y-75954914D01*
X107138932Y-75898348D01*
X107138921Y-75898345D01*
X107138917Y-75898343D01*
X107138907Y-75898340D01*
X107138904Y-75898339D01*
X107138900Y-75898338D01*
X106993922Y-75869500D01*
X106993920Y-75869500D01*
X106993918Y-75869500D01*
X106632594Y-75869500D01*
X106585093Y-75860041D01*
X106521243Y-75833562D01*
X105174829Y-75275199D01*
X105168545Y-75272804D01*
X105145252Y-75263924D01*
X105133128Y-75258543D01*
X105107531Y-75245501D01*
X105075996Y-75229433D01*
X104851368Y-75156446D01*
X104851362Y-75156445D01*
X104618102Y-75119500D01*
X104618097Y-75119500D01*
X104618092Y-75119500D01*
X104381908Y-75119500D01*
X104381903Y-75119500D01*
X104381898Y-75119500D01*
X104148636Y-75156445D01*
X104148634Y-75156445D01*
X104148631Y-75156446D01*
X103924003Y-75229433D01*
X103728210Y-75329195D01*
X103713562Y-75336659D01*
X103604549Y-75415861D01*
X103604550Y-75415862D01*
X103534361Y-75466858D01*
X103526980Y-75470991D01*
X103350991Y-75646980D01*
X103346858Y-75654361D01*
X103295862Y-75724550D01*
X103295861Y-75724549D01*
X103216659Y-75833562D01*
X103216657Y-75833566D01*
X103109433Y-76044003D01*
X103036446Y-76268631D01*
X103036445Y-76268634D01*
X103036445Y-76268636D01*
X102999500Y-76501896D01*
X102999500Y-76738102D01*
X103028561Y-76921584D01*
X103036446Y-76971368D01*
X103109433Y-77195996D01*
X103175715Y-77326080D01*
X103216657Y-77406433D01*
X103355483Y-77597510D01*
X103522490Y-77764517D01*
X103522493Y-77764519D01*
X103604638Y-77824201D01*
X103629946Y-77848795D01*
X103638422Y-77859786D01*
X103663774Y-77924894D01*
X103649901Y-77993373D01*
X103649890Y-77993393D01*
X103646628Y-77999573D01*
X103609854Y-78042007D01*
X103534360Y-78096858D01*
X103526981Y-78100990D01*
X103350991Y-78276980D01*
X103346858Y-78284361D01*
X103295862Y-78354550D01*
X103295861Y-78354549D01*
X103216659Y-78463562D01*
X103216657Y-78463566D01*
X103109433Y-78674003D01*
X103036446Y-78898631D01*
X103036445Y-78898634D01*
X103036445Y-78898636D01*
X102999500Y-79131896D01*
X102999500Y-79368102D01*
X103036445Y-79601362D01*
X103036446Y-79601368D01*
X103109433Y-79825996D01*
X103174821Y-79954326D01*
X103216657Y-80036433D01*
X103355483Y-80227510D01*
X103355486Y-80227513D01*
X103522486Y-80394514D01*
X103522495Y-80394521D01*
X103542703Y-80409204D01*
X103568015Y-80433804D01*
X103576489Y-80444794D01*
X103601836Y-80509904D01*
X103587959Y-80578381D01*
X103587956Y-80578387D01*
X103584695Y-80584566D01*
X103547926Y-80627001D01*
X103539375Y-80633215D01*
X103539367Y-80633220D01*
X103522491Y-80645481D01*
X103522485Y-80645486D01*
X103350991Y-80816980D01*
X103346858Y-80824361D01*
X103295862Y-80894550D01*
X103295861Y-80894549D01*
X103216659Y-81003562D01*
X103216657Y-81003566D01*
X103109433Y-81214003D01*
X103036446Y-81438631D01*
X103036445Y-81438634D01*
X103036445Y-81438636D01*
X102999500Y-81671896D01*
X102999500Y-81908102D01*
X103005263Y-81944485D01*
X103036446Y-82141368D01*
X103109433Y-82365996D01*
X103204531Y-82552635D01*
X103216657Y-82576433D01*
X103355483Y-82767510D01*
X103515876Y-82927903D01*
X103549360Y-82989226D01*
X103544376Y-83058918D01*
X103502504Y-83114851D01*
X103475695Y-83130125D01*
X102414905Y-83570041D01*
X102367404Y-83579500D01*
X82796078Y-83579500D01*
X82651096Y-83608338D01*
X82651079Y-83608344D01*
X82514517Y-83664908D01*
X82514508Y-83664913D01*
X82514491Y-83664923D01*
X82391583Y-83747048D01*
X82391578Y-83747052D01*
X81017054Y-85121574D01*
X81017050Y-85121578D01*
X80943231Y-85232054D01*
X80943166Y-85232155D01*
X80934928Y-85244484D01*
X80934915Y-85244505D01*
X80934908Y-85244519D01*
X80878345Y-85381076D01*
X80878338Y-85381096D01*
X80878336Y-85381104D01*
X80849500Y-85526074D01*
X80849500Y-86351736D01*
X80837924Y-86391157D01*
X80828803Y-86423948D01*
X80776657Y-86470452D01*
X80707648Y-86481381D01*
X80643684Y-86453266D01*
X80620196Y-86426929D01*
X80616919Y-86421986D01*
X80602338Y-86391787D01*
X80570566Y-86294003D01*
X80496346Y-86148340D01*
X80463343Y-86083567D01*
X80324517Y-85892490D01*
X80157510Y-85725483D01*
X80137294Y-85710795D01*
X80111988Y-85686203D01*
X80103509Y-85675208D01*
X80078161Y-85610102D01*
X80092036Y-85541624D01*
X80092035Y-85541624D01*
X80095300Y-85535437D01*
X80132082Y-85492991D01*
X80157510Y-85474517D01*
X80324517Y-85307510D01*
X80463343Y-85116433D01*
X80570568Y-84905992D01*
X80643553Y-84681368D01*
X80680500Y-84448097D01*
X80680500Y-84211902D01*
X80643553Y-83978631D01*
X80570566Y-83754003D01*
X80496346Y-83608340D01*
X80463343Y-83543567D01*
X80324517Y-83352490D01*
X80157510Y-83185483D01*
X80137294Y-83170795D01*
X80111988Y-83146203D01*
X80103509Y-83135208D01*
X80078161Y-83070102D01*
X80092036Y-83001624D01*
X80092035Y-83001624D01*
X80095300Y-82995437D01*
X80132082Y-82952991D01*
X80157510Y-82934517D01*
X80324517Y-82767510D01*
X80463343Y-82576433D01*
X80570568Y-82365992D01*
X80643553Y-82141368D01*
X80680500Y-81908097D01*
X80680500Y-81671902D01*
X80643553Y-81438631D01*
X80570566Y-81214003D01*
X80463342Y-81003566D01*
X80324517Y-80812490D01*
X80157510Y-80645483D01*
X80137294Y-80630795D01*
X80111988Y-80606203D01*
X80103509Y-80595208D01*
X80078161Y-80530102D01*
X80092036Y-80461624D01*
X80092035Y-80461624D01*
X80095300Y-80455437D01*
X80132082Y-80412991D01*
X80157510Y-80394517D01*
X80324517Y-80227510D01*
X80463343Y-80036433D01*
X80570568Y-79825992D01*
X80643553Y-79601368D01*
X80652756Y-79543264D01*
X80680500Y-79368097D01*
X80680500Y-79131902D01*
X80643553Y-78898631D01*
X80570566Y-78674003D01*
X80463342Y-78463566D01*
X80324517Y-78272490D01*
X80157510Y-78105483D01*
X80075357Y-78045795D01*
X80050049Y-78021200D01*
X80041575Y-78010211D01*
X80016225Y-77945102D01*
X80030100Y-77876624D01*
X80030101Y-77876621D01*
X80033363Y-77870439D01*
X80070142Y-77827992D01*
X80157510Y-77764517D01*
X80324517Y-77597510D01*
X80463343Y-77406433D01*
X80570568Y-77195992D01*
X80643553Y-76971368D01*
X80651438Y-76921584D01*
X80680500Y-76738097D01*
X80680500Y-76501902D01*
X80643553Y-76268631D01*
X80570566Y-76044003D01*
X80496346Y-75898340D01*
X80463343Y-75833567D01*
X80324517Y-75642490D01*
X80157510Y-75475483D01*
X79966433Y-75336657D01*
X79755996Y-75229433D01*
X79531368Y-75156446D01*
X79531362Y-75156445D01*
X79298102Y-75119500D01*
X79298097Y-75119500D01*
X79298092Y-75119500D01*
X79061908Y-75119500D01*
X79061903Y-75119500D01*
X79061898Y-75119500D01*
X78828636Y-75156445D01*
X78828634Y-75156445D01*
X78828631Y-75156446D01*
X78604003Y-75229433D01*
X78408210Y-75329195D01*
X78393562Y-75336659D01*
X78284549Y-75415861D01*
X78284550Y-75415862D01*
X78214361Y-75466858D01*
X78206980Y-75470991D01*
X78030991Y-75646980D01*
X78026858Y-75654361D01*
X77975862Y-75724550D01*
X77975861Y-75724549D01*
X77896659Y-75833562D01*
X77896657Y-75833566D01*
X77789433Y-76044003D01*
X77716446Y-76268631D01*
X77716445Y-76268634D01*
X77716445Y-76268636D01*
X77679500Y-76501896D01*
X77679500Y-76738102D01*
X77708561Y-76921584D01*
X77716446Y-76971368D01*
X77789433Y-77195996D01*
X77855715Y-77326080D01*
X77896657Y-77406433D01*
X78035483Y-77597510D01*
X78202490Y-77764517D01*
X78202493Y-77764519D01*
X78284638Y-77824201D01*
X78309946Y-77848795D01*
X78318422Y-77859786D01*
X78343774Y-77924894D01*
X78329901Y-77993373D01*
X78329890Y-77993393D01*
X78326628Y-77999573D01*
X78289854Y-78042007D01*
X78214360Y-78096858D01*
X78206981Y-78100990D01*
X78030991Y-78276980D01*
X78026858Y-78284361D01*
X77975862Y-78354550D01*
X77975861Y-78354549D01*
X77896659Y-78463562D01*
X77896657Y-78463566D01*
X77789433Y-78674003D01*
X77716446Y-78898631D01*
X77716445Y-78898634D01*
X77716445Y-78898636D01*
X77679500Y-79131896D01*
X77679500Y-79368102D01*
X77716445Y-79601362D01*
X77716446Y-79601368D01*
X77789433Y-79825996D01*
X77854821Y-79954326D01*
X77896657Y-80036433D01*
X78035483Y-80227510D01*
X78035486Y-80227513D01*
X78202486Y-80394514D01*
X78202495Y-80394521D01*
X78222703Y-80409204D01*
X78248015Y-80433804D01*
X78256489Y-80444794D01*
X78281836Y-80509904D01*
X78267959Y-80578381D01*
X78267956Y-80578387D01*
X78264695Y-80584566D01*
X78227926Y-80627001D01*
X78219375Y-80633215D01*
X78219367Y-80633220D01*
X78202491Y-80645481D01*
X78202485Y-80645486D01*
X78030991Y-80816980D01*
X78026858Y-80824361D01*
X77975862Y-80894550D01*
X77975861Y-80894549D01*
X77896659Y-81003562D01*
X77896657Y-81003566D01*
X77789433Y-81214003D01*
X77716446Y-81438631D01*
X77716445Y-81438634D01*
X77716445Y-81438636D01*
X77679500Y-81671896D01*
X77679500Y-81908102D01*
X77685263Y-81944485D01*
X77716446Y-82141368D01*
X77789433Y-82365996D01*
X77884531Y-82552635D01*
X77896657Y-82576433D01*
X78035483Y-82767510D01*
X78035486Y-82767513D01*
X78202486Y-82934514D01*
X78202495Y-82934521D01*
X78222703Y-82949204D01*
X78248015Y-82973804D01*
X78256489Y-82984794D01*
X78281836Y-83049904D01*
X78267959Y-83118381D01*
X78267956Y-83118387D01*
X78264695Y-83124566D01*
X78227926Y-83167001D01*
X78219375Y-83173215D01*
X78219367Y-83173220D01*
X78202491Y-83185481D01*
X78202485Y-83185486D01*
X78030990Y-83356981D01*
X78026860Y-83364357D01*
X78012489Y-83384138D01*
X78012487Y-83384141D01*
X77896657Y-83543565D01*
X77854821Y-83625673D01*
X77789433Y-83754003D01*
X77716446Y-83978631D01*
X77716445Y-83978634D01*
X77716445Y-83978636D01*
X77679500Y-84211896D01*
X77679500Y-84448102D01*
X77694135Y-84540500D01*
X77716446Y-84681368D01*
X77789433Y-84905996D01*
X77849457Y-85023799D01*
X77878347Y-85080499D01*
X77896655Y-85116431D01*
X77900402Y-85121588D01*
X78035483Y-85307510D01*
X78035486Y-85307513D01*
X78202486Y-85474514D01*
X78202495Y-85474521D01*
X78222703Y-85489204D01*
X78248015Y-85513804D01*
X78256489Y-85524794D01*
X78281836Y-85589904D01*
X78267959Y-85658381D01*
X78267956Y-85658387D01*
X78264695Y-85664566D01*
X78227926Y-85707001D01*
X78219375Y-85713215D01*
X78219367Y-85713220D01*
X78202491Y-85725481D01*
X78202485Y-85725486D01*
X78030991Y-85896980D01*
X78026858Y-85904361D01*
X77975862Y-85974550D01*
X77975861Y-85974549D01*
X77896659Y-86083562D01*
X77896657Y-86083566D01*
X77789433Y-86294003D01*
X77716446Y-86518631D01*
X77716445Y-86518634D01*
X77716445Y-86518636D01*
X77679500Y-86751896D01*
X77679500Y-86988102D01*
X77716445Y-87221362D01*
X77716446Y-87221368D01*
X77789433Y-87445996D01*
X77819633Y-87505266D01*
X77878347Y-87620499D01*
X77896655Y-87656431D01*
X77896937Y-87656819D01*
X78035483Y-87847510D01*
X78035486Y-87847513D01*
X78202486Y-88014514D01*
X78202495Y-88014521D01*
X78222703Y-88029204D01*
X78248015Y-88053804D01*
X78256489Y-88064794D01*
X78281836Y-88129904D01*
X78267959Y-88198381D01*
X78267956Y-88198387D01*
X78264695Y-88204566D01*
X78227926Y-88247001D01*
X78219375Y-88253215D01*
X78219367Y-88253220D01*
X78202491Y-88265481D01*
X78202485Y-88265486D01*
X78030990Y-88436981D01*
X78026858Y-88444360D01*
X77989928Y-88495190D01*
X77928267Y-88580059D01*
X77896657Y-88623566D01*
X77896655Y-88623568D01*
X77896653Y-88623573D01*
X77863655Y-88688336D01*
X77789433Y-88834003D01*
X77716446Y-89058631D01*
X77716445Y-89058634D01*
X77716445Y-89058636D01*
X77679500Y-89291896D01*
X77679500Y-89528102D01*
X77716445Y-89761362D01*
X77716446Y-89761368D01*
X77789433Y-89985996D01*
X77849457Y-90103799D01*
X77878347Y-90160499D01*
X77896655Y-90196431D01*
X77896937Y-90196819D01*
X78035483Y-90387510D01*
X78035486Y-90387513D01*
X78202486Y-90554514D01*
X78202495Y-90554521D01*
X78222703Y-90569204D01*
X78248015Y-90593804D01*
X78256489Y-90604794D01*
X78281836Y-90669904D01*
X78267963Y-90738372D01*
X78264702Y-90744553D01*
X78227929Y-90787000D01*
X78225510Y-90788758D01*
X78225495Y-90788769D01*
X78202485Y-90805485D01*
X78202483Y-90805487D01*
X78030992Y-90976979D01*
X78026859Y-90984358D01*
X77983161Y-91044505D01*
X77983160Y-91044504D01*
X77896661Y-91163560D01*
X77896657Y-91163566D01*
X77896655Y-91163568D01*
X77896653Y-91163573D01*
X77863654Y-91228338D01*
X77789433Y-91374003D01*
X77716446Y-91598631D01*
X77716445Y-91598634D01*
X77716445Y-91598636D01*
X77679500Y-91831896D01*
X77679500Y-92068102D01*
X77716445Y-92301362D01*
X77716446Y-92301368D01*
X77789433Y-92525996D01*
X77849457Y-92643799D01*
X77878347Y-92700499D01*
X77896655Y-92736431D01*
X77896937Y-92736819D01*
X78035483Y-92927510D01*
X78035486Y-92927513D01*
X78202486Y-93094514D01*
X78202495Y-93094521D01*
X78222703Y-93109204D01*
X78248015Y-93133804D01*
X78256489Y-93144794D01*
X78281836Y-93209904D01*
X78267959Y-93278381D01*
X78267956Y-93278387D01*
X78264695Y-93284566D01*
X78227926Y-93327001D01*
X78219375Y-93333215D01*
X78219367Y-93333220D01*
X78202491Y-93345481D01*
X78202485Y-93345486D01*
X78030991Y-93516980D01*
X78026858Y-93524361D01*
X77975862Y-93594550D01*
X77975861Y-93594549D01*
X77896659Y-93703562D01*
X77896657Y-93703566D01*
X77789433Y-93914003D01*
X77716446Y-94138631D01*
X77716445Y-94138634D01*
X77716445Y-94138636D01*
X77679500Y-94371896D01*
X77679500Y-94608102D01*
X77683623Y-94634132D01*
X77716446Y-94841368D01*
X77789433Y-95065996D01*
X77849457Y-95183799D01*
X77878347Y-95240499D01*
X77896655Y-95276431D01*
X77928226Y-95319884D01*
X78035483Y-95467510D01*
X78035486Y-95467513D01*
X78202486Y-95634514D01*
X78202495Y-95634521D01*
X78222703Y-95649204D01*
X78248015Y-95673804D01*
X78256489Y-95684794D01*
X78281836Y-95749904D01*
X78267959Y-95818381D01*
X78267956Y-95818387D01*
X78264695Y-95824566D01*
X78227926Y-95867001D01*
X78219375Y-95873215D01*
X78219367Y-95873220D01*
X78202491Y-95885481D01*
X78202485Y-95885486D01*
X78030991Y-96056980D01*
X78026858Y-96064361D01*
X77975862Y-96134550D01*
X77975861Y-96134549D01*
X77896659Y-96243562D01*
X77896657Y-96243566D01*
X77789433Y-96454003D01*
X77716446Y-96678631D01*
X77716445Y-96678634D01*
X77716445Y-96678636D01*
X77679500Y-96911896D01*
X77679500Y-97148102D01*
X77716445Y-97381362D01*
X77716446Y-97381368D01*
X77789433Y-97605996D01*
X77827170Y-97680058D01*
X77878347Y-97780499D01*
X77896655Y-97816431D01*
X77896937Y-97816819D01*
X78035483Y-98007510D01*
X78035486Y-98007513D01*
X78202486Y-98174514D01*
X78202495Y-98174521D01*
X78222703Y-98189204D01*
X78248015Y-98213804D01*
X78256489Y-98224794D01*
X78281836Y-98289904D01*
X78267959Y-98358381D01*
X78267956Y-98358387D01*
X78264695Y-98364566D01*
X78227926Y-98407001D01*
X78219375Y-98413215D01*
X78219367Y-98413220D01*
X78202491Y-98425481D01*
X78202485Y-98425486D01*
X78030991Y-98596980D01*
X78026858Y-98604361D01*
X77975862Y-98674550D01*
X77975861Y-98674549D01*
X77896659Y-98783562D01*
X77896657Y-98783566D01*
X77789433Y-98994003D01*
X77716446Y-99218631D01*
X77716445Y-99218634D01*
X77716445Y-99218636D01*
X77679500Y-99451896D01*
X77679500Y-99688102D01*
X77716445Y-99921362D01*
X77716446Y-99921368D01*
X77789433Y-100145996D01*
X77896657Y-100356433D01*
X78035483Y-100547510D01*
X78035486Y-100547513D01*
X78202486Y-100714514D01*
X78202495Y-100714521D01*
X78222703Y-100729204D01*
X78248015Y-100753804D01*
X78256489Y-100764794D01*
X78281836Y-100829904D01*
X78267963Y-100898373D01*
X78264703Y-100904552D01*
X78227919Y-100947006D01*
X78202491Y-100965480D01*
X78030991Y-101136980D01*
X78026858Y-101144361D01*
X77975862Y-101214550D01*
X77975861Y-101214549D01*
X77896659Y-101323562D01*
X77896657Y-101323566D01*
X77789433Y-101534003D01*
X77716446Y-101758631D01*
X77716445Y-101758634D01*
X77716445Y-101758636D01*
X77679500Y-101991896D01*
X77679500Y-102228102D01*
X77716445Y-102461362D01*
X77716446Y-102461368D01*
X77789433Y-102685996D01*
X77896657Y-102896433D01*
X78035483Y-103087510D01*
X78035486Y-103087513D01*
X78202486Y-103254514D01*
X78202495Y-103254521D01*
X78222703Y-103269204D01*
X78248015Y-103293804D01*
X78256489Y-103304794D01*
X78281836Y-103369904D01*
X78267959Y-103438381D01*
X78267956Y-103438387D01*
X78264695Y-103444566D01*
X78227926Y-103487001D01*
X78219375Y-103493215D01*
X78219367Y-103493220D01*
X78202491Y-103505481D01*
X78202485Y-103505486D01*
X78030991Y-103676980D01*
X78026858Y-103684361D01*
X77975862Y-103754550D01*
X77975861Y-103754549D01*
X77896659Y-103863562D01*
X77896657Y-103863566D01*
X77789433Y-104074003D01*
X77716446Y-104298631D01*
X77716445Y-104298634D01*
X77716445Y-104298636D01*
X77679500Y-104531896D01*
X77679500Y-104768102D01*
X77716445Y-105001362D01*
X77716446Y-105001368D01*
X77789433Y-105225996D01*
X77896657Y-105436433D01*
X78035483Y-105627510D01*
X78035485Y-105627512D01*
X78202486Y-105794514D01*
X78202495Y-105794521D01*
X78222703Y-105809204D01*
X78248015Y-105833804D01*
X78256489Y-105844794D01*
X78281836Y-105909904D01*
X78267959Y-105978381D01*
X78267956Y-105978387D01*
X78264695Y-105984566D01*
X78227926Y-106027001D01*
X78219375Y-106033215D01*
X78219367Y-106033220D01*
X78202491Y-106045481D01*
X78202485Y-106045486D01*
X78030990Y-106216981D01*
X78026859Y-106224359D01*
X77999353Y-106262218D01*
X77999353Y-106262219D01*
X77896657Y-106403566D01*
X77896654Y-106403570D01*
X77896653Y-106403573D01*
X77885187Y-106426077D01*
X77789433Y-106614003D01*
X77716446Y-106838631D01*
X77716445Y-106838634D01*
X77716445Y-106838636D01*
X77679500Y-107071896D01*
X77679500Y-107308102D01*
X77685927Y-107348678D01*
X77716446Y-107541368D01*
X77789433Y-107765996D01*
X77896657Y-107976433D01*
X78035483Y-108167510D01*
X78035486Y-108167513D01*
X78202486Y-108334514D01*
X78202495Y-108334521D01*
X78222703Y-108349204D01*
X78248015Y-108373804D01*
X78256489Y-108384794D01*
X78281836Y-108449904D01*
X78267959Y-108518381D01*
X78267956Y-108518387D01*
X78264695Y-108524566D01*
X78227926Y-108567001D01*
X78219375Y-108573215D01*
X78219367Y-108573220D01*
X78202491Y-108585481D01*
X78202485Y-108585486D01*
X78030991Y-108756980D01*
X78026858Y-108764361D01*
X77975862Y-108834550D01*
X77975861Y-108834549D01*
X77896659Y-108943562D01*
X77896522Y-108943830D01*
X77789433Y-109154003D01*
X77716446Y-109378631D01*
X77716445Y-109378634D01*
X77716445Y-109378636D01*
X77679500Y-109611896D01*
X77679500Y-109848102D01*
X77711491Y-110050082D01*
X77716446Y-110081368D01*
X77776599Y-110266497D01*
X77789436Y-110306005D01*
X77896484Y-110516095D01*
X77896519Y-110516163D01*
X77896524Y-110516172D01*
X77896659Y-110516437D01*
X77933039Y-110566509D01*
X78035483Y-110707510D01*
X78035486Y-110707513D01*
X78202486Y-110874514D01*
X78202495Y-110874521D01*
X78222703Y-110889204D01*
X78248015Y-110913804D01*
X78256489Y-110924794D01*
X78281836Y-110989904D01*
X78267959Y-111058381D01*
X78267956Y-111058387D01*
X78264695Y-111064566D01*
X78227926Y-111107001D01*
X78219375Y-111113215D01*
X78219367Y-111113220D01*
X78202491Y-111125481D01*
X78202485Y-111125486D01*
X78030991Y-111296980D01*
X78026858Y-111304361D01*
X77975862Y-111374550D01*
X77975861Y-111374549D01*
X77896659Y-111483562D01*
X77896657Y-111483566D01*
X77789433Y-111694003D01*
X77716446Y-111918631D01*
X77716445Y-111918634D01*
X77716445Y-111918636D01*
X77679500Y-112151896D01*
X77679500Y-112388102D01*
X77716445Y-112621362D01*
X77716446Y-112621368D01*
X77789433Y-112845996D01*
X77896657Y-113056433D01*
X78035483Y-113247510D01*
X78202490Y-113414517D01*
X78393567Y-113553343D01*
X78492991Y-113604002D01*
X78604003Y-113660566D01*
X78604876Y-113661011D01*
X78608630Y-113662070D01*
X78613998Y-113663814D01*
X78724410Y-113699688D01*
X78724411Y-113699689D01*
X78724412Y-113699689D01*
X78828631Y-113733553D01*
X79061903Y-113770500D01*
X79061908Y-113770500D01*
X79298096Y-113770500D01*
X79298097Y-113770500D01*
X79531368Y-113733553D01*
X79755992Y-113660568D01*
X79966433Y-113553343D01*
X80157510Y-113414517D01*
X80324517Y-113247510D01*
X80463343Y-113056433D01*
X80570568Y-112845992D01*
X80602060Y-112749067D01*
X80625233Y-112715176D01*
X80644053Y-112686791D01*
X80708016Y-112658675D01*
X80777026Y-112669603D01*
X80829172Y-112716106D01*
X80843375Y-112748417D01*
X80844963Y-112754125D01*
X80849500Y-112787360D01*
X80849500Y-117219940D01*
X80844476Y-117254877D01*
X80837064Y-117280118D01*
X80805769Y-117332862D01*
X80638058Y-117500573D01*
X80609807Y-117521722D01*
X80586719Y-117534330D01*
X80527289Y-117549500D01*
X78961371Y-117549500D01*
X78933397Y-117546303D01*
X78929520Y-117545405D01*
X78550253Y-117513181D01*
X78393046Y-117499824D01*
X78393043Y-117499823D01*
X78393033Y-117499823D01*
X78351435Y-117498009D01*
X78349531Y-117498279D01*
X78332172Y-117499500D01*
X78221153Y-117499500D01*
X78066527Y-117530257D01*
X78066496Y-117530264D01*
X77920833Y-117590598D01*
X77920824Y-117590603D01*
X77920807Y-117590613D01*
X77789708Y-117678211D01*
X77789707Y-117678212D01*
X77789701Y-117678217D01*
X77678217Y-117789701D01*
X77678212Y-117789707D01*
X77678211Y-117789708D01*
X77590607Y-117920817D01*
X77590604Y-117920822D01*
X77590604Y-117920824D01*
X77561544Y-117990983D01*
X77550970Y-118016510D01*
X77507129Y-118070913D01*
X77440835Y-118092978D01*
X77373136Y-118075699D01*
X77341620Y-118049001D01*
X77197437Y-117878042D01*
X77131606Y-117799986D01*
X77103475Y-117769291D01*
X77101935Y-117768133D01*
X77088816Y-117756737D01*
X77010292Y-117678213D01*
X77010291Y-117678212D01*
X77010290Y-117678211D01*
X76879191Y-117590613D01*
X76879190Y-117590612D01*
X76879185Y-117590609D01*
X76879172Y-117590602D01*
X76879165Y-117590598D01*
X76733502Y-117530264D01*
X76733471Y-117530257D01*
X76578847Y-117499500D01*
X76578845Y-117499500D01*
X76578842Y-117499500D01*
X76421158Y-117499500D01*
X76421155Y-117499500D01*
X76421153Y-117499500D01*
X76266527Y-117530257D01*
X76266496Y-117530264D01*
X76120833Y-117590598D01*
X76120824Y-117590603D01*
X76120807Y-117590613D01*
X75989708Y-117678211D01*
X75989707Y-117678212D01*
X75989701Y-117678217D01*
X75878217Y-117789701D01*
X75878214Y-117789705D01*
X75878211Y-117789708D01*
X75829092Y-117863219D01*
X75805509Y-117889474D01*
X75794861Y-117898373D01*
X75730798Y-117926259D01*
X75661833Y-117915086D01*
X75653674Y-117911183D01*
X75617561Y-117885019D01*
X75597270Y-117863798D01*
X75589955Y-117857875D01*
X75510297Y-117778217D01*
X75510291Y-117778212D01*
X75510290Y-117778211D01*
X75379191Y-117690613D01*
X75379190Y-117690612D01*
X75379185Y-117690609D01*
X75379172Y-117690602D01*
X75379165Y-117690598D01*
X75233502Y-117630264D01*
X75233471Y-117630257D01*
X75078847Y-117599500D01*
X75078845Y-117599500D01*
X75078842Y-117599500D01*
X74921158Y-117599500D01*
X74921155Y-117599500D01*
X74921153Y-117599500D01*
X74766527Y-117630257D01*
X74766496Y-117630264D01*
X74620833Y-117690598D01*
X74620824Y-117690603D01*
X74620807Y-117690613D01*
X74489708Y-117778211D01*
X74489707Y-117778212D01*
X74489701Y-117778217D01*
X74378217Y-117889701D01*
X74378212Y-117889707D01*
X74378211Y-117889708D01*
X74290605Y-118020819D01*
X74290604Y-118020820D01*
X74256128Y-118104056D01*
X74212288Y-118158460D01*
X74145994Y-118180525D01*
X74078294Y-118163246D01*
X74047146Y-118136983D01*
X74047007Y-118136820D01*
X73933009Y-118001651D01*
X73926372Y-117995110D01*
X73922859Y-117990983D01*
X73922732Y-117990699D01*
X73922258Y-117990180D01*
X73921791Y-117989713D01*
X73921789Y-117989710D01*
X73810292Y-117878213D01*
X73810291Y-117878212D01*
X73810290Y-117878211D01*
X73679191Y-117790613D01*
X73679190Y-117790612D01*
X73679185Y-117790609D01*
X73679172Y-117790602D01*
X73679165Y-117790598D01*
X73533502Y-117730264D01*
X73533471Y-117730257D01*
X73378847Y-117699500D01*
X73378845Y-117699500D01*
X73378842Y-117699500D01*
X73221158Y-117699500D01*
X73221155Y-117699500D01*
X73221153Y-117699500D01*
X73066527Y-117730257D01*
X73066496Y-117730264D01*
X72920833Y-117790598D01*
X72920824Y-117790603D01*
X72920807Y-117790613D01*
X72789708Y-117878211D01*
X72789707Y-117878212D01*
X72789701Y-117878217D01*
X72678217Y-117989701D01*
X72678212Y-117989707D01*
X72678211Y-117989708D01*
X72590607Y-118120815D01*
X72590607Y-118120816D01*
X72590598Y-118120835D01*
X72583904Y-118136997D01*
X72540061Y-118191399D01*
X72473766Y-118213461D01*
X72406067Y-118196179D01*
X72374857Y-118169839D01*
X72374600Y-118169537D01*
X72233009Y-118001651D01*
X72226341Y-117995079D01*
X72222792Y-117990903D01*
X72222671Y-117990633D01*
X72222258Y-117990180D01*
X72221791Y-117989713D01*
X72221789Y-117989710D01*
X72110292Y-117878213D01*
X72110291Y-117878212D01*
X72110290Y-117878211D01*
X71979191Y-117790613D01*
X71979190Y-117790612D01*
X71979185Y-117790609D01*
X71979172Y-117790602D01*
X71979165Y-117790598D01*
X71833502Y-117730264D01*
X71833471Y-117730257D01*
X71678847Y-117699500D01*
X71678845Y-117699500D01*
X71678842Y-117699500D01*
X71521158Y-117699500D01*
X71521155Y-117699500D01*
X71521153Y-117699500D01*
X71366527Y-117730257D01*
X71366496Y-117730264D01*
X71220833Y-117790598D01*
X71220824Y-117790603D01*
X71220807Y-117790613D01*
X71089715Y-117878207D01*
X71089710Y-117878210D01*
X71089701Y-117878218D01*
X71050287Y-117917633D01*
X71022029Y-117938786D01*
X71008309Y-117946277D01*
X70940051Y-117961128D01*
X70938245Y-117960999D01*
X70880044Y-117941631D01*
X70873529Y-117937444D01*
X70852892Y-117920813D01*
X70810296Y-117878216D01*
X70810291Y-117878212D01*
X70810290Y-117878211D01*
X70679191Y-117790613D01*
X70679190Y-117790612D01*
X70679185Y-117790609D01*
X70679172Y-117790602D01*
X70679165Y-117790598D01*
X70533502Y-117730264D01*
X70533471Y-117730257D01*
X70378847Y-117699500D01*
X70378845Y-117699500D01*
X70378842Y-117699500D01*
X70221158Y-117699500D01*
X70221155Y-117699500D01*
X70221153Y-117699500D01*
X70066527Y-117730257D01*
X70066496Y-117730264D01*
X69920833Y-117790598D01*
X69920824Y-117790603D01*
X69920807Y-117790613D01*
X69789708Y-117878211D01*
X69789707Y-117878212D01*
X69789701Y-117878217D01*
X69678217Y-117989701D01*
X69678212Y-117989707D01*
X69678211Y-117989708D01*
X69590613Y-118120807D01*
X69590603Y-118120824D01*
X69590598Y-118120833D01*
X69530264Y-118266496D01*
X69530257Y-118266527D01*
X69499500Y-118421150D01*
X69499500Y-118421153D01*
X69499500Y-118578846D01*
X69499500Y-118578848D01*
X69499499Y-118578848D01*
X47600500Y-118578848D01*
X47600500Y-81635521D01*
X52249500Y-81635521D01*
X52249500Y-81944477D01*
X52284083Y-82251422D01*
X52284089Y-82251455D01*
X52352831Y-82552635D01*
X52352833Y-82552641D01*
X52352835Y-82552650D01*
X52352842Y-82552671D01*
X52454859Y-82844216D01*
X52454862Y-82844222D01*
X52454868Y-82844236D01*
X52517157Y-82973580D01*
X52588902Y-83122560D01*
X52589106Y-83122918D01*
X52589792Y-83123977D01*
X52628440Y-83185485D01*
X52753265Y-83384143D01*
X52868295Y-83528386D01*
X52932056Y-83608340D01*
X52945882Y-83625677D01*
X53067254Y-83747048D01*
X53164326Y-83844120D01*
X53405857Y-84036735D01*
X53667435Y-84201095D01*
X53945771Y-84335135D01*
X53945775Y-84335136D01*
X53945877Y-84335178D01*
X53946639Y-84335438D01*
X54034686Y-84366247D01*
X54237327Y-84437156D01*
X54237348Y-84437163D01*
X54237352Y-84437164D01*
X54237364Y-84437168D01*
X54462889Y-84488642D01*
X54537381Y-84505645D01*
X54537380Y-84505645D01*
X54538539Y-84505909D01*
X54538548Y-84505911D01*
X54538554Y-84505911D01*
X54538562Y-84505913D01*
X54743206Y-84528970D01*
X54842520Y-84540159D01*
X54844994Y-84540500D01*
X55154468Y-84540500D01*
X55164262Y-84540500D01*
X55171860Y-84538539D01*
X55311356Y-84522822D01*
X55460751Y-84505990D01*
X55461379Y-84505923D01*
X55461447Y-84505911D01*
X55461452Y-84505911D01*
X55762636Y-84437168D01*
X56054229Y-84335135D01*
X56332565Y-84201095D01*
X56594143Y-84036735D01*
X56835674Y-83844120D01*
X57054120Y-83625674D01*
X57246735Y-83384143D01*
X57411095Y-83122565D01*
X57545135Y-82844229D01*
X57647168Y-82552636D01*
X57715911Y-82251452D01*
X57728315Y-82141368D01*
X57750437Y-81945020D01*
X57750500Y-81944485D01*
X57750500Y-81635511D01*
X57750435Y-81634961D01*
X57715913Y-81328562D01*
X57715910Y-81328544D01*
X57647168Y-81027364D01*
X57647164Y-81027352D01*
X57647163Y-81027348D01*
X57647156Y-81027327D01*
X57545453Y-80736681D01*
X57545178Y-80735877D01*
X57545133Y-80735767D01*
X57411096Y-80457437D01*
X57403152Y-80444794D01*
X57246735Y-80195857D01*
X57054120Y-79954326D01*
X56835674Y-79735880D01*
X56835671Y-79735878D01*
X56774334Y-79686963D01*
X56594143Y-79543265D01*
X56333977Y-79379792D01*
X56332918Y-79379106D01*
X56332560Y-79378902D01*
X56304917Y-79365589D01*
X56054236Y-79244868D01*
X56054227Y-79244864D01*
X56054216Y-79244859D01*
X55762671Y-79142842D01*
X55762650Y-79142835D01*
X55762638Y-79142832D01*
X55762635Y-79142831D01*
X55639601Y-79114749D01*
X55461457Y-79074089D01*
X55461422Y-79074083D01*
X55154477Y-79039500D01*
X55154471Y-79039500D01*
X55154465Y-79039500D01*
X54845535Y-79039500D01*
X54845528Y-79039500D01*
X54845521Y-79039500D01*
X54538576Y-79074083D01*
X54538541Y-79074089D01*
X54237360Y-79142832D01*
X54237348Y-79142835D01*
X54237327Y-79142842D01*
X53945782Y-79244859D01*
X53945767Y-79244865D01*
X53945765Y-79244866D01*
X53667442Y-79378899D01*
X53405859Y-79543263D01*
X53164326Y-79735878D01*
X52945878Y-79954326D01*
X52753263Y-80195859D01*
X52588899Y-80457442D01*
X52454866Y-80735765D01*
X52454865Y-80735767D01*
X52454859Y-80735782D01*
X52352842Y-81027327D01*
X52352835Y-81027348D01*
X52352832Y-81027360D01*
X52284089Y-81328541D01*
X52284083Y-81328576D01*
X52249500Y-81635521D01*
X47600500Y-81635521D01*
X47600500Y-76501896D01*
X62999500Y-76501896D01*
X62999500Y-76738102D01*
X63028561Y-76921584D01*
X63036446Y-76971368D01*
X63109433Y-77195996D01*
X63175715Y-77326080D01*
X63216657Y-77406433D01*
X63355483Y-77597510D01*
X63522490Y-77764517D01*
X63522493Y-77764519D01*
X63604638Y-77824201D01*
X63629946Y-77848795D01*
X63638422Y-77859786D01*
X63663774Y-77924894D01*
X63649901Y-77993373D01*
X63649890Y-77993393D01*
X63646628Y-77999573D01*
X63609854Y-78042007D01*
X63534360Y-78096858D01*
X63526981Y-78100990D01*
X63350991Y-78276980D01*
X63346858Y-78284361D01*
X63295862Y-78354550D01*
X63295861Y-78354549D01*
X63216659Y-78463562D01*
X63216657Y-78463566D01*
X63109433Y-78674003D01*
X63036446Y-78898631D01*
X63036445Y-78898634D01*
X63036445Y-78898636D01*
X62999500Y-79131896D01*
X62999500Y-79368102D01*
X63036445Y-79601362D01*
X63036446Y-79601368D01*
X63109433Y-79825996D01*
X63174821Y-79954326D01*
X63216657Y-80036433D01*
X63355483Y-80227510D01*
X63355486Y-80227513D01*
X63522486Y-80394514D01*
X63522495Y-80394521D01*
X63542703Y-80409204D01*
X63568015Y-80433804D01*
X63576489Y-80444794D01*
X63601836Y-80509904D01*
X63587959Y-80578381D01*
X63587956Y-80578387D01*
X63584695Y-80584566D01*
X63547926Y-80627001D01*
X63539375Y-80633215D01*
X63539367Y-80633220D01*
X63522491Y-80645481D01*
X63522485Y-80645486D01*
X63350991Y-80816980D01*
X63346858Y-80824361D01*
X63295862Y-80894550D01*
X63295861Y-80894549D01*
X63216659Y-81003562D01*
X63216657Y-81003566D01*
X63109433Y-81214003D01*
X63036446Y-81438631D01*
X63036445Y-81438634D01*
X63036445Y-81438636D01*
X62999500Y-81671896D01*
X62999500Y-81908102D01*
X63005263Y-81944485D01*
X63036446Y-82141368D01*
X63109433Y-82365996D01*
X63204531Y-82552635D01*
X63216657Y-82576433D01*
X63355483Y-82767510D01*
X63355486Y-82767513D01*
X63522486Y-82934514D01*
X63522495Y-82934521D01*
X63542703Y-82949204D01*
X63568015Y-82973804D01*
X63576489Y-82984794D01*
X63601836Y-83049904D01*
X63587959Y-83118381D01*
X63587956Y-83118387D01*
X63584695Y-83124566D01*
X63547926Y-83167001D01*
X63539375Y-83173215D01*
X63539367Y-83173220D01*
X63522491Y-83185481D01*
X63522485Y-83185486D01*
X63350990Y-83356981D01*
X63346860Y-83364357D01*
X63332489Y-83384138D01*
X63332487Y-83384141D01*
X63216657Y-83543565D01*
X63174821Y-83625673D01*
X63109433Y-83754003D01*
X63036446Y-83978631D01*
X63036445Y-83978634D01*
X63036445Y-83978636D01*
X62999500Y-84211896D01*
X62999500Y-84448102D01*
X63014135Y-84540500D01*
X63036446Y-84681368D01*
X63109433Y-84905996D01*
X63169457Y-85023799D01*
X63198347Y-85080499D01*
X63216655Y-85116431D01*
X63220402Y-85121588D01*
X63355483Y-85307510D01*
X63355486Y-85307513D01*
X63522486Y-85474514D01*
X63522495Y-85474521D01*
X63542703Y-85489204D01*
X63568015Y-85513804D01*
X63576489Y-85524794D01*
X63601836Y-85589904D01*
X63587959Y-85658381D01*
X63587956Y-85658387D01*
X63584695Y-85664566D01*
X63547926Y-85707001D01*
X63539375Y-85713215D01*
X63539367Y-85713220D01*
X63522491Y-85725481D01*
X63522485Y-85725486D01*
X63350991Y-85896980D01*
X63346858Y-85904361D01*
X63295862Y-85974550D01*
X63295861Y-85974549D01*
X63216659Y-86083562D01*
X63216657Y-86083566D01*
X63109433Y-86294003D01*
X63036446Y-86518631D01*
X63036445Y-86518634D01*
X63036445Y-86518636D01*
X62999500Y-86751896D01*
X62999500Y-86988102D01*
X63036445Y-87221362D01*
X63036446Y-87221368D01*
X63109433Y-87445996D01*
X63139633Y-87505266D01*
X63198347Y-87620499D01*
X63216655Y-87656431D01*
X63216937Y-87656819D01*
X63355483Y-87847510D01*
X63355486Y-87847513D01*
X63522486Y-88014514D01*
X63522495Y-88014521D01*
X63542703Y-88029204D01*
X63568015Y-88053804D01*
X63576489Y-88064794D01*
X63601836Y-88129904D01*
X63587959Y-88198381D01*
X63587956Y-88198387D01*
X63584695Y-88204566D01*
X63547926Y-88247001D01*
X63539375Y-88253215D01*
X63539367Y-88253220D01*
X63522491Y-88265481D01*
X63522485Y-88265486D01*
X63350990Y-88436981D01*
X63346858Y-88444360D01*
X63309928Y-88495190D01*
X63248267Y-88580059D01*
X63216657Y-88623566D01*
X63216655Y-88623568D01*
X63216653Y-88623573D01*
X63183655Y-88688336D01*
X63109433Y-88834003D01*
X63036446Y-89058631D01*
X63036445Y-89058634D01*
X63036445Y-89058636D01*
X62999500Y-89291896D01*
X62999500Y-89528102D01*
X63036445Y-89761362D01*
X63036446Y-89761368D01*
X63109433Y-89985996D01*
X63169457Y-90103799D01*
X63198347Y-90160499D01*
X63216655Y-90196431D01*
X63216937Y-90196819D01*
X63355483Y-90387510D01*
X63355486Y-90387513D01*
X63522486Y-90554514D01*
X63522495Y-90554521D01*
X63542703Y-90569204D01*
X63568015Y-90593804D01*
X63576489Y-90604794D01*
X63601836Y-90669904D01*
X63587963Y-90738372D01*
X63584702Y-90744553D01*
X63547929Y-90787000D01*
X63545510Y-90788758D01*
X63545495Y-90788769D01*
X63522485Y-90805485D01*
X63522483Y-90805487D01*
X63350992Y-90976979D01*
X63346859Y-90984358D01*
X63303161Y-91044505D01*
X63303160Y-91044504D01*
X63216661Y-91163560D01*
X63216657Y-91163566D01*
X63216655Y-91163568D01*
X63216653Y-91163573D01*
X63183654Y-91228338D01*
X63109433Y-91374003D01*
X63036446Y-91598631D01*
X63036445Y-91598634D01*
X63036445Y-91598636D01*
X62999500Y-91831896D01*
X62999500Y-92068102D01*
X63036445Y-92301362D01*
X63036446Y-92301368D01*
X63109433Y-92525996D01*
X63169457Y-92643799D01*
X63198347Y-92700499D01*
X63216655Y-92736431D01*
X63216937Y-92736819D01*
X63355483Y-92927510D01*
X63355486Y-92927513D01*
X63522486Y-93094514D01*
X63522495Y-93094521D01*
X63542703Y-93109204D01*
X63568015Y-93133804D01*
X63576489Y-93144794D01*
X63601836Y-93209904D01*
X63587959Y-93278381D01*
X63587956Y-93278387D01*
X63584695Y-93284566D01*
X63547926Y-93327001D01*
X63539375Y-93333215D01*
X63539367Y-93333220D01*
X63522491Y-93345481D01*
X63522485Y-93345486D01*
X63350991Y-93516980D01*
X63346858Y-93524361D01*
X63295862Y-93594550D01*
X63295861Y-93594549D01*
X63216659Y-93703562D01*
X63216657Y-93703566D01*
X63109433Y-93914003D01*
X63036446Y-94138631D01*
X63036445Y-94138634D01*
X63036445Y-94138636D01*
X62999500Y-94371896D01*
X62999500Y-94608102D01*
X63003623Y-94634132D01*
X63036446Y-94841368D01*
X63109433Y-95065996D01*
X63169457Y-95183799D01*
X63198347Y-95240499D01*
X63216655Y-95276431D01*
X63248226Y-95319884D01*
X63355483Y-95467510D01*
X63355486Y-95467513D01*
X63522486Y-95634514D01*
X63522495Y-95634521D01*
X63542703Y-95649204D01*
X63568015Y-95673804D01*
X63576489Y-95684794D01*
X63601836Y-95749904D01*
X63587959Y-95818381D01*
X63587956Y-95818387D01*
X63584695Y-95824566D01*
X63547926Y-95867001D01*
X63539375Y-95873215D01*
X63539367Y-95873220D01*
X63522491Y-95885481D01*
X63522485Y-95885486D01*
X63350991Y-96056980D01*
X63346858Y-96064361D01*
X63295862Y-96134550D01*
X63295861Y-96134549D01*
X63216659Y-96243562D01*
X63216657Y-96243566D01*
X63109433Y-96454003D01*
X63036446Y-96678631D01*
X63036445Y-96678634D01*
X63036445Y-96678636D01*
X62999500Y-96911896D01*
X62999500Y-97148102D01*
X63036445Y-97381362D01*
X63036446Y-97381368D01*
X63109433Y-97605996D01*
X63147170Y-97680058D01*
X63198347Y-97780499D01*
X63216655Y-97816431D01*
X63216937Y-97816819D01*
X63355483Y-98007510D01*
X63355486Y-98007513D01*
X63522486Y-98174514D01*
X63522495Y-98174521D01*
X63542703Y-98189204D01*
X63568015Y-98213804D01*
X63576489Y-98224794D01*
X63601836Y-98289904D01*
X63587959Y-98358381D01*
X63587956Y-98358387D01*
X63584695Y-98364566D01*
X63547926Y-98407001D01*
X63539375Y-98413215D01*
X63539367Y-98413220D01*
X63522491Y-98425481D01*
X63522485Y-98425486D01*
X63350991Y-98596980D01*
X63346858Y-98604361D01*
X63295862Y-98674550D01*
X63295861Y-98674549D01*
X63216659Y-98783562D01*
X63216657Y-98783566D01*
X63109433Y-98994003D01*
X63036446Y-99218631D01*
X63036445Y-99218634D01*
X63036445Y-99218636D01*
X62999500Y-99451896D01*
X62999500Y-99688102D01*
X63036445Y-99921362D01*
X63036446Y-99921368D01*
X63109433Y-100145996D01*
X63216657Y-100356433D01*
X63355483Y-100547510D01*
X63355486Y-100547513D01*
X63522486Y-100714514D01*
X63522495Y-100714521D01*
X63542703Y-100729204D01*
X63568015Y-100753804D01*
X63576489Y-100764794D01*
X63601836Y-100829904D01*
X63587963Y-100898373D01*
X63584703Y-100904552D01*
X63547919Y-100947006D01*
X63522491Y-100965480D01*
X63350991Y-101136980D01*
X63346858Y-101144361D01*
X63295862Y-101214550D01*
X63295861Y-101214549D01*
X63216659Y-101323562D01*
X63216657Y-101323566D01*
X63109433Y-101534003D01*
X63036446Y-101758631D01*
X63036445Y-101758634D01*
X63036445Y-101758636D01*
X62999500Y-101991896D01*
X62999500Y-102228102D01*
X63036445Y-102461362D01*
X63036446Y-102461368D01*
X63109433Y-102685996D01*
X63216657Y-102896433D01*
X63355483Y-103087510D01*
X63355486Y-103087513D01*
X63522486Y-103254514D01*
X63522495Y-103254521D01*
X63542703Y-103269204D01*
X63568015Y-103293804D01*
X63576489Y-103304794D01*
X63601836Y-103369904D01*
X63587959Y-103438381D01*
X63587956Y-103438387D01*
X63584695Y-103444566D01*
X63547926Y-103487001D01*
X63539375Y-103493215D01*
X63539367Y-103493220D01*
X63522491Y-103505481D01*
X63522485Y-103505486D01*
X63350991Y-103676980D01*
X63346858Y-103684361D01*
X63295862Y-103754550D01*
X63295861Y-103754549D01*
X63216659Y-103863562D01*
X63216657Y-103863566D01*
X63109433Y-104074003D01*
X63036446Y-104298631D01*
X63036445Y-104298634D01*
X63036445Y-104298636D01*
X62999500Y-104531896D01*
X62999500Y-104768102D01*
X63036445Y-105001362D01*
X63036446Y-105001368D01*
X63109433Y-105225996D01*
X63216657Y-105436433D01*
X63355483Y-105627510D01*
X63355485Y-105627512D01*
X63522486Y-105794514D01*
X63522495Y-105794521D01*
X63542703Y-105809204D01*
X63568015Y-105833804D01*
X63576489Y-105844794D01*
X63601836Y-105909904D01*
X63587959Y-105978381D01*
X63587956Y-105978387D01*
X63584695Y-105984566D01*
X63547926Y-106027001D01*
X63539375Y-106033215D01*
X63539367Y-106033220D01*
X63522491Y-106045481D01*
X63522485Y-106045486D01*
X63350990Y-106216981D01*
X63346859Y-106224359D01*
X63319353Y-106262218D01*
X63319353Y-106262219D01*
X63216657Y-106403566D01*
X63216654Y-106403570D01*
X63216653Y-106403573D01*
X63205187Y-106426077D01*
X63109433Y-106614003D01*
X63036446Y-106838631D01*
X63036445Y-106838634D01*
X63036445Y-106838636D01*
X62999500Y-107071896D01*
X62999500Y-107308102D01*
X63005927Y-107348678D01*
X63036446Y-107541368D01*
X63109433Y-107765996D01*
X63216657Y-107976433D01*
X63355483Y-108167510D01*
X63522490Y-108334517D01*
X63567293Y-108367068D01*
X63592602Y-108391664D01*
X63604621Y-108407250D01*
X63629100Y-108464886D01*
X63630405Y-108473738D01*
X63631348Y-108501556D01*
X63630892Y-108507337D01*
X63630893Y-108507339D01*
X63630893Y-108507340D01*
X64017041Y-108893488D01*
X64317055Y-109193501D01*
X64350540Y-109254824D01*
X64345556Y-109324515D01*
X64303685Y-109380449D01*
X64291374Y-109388569D01*
X64254397Y-109409917D01*
X64254392Y-109409921D01*
X64179921Y-109484392D01*
X64179917Y-109484397D01*
X64158569Y-109521374D01*
X64108002Y-109569590D01*
X64039395Y-109582812D01*
X63974530Y-109556844D01*
X63963501Y-109547055D01*
X63277340Y-108860893D01*
X63277339Y-108860894D01*
X63217088Y-108943823D01*
X63217085Y-108943828D01*
X63217084Y-108943830D01*
X63168799Y-109038594D01*
X63109898Y-109154194D01*
X63036933Y-109378755D01*
X63000000Y-109611941D01*
X63000000Y-109848057D01*
X63035379Y-110071430D01*
X63036934Y-110081247D01*
X63097126Y-110266498D01*
X63109898Y-110305804D01*
X63217086Y-110516172D01*
X63217087Y-110516174D01*
X63277337Y-110599103D01*
X63277339Y-110599105D01*
X63277339Y-110599104D01*
X63277340Y-110599105D01*
X63963502Y-109912942D01*
X64024823Y-109879459D01*
X64094514Y-109884443D01*
X64150448Y-109926314D01*
X64158567Y-109938624D01*
X64179915Y-109975599D01*
X64179919Y-109975604D01*
X64179920Y-109975606D01*
X64254394Y-110050080D01*
X64254395Y-110050081D01*
X64254397Y-110050082D01*
X64291373Y-110071430D01*
X64339588Y-110121996D01*
X64352812Y-110190603D01*
X64326844Y-110255468D01*
X64317054Y-110266498D01*
X63630894Y-110952656D01*
X63630892Y-110952659D01*
X63631048Y-110954629D01*
X63628783Y-110989850D01*
X63624735Y-111009117D01*
X63596804Y-111065165D01*
X63590921Y-111071905D01*
X63570388Y-111090681D01*
X63522496Y-111125477D01*
X63522487Y-111125484D01*
X63350991Y-111296980D01*
X63346858Y-111304361D01*
X63295862Y-111374550D01*
X63295861Y-111374549D01*
X63216659Y-111483562D01*
X63216657Y-111483566D01*
X63109433Y-111694003D01*
X63036446Y-111918631D01*
X63036445Y-111918634D01*
X63036445Y-111918636D01*
X62999500Y-112151896D01*
X62999500Y-112388102D01*
X63036445Y-112621362D01*
X63036446Y-112621368D01*
X63109433Y-112845996D01*
X63216657Y-113056433D01*
X63355483Y-113247510D01*
X63522490Y-113414517D01*
X63713567Y-113553343D01*
X63812991Y-113604002D01*
X63924003Y-113660566D01*
X63924876Y-113661011D01*
X63928630Y-113662070D01*
X63933998Y-113663814D01*
X64044410Y-113699688D01*
X64044411Y-113699689D01*
X64044412Y-113699689D01*
X64148631Y-113733553D01*
X64381903Y-113770500D01*
X64381908Y-113770500D01*
X64618096Y-113770500D01*
X64618097Y-113770500D01*
X64851368Y-113733553D01*
X65075992Y-113660568D01*
X65286433Y-113553343D01*
X65477510Y-113414517D01*
X65644517Y-113247510D01*
X65783343Y-113056433D01*
X65890568Y-112845992D01*
X65963553Y-112621368D01*
X66000500Y-112388097D01*
X66000500Y-112151902D01*
X65963553Y-111918631D01*
X65890566Y-111694003D01*
X65783342Y-111483566D01*
X65644517Y-111292490D01*
X65477510Y-111125483D01*
X65477509Y-111125482D01*
X65432703Y-111092928D01*
X65407395Y-111068333D01*
X65395375Y-111052744D01*
X65370897Y-110995109D01*
X65369590Y-110986246D01*
X65368648Y-110958448D01*
X65369104Y-110952657D01*
X65369102Y-110952655D01*
X65369103Y-110952655D01*
X64682944Y-110266498D01*
X64649459Y-110205175D01*
X64654443Y-110135484D01*
X64696314Y-110079550D01*
X64708614Y-110071437D01*
X64745606Y-110050080D01*
X64820080Y-109975606D01*
X64841430Y-109938625D01*
X64891995Y-109890411D01*
X64960602Y-109877187D01*
X65025467Y-109903154D01*
X65036498Y-109912945D01*
X65722657Y-110599105D01*
X65722657Y-110599104D01*
X65722658Y-110599105D01*
X65722658Y-110599104D01*
X65736126Y-110593525D01*
X65742343Y-110572355D01*
X65746340Y-110566509D01*
X65754103Y-110555822D01*
X65782914Y-110516169D01*
X65782918Y-110516163D01*
X65890102Y-110305802D01*
X65963065Y-110081247D01*
X66000000Y-109848052D01*
X66000000Y-109611947D01*
X65963065Y-109378752D01*
X65890102Y-109154197D01*
X65782914Y-108943828D01*
X65746338Y-108893487D01*
X65736799Y-108866750D01*
X65722657Y-108860892D01*
X65036497Y-109547053D01*
X64975174Y-109580538D01*
X64905482Y-109575554D01*
X64849549Y-109533682D01*
X64841430Y-109521374D01*
X64820080Y-109484394D01*
X64745606Y-109409920D01*
X64745605Y-109409919D01*
X64745602Y-109409917D01*
X64708626Y-109388569D01*
X64660410Y-109338002D01*
X64647188Y-109269395D01*
X64673156Y-109204530D01*
X64682939Y-109193506D01*
X65369105Y-108507340D01*
X65368949Y-108505361D01*
X65371214Y-108470154D01*
X65375263Y-108450880D01*
X65403191Y-108394838D01*
X65409084Y-108388087D01*
X65429607Y-108369320D01*
X65477510Y-108334517D01*
X65644517Y-108167510D01*
X65783343Y-107976433D01*
X65890568Y-107765992D01*
X65963553Y-107541368D01*
X65991363Y-107365782D01*
X66000500Y-107308097D01*
X66000500Y-107071902D01*
X65963553Y-106838631D01*
X65890566Y-106614003D01*
X65783342Y-106403566D01*
X65644517Y-106212490D01*
X65477510Y-106045483D01*
X65457294Y-106030795D01*
X65431988Y-106006203D01*
X65423509Y-105995208D01*
X65398161Y-105930102D01*
X65412036Y-105861624D01*
X65412035Y-105861624D01*
X65415300Y-105855437D01*
X65452082Y-105812991D01*
X65477510Y-105794517D01*
X65644517Y-105627510D01*
X65783343Y-105436433D01*
X65890568Y-105225992D01*
X65963553Y-105001368D01*
X66000500Y-104768097D01*
X66000500Y-104531902D01*
X65963553Y-104298631D01*
X65890566Y-104074003D01*
X65890564Y-104074000D01*
X65890564Y-104073998D01*
X65788078Y-103872860D01*
X65788078Y-103872859D01*
X65783344Y-103863569D01*
X65783339Y-103863562D01*
X65644517Y-103672490D01*
X65477510Y-103505483D01*
X65457294Y-103490795D01*
X65431988Y-103466203D01*
X65423509Y-103455208D01*
X65398161Y-103390102D01*
X65412036Y-103321624D01*
X65412035Y-103321624D01*
X65415300Y-103315437D01*
X65452082Y-103272991D01*
X65477510Y-103254517D01*
X65644517Y-103087510D01*
X65783343Y-102896433D01*
X65890568Y-102685992D01*
X65963553Y-102461368D01*
X66000500Y-102228097D01*
X66000500Y-101991902D01*
X65963553Y-101758631D01*
X65890566Y-101534003D01*
X65783342Y-101323566D01*
X65644517Y-101132490D01*
X65477510Y-100965483D01*
X65457294Y-100950795D01*
X65431988Y-100926203D01*
X65423509Y-100915208D01*
X65398161Y-100850102D01*
X65412036Y-100781624D01*
X65412035Y-100781624D01*
X65415300Y-100775437D01*
X65452082Y-100732991D01*
X65477510Y-100714517D01*
X65644517Y-100547510D01*
X65783343Y-100356433D01*
X65890568Y-100145992D01*
X65963553Y-99921368D01*
X66000500Y-99688097D01*
X66000500Y-99451902D01*
X65963553Y-99218631D01*
X65890566Y-98994003D01*
X65783342Y-98783566D01*
X65644517Y-98592490D01*
X65477510Y-98425483D01*
X65457294Y-98410795D01*
X65431988Y-98386203D01*
X65423509Y-98375208D01*
X65398161Y-98310102D01*
X65412036Y-98241624D01*
X65412035Y-98241624D01*
X65415300Y-98235437D01*
X65452082Y-98192991D01*
X65477510Y-98174517D01*
X65644517Y-98007510D01*
X65783343Y-97816433D01*
X65890568Y-97605992D01*
X65963553Y-97381368D01*
X66000500Y-97148097D01*
X66000500Y-96911902D01*
X65963553Y-96678631D01*
X65890566Y-96454003D01*
X65816346Y-96308340D01*
X65783343Y-96243567D01*
X65644517Y-96052490D01*
X65477510Y-95885483D01*
X65457294Y-95870795D01*
X65431988Y-95846203D01*
X65423509Y-95835208D01*
X65398161Y-95770102D01*
X65412036Y-95701624D01*
X65412035Y-95701624D01*
X65415300Y-95695437D01*
X65452082Y-95652991D01*
X65477510Y-95634517D01*
X65644517Y-95467510D01*
X65783343Y-95276433D01*
X65890568Y-95065992D01*
X65963553Y-94841368D01*
X66000500Y-94608097D01*
X66000500Y-94371902D01*
X65963553Y-94138631D01*
X65890566Y-93914003D01*
X65816346Y-93768340D01*
X65783343Y-93703567D01*
X65644517Y-93512490D01*
X65477510Y-93345483D01*
X65457294Y-93330795D01*
X65431988Y-93306203D01*
X65423509Y-93295208D01*
X65398161Y-93230102D01*
X65412036Y-93161624D01*
X65412035Y-93161624D01*
X65415300Y-93155437D01*
X65452082Y-93112991D01*
X65477510Y-93094517D01*
X65644517Y-92927510D01*
X65783343Y-92736433D01*
X65890568Y-92525992D01*
X65963553Y-92301368D01*
X66000500Y-92068097D01*
X66000500Y-91831902D01*
X65963553Y-91598631D01*
X65890566Y-91374003D01*
X65816346Y-91228340D01*
X65783343Y-91163567D01*
X65644517Y-90972490D01*
X65477510Y-90805483D01*
X65457294Y-90790795D01*
X65431988Y-90766203D01*
X65423509Y-90755208D01*
X65398161Y-90690102D01*
X65412036Y-90621624D01*
X65412035Y-90621624D01*
X65415300Y-90615437D01*
X65452082Y-90572991D01*
X65477510Y-90554517D01*
X65644517Y-90387510D01*
X65783343Y-90196433D01*
X65890568Y-89985992D01*
X65963553Y-89761368D01*
X66000500Y-89528097D01*
X66000500Y-89291902D01*
X65963553Y-89058631D01*
X65890566Y-88834003D01*
X65816346Y-88688340D01*
X65783343Y-88623567D01*
X65644517Y-88432490D01*
X65477510Y-88265483D01*
X65457294Y-88250795D01*
X65431988Y-88226203D01*
X65423509Y-88215208D01*
X65398161Y-88150102D01*
X65412036Y-88081624D01*
X65412035Y-88081624D01*
X65415300Y-88075437D01*
X65452082Y-88032991D01*
X65477510Y-88014517D01*
X65644517Y-87847510D01*
X65783343Y-87656433D01*
X65890568Y-87445992D01*
X65963553Y-87221368D01*
X66000500Y-86988097D01*
X66000500Y-86751902D01*
X65963553Y-86518631D01*
X65890566Y-86294003D01*
X65816346Y-86148340D01*
X65783343Y-86083567D01*
X65644517Y-85892490D01*
X65477510Y-85725483D01*
X65457294Y-85710795D01*
X65431988Y-85686203D01*
X65423509Y-85675208D01*
X65398161Y-85610102D01*
X65412036Y-85541624D01*
X65412035Y-85541624D01*
X65415300Y-85535437D01*
X65452082Y-85492991D01*
X65477510Y-85474517D01*
X65644517Y-85307510D01*
X65783343Y-85116433D01*
X65890568Y-84905992D01*
X65963553Y-84681368D01*
X66000500Y-84448097D01*
X66000500Y-84211902D01*
X65963553Y-83978631D01*
X65890566Y-83754003D01*
X65816346Y-83608340D01*
X65783343Y-83543567D01*
X65644517Y-83352490D01*
X65477510Y-83185483D01*
X65457294Y-83170795D01*
X65431988Y-83146203D01*
X65423509Y-83135208D01*
X65398161Y-83070102D01*
X65412036Y-83001624D01*
X65412035Y-83001624D01*
X65415300Y-82995437D01*
X65452082Y-82952991D01*
X65477510Y-82934517D01*
X65644517Y-82767510D01*
X65783343Y-82576433D01*
X65890568Y-82365992D01*
X65963553Y-82141368D01*
X66000500Y-81908097D01*
X66000500Y-81671902D01*
X65963553Y-81438631D01*
X65890566Y-81214003D01*
X65783342Y-81003566D01*
X65644517Y-80812490D01*
X65477510Y-80645483D01*
X65457294Y-80630795D01*
X65431988Y-80606203D01*
X65423509Y-80595208D01*
X65398161Y-80530102D01*
X65412036Y-80461624D01*
X65412035Y-80461624D01*
X65415300Y-80455437D01*
X65452082Y-80412991D01*
X65477510Y-80394517D01*
X65644517Y-80227510D01*
X65783343Y-80036433D01*
X65890568Y-79825992D01*
X65963553Y-79601368D01*
X65972756Y-79543264D01*
X66000500Y-79368097D01*
X66000500Y-79131902D01*
X65963553Y-78898631D01*
X65890566Y-78674003D01*
X65783342Y-78463566D01*
X65644517Y-78272490D01*
X65477510Y-78105483D01*
X65395357Y-78045795D01*
X65370049Y-78021200D01*
X65361575Y-78010211D01*
X65336225Y-77945102D01*
X65350100Y-77876624D01*
X65350101Y-77876621D01*
X65353363Y-77870439D01*
X65390142Y-77827992D01*
X65477510Y-77764517D01*
X65644517Y-77597510D01*
X65783343Y-77406433D01*
X65890568Y-77195992D01*
X65963553Y-76971368D01*
X65971438Y-76921584D01*
X66000500Y-76738097D01*
X66000500Y-76501902D01*
X65963553Y-76268631D01*
X65890566Y-76044003D01*
X65816346Y-75898340D01*
X65783343Y-75833567D01*
X65644517Y-75642490D01*
X65477510Y-75475483D01*
X65286433Y-75336657D01*
X65075996Y-75229433D01*
X64851368Y-75156446D01*
X64851362Y-75156445D01*
X64618102Y-75119500D01*
X64618097Y-75119500D01*
X64618092Y-75119500D01*
X64381908Y-75119500D01*
X64381903Y-75119500D01*
X64381898Y-75119500D01*
X64148636Y-75156445D01*
X64148634Y-75156445D01*
X64148631Y-75156446D01*
X63924003Y-75229433D01*
X63728210Y-75329195D01*
X63713562Y-75336659D01*
X63604549Y-75415861D01*
X63604550Y-75415862D01*
X63534361Y-75466858D01*
X63526980Y-75470991D01*
X63350991Y-75646980D01*
X63346858Y-75654361D01*
X63295862Y-75724550D01*
X63295861Y-75724549D01*
X63216659Y-75833562D01*
X63216657Y-75833566D01*
X63109433Y-76044003D01*
X63036446Y-76268631D01*
X63036445Y-76268634D01*
X63036445Y-76268636D01*
X62999500Y-76501896D01*
X47600500Y-76501896D01*
X47600500Y-74642329D01*
X47605523Y-74607393D01*
X47609927Y-74592395D01*
X47647672Y-74533644D01*
X47649041Y-74532457D01*
X47703920Y-74504977D01*
X47711479Y-74503333D01*
X47737832Y-74500500D01*
X135857670Y-74500500D01*
X135892606Y-74505523D01*
G37*
%TD.AperFunction*%
%TD*%
%TA.AperFunction,Conductor*%
%TO.N,A4*%
G36*
X104031106Y-93615158D02*
G01*
X104032102Y-93616060D01*
X104034565Y-93619209D01*
X104366843Y-94239541D01*
X104496942Y-94482424D01*
X104498271Y-94486794D01*
X104498614Y-94490255D01*
X104497285Y-94496933D01*
X104034707Y-95360524D01*
X104031807Y-95364051D01*
X104030170Y-95365392D01*
X104022170Y-95368026D01*
X104020833Y-95367959D01*
X104016937Y-95367082D01*
X103016698Y-94952279D01*
X102514180Y-94743883D01*
X102510385Y-94741344D01*
X102508236Y-94739192D01*
X102504815Y-94730925D01*
X102504815Y-94250141D01*
X102505706Y-94245663D01*
X102506870Y-94242853D01*
X102513197Y-94236523D01*
X104016664Y-93613028D01*
X104021141Y-93612137D01*
X104023259Y-93612137D01*
X104031106Y-93615158D01*
G37*
%TD.AperFunction*%
%TD*%
%TA.AperFunction,Conductor*%
%TO.N,A0*%
G36*
X104031106Y-83455158D02*
G01*
X104032102Y-83456060D01*
X104034565Y-83459209D01*
X104366843Y-84079541D01*
X104496942Y-84322424D01*
X104498271Y-84326794D01*
X104498614Y-84330255D01*
X104497285Y-84336933D01*
X104034707Y-85200524D01*
X104031807Y-85204051D01*
X104030170Y-85205392D01*
X104022170Y-85208026D01*
X104020833Y-85207959D01*
X104016937Y-85207082D01*
X103016698Y-84792279D01*
X102514180Y-84583883D01*
X102510385Y-84581344D01*
X102508236Y-84579192D01*
X102504815Y-84570925D01*
X102504815Y-84090141D01*
X102505706Y-84085663D01*
X102506870Y-84082853D01*
X102513197Y-84076523D01*
X104016664Y-83453028D01*
X104021141Y-83452137D01*
X104023259Y-83452137D01*
X104031106Y-83455158D01*
G37*
%TD.AperFunction*%
%TD*%
%TA.AperFunction,Conductor*%
%TO.N,A3*%
G36*
X73541902Y-118324082D02*
G01*
X73543274Y-118324835D01*
X73546589Y-118327549D01*
X73890794Y-118735676D01*
X73893000Y-118739674D01*
X73893627Y-118741646D01*
X73893088Y-118750121D01*
X73892497Y-118751393D01*
X73890159Y-118754736D01*
X73554917Y-119089978D01*
X73551122Y-119092514D01*
X73549210Y-119093306D01*
X73540721Y-119093487D01*
X73539400Y-119093005D01*
X73535874Y-119090961D01*
X73534708Y-119089978D01*
X73135473Y-118753272D01*
X73127662Y-118746684D01*
X73124813Y-118743116D01*
X73123917Y-118741384D01*
X73123076Y-118732738D01*
X73123512Y-118731237D01*
X73125439Y-118727419D01*
X73297870Y-118501158D01*
X73298889Y-118499993D01*
X73299993Y-118498889D01*
X73301158Y-118497870D01*
X73527299Y-118325530D01*
X73531399Y-118323526D01*
X73533282Y-118323028D01*
X73541902Y-118324082D01*
G37*
%TD.AperFunction*%
%TD*%
%TA.AperFunction,Conductor*%
%TO.N,Data_Out*%
G36*
X79244012Y-147844376D02*
G01*
X79250930Y-147850062D01*
X79251802Y-147858974D01*
X79251491Y-147859866D01*
X78873705Y-148817003D01*
X78871095Y-148820980D01*
X78531149Y-149160926D01*
X78522876Y-149164353D01*
X78514603Y-149160926D01*
X78512244Y-149157537D01*
X77973537Y-147984841D01*
X77973198Y-147975893D01*
X77978637Y-147969648D01*
X78581303Y-147646456D01*
X78590208Y-147645567D01*
X79244012Y-147844376D01*
G37*
%TD.AperFunction*%
%TD*%
%TA.AperFunction,Conductor*%
%TO.N,A2*%
G36*
X75241902Y-118224082D02*
G01*
X75243274Y-118224835D01*
X75246589Y-118227549D01*
X75590794Y-118635676D01*
X75593000Y-118639674D01*
X75593627Y-118641646D01*
X75593088Y-118650121D01*
X75592497Y-118651393D01*
X75590159Y-118654736D01*
X75254917Y-118989978D01*
X75251122Y-118992514D01*
X75249210Y-118993306D01*
X75240721Y-118993487D01*
X75239400Y-118993005D01*
X75235874Y-118990961D01*
X75234708Y-118989978D01*
X74835473Y-118653272D01*
X74827662Y-118646684D01*
X74824813Y-118643116D01*
X74823917Y-118641384D01*
X74823076Y-118632738D01*
X74823512Y-118631237D01*
X74825439Y-118627419D01*
X74997870Y-118401158D01*
X74998889Y-118399993D01*
X74999993Y-118398889D01*
X75001158Y-118397870D01*
X75227299Y-118225530D01*
X75231399Y-118223526D01*
X75233282Y-118223028D01*
X75241902Y-118224082D01*
G37*
%TD.AperFunction*%
%TD*%
%TA.AperFunction,Conductor*%
%TO.N,A0*%
G36*
X78886724Y-118049090D02*
G01*
X78894677Y-118053205D01*
X78897433Y-118060748D01*
X78897433Y-118539251D01*
X78894006Y-118547524D01*
X78886724Y-118550909D01*
X78350254Y-118596490D01*
X78341720Y-118593776D01*
X78337668Y-118586397D01*
X78299211Y-118301565D01*
X78299211Y-118298435D01*
X78337668Y-118013602D01*
X78342171Y-118005861D01*
X78350251Y-118003509D01*
X78886724Y-118049090D01*
G37*
%TD.AperFunction*%
%TD*%
%TA.AperFunction,Conductor*%
%TO.N,A3*%
G36*
X104031106Y-91075158D02*
G01*
X104032102Y-91076060D01*
X104034565Y-91079209D01*
X104366843Y-91699541D01*
X104496942Y-91942424D01*
X104498271Y-91946794D01*
X104498614Y-91950255D01*
X104497285Y-91956933D01*
X104034707Y-92820524D01*
X104031807Y-92824051D01*
X104030170Y-92825392D01*
X104022170Y-92828026D01*
X104020833Y-92827959D01*
X104016937Y-92827082D01*
X103016698Y-92412279D01*
X102514180Y-92203883D01*
X102510385Y-92201344D01*
X102508236Y-92199192D01*
X102504815Y-92190925D01*
X102504815Y-91710141D01*
X102505706Y-91705663D01*
X102506870Y-91702853D01*
X102513197Y-91696523D01*
X104016664Y-91073028D01*
X104021141Y-91072137D01*
X104023259Y-91072137D01*
X104031106Y-91075158D01*
G37*
%TD.AperFunction*%
%TD*%
%TA.AperFunction,Conductor*%
%TO.N,Net-(Transmitter1-A6)*%
G36*
X103228384Y-135215576D02*
G01*
X103234397Y-135222212D01*
X103234572Y-135222741D01*
X103439960Y-135896589D01*
X103439960Y-135903411D01*
X103234572Y-136577258D01*
X103228882Y-136584173D01*
X103219969Y-136585039D01*
X103219440Y-136584864D01*
X102011227Y-136152775D01*
X102004591Y-136146762D01*
X102003467Y-136141758D01*
X102003467Y-135658241D01*
X102006894Y-135649968D01*
X102011224Y-135647225D01*
X103219440Y-135215135D01*
X103228384Y-135215576D01*
G37*
%TD.AperFunction*%
%TD*%
%TA.AperFunction,Conductor*%
%TO.N,Data_Out*%
G36*
X83076386Y-152951906D02*
G01*
X83079101Y-152956160D01*
X83539750Y-154215545D01*
X83539374Y-154224492D01*
X83532781Y-154230552D01*
X83532173Y-154230756D01*
X82829702Y-154444828D01*
X82822880Y-154444828D01*
X82120408Y-154230756D01*
X82113493Y-154225066D01*
X82112627Y-154216153D01*
X82112817Y-154215586D01*
X82573481Y-152956159D01*
X82579541Y-152949567D01*
X82584469Y-152948479D01*
X83068113Y-152948479D01*
X83076386Y-152951906D01*
G37*
%TD.AperFunction*%
%TD*%
%TA.AperFunction,Conductor*%
%TO.N,5V*%
G36*
X104207665Y-103697156D02*
G01*
X104213009Y-103703882D01*
X104499962Y-104646593D01*
X104499962Y-104653407D01*
X104213009Y-105596117D01*
X104207321Y-105603034D01*
X104198787Y-105604011D01*
X102513486Y-105152323D01*
X102506382Y-105146871D01*
X102504815Y-105141022D01*
X102504815Y-104158977D01*
X102508242Y-104150704D01*
X102513486Y-104147676D01*
X104198789Y-103695988D01*
X104207665Y-103697156D01*
G37*
%TD.AperFunction*%
%TD*%
%TA.AperFunction,Conductor*%
%TO.N,Data_In*%
G36*
X78517638Y-132595833D02*
G01*
X79459298Y-132881967D01*
X79466216Y-132887652D01*
X79467090Y-132896564D01*
X79467041Y-132896719D01*
X79028361Y-134271238D01*
X79025488Y-134275954D01*
X78684030Y-134617412D01*
X78675757Y-134620839D01*
X78667484Y-134617412D01*
X78666026Y-134615636D01*
X77638946Y-133077250D01*
X77637203Y-133068466D01*
X77642180Y-133061022D01*
X77643138Y-133060447D01*
X78508722Y-132596717D01*
X78517631Y-132595832D01*
X78517638Y-132595833D01*
G37*
%TD.AperFunction*%
%TD*%
%TA.AperFunction,Conductor*%
%TO.N,A2*%
G36*
X104031106Y-88535158D02*
G01*
X104032102Y-88536060D01*
X104034565Y-88539209D01*
X104366843Y-89159541D01*
X104496942Y-89402424D01*
X104498271Y-89406794D01*
X104498614Y-89410255D01*
X104497285Y-89416933D01*
X104034707Y-90280524D01*
X104031807Y-90284051D01*
X104030170Y-90285392D01*
X104022170Y-90288026D01*
X104020833Y-90287959D01*
X104016937Y-90287082D01*
X103016698Y-89872279D01*
X102514180Y-89663883D01*
X102510385Y-89661344D01*
X102508236Y-89659192D01*
X102504815Y-89650925D01*
X102504815Y-89170141D01*
X102505706Y-89165663D01*
X102506870Y-89162853D01*
X102513197Y-89156523D01*
X104016664Y-88533028D01*
X104021141Y-88532137D01*
X104023259Y-88532137D01*
X104031106Y-88535158D01*
G37*
%TD.AperFunction*%
%TD*%
%TA.AperFunction,Conductor*%
%TO.N,A5*%
G36*
X104033608Y-96157423D02*
G01*
X104498041Y-97024476D01*
X104498926Y-97033386D01*
X104498041Y-97035524D01*
X104033608Y-97902576D01*
X104026680Y-97908251D01*
X104018812Y-97907860D01*
X102512033Y-97282993D01*
X102505704Y-97276658D01*
X102504815Y-97272185D01*
X102504815Y-96787814D01*
X102508242Y-96779541D01*
X102512030Y-96777007D01*
X104018812Y-96152138D01*
X104027767Y-96152136D01*
X104033608Y-96157423D01*
G37*
%TD.AperFunction*%
%TD*%
%TA.AperFunction,Conductor*%
%TO.N,A1*%
G36*
X76745185Y-118125884D02*
G01*
X77092295Y-118537456D01*
X77095009Y-118545990D01*
X77091624Y-118553272D01*
X76753272Y-118891624D01*
X76744999Y-118895051D01*
X76737456Y-118892295D01*
X76335473Y-118553272D01*
X76325883Y-118545184D01*
X76321769Y-118537232D01*
X76324120Y-118529150D01*
X76498338Y-118300545D01*
X76500545Y-118298338D01*
X76729150Y-118124120D01*
X76737806Y-118121832D01*
X76745185Y-118125884D01*
G37*
%TD.AperFunction*%
%TD*%
%TA.AperFunction,Conductor*%
%TO.N,Net-(Transmitter1-A6)*%
G36*
X105455704Y-99283667D02*
G01*
X105460991Y-99289508D01*
X106084597Y-100796811D01*
X106084594Y-100805766D01*
X106082059Y-100809557D01*
X105739557Y-101152059D01*
X105731284Y-101155486D01*
X105726811Y-101154597D01*
X104219508Y-100530991D01*
X104213173Y-100524662D01*
X104212782Y-100516796D01*
X104497480Y-99575288D01*
X104503153Y-99568363D01*
X104505279Y-99567482D01*
X105446796Y-99282782D01*
X105455704Y-99283667D01*
G37*
%TD.AperFunction*%
%TD*%
%TA.AperFunction,Conductor*%
%TO.N,A1*%
G36*
X104031106Y-85995158D02*
G01*
X104032102Y-85996060D01*
X104034565Y-85999209D01*
X104366843Y-86619541D01*
X104496942Y-86862424D01*
X104498271Y-86866794D01*
X104498614Y-86870255D01*
X104497285Y-86876933D01*
X104034707Y-87740524D01*
X104031807Y-87744051D01*
X104030170Y-87745392D01*
X104022170Y-87748026D01*
X104020833Y-87747959D01*
X104016937Y-87747082D01*
X103016698Y-87332279D01*
X102514180Y-87123883D01*
X102510385Y-87121344D01*
X102508236Y-87119192D01*
X102504815Y-87110925D01*
X102504815Y-86630141D01*
X102505706Y-86625663D01*
X102506870Y-86622853D01*
X102513197Y-86616523D01*
X104016664Y-85993028D01*
X104021141Y-85992137D01*
X104023259Y-85992137D01*
X104031106Y-85995158D01*
G37*
%TD.AperFunction*%
%TD*%
%TA.AperFunction,Conductor*%
%TO.N,Data_In*%
G36*
X104981187Y-75742139D02*
G01*
X106487968Y-76367007D01*
X106494296Y-76373341D01*
X106495185Y-76377814D01*
X106495185Y-76862185D01*
X106491758Y-76870458D01*
X106487967Y-76872993D01*
X104981187Y-77497860D01*
X104972232Y-77497863D01*
X104966391Y-77492576D01*
X104501957Y-76625521D01*
X104501073Y-76616614D01*
X104501954Y-76614483D01*
X104966392Y-75747421D01*
X104973319Y-75741748D01*
X104981187Y-75742139D01*
G37*
%TD.AperFunction*%
%TD*%
%TA.AperFunction,Conductor*%
%TO.N,A4*%
G36*
X71841902Y-118324082D02*
G01*
X71843274Y-118324835D01*
X71846589Y-118327549D01*
X72190794Y-118735676D01*
X72193000Y-118739674D01*
X72193627Y-118741646D01*
X72193088Y-118750121D01*
X72192497Y-118751393D01*
X72190159Y-118754736D01*
X71854917Y-119089978D01*
X71851122Y-119092514D01*
X71849210Y-119093306D01*
X71840721Y-119093487D01*
X71839400Y-119093005D01*
X71835874Y-119090961D01*
X71834708Y-119089978D01*
X71435473Y-118753272D01*
X71427662Y-118746684D01*
X71424813Y-118743116D01*
X71423917Y-118741384D01*
X71423076Y-118732738D01*
X71423512Y-118731237D01*
X71425439Y-118727419D01*
X71597870Y-118501158D01*
X71598889Y-118499993D01*
X71599993Y-118498889D01*
X71601158Y-118497870D01*
X71827299Y-118325530D01*
X71831399Y-118323526D01*
X71833282Y-118323028D01*
X71841902Y-118324082D01*
G37*
%TD.AperFunction*%
%TD*%
%TA.AperFunction,Conductor*%
%TO.N,A5*%
G36*
X70545185Y-118325884D02*
G01*
X70892295Y-118737456D01*
X70895009Y-118745990D01*
X70891624Y-118753272D01*
X70553272Y-119091624D01*
X70544999Y-119095051D01*
X70537456Y-119092295D01*
X70135473Y-118753272D01*
X70125883Y-118745184D01*
X70121769Y-118737232D01*
X70124120Y-118729150D01*
X70298338Y-118500545D01*
X70300545Y-118498338D01*
X70529150Y-118324120D01*
X70537806Y-118321832D01*
X70545185Y-118325884D01*
G37*
%TD.AperFunction*%
%TD*%
M02*
