M48
; DRILL file KiCad 10.0.0 date 2026-04-17T00:55:06
; FORMAT={-:-/ absolute / metric / decimal}
; #@! TF.CreationDate,2026-04-17T00:55:06-07:00
; #@! TF.GenerationSoftware,Kicad,Pcbnew,10.0.0
; #@! TF.FileFunction,Plated,1,2,PTH
FMAT,2
METRIC
; #@! TA.AperFunction,Plated,PTH,ViaDrill
T1C0.300
; #@! TA.AperFunction,Plated,PTH,ComponentDrill
T2C0.700
; #@! TA.AperFunction,Plated,PTH,ComponentDrill
T3C0.800
; #@! TA.AperFunction,Plated,PTH,ComponentDrill
T4C0.900
%
G90
G05
T1
X70.3Y-118.5
X71.6Y-118.5
X73.3Y-118.5
X75.0Y-118.4
X76.5Y-118.3
X78.3Y-118.3
X83.45Y-125.35
T2
X78.586Y-147.645
X83.666Y-147.645
X113.24Y-135.9
X113.24Y-140.98
T3
X64.5Y-76.62
X64.5Y-79.25
X64.5Y-81.79
X64.5Y-84.33
X64.5Y-86.87
X64.5Y-89.41
X64.5Y-91.95
X64.5Y-94.49
X64.5Y-97.03
X64.5Y-99.57
X64.5Y-102.11
X64.5Y-104.65
X64.5Y-107.19
X64.5Y-109.73
X64.5Y-112.27
X66.1Y-142.9
X66.2Y-133.3
X71.1Y-142.9
X71.2Y-133.3
X78.514Y-132.595
X78.514Y-142.914
X79.18Y-76.62
X79.18Y-79.25
X79.18Y-81.79
X79.18Y-84.33
X79.18Y-86.87
X79.18Y-89.41
X79.18Y-91.95
X79.18Y-94.49
X79.18Y-97.03
X79.18Y-99.57
X79.18Y-102.11
X79.18Y-104.65
X79.18Y-107.19
X79.18Y-109.73
X79.18Y-112.27
X79.426Y-154.445
X81.054Y-132.595
X81.054Y-142.914
X81.126Y-154.445
X82.826Y-154.445
X83.594Y-132.595
X83.594Y-142.914
X84.526Y-154.445
X86.134Y-132.595
X86.134Y-142.914
X86.226Y-154.445
X87.926Y-154.445
X88.674Y-132.595
X88.674Y-142.914
X91.214Y-132.595
X91.214Y-142.914
X103.44Y-133.36
X103.44Y-135.9
X103.44Y-138.44
X104.5Y-76.62
X104.5Y-79.25
X104.5Y-81.79
X104.5Y-84.33
X104.5Y-86.87
X104.5Y-89.41
X104.5Y-91.95
X104.5Y-94.49
X104.5Y-97.03
X104.5Y-99.57
X104.5Y-102.11
X104.5Y-104.65
X104.5Y-107.19
X104.5Y-109.73
X104.5Y-112.27
X119.18Y-76.62
X119.18Y-79.25
X119.18Y-81.79
X119.18Y-84.33
X119.18Y-86.87
X119.18Y-89.41
X119.18Y-91.95
X119.18Y-94.49
X119.18Y-97.03
X119.18Y-99.57
X119.18Y-102.11
X119.18Y-104.65
X119.18Y-107.19
X119.18Y-109.73
X119.18Y-112.27
T4
X103.37Y-151.04
X105.91Y-151.04
M30
