%TF.GenerationSoftware,KiCad,Pcbnew,10.0.0*%
%TF.CreationDate,2026-04-17T00:25:35-07:00*%
%TF.ProjectId,PC2GCAdaptorPCB,50433247-4341-4646-9170-746f72504342,rev?*%
%TF.SameCoordinates,Original*%
%TF.FileFunction,Copper,L1,Top*%
%TF.FilePolarity,Positive*%
%FSLAX46Y46*%
G04 Gerber Fmt 4.6, Leading zero omitted, Abs format (unit mm)*
G04 Created by KiCad (PCBNEW 10.0.0) date 2026-04-17 00:25:35*
%MOMM*%
%LPD*%
G01*
G04 APERTURE LIST*
%TA.AperFunction,ComponentPad*%
%ADD10C,1.400000*%
%TD*%
%TA.AperFunction,ComponentPad*%
%ADD11C,1.600000*%
%TD*%
%TA.AperFunction,ComponentPad*%
%ADD12C,1.500000*%
%TD*%
%TA.AperFunction,ComponentPad*%
%ADD13R,1.800000X1.800000*%
%TD*%
%TA.AperFunction,ComponentPad*%
%ADD14C,1.800000*%
%TD*%
%TA.AperFunction,ComponentPad*%
%ADD15C,2.000000*%
%TD*%
%TA.AperFunction,ComponentPad*%
%ADD16C,1.440000*%
%TD*%
%TA.AperFunction,ViaPad*%
%ADD17C,0.600000*%
%TD*%
%TA.AperFunction,Conductor*%
%ADD18C,0.500000*%
%TD*%
%TA.AperFunction,Conductor*%
%ADD19C,1.000000*%
%TD*%
G04 APERTURE END LIST*
D10*
%TO.P,LED_Resistor1,1*%
%TO.N,Net-(SwitchLED1-A)*%
X113240000Y-140980000D03*
%TO.P,LED_Resistor1,2*%
%TO.N,Net-(Transmitter1-A6)*%
X113240000Y-135900000D03*
%TD*%
%TO.P,Pullup_Resistor1,1*%
%TO.N,Data_Out*%
X78586291Y-147644868D03*
%TO.P,Pullup_Resistor1,2*%
%TO.N,3.3V*%
X83666291Y-147644868D03*
%TD*%
D11*
%TO.P,Decouple_3_3V1,1*%
%TO.N,3.3V*%
X71100000Y-142900000D03*
%TO.P,Decouple_3_3V1,2*%
%TO.N,GND*%
X66100000Y-142900000D03*
%TD*%
D12*
%TO.P,GameCubePinOut1,0,Blue_0*%
%TO.N,3.3V*%
X79426291Y-154444868D03*
%TO.P,GameCubePinOut1,1,Yellow_1*%
%TO.N,unconnected-(GameCubePinOut1-Yellow-Pad1)*%
X81126291Y-154444868D03*
%TO.P,GameCubePinOut1,2,Red_2*%
%TO.N,Data_Out*%
X82826291Y-154444868D03*
%TO.P,GameCubePinOut1,3,Green_3*%
%TO.N,GND*%
X84526291Y-154444868D03*
%TO.P,GameCubePinOut1,4,White_4*%
X86226291Y-154444868D03*
%TO.P,GameCubePinOut1,5,Black_5*%
X87926291Y-154444868D03*
%TD*%
D13*
%TO.P,SwitchLED1,1,K_1*%
%TO.N,GND*%
X103370000Y-151040000D03*
D14*
%TO.P,SwitchLED1,2,A_2*%
%TO.N,Net-(SwitchLED1-A)*%
X105910000Y-151040000D03*
%TD*%
D15*
%TO.P,Level_Shifter_5V_3_3V1,0,HV1_0*%
%TO.N,Data_In*%
X78513709Y-132595132D03*
%TO.P,Level_Shifter_5V_3_3V1,1,HV2_1*%
%TO.N,unconnected-(Level_Shifter_5V_3_3V1-HV2-Pad1)*%
X81053709Y-132595132D03*
%TO.P,Level_Shifter_5V_3_3V1,2,HV_2*%
%TO.N,5V*%
X83593709Y-132595132D03*
%TO.P,Level_Shifter_5V_3_3V1,3,GND_3*%
%TO.N,GND*%
X86133709Y-132595132D03*
%TO.P,Level_Shifter_5V_3_3V1,4,HV3_4*%
%TO.N,unconnected-(Level_Shifter_5V_3_3V1-HV3-Pad4)*%
X88673709Y-132595132D03*
%TO.P,Level_Shifter_5V_3_3V1,5,Hv4_5*%
%TO.N,unconnected-(Level_Shifter_5V_3_3V1-Hv4-Pad5)*%
X91213709Y-132595132D03*
%TO.P,Level_Shifter_5V_3_3V1,6,LV1_6*%
%TO.N,Data_Out*%
X78513709Y-142914132D03*
%TO.P,Level_Shifter_5V_3_3V1,7,LV2_7*%
%TO.N,unconnected-(Level_Shifter_5V_3_3V1-LV2-Pad7)*%
X81053709Y-142914132D03*
%TO.P,Level_Shifter_5V_3_3V1,8,LV_8*%
%TO.N,3.3V*%
X83593709Y-142914132D03*
%TO.P,Level_Shifter_5V_3_3V1,9,GND_9*%
%TO.N,GND*%
X86133709Y-142914132D03*
%TO.P,Level_Shifter_5V_3_3V1,10,LV3_10*%
%TO.N,unconnected-(Level_Shifter_5V_3_3V1-LV3-Pad10)*%
X88673709Y-142914132D03*
%TO.P,Level_Shifter_5V_3_3V1,11,LV4_11*%
%TO.N,unconnected-(Level_Shifter_5V_3_3V1-LV4-Pad11)*%
X91213709Y-142914132D03*
%TD*%
%TO.P,Transmitter1,0,TX1_0*%
%TO.N,unconnected-(Transmitter1-TX1-Pad0)*%
X119180000Y-112270000D03*
%TO.P,Transmitter1,1,RX0_1*%
%TO.N,unconnected-(Transmitter1-RX0-Pad1)*%
X119180000Y-109730000D03*
%TO.P,Transmitter1,2,RST_2*%
%TO.N,unconnected-(Transmitter1-RST-Pad2)*%
X119180000Y-107190000D03*
%TO.P,Transmitter1,3,GND_3*%
%TO.N,unconnected-(Transmitter1-GND-Pad3)*%
X119180000Y-104650000D03*
%TO.P,Transmitter1,4,D2_4*%
%TO.N,D2*%
X119180000Y-102110000D03*
%TO.P,Transmitter1,5,D3_5*%
%TO.N,D3*%
X119180000Y-99570000D03*
%TO.P,Transmitter1,6,D4_6*%
%TO.N,D4*%
X119180000Y-97030000D03*
%TO.P,Transmitter1,7,D5_7*%
%TO.N,D5*%
X119180000Y-94490000D03*
%TO.P,Transmitter1,8,D6_8*%
%TO.N,D6*%
X119180000Y-91950000D03*
%TO.P,Transmitter1,9,D7_9*%
%TO.N,D7*%
X119180000Y-89410000D03*
%TO.P,Transmitter1,10,D8_10*%
%TO.N,D8*%
X119180000Y-86870000D03*
%TO.P,Transmitter1,11,D9_11*%
%TO.N,D9*%
X119180000Y-84330000D03*
%TO.P,Transmitter1,12,D10_12*%
%TO.N,D10*%
X119180000Y-81790000D03*
%TO.P,Transmitter1,13,D11_13*%
%TO.N,D11*%
X119180000Y-79250000D03*
%TO.P,Transmitter1,14,D12_14*%
%TO.N,unconnected-(Transmitter1-D12-Pad14)*%
X119180000Y-76620000D03*
%TO.P,Transmitter1,15,D13_15*%
%TO.N,Data_In*%
X104500000Y-76620000D03*
%TO.P,Transmitter1,16,3V3_16*%
%TO.N,unconnected-(Transmitter1-3V3-Pad16)*%
X104500000Y-79250000D03*
%TO.P,Transmitter1,17,REF_17*%
%TO.N,unconnected-(Transmitter1-REF-Pad17)*%
X104500000Y-81790000D03*
%TO.P,Transmitter1,18,A0_18*%
%TO.N,A0*%
X104500000Y-84330000D03*
%TO.P,Transmitter1,19,A1_19*%
%TO.N,A1*%
X104500000Y-86870000D03*
%TO.P,Transmitter1,20,A2_20*%
%TO.N,A2*%
X104500000Y-89410000D03*
%TO.P,Transmitter1,21,A3_21*%
%TO.N,A3*%
X104500000Y-91950000D03*
%TO.P,Transmitter1,22,A4_22*%
%TO.N,A4*%
X104500000Y-94490000D03*
%TO.P,Transmitter1,23,A5_23*%
%TO.N,A5*%
X104500000Y-97030000D03*
%TO.P,Transmitter1,24,A6_24*%
%TO.N,Net-(Transmitter1-A6)*%
X104500000Y-99570000D03*
%TO.P,Transmitter1,25,A7_25*%
%TO.N,unconnected-(Transmitter1-A7-Pad25)*%
X104500000Y-102110000D03*
%TO.P,Transmitter1,26,5V_26*%
%TO.N,5V*%
X104500000Y-104650000D03*
%TO.P,Transmitter1,27,RST_27*%
%TO.N,unconnected-(Transmitter1-RST-Pad27)*%
X104500000Y-107190000D03*
%TO.P,Transmitter1,28,GND_28*%
%TO.N,GND*%
X104500000Y-109730000D03*
%TO.P,Transmitter1,29,VIN_29*%
%TO.N,unconnected-(Transmitter1-VIN-Pad29)*%
X104500000Y-112270000D03*
%TD*%
%TO.P,Reciever1,0,TX1_0*%
%TO.N,unconnected-(Reciever1-TX1-Pad0)*%
X79180000Y-112270000D03*
%TO.P,Reciever1,1,RX0_1*%
%TO.N,unconnected-(Reciever1-RX0-Pad1)*%
X79180000Y-109730000D03*
%TO.P,Reciever1,2,RST_2*%
%TO.N,unconnected-(Reciever1-RST-Pad2)*%
X79180000Y-107190000D03*
%TO.P,Reciever1,3,GND_3*%
%TO.N,unconnected-(Reciever1-GND-Pad3)*%
X79180000Y-104650000D03*
%TO.P,Reciever1,4,D2_4*%
%TO.N,D2*%
X79180000Y-102110000D03*
%TO.P,Reciever1,5,D3_5*%
%TO.N,D3*%
X79180000Y-99570000D03*
%TO.P,Reciever1,6,D4_6*%
%TO.N,D4*%
X79180000Y-97030000D03*
%TO.P,Reciever1,7,D5_7*%
%TO.N,D5*%
X79180000Y-94490000D03*
%TO.P,Reciever1,8,D6_8*%
%TO.N,D6*%
X79180000Y-91950000D03*
%TO.P,Reciever1,9,D7_9*%
%TO.N,D7*%
X79180000Y-89410000D03*
%TO.P,Reciever1,10,D8_10*%
%TO.N,D8*%
X79180000Y-86870000D03*
%TO.P,Reciever1,11,D9_11*%
%TO.N,D9*%
X79180000Y-84330000D03*
%TO.P,Reciever1,12,D10_12*%
%TO.N,D10*%
X79180000Y-81790000D03*
%TO.P,Reciever1,13,D11_13*%
%TO.N,D11*%
X79180000Y-79250000D03*
%TO.P,Reciever1,14,D12_14*%
%TO.N,unconnected-(Reciever1-D12-Pad14)*%
X79180000Y-76620000D03*
%TO.P,Reciever1,15,D13_15*%
%TO.N,unconnected-(Reciever1-D13-Pad15)*%
X64500000Y-76620000D03*
%TO.P,Reciever1,16,3V3_16*%
%TO.N,unconnected-(Reciever1-3V3-Pad16)*%
X64500000Y-79250000D03*
%TO.P,Reciever1,17,REF_17*%
%TO.N,unconnected-(Reciever1-REF-Pad17)*%
X64500000Y-81790000D03*
%TO.P,Reciever1,18,A0_18*%
%TO.N,A0*%
X64500000Y-84330000D03*
%TO.P,Reciever1,19,A1_19*%
%TO.N,A1*%
X64500000Y-86870000D03*
%TO.P,Reciever1,20,A2_20*%
%TO.N,A2*%
X64500000Y-89410000D03*
%TO.P,Reciever1,21,A3_21*%
%TO.N,A3*%
X64500000Y-91950000D03*
%TO.P,Reciever1,22,A4_22*%
%TO.N,A4*%
X64500000Y-94490000D03*
%TO.P,Reciever1,23,A5_23*%
%TO.N,A5*%
X64500000Y-97030000D03*
%TO.P,Reciever1,24,A6_24*%
%TO.N,unconnected-(Reciever1-A6-Pad24)*%
X64500000Y-99570000D03*
%TO.P,Reciever1,25,A7_25*%
%TO.N,unconnected-(Reciever1-A7-Pad25)*%
X64500000Y-102110000D03*
%TO.P,Reciever1,26,5V_26*%
%TO.N,5V*%
X64500000Y-104650000D03*
%TO.P,Reciever1,27,RST_27*%
%TO.N,unconnected-(Reciever1-RST-Pad27)*%
X64500000Y-107190000D03*
%TO.P,Reciever1,28,GND_28*%
%TO.N,GND*%
X64500000Y-109730000D03*
%TO.P,Reciever1,29,VIN_29*%
%TO.N,unconnected-(Reciever1-VIN-Pad29)*%
X64500000Y-112270000D03*
%TD*%
D16*
%TO.P,R1,1,1_1*%
%TO.N,GND*%
X103440000Y-138440000D03*
%TO.P,R1,2,2_2*%
%TO.N,Net-(Transmitter1-A6)*%
X103440000Y-135900000D03*
%TO.P,R1,3,3_3*%
%TO.N,5V*%
X103440000Y-133360000D03*
%TD*%
D11*
%TO.P,Decouple_5V1,1*%
%TO.N,5V*%
X71200000Y-133300000D03*
%TO.P,Decouple_5V1,2*%
%TO.N,GND*%
X66200000Y-133300000D03*
%TD*%
D17*
%TO.N,5V*%
X83450000Y-125350000D03*
%TO.N,A0*%
X78300000Y-118300000D03*
%TO.N,A1*%
X76500000Y-118300000D03*
%TO.N,A2*%
X75000000Y-118400000D03*
%TO.N,A3*%
X73300000Y-118500000D03*
%TO.N,A4*%
X71600000Y-118500000D03*
%TO.N,A5*%
X70300000Y-118500000D03*
%TD*%
%TO.N,Net-(SwitchLED1-A)*%
D18*
X113240000Y-148560000D02*
X113240000Y-140980000D01*
X110760000Y-151040000D02*
X113240000Y-148560000D01*
X105910000Y-151040000D02*
X110760000Y-151040000D01*
%TO.N,Net-(Transmitter1-A6)*%
X103440000Y-135900000D02*
X113240000Y-135900000D01*
%TO.N,Data_Out*%
X78513709Y-147572286D02*
X78586291Y-147644868D01*
X78640000Y-147591159D02*
X78586291Y-147644868D01*
X78513709Y-142914132D02*
X78513709Y-147572286D01*
%TO.N,3.3V*%
D19*
X79426291Y-151373709D02*
X79426291Y-154444868D01*
X83593709Y-142914132D02*
X83593709Y-147572286D01*
D18*
X83720000Y-147591159D02*
X83666291Y-147644868D01*
D19*
X82700000Y-139900000D02*
X75900000Y-139900000D01*
X72900000Y-142900000D02*
X71100000Y-142900000D01*
X83666291Y-148833709D02*
X82100000Y-150400000D01*
D18*
X83593709Y-141300000D02*
X83593709Y-140806291D01*
D19*
X83593709Y-141300000D02*
X83593709Y-140793709D01*
X83593709Y-140806291D02*
X83593709Y-142914132D01*
X83666291Y-147644868D02*
X83666291Y-148833709D01*
X82100000Y-150400000D02*
X80400000Y-150400000D01*
X80400000Y-150400000D02*
X79426291Y-151373709D01*
X83593709Y-140793709D02*
X82700000Y-139900000D01*
X75900000Y-139900000D02*
X72900000Y-142900000D01*
D18*
X83593709Y-147572286D02*
X83666291Y-147644868D01*
%TO.N,GND*%
X103440000Y-150970000D02*
X103370000Y-151040000D01*
%TO.N,5V*%
D19*
X67250000Y-104650000D02*
X68000000Y-105400000D01*
X68000000Y-118500000D02*
X74400000Y-124900000D01*
X76100000Y-136100000D02*
X82787418Y-136100000D01*
X83000000Y-124900000D02*
X83450000Y-125350000D01*
X98000000Y-136000000D02*
X100640000Y-133360000D01*
X83593709Y-132595132D02*
X83593709Y-135293709D01*
X73300000Y-133300000D02*
X76100000Y-136100000D01*
X83593709Y-125493709D02*
X83593709Y-132595132D01*
X100640000Y-133360000D02*
X103440000Y-133360000D01*
X83593709Y-135293709D02*
X84300000Y-136000000D01*
X83450000Y-125350000D02*
X83593709Y-125493709D01*
X74400000Y-124900000D02*
X83000000Y-124900000D01*
X64500000Y-104650000D02*
X67250000Y-104650000D01*
X82787418Y-136100000D02*
X83593709Y-135293709D01*
X84300000Y-136000000D02*
X98000000Y-136000000D01*
X71200000Y-133300000D02*
X73300000Y-133300000D01*
X68000000Y-105400000D02*
X68000000Y-118500000D01*
%TO.N,D2*%
D18*
X79180000Y-102110000D02*
X91810000Y-102110000D01*
X116190000Y-102110000D02*
X119180000Y-102110000D01*
X92600000Y-102900000D02*
X92600000Y-115700000D01*
X115100000Y-103200000D02*
X116190000Y-102110000D01*
X108100000Y-124000000D02*
X115100000Y-117000000D01*
X115100000Y-117000000D02*
X115100000Y-103200000D01*
X92600000Y-115700000D02*
X100900000Y-124000000D01*
X91810000Y-102110000D02*
X92600000Y-102900000D01*
X100900000Y-124000000D02*
X108100000Y-124000000D01*
%TO.N,D3*%
X107600000Y-123000000D02*
X114000000Y-116600000D01*
X93900000Y-115700000D02*
X101200000Y-123000000D01*
X93900000Y-115700000D02*
X93900000Y-100440000D01*
X101200000Y-123000000D02*
X107600000Y-123000000D01*
X114000000Y-116600000D02*
X114000000Y-100400000D01*
X79180000Y-99570000D02*
X93030000Y-99570000D01*
X93900000Y-100440000D02*
X93030000Y-99570000D01*
X114830000Y-99570000D02*
X119180000Y-99570000D01*
X114000000Y-100400000D02*
X114830000Y-99570000D01*
%TO.N,D4*%
X93730000Y-97030000D02*
X95000000Y-98300000D01*
X112900000Y-116100000D02*
X112900000Y-99300000D01*
X79180000Y-97030000D02*
X93730000Y-97030000D01*
X101600000Y-121900000D02*
X107100000Y-121900000D01*
X115170000Y-97030000D02*
X119180000Y-97030000D01*
X95000000Y-115300000D02*
X101600000Y-121900000D01*
X112900000Y-99300000D02*
X115170000Y-97030000D01*
X107100000Y-121900000D02*
X112900000Y-116100000D01*
X95000000Y-98300000D02*
X95000000Y-115300000D01*
%TO.N,D5*%
X112000000Y-115700000D02*
X112000000Y-96300000D01*
X94690000Y-94490000D02*
X96000000Y-95800000D01*
X96000000Y-95800000D02*
X96000000Y-115000000D01*
X96000000Y-115000000D02*
X101800000Y-120800000D01*
X79180000Y-94490000D02*
X94690000Y-94490000D01*
X113810000Y-94490000D02*
X119180000Y-94490000D01*
X112000000Y-96300000D02*
X113810000Y-94490000D01*
X106900000Y-120800000D02*
X112000000Y-115700000D01*
X101800000Y-120800000D02*
X106900000Y-120800000D01*
%TO.N,D6*%
X97200000Y-114600000D02*
X102200000Y-119600000D01*
X113300000Y-92100000D02*
X119030000Y-92100000D01*
X110800000Y-94600000D02*
X113300000Y-92100000D01*
X119030000Y-92100000D02*
X119180000Y-91950000D01*
X110800000Y-115400000D02*
X110800000Y-94600000D01*
X79180000Y-91950000D02*
X95550000Y-91950000D01*
X97200000Y-114600000D02*
X97200000Y-93600000D01*
X106600000Y-119600000D02*
X110800000Y-115400000D01*
X102200000Y-119600000D02*
X106600000Y-119600000D01*
X97200000Y-93600000D02*
X95550000Y-91950000D01*
%TO.N,D7*%
X109700000Y-91400000D02*
X111700000Y-89400000D01*
X106500000Y-118400000D02*
X109700000Y-115200000D01*
X111700000Y-89400000D02*
X111710000Y-89410000D01*
X96710000Y-89410000D02*
X98300000Y-91000000D01*
X102300000Y-118400000D02*
X106500000Y-118400000D01*
X98300000Y-114400000D02*
X102300000Y-118400000D01*
X98300000Y-91000000D02*
X98300000Y-114400000D01*
X111710000Y-89410000D02*
X119180000Y-89410000D01*
X109700000Y-115200000D02*
X109700000Y-91400000D01*
X79180000Y-89410000D02*
X96710000Y-89410000D01*
%TO.N,D8*%
X102600000Y-117300000D02*
X106400000Y-117300000D01*
X108800000Y-114900000D02*
X108800000Y-89000000D01*
X108800000Y-89000000D02*
X110930000Y-86870000D01*
X99400000Y-114100000D02*
X102600000Y-117300000D01*
X110930000Y-86870000D02*
X119180000Y-86870000D01*
X99400000Y-88600000D02*
X99400000Y-114100000D01*
X97670000Y-86870000D02*
X99400000Y-88600000D01*
X79180000Y-86870000D02*
X97670000Y-86870000D01*
X106400000Y-117300000D02*
X108800000Y-114900000D01*
%TO.N,D9*%
X110300000Y-84200000D02*
X119050000Y-84200000D01*
X102900000Y-116400000D02*
X106100000Y-116400000D01*
X107900000Y-86600000D02*
X110300000Y-84200000D01*
X107900000Y-114600000D02*
X107900000Y-86600000D01*
X100400000Y-113900000D02*
X102900000Y-116400000D01*
X98830000Y-84330000D02*
X100400000Y-85900000D01*
X100400000Y-85900000D02*
X100400000Y-113900000D01*
X79180000Y-84330000D02*
X98830000Y-84330000D01*
X119050000Y-84200000D02*
X119180000Y-84330000D01*
X106100000Y-116400000D02*
X107900000Y-114600000D01*
%TO.N,D10*%
X106900000Y-114300000D02*
X106900000Y-84000000D01*
X106900000Y-84000000D02*
X109110000Y-81790000D01*
X109110000Y-81790000D02*
X119180000Y-81790000D01*
X101500000Y-113800000D02*
X103200000Y-115500000D01*
X79180000Y-81790000D02*
X99590000Y-81790000D01*
X103200000Y-115500000D02*
X105700000Y-115500000D01*
X99590000Y-81790000D02*
X101500000Y-83700000D01*
X105700000Y-115500000D02*
X106900000Y-114300000D01*
X101500000Y-83700000D02*
X101500000Y-113800000D01*
%TO.N,D11*%
X100450000Y-79250000D02*
X102600000Y-81400000D01*
X103600000Y-114600000D02*
X105200000Y-114600000D01*
X102600000Y-113600000D02*
X103600000Y-114600000D01*
X106000000Y-113800000D02*
X106000000Y-81400000D01*
X106000000Y-81400000D02*
X108150000Y-79250000D01*
X79180000Y-79250000D02*
X100450000Y-79250000D01*
X108150000Y-79250000D02*
X119180000Y-79250000D01*
X105200000Y-114600000D02*
X106000000Y-113800000D01*
X102600000Y-81400000D02*
X102600000Y-113600000D01*
%TO.N,A0*%
X76630000Y-84330000D02*
X77300000Y-85000000D01*
X77300000Y-117300000D02*
X78300000Y-118300000D01*
X77300000Y-85000000D02*
X77300000Y-117300000D01*
X64500000Y-84330000D02*
X76630000Y-84330000D01*
%TO.N,A1*%
X64500000Y-86870000D02*
X74970000Y-86870000D01*
X75600000Y-87500000D02*
X75600000Y-117400000D01*
X75600000Y-117400000D02*
X76500000Y-118300000D01*
X74970000Y-86870000D02*
X75600000Y-87500000D01*
%TO.N,A2*%
X64500000Y-89410000D02*
X73390000Y-89410000D01*
X73400000Y-89400000D02*
X74000000Y-90000000D01*
X74000000Y-90000000D02*
X74000000Y-117400000D01*
X74000000Y-117400000D02*
X75000000Y-118400000D01*
X73390000Y-89410000D02*
X73400000Y-89400000D01*
%TO.N,A3*%
X72600000Y-117800000D02*
X73300000Y-118500000D01*
X71750000Y-91950000D02*
X72600000Y-92800000D01*
X64500000Y-91950000D02*
X71750000Y-91950000D01*
X72600000Y-92800000D02*
X72600000Y-117800000D01*
%TO.N,A4*%
X71200000Y-95200000D02*
X71200000Y-118100000D01*
X64500000Y-94490000D02*
X70490000Y-94490000D01*
X71200000Y-118100000D02*
X71600000Y-118500000D01*
X70490000Y-94490000D02*
X71200000Y-95200000D01*
%TO.N,A5*%
X69900000Y-97800000D02*
X69900000Y-118100000D01*
X69900000Y-118100000D02*
X70300000Y-118500000D01*
X64500000Y-97030000D02*
X69130000Y-97030000D01*
X69130000Y-97030000D02*
X69900000Y-97800000D01*
%TD*%
%TA.AperFunction,Conductor*%
%TO.N,A2*%
G36*
X74760603Y-117806995D02*
G01*
X74764125Y-117809038D01*
X75168260Y-118149877D01*
X75172336Y-118153314D01*
X75175184Y-118156880D01*
X75176080Y-118158611D01*
X75176922Y-118167262D01*
X75176485Y-118168762D01*
X75174558Y-118172581D01*
X75002138Y-118398827D01*
X75001105Y-118400008D01*
X75000008Y-118401105D01*
X74998827Y-118402138D01*
X74772699Y-118574468D01*
X74768594Y-118576474D01*
X74766712Y-118576971D01*
X74758096Y-118575916D01*
X74756724Y-118575163D01*
X74753409Y-118572449D01*
X74606980Y-118398827D01*
X74409203Y-118164320D01*
X74406998Y-118160323D01*
X74406371Y-118158350D01*
X74406910Y-118149877D01*
X74407502Y-118148604D01*
X74409835Y-118145266D01*
X74745084Y-117810017D01*
X74748875Y-117807484D01*
X74750791Y-117806690D01*
X74759283Y-117806513D01*
X74760603Y-117806995D01*
G37*
%TD.AperFunction*%
%TD*%
%TA.AperFunction,Conductor*%
%TO.N,D2*%
G36*
X118711106Y-101235158D02*
G01*
X118712102Y-101236060D01*
X118714565Y-101239209D01*
X119046843Y-101859541D01*
X119176942Y-102102424D01*
X119178271Y-102106794D01*
X119178614Y-102110255D01*
X119177285Y-102116933D01*
X118714707Y-102980524D01*
X118711807Y-102984051D01*
X118710170Y-102985392D01*
X118702170Y-102988026D01*
X118700833Y-102987959D01*
X118696937Y-102987082D01*
X117696698Y-102572279D01*
X117194180Y-102363883D01*
X117190385Y-102361344D01*
X117188236Y-102359192D01*
X117184815Y-102350925D01*
X117184815Y-101870141D01*
X117185706Y-101865663D01*
X117186870Y-101862853D01*
X117193197Y-101856523D01*
X118696664Y-101233028D01*
X118701141Y-101232137D01*
X118703259Y-101232137D01*
X118711106Y-101235158D01*
G37*
%TD.AperFunction*%
%TD*%
%TA.AperFunction,Conductor*%
%TO.N,D4*%
G36*
X79658006Y-96151980D02*
G01*
X79659165Y-96152039D01*
X79663060Y-96152915D01*
X81165822Y-96776117D01*
X81169612Y-96778652D01*
X81171762Y-96780805D01*
X81175185Y-96789073D01*
X81175185Y-97269857D01*
X81174294Y-97274335D01*
X81173130Y-97277145D01*
X81166803Y-97283475D01*
X79663336Y-97906968D01*
X79658860Y-97907860D01*
X79656745Y-97907861D01*
X79648891Y-97904839D01*
X79647895Y-97903937D01*
X79645434Y-97900789D01*
X79183056Y-97037572D01*
X79181727Y-97033206D01*
X79181383Y-97029744D01*
X79182711Y-97023068D01*
X79645294Y-96159470D01*
X79648189Y-96155948D01*
X79649830Y-96154605D01*
X79657827Y-96151972D01*
X79658006Y-96151980D01*
G37*
%TD.AperFunction*%
%TD*%
%TA.AperFunction,Conductor*%
%TO.N,D9*%
G36*
X118882375Y-83377212D02*
G01*
X118890406Y-83381170D01*
X118890408Y-83381172D01*
X118891464Y-83382376D01*
X118892542Y-83385551D01*
X118892803Y-83385472D01*
X119178905Y-84323116D01*
X119179359Y-84327668D01*
X119178942Y-84331937D01*
X119177611Y-84336324D01*
X118715082Y-85199823D01*
X118712182Y-85203350D01*
X118710734Y-85204536D01*
X118702316Y-85207142D01*
X118700656Y-85206999D01*
X118696410Y-85205798D01*
X117199707Y-84454282D01*
X117196104Y-84451476D01*
X117194024Y-84449069D01*
X117191177Y-84441419D01*
X117191177Y-83960709D01*
X117192066Y-83956235D01*
X117193165Y-83953580D01*
X117197837Y-83948098D01*
X117198016Y-83947987D01*
X117200385Y-83946871D01*
X118876076Y-83377692D01*
X118880593Y-83377096D01*
X118882375Y-83377212D01*
G37*
%TD.AperFunction*%
%TD*%
%TA.AperFunction,Conductor*%
%TO.N,A0*%
G36*
X78062543Y-117707704D02*
G01*
X78063339Y-117708375D01*
X78473538Y-118054328D01*
X78474115Y-118054814D01*
X78478230Y-118062767D01*
X78475878Y-118070850D01*
X78301664Y-118299450D01*
X78299450Y-118301664D01*
X78070850Y-118475878D01*
X78062193Y-118478167D01*
X78054814Y-118474115D01*
X77707704Y-118062543D01*
X77704990Y-118054009D01*
X77708374Y-118046728D01*
X78046728Y-117708374D01*
X78055000Y-117704948D01*
X78062543Y-117707704D01*
G37*
%TD.AperFunction*%
%TD*%
%TA.AperFunction,Conductor*%
%TO.N,3.3V*%
G36*
X83670404Y-147645199D02*
G01*
X84324884Y-147844634D01*
X84331799Y-147850324D01*
X84332666Y-147859236D01*
X84332644Y-147859308D01*
X83878674Y-149315714D01*
X83872940Y-149322592D01*
X83864022Y-149323402D01*
X83859231Y-149320505D01*
X83168240Y-148629514D01*
X83165080Y-148623727D01*
X82998724Y-147858605D01*
X83000315Y-147849795D01*
X83006751Y-147844929D01*
X83663591Y-147645197D01*
X83670404Y-147645199D01*
G37*
%TD.AperFunction*%
%TD*%
%TA.AperFunction,Conductor*%
%TO.N,Net-(SwitchLED1-A)*%
G36*
X113898181Y-141179639D02*
G01*
X113905095Y-141185330D01*
X113905961Y-141194243D01*
X113905806Y-141194714D01*
X113492750Y-142368812D01*
X113486772Y-142375479D01*
X113481713Y-142376629D01*
X112998287Y-142376629D01*
X112990014Y-142373202D01*
X112987250Y-142368812D01*
X112574193Y-141194714D01*
X112574680Y-141185772D01*
X112581347Y-141179794D01*
X112581789Y-141179648D01*
X113236588Y-140980040D01*
X113243412Y-140980040D01*
X113898181Y-141179639D01*
G37*
%TD.AperFunction*%
%TD*%
%TA.AperFunction,Conductor*%
%TO.N,A4*%
G36*
X64978006Y-93611980D02*
G01*
X64979165Y-93612039D01*
X64983060Y-93612915D01*
X66485822Y-94236117D01*
X66489612Y-94238652D01*
X66491762Y-94240805D01*
X66495185Y-94249073D01*
X66495185Y-94729857D01*
X66494294Y-94734335D01*
X66493130Y-94737145D01*
X66486803Y-94743475D01*
X64983336Y-95366968D01*
X64978860Y-95367860D01*
X64976745Y-95367861D01*
X64968891Y-95364839D01*
X64967895Y-95363937D01*
X64965434Y-95360789D01*
X64503056Y-94497572D01*
X64501727Y-94493206D01*
X64501383Y-94489744D01*
X64502711Y-94483068D01*
X64965294Y-93619470D01*
X64968189Y-93615948D01*
X64969830Y-93614605D01*
X64977827Y-93611972D01*
X64978006Y-93611980D01*
G37*
%TD.AperFunction*%
%TD*%
%TA.AperFunction,Conductor*%
%TO.N,D8*%
G36*
X118713608Y-85997423D02*
G01*
X119178041Y-86864476D01*
X119178926Y-86873386D01*
X119178041Y-86875524D01*
X118713608Y-87742576D01*
X118706680Y-87748251D01*
X118698812Y-87747860D01*
X117192033Y-87122993D01*
X117185704Y-87116658D01*
X117184815Y-87112185D01*
X117184815Y-86627814D01*
X117188242Y-86619541D01*
X117192030Y-86617007D01*
X118698812Y-85992138D01*
X118707767Y-85992136D01*
X118713608Y-85997423D01*
G37*
%TD.AperFunction*%
%TD*%
%TA.AperFunction,Conductor*%
%TO.N,A3*%
G36*
X73060603Y-117906995D02*
G01*
X73064125Y-117909038D01*
X73468260Y-118249877D01*
X73472336Y-118253314D01*
X73475184Y-118256880D01*
X73476080Y-118258611D01*
X73476922Y-118267262D01*
X73476485Y-118268762D01*
X73474558Y-118272581D01*
X73302138Y-118498827D01*
X73301105Y-118500008D01*
X73300008Y-118501105D01*
X73298827Y-118502138D01*
X73072699Y-118674468D01*
X73068594Y-118676474D01*
X73066712Y-118676971D01*
X73058096Y-118675916D01*
X73056724Y-118675163D01*
X73053409Y-118672449D01*
X72906980Y-118498827D01*
X72709203Y-118264320D01*
X72706998Y-118260323D01*
X72706371Y-118258350D01*
X72706910Y-118249877D01*
X72707502Y-118248604D01*
X72709835Y-118245266D01*
X73045084Y-117910017D01*
X73048875Y-117907484D01*
X73050791Y-117906690D01*
X73059283Y-117906513D01*
X73060603Y-117906995D01*
G37*
%TD.AperFunction*%
%TD*%
%TA.AperFunction,Conductor*%
%TO.N,D10*%
G36*
X118711106Y-80915158D02*
G01*
X118712102Y-80916060D01*
X118714565Y-80919209D01*
X119046843Y-81539541D01*
X119176942Y-81782424D01*
X119178271Y-81786794D01*
X119178614Y-81790255D01*
X119177285Y-81796933D01*
X118714707Y-82660524D01*
X118711807Y-82664051D01*
X118710170Y-82665392D01*
X118702170Y-82668026D01*
X118700833Y-82667959D01*
X118696937Y-82667082D01*
X117696698Y-82252279D01*
X117194180Y-82043883D01*
X117190385Y-82041344D01*
X117188236Y-82039192D01*
X117184815Y-82030925D01*
X117184815Y-81550141D01*
X117185706Y-81545663D01*
X117186870Y-81542853D01*
X117193197Y-81536523D01*
X118696664Y-80913028D01*
X118701141Y-80912137D01*
X118703259Y-80912137D01*
X118711106Y-80915158D01*
G37*
%TD.AperFunction*%
%TD*%
%TA.AperFunction,Conductor*%
%TO.N,D11*%
G36*
X118713608Y-78377423D02*
G01*
X119178041Y-79244476D01*
X119178926Y-79253386D01*
X119178041Y-79255524D01*
X118713608Y-80122576D01*
X118706680Y-80128251D01*
X118698812Y-80127860D01*
X117192033Y-79502993D01*
X117185704Y-79496658D01*
X117184815Y-79492185D01*
X117184815Y-79007814D01*
X117188242Y-78999541D01*
X117192030Y-78997007D01*
X118698812Y-78372138D01*
X118707767Y-78372136D01*
X118713608Y-78377423D01*
G37*
%TD.AperFunction*%
%TD*%
%TA.AperFunction,Conductor*%
%TO.N,D2*%
G36*
X79658006Y-101231980D02*
G01*
X79659165Y-101232039D01*
X79663060Y-101232915D01*
X81165822Y-101856117D01*
X81169612Y-101858652D01*
X81171762Y-101860805D01*
X81175185Y-101869073D01*
X81175185Y-102349857D01*
X81174294Y-102354335D01*
X81173130Y-102357145D01*
X81166803Y-102363475D01*
X79663336Y-102986968D01*
X79658860Y-102987860D01*
X79656745Y-102987861D01*
X79648891Y-102984839D01*
X79647895Y-102983937D01*
X79645434Y-102980789D01*
X79183056Y-102117572D01*
X79181727Y-102113206D01*
X79181383Y-102109744D01*
X79182711Y-102103068D01*
X79645294Y-101239470D01*
X79648189Y-101235948D01*
X79649830Y-101234605D01*
X79657827Y-101231972D01*
X79658006Y-101231980D01*
G37*
%TD.AperFunction*%
%TD*%
%TA.AperFunction,Conductor*%
%TO.N,A1*%
G36*
X76260603Y-117706995D02*
G01*
X76264125Y-117709038D01*
X76668260Y-118049877D01*
X76672336Y-118053314D01*
X76675184Y-118056880D01*
X76676080Y-118058611D01*
X76676922Y-118067262D01*
X76676485Y-118068762D01*
X76674558Y-118072581D01*
X76502138Y-118298827D01*
X76501105Y-118300008D01*
X76500008Y-118301105D01*
X76498827Y-118302138D01*
X76272699Y-118474468D01*
X76268594Y-118476474D01*
X76266712Y-118476971D01*
X76258096Y-118475916D01*
X76256724Y-118475163D01*
X76253409Y-118472449D01*
X76106980Y-118298827D01*
X75909203Y-118064320D01*
X75906998Y-118060323D01*
X75906371Y-118058350D01*
X75906910Y-118049877D01*
X75907502Y-118048604D01*
X75909835Y-118045266D01*
X76245084Y-117710017D01*
X76248875Y-117707484D01*
X76250791Y-117706690D01*
X76259283Y-117706513D01*
X76260603Y-117706995D01*
G37*
%TD.AperFunction*%
%TD*%
%TA.AperFunction,Conductor*%
%TO.N,D10*%
G36*
X79658006Y-80911980D02*
G01*
X79659165Y-80912039D01*
X79663060Y-80912915D01*
X81165822Y-81536117D01*
X81169612Y-81538652D01*
X81171762Y-81540805D01*
X81175185Y-81549073D01*
X81175185Y-82029857D01*
X81174294Y-82034335D01*
X81173130Y-82037145D01*
X81166803Y-82043475D01*
X79663336Y-82666968D01*
X79658860Y-82667860D01*
X79656745Y-82667861D01*
X79648891Y-82664839D01*
X79647895Y-82663937D01*
X79645434Y-82660789D01*
X79183056Y-81797572D01*
X79181727Y-81793206D01*
X79181383Y-81789744D01*
X79182711Y-81783068D01*
X79645294Y-80919470D01*
X79648189Y-80915948D01*
X79649830Y-80914605D01*
X79657827Y-80911972D01*
X79658006Y-80911980D01*
G37*
%TD.AperFunction*%
%TD*%
%TA.AperFunction,Conductor*%
%TO.N,D8*%
G36*
X79658006Y-85991980D02*
G01*
X79659165Y-85992039D01*
X79663060Y-85992915D01*
X81165822Y-86616117D01*
X81169612Y-86618652D01*
X81171762Y-86620805D01*
X81175185Y-86629073D01*
X81175185Y-87109857D01*
X81174294Y-87114335D01*
X81173130Y-87117145D01*
X81166803Y-87123475D01*
X79663336Y-87746968D01*
X79658860Y-87747860D01*
X79656745Y-87747861D01*
X79648891Y-87744839D01*
X79647895Y-87743937D01*
X79645434Y-87740789D01*
X79183056Y-86877572D01*
X79181727Y-86873206D01*
X79181383Y-86869744D01*
X79182711Y-86863068D01*
X79645294Y-85999470D01*
X79648189Y-85995948D01*
X79649830Y-85994605D01*
X79657827Y-85991972D01*
X79658006Y-85991980D01*
G37*
%TD.AperFunction*%
%TD*%
%TA.AperFunction,Conductor*%
%TO.N,D6*%
G36*
X118710970Y-91075682D02*
G01*
X118712289Y-91076779D01*
X118715122Y-91080250D01*
X119130100Y-91854975D01*
X119177607Y-91943665D01*
X119178936Y-91948033D01*
X119179360Y-91952302D01*
X119178910Y-91956865D01*
X118893875Y-92893270D01*
X118891721Y-92897292D01*
X118890590Y-92898668D01*
X118882689Y-92902884D01*
X118882683Y-92902884D01*
X118881037Y-92903044D01*
X118876252Y-92902514D01*
X117205413Y-92353370D01*
X117201436Y-92351125D01*
X117199284Y-92349274D01*
X117195530Y-92343104D01*
X117195469Y-92342849D01*
X117195155Y-92340155D01*
X117195155Y-91859451D01*
X117196045Y-91854975D01*
X117197272Y-91852012D01*
X117202709Y-91846096D01*
X118696299Y-91074434D01*
X118700677Y-91073172D01*
X118702507Y-91073018D01*
X118710970Y-91075682D01*
G37*
%TD.AperFunction*%
%TD*%
%TA.AperFunction,Conductor*%
%TO.N,D9*%
G36*
X79658006Y-83451980D02*
G01*
X79659165Y-83452039D01*
X79663060Y-83452915D01*
X81165822Y-84076117D01*
X81169612Y-84078652D01*
X81171762Y-84080805D01*
X81175185Y-84089073D01*
X81175185Y-84569857D01*
X81174294Y-84574335D01*
X81173130Y-84577145D01*
X81166803Y-84583475D01*
X79663336Y-85206968D01*
X79658860Y-85207860D01*
X79656745Y-85207861D01*
X79648891Y-85204839D01*
X79647895Y-85203937D01*
X79645434Y-85200789D01*
X79183056Y-84337572D01*
X79181727Y-84333206D01*
X79181383Y-84329744D01*
X79182711Y-84323068D01*
X79645294Y-83459470D01*
X79648189Y-83455948D01*
X79649830Y-83454605D01*
X79657827Y-83451972D01*
X79658006Y-83451980D01*
G37*
%TD.AperFunction*%
%TD*%
%TA.AperFunction,Conductor*%
%TO.N,A5*%
G36*
X70152729Y-118069841D02*
G01*
X70471167Y-118255318D01*
X70476591Y-118262443D01*
X70475388Y-118271317D01*
X70474575Y-118272532D01*
X70300951Y-118499755D01*
X70298752Y-118501952D01*
X70071881Y-118675082D01*
X70063225Y-118677377D01*
X70055482Y-118672879D01*
X70055066Y-118672297D01*
X69662214Y-118086467D01*
X69660453Y-118077689D01*
X69665416Y-118070235D01*
X69671932Y-118068252D01*
X70146841Y-118068252D01*
X70152729Y-118069841D01*
G37*
%TD.AperFunction*%
%TD*%
%TA.AperFunction,Conductor*%
%TO.N,D7*%
G36*
X118711106Y-88535158D02*
G01*
X118712102Y-88536060D01*
X118714565Y-88539209D01*
X119046843Y-89159541D01*
X119176942Y-89402424D01*
X119178271Y-89406794D01*
X119178614Y-89410255D01*
X119177285Y-89416933D01*
X118714707Y-90280524D01*
X118711807Y-90284051D01*
X118710170Y-90285392D01*
X118702170Y-90288026D01*
X118700833Y-90287959D01*
X118696937Y-90287082D01*
X117696698Y-89872279D01*
X117194180Y-89663883D01*
X117190385Y-89661344D01*
X117188236Y-89659192D01*
X117184815Y-89650925D01*
X117184815Y-89170141D01*
X117185706Y-89165663D01*
X117186870Y-89162853D01*
X117193197Y-89156523D01*
X118696664Y-88533028D01*
X118701141Y-88532137D01*
X118703259Y-88532137D01*
X118711106Y-88535158D01*
G37*
%TD.AperFunction*%
%TD*%
%TA.AperFunction,Conductor*%
%TO.N,D5*%
G36*
X79661187Y-93612139D02*
G01*
X81167968Y-94237007D01*
X81174296Y-94243341D01*
X81175185Y-94247814D01*
X81175185Y-94732185D01*
X81171758Y-94740458D01*
X81167967Y-94742993D01*
X79661187Y-95367860D01*
X79652232Y-95367863D01*
X79646391Y-95362576D01*
X79181957Y-94495521D01*
X79181073Y-94486614D01*
X79181954Y-94484483D01*
X79646392Y-93617421D01*
X79653319Y-93611748D01*
X79661187Y-93612139D01*
G37*
%TD.AperFunction*%
%TD*%
%TA.AperFunction,Conductor*%
%TO.N,D3*%
G36*
X79658006Y-98691980D02*
G01*
X79659165Y-98692039D01*
X79663060Y-98692915D01*
X81165822Y-99316117D01*
X81169612Y-99318652D01*
X81171762Y-99320805D01*
X81175185Y-99329073D01*
X81175185Y-99809857D01*
X81174294Y-99814335D01*
X81173130Y-99817145D01*
X81166803Y-99823475D01*
X79663336Y-100446968D01*
X79658860Y-100447860D01*
X79656745Y-100447861D01*
X79648891Y-100444839D01*
X79647895Y-100443937D01*
X79645434Y-100440789D01*
X79183056Y-99577572D01*
X79181727Y-99573206D01*
X79181383Y-99569744D01*
X79182711Y-99563068D01*
X79645294Y-98699470D01*
X79648189Y-98695948D01*
X79649830Y-98694605D01*
X79657827Y-98691972D01*
X79658006Y-98691980D01*
G37*
%TD.AperFunction*%
%TD*%
%TA.AperFunction,Conductor*%
%TO.N,D7*%
G36*
X79661187Y-88532139D02*
G01*
X81167968Y-89157007D01*
X81174296Y-89163341D01*
X81175185Y-89167814D01*
X81175185Y-89652185D01*
X81171758Y-89660458D01*
X81167967Y-89662993D01*
X79661187Y-90287860D01*
X79652232Y-90287863D01*
X79646391Y-90282576D01*
X79181957Y-89415521D01*
X79181073Y-89406614D01*
X79181954Y-89404483D01*
X79646392Y-88537421D01*
X79653319Y-88531748D01*
X79661187Y-88532139D01*
G37*
%TD.AperFunction*%
%TD*%
%TA.AperFunction,Conductor*%
%TO.N,5V*%
G36*
X84093005Y-130603374D02*
G01*
X84096033Y-130608618D01*
X84547720Y-132293919D01*
X84546552Y-132302797D01*
X84539826Y-132308141D01*
X83597116Y-132595094D01*
X83590302Y-132595094D01*
X82647591Y-132308141D01*
X82640674Y-132302453D01*
X82639697Y-132293921D01*
X83091385Y-130608617D01*
X83096837Y-130601514D01*
X83102686Y-130599947D01*
X84084732Y-130599947D01*
X84093005Y-130603374D01*
G37*
%TD.AperFunction*%
%TD*%
%TA.AperFunction,Conductor*%
%TO.N,Net-(SwitchLED1-A)*%
G36*
X106183064Y-150183457D02*
G01*
X107698296Y-150787064D01*
X107704713Y-150793309D01*
X107705666Y-150797933D01*
X107705666Y-151282066D01*
X107702239Y-151290339D01*
X107698296Y-151292935D01*
X106183073Y-151896538D01*
X106174119Y-151896416D01*
X106167874Y-151889999D01*
X106167550Y-151889077D01*
X105910037Y-151043405D01*
X105910037Y-151036594D01*
X106167551Y-150190920D01*
X106173239Y-150184006D01*
X106182151Y-150183137D01*
X106183064Y-150183457D01*
G37*
%TD.AperFunction*%
%TD*%
%TA.AperFunction,Conductor*%
%TO.N,Net-(Transmitter1-A6)*%
G36*
X103660558Y-135215134D02*
G01*
X104868774Y-135647225D01*
X104875409Y-135653237D01*
X104876533Y-135658241D01*
X104876533Y-136141758D01*
X104873106Y-136150031D01*
X104868773Y-136152775D01*
X103660559Y-136584864D01*
X103651615Y-136584423D01*
X103645602Y-136577787D01*
X103645427Y-136577258D01*
X103515209Y-136150031D01*
X103440039Y-135903408D01*
X103440039Y-135896591D01*
X103645427Y-135222740D01*
X103651117Y-135215826D01*
X103660030Y-135214960D01*
X103660558Y-135215134D01*
G37*
%TD.AperFunction*%
%TD*%
%TA.AperFunction,Conductor*%
%TO.N,D3*%
G36*
X118713608Y-98697423D02*
G01*
X119178041Y-99564476D01*
X119178926Y-99573386D01*
X119178041Y-99575524D01*
X118713608Y-100442576D01*
X118706680Y-100448251D01*
X118698812Y-100447860D01*
X117192033Y-99822993D01*
X117185704Y-99816658D01*
X117184815Y-99812185D01*
X117184815Y-99327814D01*
X117188242Y-99319541D01*
X117192030Y-99317007D01*
X118698812Y-98692138D01*
X118707767Y-98692136D01*
X118713608Y-98697423D01*
G37*
%TD.AperFunction*%
%TD*%
%TA.AperFunction,Conductor*%
%TO.N,A2*%
G36*
X64978006Y-88531980D02*
G01*
X64979165Y-88532039D01*
X64983060Y-88532915D01*
X66485822Y-89156117D01*
X66489612Y-89158652D01*
X66491762Y-89160805D01*
X66495185Y-89169073D01*
X66495185Y-89649857D01*
X66494294Y-89654335D01*
X66493130Y-89657145D01*
X66486803Y-89663475D01*
X64983336Y-90286968D01*
X64978860Y-90287860D01*
X64976745Y-90287861D01*
X64968891Y-90284839D01*
X64967895Y-90283937D01*
X64965434Y-90280789D01*
X64503056Y-89417572D01*
X64501727Y-89413206D01*
X64501383Y-89409744D01*
X64502711Y-89403068D01*
X64965294Y-88539470D01*
X64968189Y-88535948D01*
X64969830Y-88534605D01*
X64977827Y-88531972D01*
X64978006Y-88531980D01*
G37*
%TD.AperFunction*%
%TD*%
%TA.AperFunction,Conductor*%
%TO.N,5V*%
G36*
X84539827Y-132882122D02*
G01*
X84546743Y-132887810D01*
X84547720Y-132896344D01*
X84096033Y-134581646D01*
X84090581Y-134588750D01*
X84084732Y-134590317D01*
X83102686Y-134590317D01*
X83094413Y-134586890D01*
X83091385Y-134581646D01*
X82639697Y-132896342D01*
X82640865Y-132887466D01*
X82647589Y-132882123D01*
X83590302Y-132595169D01*
X83597116Y-132595169D01*
X84539827Y-132882122D01*
G37*
%TD.AperFunction*%
%TD*%
%TA.AperFunction,Conductor*%
%TO.N,3.3V*%
G36*
X84092421Y-146252456D02*
G01*
X84095614Y-146258398D01*
X84334030Y-147431247D01*
X84332319Y-147440037D01*
X84325976Y-147444770D01*
X83668532Y-147645184D01*
X83663957Y-147645634D01*
X82981229Y-147577411D01*
X82973337Y-147573179D01*
X82970743Y-147564682D01*
X83092717Y-146259639D01*
X83096899Y-146251722D01*
X83104366Y-146249029D01*
X84084148Y-146249029D01*
X84092421Y-146252456D01*
G37*
%TD.AperFunction*%
%TD*%
%TA.AperFunction,Conductor*%
%TO.N,A0*%
G36*
X64978006Y-83451980D02*
G01*
X64979165Y-83452039D01*
X64983060Y-83452915D01*
X66485822Y-84076117D01*
X66489612Y-84078652D01*
X66491762Y-84080805D01*
X66495185Y-84089073D01*
X66495185Y-84569857D01*
X66494294Y-84574335D01*
X66493130Y-84577145D01*
X66486803Y-84583475D01*
X64983336Y-85206968D01*
X64978860Y-85207860D01*
X64976745Y-85207861D01*
X64968891Y-85204839D01*
X64967895Y-85203937D01*
X64965434Y-85200789D01*
X64503056Y-84337572D01*
X64501727Y-84333206D01*
X64501383Y-84329744D01*
X64502711Y-84323068D01*
X64965294Y-83459470D01*
X64968189Y-83455948D01*
X64969830Y-83454605D01*
X64977827Y-83451972D01*
X64978006Y-83451980D01*
G37*
%TD.AperFunction*%
%TD*%
%TA.AperFunction,Conductor*%
%TO.N,5V*%
G36*
X103365893Y-132647497D02*
G01*
X103370573Y-132655131D01*
X103370659Y-132655800D01*
X103440883Y-133358837D01*
X103440883Y-133361163D01*
X103370659Y-134064199D01*
X103366427Y-134072090D01*
X103357854Y-134074678D01*
X103357185Y-134074592D01*
X102013335Y-133861564D01*
X102005701Y-133856884D01*
X102003467Y-133850008D01*
X102003467Y-132869991D01*
X102006894Y-132861718D01*
X102013332Y-132858436D01*
X103357186Y-132645407D01*
X103365893Y-132647497D01*
G37*
%TD.AperFunction*%
%TD*%
%TA.AperFunction,Conductor*%
%TO.N,3.3V*%
G36*
X84539827Y-143201122D02*
G01*
X84546743Y-143206810D01*
X84547720Y-143215344D01*
X84096033Y-144900646D01*
X84090581Y-144907750D01*
X84084732Y-144909317D01*
X83102686Y-144909317D01*
X83094413Y-144905890D01*
X83091385Y-144900646D01*
X82639697Y-143215342D01*
X82640865Y-143206466D01*
X82647589Y-143201123D01*
X83590302Y-142914169D01*
X83597116Y-142914169D01*
X84539827Y-143201122D01*
G37*
%TD.AperFunction*%
%TD*%
%TA.AperFunction,Conductor*%
%TO.N,D4*%
G36*
X118711106Y-96155158D02*
G01*
X118712102Y-96156060D01*
X118714565Y-96159209D01*
X119046843Y-96779541D01*
X119176942Y-97022424D01*
X119178271Y-97026794D01*
X119178614Y-97030255D01*
X119177285Y-97036933D01*
X118714707Y-97900524D01*
X118711807Y-97904051D01*
X118710170Y-97905392D01*
X118702170Y-97908026D01*
X118700833Y-97907959D01*
X118696937Y-97907082D01*
X117696698Y-97492279D01*
X117194180Y-97283883D01*
X117190385Y-97281344D01*
X117188236Y-97279192D01*
X117184815Y-97270925D01*
X117184815Y-96790141D01*
X117185706Y-96785663D01*
X117186870Y-96782853D01*
X117193197Y-96776523D01*
X118696664Y-96153028D01*
X118701141Y-96152137D01*
X118703259Y-96152137D01*
X118711106Y-96155158D01*
G37*
%TD.AperFunction*%
%TD*%
%TA.AperFunction,Conductor*%
%TO.N,Net-(Transmitter1-A6)*%
G36*
X113034227Y-135234680D02*
G01*
X113040205Y-135241347D01*
X113040360Y-135241818D01*
X113239959Y-135896588D01*
X113239959Y-135903412D01*
X113040360Y-136558181D01*
X113034669Y-136565095D01*
X113025756Y-136565961D01*
X113025285Y-136565806D01*
X111851188Y-136152750D01*
X111844521Y-136146772D01*
X111843371Y-136141713D01*
X111843371Y-135658286D01*
X111846798Y-135650013D01*
X111851184Y-135647251D01*
X113025286Y-135234193D01*
X113034227Y-135234680D01*
G37*
%TD.AperFunction*%
%TD*%
%TA.AperFunction,Conductor*%
%TO.N,Data_Out*%
G36*
X78519225Y-142916086D02*
G01*
X79386285Y-143380523D01*
X79391960Y-143387451D01*
X79391569Y-143395319D01*
X78766702Y-144902099D01*
X78760367Y-144908428D01*
X78755894Y-144909317D01*
X78271524Y-144909317D01*
X78263251Y-144905890D01*
X78260716Y-144902099D01*
X77635848Y-143395319D01*
X77635845Y-143386364D01*
X77641130Y-143380524D01*
X78508187Y-142916089D01*
X78517095Y-142915205D01*
X78519225Y-142916086D01*
G37*
%TD.AperFunction*%
%TD*%
%TA.AperFunction,Conductor*%
%TO.N,A5*%
G36*
X64981187Y-96152139D02*
G01*
X66487968Y-96777007D01*
X66494296Y-96783341D01*
X66495185Y-96787814D01*
X66495185Y-97272185D01*
X66491758Y-97280458D01*
X66487967Y-97282993D01*
X64981187Y-97907860D01*
X64972232Y-97907863D01*
X64966391Y-97902576D01*
X64501957Y-97035521D01*
X64501073Y-97026614D01*
X64501954Y-97024483D01*
X64966392Y-96157421D01*
X64973319Y-96151748D01*
X64981187Y-96152139D01*
G37*
%TD.AperFunction*%
%TD*%
%TA.AperFunction,Conductor*%
%TO.N,A1*%
G36*
X64978006Y-85991980D02*
G01*
X64979165Y-85992039D01*
X64983060Y-85992915D01*
X66485822Y-86616117D01*
X66489612Y-86618652D01*
X66491762Y-86620805D01*
X66495185Y-86629073D01*
X66495185Y-87109857D01*
X66494294Y-87114335D01*
X66493130Y-87117145D01*
X66486803Y-87123475D01*
X64983336Y-87746968D01*
X64978860Y-87747860D01*
X64976745Y-87747861D01*
X64968891Y-87744839D01*
X64967895Y-87743937D01*
X64965434Y-87740789D01*
X64503056Y-86877572D01*
X64501727Y-86873206D01*
X64501383Y-86869744D01*
X64502711Y-86863068D01*
X64965294Y-85999470D01*
X64968189Y-85995948D01*
X64969830Y-85994605D01*
X64977827Y-85991972D01*
X64978006Y-85991980D01*
G37*
%TD.AperFunction*%
%TD*%
%TA.AperFunction,Conductor*%
%TO.N,Data_Out*%
G36*
X78764155Y-146252456D02*
G01*
X78766696Y-146256264D01*
X79251234Y-147429766D01*
X79251224Y-147438721D01*
X79244885Y-147445045D01*
X79243832Y-147445423D01*
X78589703Y-147644827D01*
X78582879Y-147644827D01*
X77927484Y-147445037D01*
X77920570Y-147439346D01*
X77919663Y-147430575D01*
X78261255Y-146257458D01*
X78266858Y-146250473D01*
X78272488Y-146249029D01*
X78755882Y-146249029D01*
X78764155Y-146252456D01*
G37*
%TD.AperFunction*%
%TD*%
%TA.AperFunction,Conductor*%
%TO.N,D6*%
G36*
X79658006Y-91071980D02*
G01*
X79659165Y-91072039D01*
X79663060Y-91072915D01*
X81165822Y-91696117D01*
X81169612Y-91698652D01*
X81171762Y-91700805D01*
X81175185Y-91709073D01*
X81175185Y-92189857D01*
X81174294Y-92194335D01*
X81173130Y-92197145D01*
X81166803Y-92203475D01*
X79663336Y-92826968D01*
X79658860Y-92827860D01*
X79656745Y-92827861D01*
X79648891Y-92824839D01*
X79647895Y-92823937D01*
X79645434Y-92820789D01*
X79183056Y-91957572D01*
X79181727Y-91953206D01*
X79181383Y-91949744D01*
X79182711Y-91943068D01*
X79645294Y-91079470D01*
X79648189Y-91075948D01*
X79649830Y-91074605D01*
X79657827Y-91071972D01*
X79658006Y-91071980D01*
G37*
%TD.AperFunction*%
%TD*%
%TA.AperFunction,Conductor*%
%TO.N,A3*%
G36*
X64981187Y-91072139D02*
G01*
X66487968Y-91697007D01*
X66494296Y-91703341D01*
X66495185Y-91707814D01*
X66495185Y-92192185D01*
X66491758Y-92200458D01*
X66487967Y-92202993D01*
X64981187Y-92827860D01*
X64972232Y-92827863D01*
X64966391Y-92822576D01*
X64501957Y-91955521D01*
X64501073Y-91946614D01*
X64501954Y-91944483D01*
X64966392Y-91077421D01*
X64973319Y-91071748D01*
X64981187Y-91072139D01*
G37*
%TD.AperFunction*%
%TD*%
%TA.AperFunction,Conductor*%
%TO.N,3.3V*%
G36*
X79924716Y-152951906D02*
G01*
X79927971Y-152958183D01*
X80170534Y-154358966D01*
X80168569Y-154367702D01*
X80161002Y-154372490D01*
X80160168Y-154372604D01*
X79427453Y-154445751D01*
X79425129Y-154445751D01*
X78692413Y-154372604D01*
X78684521Y-154368372D01*
X78681933Y-154359800D01*
X78682047Y-154358966D01*
X78924611Y-152958183D01*
X78929399Y-152950616D01*
X78936139Y-152948479D01*
X79916443Y-152948479D01*
X79924716Y-152951906D01*
G37*
%TD.AperFunction*%
%TD*%
%TA.AperFunction,Conductor*%
%TO.N,3.3V*%
G36*
X84093005Y-140922374D02*
G01*
X84096033Y-140927618D01*
X84547720Y-142612919D01*
X84546552Y-142621797D01*
X84539826Y-142627141D01*
X83597116Y-142914094D01*
X83590302Y-142914094D01*
X82647591Y-142627141D01*
X82640674Y-142621453D01*
X82639697Y-142612921D01*
X83091385Y-140927617D01*
X83096837Y-140920514D01*
X83102686Y-140918947D01*
X84084732Y-140918947D01*
X84093005Y-140922374D01*
G37*
%TD.AperFunction*%
%TD*%
%TA.AperFunction,Conductor*%
%TO.N,D5*%
G36*
X118713608Y-93617423D02*
G01*
X119178041Y-94484476D01*
X119178926Y-94493386D01*
X119178041Y-94495524D01*
X118713608Y-95362576D01*
X118706680Y-95368251D01*
X118698812Y-95367860D01*
X117192033Y-94742993D01*
X117185704Y-94736658D01*
X117184815Y-94732185D01*
X117184815Y-94247814D01*
X117188242Y-94239541D01*
X117192030Y-94237007D01*
X118698812Y-93612138D01*
X118707767Y-93612136D01*
X118713608Y-93617423D01*
G37*
%TD.AperFunction*%
%TD*%
%TA.AperFunction,Conductor*%
%TO.N,5V*%
G36*
X71291019Y-132506311D02*
G01*
X72786689Y-132798154D01*
X72794152Y-132803101D01*
X72796148Y-132809637D01*
X72796148Y-133790362D01*
X72792721Y-133798635D01*
X72786689Y-133801845D01*
X71291022Y-134093687D01*
X71282245Y-134091908D01*
X71277298Y-134084445D01*
X71277139Y-134083365D01*
X71248874Y-133800000D01*
X71199115Y-133301152D01*
X71199115Y-133298847D01*
X71277139Y-132516633D01*
X71281370Y-132508742D01*
X71289942Y-132506153D01*
X71291019Y-132506311D01*
G37*
%TD.AperFunction*%
%TD*%
%TA.AperFunction,Conductor*%
%TO.N,3.3V*%
G36*
X71191019Y-142106311D02*
G01*
X72686689Y-142398154D01*
X72694152Y-142403101D01*
X72696148Y-142409637D01*
X72696148Y-143390362D01*
X72692721Y-143398635D01*
X72686689Y-143401845D01*
X71191022Y-143693687D01*
X71182245Y-143691908D01*
X71177298Y-143684445D01*
X71177139Y-143683365D01*
X71148874Y-143400000D01*
X71099115Y-142901152D01*
X71099115Y-142898847D01*
X71177139Y-142116633D01*
X71181370Y-142108742D01*
X71189942Y-142106153D01*
X71191019Y-142106311D01*
G37*
%TD.AperFunction*%
%TD*%
%TA.AperFunction,Conductor*%
%TO.N,D11*%
G36*
X79661187Y-78372139D02*
G01*
X81167968Y-78997007D01*
X81174296Y-79003341D01*
X81175185Y-79007814D01*
X81175185Y-79492185D01*
X81171758Y-79500458D01*
X81167967Y-79502993D01*
X79661187Y-80127860D01*
X79652232Y-80127863D01*
X79646391Y-80122576D01*
X79181957Y-79255521D01*
X79181073Y-79246614D01*
X79181954Y-79244483D01*
X79646392Y-78377421D01*
X79653319Y-78371748D01*
X79661187Y-78372139D01*
G37*
%TD.AperFunction*%
%TD*%
%TA.AperFunction,Conductor*%
%TO.N,A4*%
G36*
X71448338Y-118068656D02*
G01*
X71451230Y-118069436D01*
X71454069Y-118070621D01*
X71484590Y-118088399D01*
X71769157Y-118254147D01*
X71772580Y-118257174D01*
X71773657Y-118258590D01*
X71775940Y-118267240D01*
X71775780Y-118268424D01*
X71773482Y-118273961D01*
X71601422Y-118499138D01*
X71600394Y-118500310D01*
X71599840Y-118500864D01*
X71599301Y-118501403D01*
X71598133Y-118502423D01*
X71373730Y-118673670D01*
X71369629Y-118675679D01*
X71367908Y-118676135D01*
X71359034Y-118674942D01*
X71357774Y-118674210D01*
X71353934Y-118670609D01*
X70963510Y-118088399D01*
X70961757Y-118084189D01*
X70961416Y-118082491D01*
X70963147Y-118073708D01*
X70969488Y-118068995D01*
X70970281Y-118068754D01*
X70973672Y-118068252D01*
X71445290Y-118068252D01*
X71448338Y-118068656D01*
G37*
%TD.AperFunction*%
%TD*%
%TA.AperFunction,Conductor*%
%TO.N,5V*%
G36*
X66486514Y-104147676D02*
G01*
X66493618Y-104153128D01*
X66495185Y-104158977D01*
X66495185Y-105141022D01*
X66491758Y-105149295D01*
X66486514Y-105152323D01*
X64801212Y-105604011D01*
X64792334Y-105602843D01*
X64786990Y-105596118D01*
X64500037Y-104653406D01*
X64500037Y-104646593D01*
X64786991Y-103703880D01*
X64792678Y-103696965D01*
X64801210Y-103695988D01*
X66486514Y-104147676D01*
G37*
%TD.AperFunction*%
%TD*%
%TA.AperFunction,Conductor*%
%TO.N,GND*%
G36*
X135892606Y-74505523D02*
G01*
X135907604Y-74509927D01*
X135966355Y-74547672D01*
X135967542Y-74549041D01*
X135995018Y-74603902D01*
X135996663Y-74611460D01*
X135999500Y-74637831D01*
X135999500Y-162357670D01*
X135994475Y-162392614D01*
X135990070Y-162407612D01*
X135952327Y-162466355D01*
X135950958Y-162467542D01*
X135896097Y-162495018D01*
X135888539Y-162496663D01*
X135862168Y-162499500D01*
X47742330Y-162499500D01*
X47707389Y-162494475D01*
X47692390Y-162490070D01*
X47633644Y-162452327D01*
X47632457Y-162450958D01*
X47604977Y-162396083D01*
X47603332Y-162388521D01*
X47600500Y-162362168D01*
X47600500Y-150135521D01*
X52249500Y-150135521D01*
X52249500Y-150444477D01*
X52284083Y-150751422D01*
X52284089Y-150751457D01*
X52310303Y-150866306D01*
X52352831Y-151052635D01*
X52352832Y-151052638D01*
X52352837Y-151052655D01*
X52454859Y-151344216D01*
X52454865Y-151344231D01*
X52454866Y-151344233D01*
X52588899Y-151622556D01*
X52588903Y-151622562D01*
X52620086Y-151672189D01*
X52753265Y-151884143D01*
X52883436Y-152047372D01*
X52931993Y-152108261D01*
X52945880Y-152125674D01*
X53164326Y-152344120D01*
X53405857Y-152536735D01*
X53667435Y-152701095D01*
X53945771Y-152835135D01*
X53945775Y-152835136D01*
X53945877Y-152835178D01*
X53946639Y-152835438D01*
X54032552Y-152865501D01*
X54237327Y-152937156D01*
X54237348Y-152937163D01*
X54237352Y-152937164D01*
X54237364Y-152937168D01*
X54462889Y-152988642D01*
X54537381Y-153005645D01*
X54537380Y-153005645D01*
X54538539Y-153005909D01*
X54538548Y-153005911D01*
X54538554Y-153005911D01*
X54538562Y-153005913D01*
X54743206Y-153028970D01*
X54842520Y-153040159D01*
X54844994Y-153040500D01*
X55154468Y-153040500D01*
X55164262Y-153040500D01*
X55171860Y-153038539D01*
X55311356Y-153022822D01*
X55460751Y-153005990D01*
X55461379Y-153005923D01*
X55461447Y-153005911D01*
X55461452Y-153005911D01*
X55762636Y-152937168D01*
X56054229Y-152835135D01*
X56332565Y-152701095D01*
X56594143Y-152536735D01*
X56835674Y-152344120D01*
X57054120Y-152125674D01*
X57246735Y-151884143D01*
X57411095Y-151622565D01*
X57545135Y-151344229D01*
X57647168Y-151052636D01*
X57715911Y-150751452D01*
X57717661Y-150735927D01*
X57750439Y-150445002D01*
X57750500Y-150444485D01*
X57750500Y-150135511D01*
X57750435Y-150134961D01*
X57723727Y-149897913D01*
X57715915Y-149828576D01*
X57715909Y-149828541D01*
X57705471Y-149782809D01*
X57647168Y-149527364D01*
X57647164Y-149527352D01*
X57647163Y-149527348D01*
X57647156Y-149527327D01*
X57545453Y-149236681D01*
X57545178Y-149235877D01*
X57545133Y-149235767D01*
X57411095Y-148957435D01*
X57246735Y-148695857D01*
X57054120Y-148454326D01*
X56835674Y-148235880D01*
X56835673Y-148235879D01*
X56835672Y-148235878D01*
X56672436Y-148105702D01*
X56594143Y-148043265D01*
X56333977Y-147879792D01*
X56332918Y-147879106D01*
X56332560Y-147878902D01*
X56304917Y-147865589D01*
X56054236Y-147744868D01*
X56054227Y-147744864D01*
X56054216Y-147744859D01*
X55762671Y-147642842D01*
X55762650Y-147642835D01*
X55762638Y-147642832D01*
X55762635Y-147642831D01*
X55639601Y-147614749D01*
X55461457Y-147574089D01*
X55461422Y-147574083D01*
X55154477Y-147539500D01*
X55154471Y-147539500D01*
X55154465Y-147539500D01*
X54845535Y-147539500D01*
X54845528Y-147539500D01*
X54845521Y-147539500D01*
X54538576Y-147574083D01*
X54538541Y-147574089D01*
X54237360Y-147642832D01*
X54237348Y-147642835D01*
X54237327Y-147642842D01*
X53945782Y-147744859D01*
X53945767Y-147744865D01*
X53945765Y-147744866D01*
X53667442Y-147878899D01*
X53405859Y-148043263D01*
X53164326Y-148235878D01*
X52945878Y-148454326D01*
X52753263Y-148695859D01*
X52588904Y-148957435D01*
X52588899Y-148957442D01*
X52454866Y-149235765D01*
X52454865Y-149235767D01*
X52454859Y-149235782D01*
X52352842Y-149527327D01*
X52352835Y-149527348D01*
X52352832Y-149527360D01*
X52284089Y-149828541D01*
X52284083Y-149828576D01*
X52249500Y-150135521D01*
X47600500Y-150135521D01*
X47600500Y-142797676D01*
X64800000Y-142797676D01*
X64800000Y-143002322D01*
X64824933Y-143159739D01*
X64832009Y-143204417D01*
X64895244Y-143399031D01*
X64941659Y-143490124D01*
X64988144Y-143581357D01*
X64988147Y-143581360D01*
X65020517Y-143625914D01*
X65020521Y-143625919D01*
X65020523Y-143625921D01*
X65020524Y-143625922D01*
X65563503Y-143082942D01*
X65624824Y-143049459D01*
X65694515Y-143054443D01*
X65750449Y-143096314D01*
X65758567Y-143108622D01*
X65779920Y-143145606D01*
X65854394Y-143220080D01*
X65854395Y-143220081D01*
X65854397Y-143220082D01*
X65891373Y-143241430D01*
X65939588Y-143291996D01*
X65952812Y-143360603D01*
X65926844Y-143425468D01*
X65917054Y-143436498D01*
X65374075Y-143979473D01*
X65374076Y-143979473D01*
X65374076Y-143979474D01*
X65418650Y-144011859D01*
X65504786Y-144055747D01*
X65600963Y-144104753D01*
X65600965Y-144104753D01*
X65600968Y-144104755D01*
X65795582Y-144167990D01*
X65997683Y-144200000D01*
X66202316Y-144200000D01*
X66202317Y-144200000D01*
X66404417Y-144167990D01*
X66599031Y-144104755D01*
X66604570Y-144101933D01*
X66781347Y-144011860D01*
X66781346Y-144011860D01*
X66781349Y-144011859D01*
X66825921Y-143979474D01*
X66282945Y-143436498D01*
X66249460Y-143375175D01*
X66254444Y-143305483D01*
X66296316Y-143249550D01*
X66308618Y-143241434D01*
X66345606Y-143220080D01*
X66420080Y-143145606D01*
X66441430Y-143108625D01*
X66491995Y-143060411D01*
X66560602Y-143047187D01*
X66625467Y-143073154D01*
X66636498Y-143082945D01*
X67179473Y-143625920D01*
X67179474Y-143625921D01*
X67211859Y-143581349D01*
X67304755Y-143399031D01*
X67367990Y-143204417D01*
X67400000Y-143002317D01*
X67400000Y-142797682D01*
X67399994Y-142797642D01*
X69799500Y-142797642D01*
X69799500Y-143002356D01*
X69831503Y-143204417D01*
X69831522Y-143204534D01*
X69886967Y-143375175D01*
X69894782Y-143399225D01*
X69958691Y-143524653D01*
X69987542Y-143581275D01*
X69987715Y-143581613D01*
X70108026Y-143747211D01*
X70108028Y-143747213D01*
X70252786Y-143891971D01*
X70373226Y-143979474D01*
X70418390Y-144012287D01*
X70526294Y-144067267D01*
X70594329Y-144101933D01*
X70595930Y-144102870D01*
X70599617Y-144104656D01*
X70601640Y-144105661D01*
X70605406Y-144106723D01*
X70647956Y-144120547D01*
X70705135Y-144139126D01*
X70705136Y-144139127D01*
X70741465Y-144150931D01*
X70795465Y-144168477D01*
X70896557Y-144184488D01*
X70997648Y-144200500D01*
X70997649Y-144200500D01*
X71202350Y-144200500D01*
X71202351Y-144200500D01*
X71202352Y-144200500D01*
X71261376Y-144191151D01*
X71287832Y-144189830D01*
X71365917Y-144174593D01*
X71368090Y-144174249D01*
X71368099Y-144174248D01*
X71382525Y-144171962D01*
X71404534Y-144168477D01*
X71408288Y-144167257D01*
X71422848Y-144163484D01*
X72758863Y-143902794D01*
X72782611Y-143900500D01*
X72998541Y-143900500D01*
X72998542Y-143900500D01*
X73013848Y-143897454D01*
X73029562Y-143894329D01*
X73029563Y-143894328D01*
X73029566Y-143894328D01*
X73095188Y-143881275D01*
X73191836Y-143862051D01*
X73245165Y-143839961D01*
X73373914Y-143786632D01*
X73537782Y-143677139D01*
X73677139Y-143537782D01*
X73677139Y-143537780D01*
X73687347Y-143527573D01*
X73687347Y-143527571D01*
X73687774Y-143527145D01*
X73691017Y-143523900D01*
X73697550Y-143517367D01*
X73697553Y-143517366D01*
X73697556Y-143517361D01*
X76265497Y-140949423D01*
X76293747Y-140928275D01*
X76316839Y-140915667D01*
X76376264Y-140900500D01*
X82216388Y-140900500D01*
X82251320Y-140905521D01*
X82276564Y-140912934D01*
X82329310Y-140944230D01*
X82463445Y-141078365D01*
X82496930Y-141139688D01*
X82495537Y-141198147D01*
X82332203Y-141807565D01*
X82295834Y-141867223D01*
X82232985Y-141897748D01*
X82163610Y-141889449D01*
X82124749Y-141863145D01*
X82031221Y-141769617D01*
X82031219Y-141769615D01*
X81840142Y-141630789D01*
X81629705Y-141523565D01*
X81405077Y-141450578D01*
X81405071Y-141450577D01*
X81171811Y-141413632D01*
X81171806Y-141413632D01*
X81171801Y-141413632D01*
X80935617Y-141413632D01*
X80935612Y-141413632D01*
X80935607Y-141413632D01*
X80702345Y-141450577D01*
X80702343Y-141450577D01*
X80702340Y-141450578D01*
X80477712Y-141523565D01*
X80307746Y-141610168D01*
X80267271Y-141630791D01*
X80158258Y-141709993D01*
X80158259Y-141709994D01*
X80088070Y-141760990D01*
X80080689Y-141765123D01*
X79909196Y-141936615D01*
X79909190Y-141936622D01*
X79894505Y-141956835D01*
X79869905Y-141982147D01*
X79858915Y-141990621D01*
X79793805Y-142015968D01*
X79725344Y-142002099D01*
X79719162Y-141998838D01*
X79676696Y-141962044D01*
X79658231Y-141936628D01*
X79658227Y-141936623D01*
X79491221Y-141769617D01*
X79491219Y-141769615D01*
X79300142Y-141630789D01*
X79089705Y-141523565D01*
X78865077Y-141450578D01*
X78865071Y-141450577D01*
X78631811Y-141413632D01*
X78631806Y-141413632D01*
X78631801Y-141413632D01*
X78395617Y-141413632D01*
X78395612Y-141413632D01*
X78395607Y-141413632D01*
X78162345Y-141450577D01*
X78162343Y-141450577D01*
X78162340Y-141450578D01*
X77937712Y-141523565D01*
X77767746Y-141610168D01*
X77727271Y-141630791D01*
X77618258Y-141709993D01*
X77618259Y-141709994D01*
X77548070Y-141760990D01*
X77540689Y-141765123D01*
X77364699Y-141941113D01*
X77360567Y-141948492D01*
X77326161Y-141995848D01*
X77282683Y-142055690D01*
X77230366Y-142127698D01*
X77230364Y-142127700D01*
X77230362Y-142127705D01*
X77190126Y-142206672D01*
X77123142Y-142338135D01*
X77050155Y-142562763D01*
X77050154Y-142562766D01*
X77050154Y-142562768D01*
X77013209Y-142796028D01*
X77013209Y-143032234D01*
X77046343Y-143241430D01*
X77050155Y-143265500D01*
X77123142Y-143490128D01*
X77137016Y-143517357D01*
X77158039Y-143558618D01*
X77167685Y-143584182D01*
X77168904Y-143588949D01*
X77168911Y-143588970D01*
X77511110Y-144414132D01*
X77753749Y-144999222D01*
X77753750Y-144999223D01*
X77763209Y-145046724D01*
X77763209Y-146142074D01*
X77758264Y-146176741D01*
X77434322Y-147289241D01*
X77434317Y-147289259D01*
X77421311Y-147344076D01*
X77418596Y-147353754D01*
X77415350Y-147363746D01*
X77385791Y-147550375D01*
X77385791Y-147739359D01*
X77386664Y-147744868D01*
X77415350Y-147925986D01*
X77473745Y-148105704D01*
X77518521Y-148193581D01*
X77540072Y-148235878D01*
X77559529Y-148274064D01*
X77559531Y-148274067D01*
X77670601Y-148426941D01*
X77804218Y-148560558D01*
X77890520Y-148623261D01*
X77957087Y-148671625D01*
X77957088Y-148671625D01*
X77957092Y-148671628D01*
X78036638Y-148712158D01*
X78119013Y-148754131D01*
X78120611Y-148755066D01*
X78124346Y-148756876D01*
X78126313Y-148757854D01*
X78130075Y-148758914D01*
X78191593Y-148778903D01*
X78191594Y-148778904D01*
X78229454Y-148791205D01*
X78305172Y-148815808D01*
X78491805Y-148845368D01*
X78491810Y-148845368D01*
X78680776Y-148845368D01*
X78680777Y-148845368D01*
X78867409Y-148815808D01*
X79047123Y-148757415D01*
X79215490Y-148671628D01*
X79368364Y-148560558D01*
X79501981Y-148426941D01*
X79613051Y-148274067D01*
X79698838Y-148105700D01*
X79757231Y-147925986D01*
X79764688Y-147878903D01*
X79786791Y-147739354D01*
X79786791Y-147550381D01*
X79757231Y-147363749D01*
X79727344Y-147271768D01*
X79718472Y-147236844D01*
X79706852Y-147208702D01*
X79698836Y-147184031D01*
X79698835Y-147184030D01*
X79698835Y-147184028D01*
X79689631Y-147165965D01*
X79685502Y-147156994D01*
X79273595Y-146159395D01*
X79264209Y-146112071D01*
X79264209Y-145046723D01*
X79273668Y-144999222D01*
X79531422Y-144377686D01*
X79713581Y-143938432D01*
X79757445Y-143884048D01*
X79823748Y-143862011D01*
X79891440Y-143879319D01*
X79915803Y-143898253D01*
X80076199Y-144058649D01*
X80267276Y-144197475D01*
X80354220Y-144241775D01*
X80471268Y-144301415D01*
X80472863Y-144302348D01*
X80476568Y-144304143D01*
X80478572Y-144305139D01*
X80482338Y-144306201D01*
X80598119Y-144343820D01*
X80598120Y-144343821D01*
X80598121Y-144343821D01*
X80702340Y-144377685D01*
X80935612Y-144414632D01*
X80935617Y-144414632D01*
X81171805Y-144414632D01*
X81171806Y-144414632D01*
X81405077Y-144377685D01*
X81406579Y-144377197D01*
X81629701Y-144304700D01*
X81840142Y-144197475D01*
X82031219Y-144058649D01*
X82124750Y-143965118D01*
X82186073Y-143931633D01*
X82255765Y-143936617D01*
X82311698Y-143978489D01*
X82332204Y-144020698D01*
X82588982Y-144978765D01*
X82593209Y-145010866D01*
X82593209Y-146182103D01*
X82590112Y-146208222D01*
X82590137Y-146208227D01*
X82590050Y-146208748D01*
X82589772Y-146211097D01*
X82589411Y-146212597D01*
X82589410Y-146212601D01*
X82467438Y-147517621D01*
X82467435Y-147517665D01*
X82466484Y-147540689D01*
X82466485Y-147540690D01*
X82466189Y-147547865D01*
X82465791Y-147550381D01*
X82465791Y-147557511D01*
X82465686Y-147560056D01*
X82465686Y-147560058D01*
X82465272Y-147570090D01*
X82465596Y-147575856D01*
X82465791Y-147582813D01*
X82465791Y-147739359D01*
X82495350Y-147925987D01*
X82499079Y-147937465D01*
X82503806Y-147961675D01*
X82504137Y-147961628D01*
X82504766Y-147966013D01*
X82600093Y-148404447D01*
X82595101Y-148474138D01*
X82566605Y-148518473D01*
X81734506Y-149350573D01*
X81706255Y-149371722D01*
X81683167Y-149384330D01*
X81623737Y-149399500D01*
X80301456Y-149399500D01*
X80207661Y-149418156D01*
X80123156Y-149434965D01*
X80123149Y-149434966D01*
X80108171Y-149437946D01*
X80108167Y-149437948D01*
X80108165Y-149437948D01*
X80108164Y-149437949D01*
X80103357Y-149439939D01*
X80103353Y-149439941D01*
X80085381Y-149447386D01*
X80085375Y-149447386D01*
X80085376Y-149447387D01*
X80030733Y-149470020D01*
X80030693Y-149470038D01*
X79926092Y-149513364D01*
X79926081Y-149513369D01*
X79780198Y-149610847D01*
X79762446Y-149622707D01*
X79762212Y-149622864D01*
X79762198Y-149622877D01*
X78940614Y-150444465D01*
X78788511Y-150596568D01*
X78788508Y-150596569D01*
X78788509Y-150596570D01*
X78718829Y-150666249D01*
X78718828Y-150666248D01*
X78649154Y-150735923D01*
X78649149Y-150735928D01*
X78539665Y-150899782D01*
X78539655Y-150899801D01*
X78512201Y-150966082D01*
X78512202Y-150966083D01*
X78485435Y-151030705D01*
X78482504Y-151037782D01*
X78476352Y-151052634D01*
X78476351Y-151052635D01*
X78464242Y-151081866D01*
X78464237Y-151081880D01*
X78464234Y-151081891D01*
X78425791Y-151275160D01*
X78425791Y-152865507D01*
X78423973Y-152886664D01*
X78183954Y-154272747D01*
X78181203Y-154290505D01*
X78181089Y-154291336D01*
X78179121Y-154321993D01*
X78177850Y-154333439D01*
X78175791Y-154346442D01*
X78175791Y-154543295D01*
X78199102Y-154690472D01*
X78206581Y-154737694D01*
X78267408Y-154924897D01*
X78296181Y-154981366D01*
X78356634Y-155100011D01*
X78356720Y-155100182D01*
X78356762Y-155100266D01*
X78356766Y-155100272D01*
X78356767Y-155100273D01*
X78472463Y-155259514D01*
X78611645Y-155398696D01*
X78770886Y-155514392D01*
X78853746Y-155556611D01*
X78939812Y-155600464D01*
X78941415Y-155601402D01*
X78945114Y-155603194D01*
X78947122Y-155604192D01*
X78950888Y-155605254D01*
X78988373Y-155617433D01*
X79046606Y-155636354D01*
X79046607Y-155636355D01*
X79068322Y-155643410D01*
X79133464Y-155664577D01*
X79327869Y-155695368D01*
X79327874Y-155695368D01*
X79524712Y-155695368D01*
X79524713Y-155695368D01*
X79719117Y-155664577D01*
X79720619Y-155664089D01*
X79906316Y-155603752D01*
X80081696Y-155514392D01*
X80188986Y-155436440D01*
X80220195Y-155419972D01*
X80234920Y-155414718D01*
X80304675Y-155410731D01*
X80314815Y-155413089D01*
X80359614Y-155433547D01*
X80470886Y-155514392D01*
X80553746Y-155556611D01*
X80639812Y-155600464D01*
X80641415Y-155601402D01*
X80645114Y-155603194D01*
X80647122Y-155604192D01*
X80650888Y-155605254D01*
X80688373Y-155617433D01*
X80746606Y-155636354D01*
X80746607Y-155636355D01*
X80768322Y-155643410D01*
X80833464Y-155664577D01*
X81027869Y-155695368D01*
X81027874Y-155695368D01*
X81224712Y-155695368D01*
X81224713Y-155695368D01*
X81419117Y-155664577D01*
X81420619Y-155664089D01*
X81606316Y-155603752D01*
X81781696Y-155514392D01*
X81888986Y-155436440D01*
X81920195Y-155419972D01*
X81934920Y-155414718D01*
X82004675Y-155410731D01*
X82014815Y-155413089D01*
X82059614Y-155433547D01*
X82170886Y-155514392D01*
X82253746Y-155556611D01*
X82339812Y-155600464D01*
X82341415Y-155601402D01*
X82345114Y-155603194D01*
X82347122Y-155604192D01*
X82350888Y-155605254D01*
X82388373Y-155617433D01*
X82446606Y-155636354D01*
X82446607Y-155636355D01*
X82468322Y-155643410D01*
X82533464Y-155664577D01*
X82727869Y-155695368D01*
X82727874Y-155695368D01*
X82924712Y-155695368D01*
X82924713Y-155695368D01*
X83119117Y-155664577D01*
X83120619Y-155664089D01*
X83306316Y-155603752D01*
X83481696Y-155514392D01*
X83589415Y-155436128D01*
X83620619Y-155419663D01*
X83635345Y-155414408D01*
X83705099Y-155410421D01*
X83715239Y-155412779D01*
X83760038Y-155433237D01*
X83871143Y-155513961D01*
X84046455Y-155603286D01*
X84233585Y-155664089D01*
X84427909Y-155694868D01*
X84624672Y-155694868D01*
X84624673Y-155694868D01*
X84818996Y-155664089D01*
X85006126Y-155603286D01*
X85181434Y-155513963D01*
X85183818Y-155512230D01*
X85184878Y-155511852D01*
X85185587Y-155511418D01*
X85185678Y-155511566D01*
X85210558Y-155502688D01*
X85216417Y-155488545D01*
X84709236Y-154981366D01*
X84675751Y-154920043D01*
X84680735Y-154850352D01*
X84722606Y-154794418D01*
X84734909Y-154786302D01*
X84771897Y-154764948D01*
X84846371Y-154690474D01*
X84867721Y-154653493D01*
X84918285Y-154605279D01*
X84986892Y-154592054D01*
X85051757Y-154618021D01*
X85062789Y-154627812D01*
X85376291Y-154941314D01*
X85376292Y-154941314D01*
X85689794Y-154627811D01*
X85751115Y-154594328D01*
X85820806Y-154599312D01*
X85876740Y-154641183D01*
X85884860Y-154653494D01*
X85906208Y-154690470D01*
X85906210Y-154690472D01*
X85906211Y-154690474D01*
X85980685Y-154764948D01*
X85980686Y-154764949D01*
X85980688Y-154764950D01*
X86017664Y-154786298D01*
X86065879Y-154836864D01*
X86079103Y-154905471D01*
X86053135Y-154970336D01*
X86043345Y-154981366D01*
X85536164Y-155488544D01*
X85536164Y-155488545D01*
X85536164Y-155488546D01*
X85571149Y-155513964D01*
X85746455Y-155603286D01*
X85933585Y-155664089D01*
X86127909Y-155694868D01*
X86324672Y-155694868D01*
X86324673Y-155694868D01*
X86518996Y-155664089D01*
X86706126Y-155603286D01*
X86881434Y-155513963D01*
X86883818Y-155512230D01*
X86884878Y-155511852D01*
X86885587Y-155511418D01*
X86885678Y-155511566D01*
X86910558Y-155502688D01*
X86916417Y-155488545D01*
X86409237Y-154981365D01*
X86375752Y-154920042D01*
X86380736Y-154850350D01*
X86422608Y-154794417D01*
X86434913Y-154786300D01*
X86471897Y-154764948D01*
X86546371Y-154690474D01*
X86567721Y-154653493D01*
X86618285Y-154605279D01*
X86686892Y-154592054D01*
X86751757Y-154618021D01*
X86762789Y-154627812D01*
X87076291Y-154941314D01*
X87076292Y-154941314D01*
X87389794Y-154627811D01*
X87451115Y-154594328D01*
X87520806Y-154599312D01*
X87576740Y-154641183D01*
X87584860Y-154653494D01*
X87606208Y-154690470D01*
X87606210Y-154690472D01*
X87606211Y-154690474D01*
X87680685Y-154764948D01*
X87680686Y-154764949D01*
X87680688Y-154764950D01*
X87717664Y-154786298D01*
X87765879Y-154836864D01*
X87779103Y-154905471D01*
X87753135Y-154970336D01*
X87743345Y-154981366D01*
X87236164Y-155488544D01*
X87236164Y-155488545D01*
X87236164Y-155488546D01*
X87271149Y-155513964D01*
X87446455Y-155603286D01*
X87633585Y-155664089D01*
X87827909Y-155694868D01*
X88024672Y-155694868D01*
X88024673Y-155694868D01*
X88218996Y-155664089D01*
X88406126Y-155603286D01*
X88581434Y-155513963D01*
X88583818Y-155512230D01*
X88584878Y-155511852D01*
X88585587Y-155511418D01*
X88585678Y-155511566D01*
X88610558Y-155502688D01*
X88616417Y-155488545D01*
X88109237Y-154981365D01*
X88075752Y-154920042D01*
X88080736Y-154850350D01*
X88122608Y-154794417D01*
X88134913Y-154786300D01*
X88171897Y-154764948D01*
X88246371Y-154690474D01*
X88267720Y-154653495D01*
X88318285Y-154605281D01*
X88386891Y-154592056D01*
X88451757Y-154618023D01*
X88462788Y-154627814D01*
X88969968Y-155134994D01*
X88969968Y-155134993D01*
X88969969Y-155134994D01*
X88969969Y-155134993D01*
X88983437Y-155129414D01*
X88989654Y-155108245D01*
X88993644Y-155102407D01*
X88995386Y-155100011D01*
X89084709Y-154924703D01*
X89145512Y-154737573D01*
X89176291Y-154543250D01*
X89176291Y-154346485D01*
X89145512Y-154152162D01*
X89084709Y-153965032D01*
X88995387Y-153789726D01*
X88995175Y-153789435D01*
X88969970Y-153754741D01*
X88969969Y-153754741D01*
X88969968Y-153754741D01*
X88969967Y-153754741D01*
X88462788Y-154261921D01*
X88401465Y-154295406D01*
X88331773Y-154290422D01*
X88275840Y-154248550D01*
X88267723Y-154236245D01*
X88246371Y-154199262D01*
X88171897Y-154124788D01*
X88171896Y-154124787D01*
X88171893Y-154124785D01*
X88134917Y-154103437D01*
X88086701Y-154052870D01*
X88073479Y-153984263D01*
X88099447Y-153919398D01*
X88109231Y-153908374D01*
X88616416Y-153401188D01*
X88616416Y-153401187D01*
X88616415Y-153401186D01*
X88581438Y-153375774D01*
X88406130Y-153286451D01*
X88406129Y-153286450D01*
X88406126Y-153286449D01*
X88218996Y-153225646D01*
X88024673Y-153194868D01*
X88024672Y-153194868D01*
X87827910Y-153194868D01*
X87827909Y-153194868D01*
X87743924Y-153208169D01*
X87633590Y-153225645D01*
X87633588Y-153225645D01*
X87633585Y-153225646D01*
X87510488Y-153265643D01*
X87446451Y-153286450D01*
X87446444Y-153286453D01*
X87271154Y-153375766D01*
X87271066Y-153375821D01*
X87270412Y-153376305D01*
X87268786Y-153377487D01*
X87267869Y-153377814D01*
X87266617Y-153378595D01*
X87266447Y-153378322D01*
X87242021Y-153387044D01*
X87236162Y-153401188D01*
X87743345Y-153908369D01*
X87776830Y-153969692D01*
X87771846Y-154039383D01*
X87729975Y-154095317D01*
X87717665Y-154103436D01*
X87680691Y-154124783D01*
X87680683Y-154124789D01*
X87606212Y-154199260D01*
X87606208Y-154199265D01*
X87584861Y-154236241D01*
X87534295Y-154284456D01*
X87465688Y-154297680D01*
X87400823Y-154271712D01*
X87389793Y-154261922D01*
X87076292Y-153948421D01*
X87076291Y-153948421D01*
X87076290Y-153948421D01*
X86762789Y-154261922D01*
X86701466Y-154295407D01*
X86631774Y-154290423D01*
X86575841Y-154248551D01*
X86567721Y-154236241D01*
X86546373Y-154199265D01*
X86546369Y-154199260D01*
X86471898Y-154124789D01*
X86471893Y-154124785D01*
X86434917Y-154103437D01*
X86386701Y-154052870D01*
X86373479Y-153984263D01*
X86399447Y-153919398D01*
X86409231Y-153908374D01*
X86916416Y-153401188D01*
X86916416Y-153401187D01*
X86916415Y-153401186D01*
X86881438Y-153375774D01*
X86706130Y-153286451D01*
X86706129Y-153286450D01*
X86706126Y-153286449D01*
X86518996Y-153225646D01*
X86324673Y-153194868D01*
X86324672Y-153194868D01*
X86127910Y-153194868D01*
X86127909Y-153194868D01*
X86043924Y-153208169D01*
X85933590Y-153225645D01*
X85933588Y-153225645D01*
X85933585Y-153225646D01*
X85810488Y-153265643D01*
X85746451Y-153286450D01*
X85746444Y-153286453D01*
X85571154Y-153375766D01*
X85571065Y-153375822D01*
X85570386Y-153376324D01*
X85536164Y-153401186D01*
X85536164Y-153401188D01*
X85532093Y-153452880D01*
X85532093Y-153452881D01*
X85532094Y-153452881D01*
X85532094Y-153452882D01*
X85560380Y-153479004D01*
X86028613Y-153911407D01*
X86064509Y-153971350D01*
X86062298Y-154041185D01*
X86033382Y-154088954D01*
X86021385Y-154101289D01*
X85980685Y-154124788D01*
X85906211Y-154199262D01*
X85877137Y-154249618D01*
X85866370Y-154260691D01*
X85848851Y-154270576D01*
X85834295Y-154284456D01*
X85819045Y-154287395D01*
X85805519Y-154295028D01*
X85785438Y-154293873D01*
X85765688Y-154297680D01*
X85751269Y-154291907D01*
X85735765Y-154291016D01*
X85719495Y-154279187D01*
X85700823Y-154271712D01*
X85689793Y-154261922D01*
X85376292Y-153948421D01*
X85376291Y-153948421D01*
X85376290Y-153948421D01*
X85062789Y-154261922D01*
X85001466Y-154295407D01*
X84931774Y-154290423D01*
X84875841Y-154248551D01*
X84867721Y-154236241D01*
X84846373Y-154199265D01*
X84846369Y-154199260D01*
X84771898Y-154124789D01*
X84771897Y-154124788D01*
X84734916Y-154103437D01*
X84686701Y-154052871D01*
X84673477Y-153984264D01*
X84699445Y-153919399D01*
X84709228Y-153908376D01*
X85216416Y-153401188D01*
X85216416Y-153401187D01*
X85216415Y-153401186D01*
X85181438Y-153375774D01*
X85006130Y-153286451D01*
X85006129Y-153286450D01*
X85006126Y-153286449D01*
X84818996Y-153225646D01*
X84624673Y-153194868D01*
X84624672Y-153194868D01*
X84427910Y-153194868D01*
X84427909Y-153194868D01*
X84343924Y-153208169D01*
X84233590Y-153225645D01*
X84233588Y-153225645D01*
X84233585Y-153225646D01*
X84046455Y-153286449D01*
X84046452Y-153286450D01*
X84046450Y-153286451D01*
X83871154Y-153375768D01*
X83871141Y-153375776D01*
X83764024Y-153453601D01*
X83732811Y-153470071D01*
X83718089Y-153475324D01*
X83648337Y-153479315D01*
X83638199Y-153476958D01*
X83593393Y-153456497D01*
X83481696Y-153375344D01*
X83481274Y-153375129D01*
X83306320Y-153285985D01*
X83119117Y-153225158D01*
X83119111Y-153225157D01*
X82924718Y-153194368D01*
X82924713Y-153194368D01*
X82924708Y-153194368D01*
X82727874Y-153194368D01*
X82727869Y-153194368D01*
X82727864Y-153194368D01*
X82533469Y-153225157D01*
X82533467Y-153225157D01*
X82533464Y-153225158D01*
X82346261Y-153285985D01*
X82311739Y-153303575D01*
X82170882Y-153375345D01*
X82063596Y-153453293D01*
X82032383Y-153469762D01*
X82017664Y-153475014D01*
X81947908Y-153479004D01*
X81947906Y-153479003D01*
X81937766Y-153476645D01*
X81892967Y-153456187D01*
X81888984Y-153453293D01*
X81789586Y-153381076D01*
X81789246Y-153380785D01*
X81781690Y-153375339D01*
X81781363Y-153375174D01*
X81726927Y-153347437D01*
X81726925Y-153347435D01*
X81606324Y-153285986D01*
X81561410Y-153271392D01*
X81419117Y-153225158D01*
X81419111Y-153225157D01*
X81224718Y-153194368D01*
X81224713Y-153194368D01*
X81224708Y-153194368D01*
X81027874Y-153194368D01*
X81027869Y-153194368D01*
X81027864Y-153194368D01*
X80833467Y-153225157D01*
X80687590Y-153272556D01*
X80646203Y-153286004D01*
X80642626Y-153287196D01*
X80572802Y-153289706D01*
X80512704Y-153254068D01*
X80481415Y-153191596D01*
X80481293Y-153190909D01*
X80428609Y-152886658D01*
X80426791Y-152865501D01*
X80426791Y-151857320D01*
X80431813Y-151822387D01*
X80439225Y-151797142D01*
X80470519Y-151744400D01*
X80765497Y-151449423D01*
X80793747Y-151428275D01*
X80816839Y-151415667D01*
X80876264Y-151400500D01*
X82198541Y-151400500D01*
X82198542Y-151400500D01*
X82213848Y-151397454D01*
X82229562Y-151394329D01*
X82229563Y-151394328D01*
X82229566Y-151394328D01*
X82295188Y-151381275D01*
X82391836Y-151362051D01*
X82445165Y-151339961D01*
X82573914Y-151286632D01*
X82737782Y-151177139D01*
X82877139Y-151037782D01*
X82877140Y-151037779D01*
X82884206Y-151030714D01*
X82884209Y-151030710D01*
X83822773Y-150092146D01*
X101970000Y-150092146D01*
X101970000Y-150092155D01*
X101970000Y-150790000D01*
X102809513Y-150790000D01*
X102876552Y-150809685D01*
X102922307Y-150862489D01*
X102932251Y-150931647D01*
X102929288Y-150946093D01*
X102920000Y-150980756D01*
X102920000Y-151099243D01*
X102929288Y-151133907D01*
X102927625Y-151203757D01*
X102888462Y-151261619D01*
X102824233Y-151289123D01*
X102809513Y-151290000D01*
X101970000Y-151290000D01*
X101970000Y-151987852D01*
X101976400Y-152047370D01*
X101976402Y-152047377D01*
X102026646Y-152182088D01*
X102026648Y-152182091D01*
X102112807Y-152297185D01*
X102112813Y-152297191D01*
X102141747Y-152318850D01*
X102227906Y-152383350D01*
X102227913Y-152383354D01*
X102362620Y-152433596D01*
X102362627Y-152433598D01*
X102369468Y-152434333D01*
X102422138Y-152439998D01*
X102422155Y-152439999D01*
X102422172Y-152440000D01*
X103120000Y-152440000D01*
X103120000Y-151600486D01*
X103139685Y-151533447D01*
X103192489Y-151487692D01*
X103261647Y-151477748D01*
X103276086Y-151480710D01*
X103310756Y-151490000D01*
X103429242Y-151490000D01*
X103429244Y-151490000D01*
X103463906Y-151480712D01*
X103533755Y-151482373D01*
X103591618Y-151521535D01*
X103619123Y-151585763D01*
X103620000Y-151600486D01*
X103620000Y-152440000D01*
X104317828Y-152440000D01*
X104317836Y-152440000D01*
X104317847Y-152439999D01*
X104353560Y-152436158D01*
X104377372Y-152433598D01*
X104377379Y-152433596D01*
X104512086Y-152383354D01*
X104512093Y-152383350D01*
X104627187Y-152297190D01*
X104627190Y-152297187D01*
X104713350Y-152182093D01*
X104713354Y-152182086D01*
X104736983Y-152118733D01*
X104753894Y-152087762D01*
X104762213Y-152076649D01*
X104818143Y-152034778D01*
X104887833Y-152029791D01*
X104892316Y-152030766D01*
X104953641Y-152064248D01*
X104953646Y-152064253D01*
X104997628Y-152108236D01*
X104997636Y-152108243D01*
X104997660Y-152108261D01*
X105146969Y-152216740D01*
X105146975Y-152216743D01*
X105153192Y-152221260D01*
X105175978Y-152237815D01*
X105292501Y-152297187D01*
X105372393Y-152337895D01*
X105372396Y-152337896D01*
X105372405Y-152337899D01*
X105372419Y-152337904D01*
X105477221Y-152371955D01*
X105582049Y-152406015D01*
X105799778Y-152440500D01*
X105799779Y-152440500D01*
X106020221Y-152440500D01*
X106020222Y-152440500D01*
X106237951Y-152406015D01*
X106333471Y-152374978D01*
X106370147Y-152366148D01*
X106412157Y-152349412D01*
X106447606Y-152337895D01*
X106465947Y-152328548D01*
X106476325Y-152323850D01*
X107793094Y-151799303D01*
X107838983Y-151790500D01*
X110833920Y-151790500D01*
X110931462Y-151771096D01*
X110978913Y-151761658D01*
X111115495Y-151705084D01*
X111164729Y-151672186D01*
X111238416Y-151622952D01*
X112725846Y-150135521D01*
X125929500Y-150135521D01*
X125929500Y-150444477D01*
X125964083Y-150751422D01*
X125964089Y-150751457D01*
X125990303Y-150866306D01*
X126032831Y-151052635D01*
X126032832Y-151052638D01*
X126032837Y-151052655D01*
X126134859Y-151344216D01*
X126134865Y-151344231D01*
X126134866Y-151344233D01*
X126268899Y-151622556D01*
X126268903Y-151622562D01*
X126300086Y-151672189D01*
X126433265Y-151884143D01*
X126563436Y-152047372D01*
X126611993Y-152108261D01*
X126625880Y-152125674D01*
X126844326Y-152344120D01*
X127085857Y-152536735D01*
X127347435Y-152701095D01*
X127625771Y-152835135D01*
X127625775Y-152835136D01*
X127625877Y-152835178D01*
X127626639Y-152835438D01*
X127712552Y-152865501D01*
X127917327Y-152937156D01*
X127917348Y-152937163D01*
X127917352Y-152937164D01*
X127917364Y-152937168D01*
X128142889Y-152988642D01*
X128217381Y-153005645D01*
X128217380Y-153005645D01*
X128218539Y-153005909D01*
X128218548Y-153005911D01*
X128218554Y-153005911D01*
X128218562Y-153005913D01*
X128423206Y-153028970D01*
X128522520Y-153040159D01*
X128524994Y-153040500D01*
X128834468Y-153040500D01*
X128844262Y-153040500D01*
X128851860Y-153038539D01*
X128991356Y-153022822D01*
X129140751Y-153005990D01*
X129141379Y-153005923D01*
X129141447Y-153005911D01*
X129141452Y-153005911D01*
X129442636Y-152937168D01*
X129734229Y-152835135D01*
X130012565Y-152701095D01*
X130274143Y-152536735D01*
X130515674Y-152344120D01*
X130734120Y-152125674D01*
X130926735Y-151884143D01*
X131091095Y-151622565D01*
X131225135Y-151344229D01*
X131327168Y-151052636D01*
X131395911Y-150751452D01*
X131397661Y-150735927D01*
X131430439Y-150445002D01*
X131430500Y-150444485D01*
X131430500Y-150135511D01*
X131430435Y-150134961D01*
X131403727Y-149897913D01*
X131395915Y-149828576D01*
X131395909Y-149828541D01*
X131385471Y-149782809D01*
X131327168Y-149527364D01*
X131327164Y-149527352D01*
X131327163Y-149527348D01*
X131327156Y-149527327D01*
X131225453Y-149236681D01*
X131225178Y-149235877D01*
X131225133Y-149235767D01*
X131091095Y-148957435D01*
X130926735Y-148695857D01*
X130734120Y-148454326D01*
X130515674Y-148235880D01*
X130515673Y-148235879D01*
X130515672Y-148235878D01*
X130352436Y-148105702D01*
X130274143Y-148043265D01*
X130013977Y-147879792D01*
X130012918Y-147879106D01*
X130012560Y-147878902D01*
X129984917Y-147865589D01*
X129734236Y-147744868D01*
X129734227Y-147744864D01*
X129734216Y-147744859D01*
X129442671Y-147642842D01*
X129442650Y-147642835D01*
X129442638Y-147642832D01*
X129442635Y-147642831D01*
X129319601Y-147614749D01*
X129141457Y-147574089D01*
X129141422Y-147574083D01*
X128834477Y-147539500D01*
X128834471Y-147539500D01*
X128834465Y-147539500D01*
X128525535Y-147539500D01*
X128525528Y-147539500D01*
X128525521Y-147539500D01*
X128218576Y-147574083D01*
X128218541Y-147574089D01*
X127917360Y-147642832D01*
X127917348Y-147642835D01*
X127917327Y-147642842D01*
X127625782Y-147744859D01*
X127625767Y-147744865D01*
X127625765Y-147744866D01*
X127347442Y-147878899D01*
X127085859Y-148043263D01*
X126844326Y-148235878D01*
X126625878Y-148454326D01*
X126433263Y-148695859D01*
X126268904Y-148957435D01*
X126268899Y-148957442D01*
X126134866Y-149235765D01*
X126134865Y-149235767D01*
X126134859Y-149235782D01*
X126032842Y-149527327D01*
X126032835Y-149527348D01*
X126032832Y-149527360D01*
X125964089Y-149828541D01*
X125964083Y-149828576D01*
X125929500Y-150135521D01*
X112725846Y-150135521D01*
X113822952Y-149038415D01*
X113850205Y-148997627D01*
X113905084Y-148915495D01*
X113928518Y-148858920D01*
X113961659Y-148778912D01*
X113965936Y-148757413D01*
X113990499Y-148633921D01*
X113990500Y-148633918D01*
X113990500Y-142498342D01*
X113997528Y-142457190D01*
X114017309Y-142400963D01*
X114382657Y-141362474D01*
X114385974Y-141352731D01*
X114386129Y-141352260D01*
X114402484Y-141289087D01*
X114402484Y-141289084D01*
X114403014Y-141287038D01*
X114403721Y-141283333D01*
X114410940Y-141261118D01*
X114425085Y-141171810D01*
X114440500Y-141074486D01*
X114440500Y-140885513D01*
X114410940Y-140698881D01*
X114352545Y-140519163D01*
X114266759Y-140350800D01*
X114155690Y-140197927D01*
X114022073Y-140064310D01*
X113869199Y-139953240D01*
X113700836Y-139867454D01*
X113521118Y-139809059D01*
X113521112Y-139809058D01*
X113334491Y-139779500D01*
X113334486Y-139779500D01*
X113334481Y-139779500D01*
X113145519Y-139779500D01*
X113145514Y-139779500D01*
X113145509Y-139779500D01*
X112958886Y-139809058D01*
X112958884Y-139809058D01*
X112958881Y-139809059D01*
X112779163Y-139867454D01*
X112694981Y-139910347D01*
X112610799Y-139953240D01*
X112557117Y-139992243D01*
X112523637Y-140016569D01*
X112469798Y-140055685D01*
X112462417Y-140059818D01*
X112319816Y-140202419D01*
X112315686Y-140209794D01*
X112276610Y-140263578D01*
X112276610Y-140263579D01*
X112213240Y-140350799D01*
X112213239Y-140350801D01*
X112127454Y-140519163D01*
X112069059Y-140698881D01*
X112069058Y-140698884D01*
X112069058Y-140698886D01*
X112039500Y-140885507D01*
X112039500Y-141074491D01*
X112069059Y-141261119D01*
X112069059Y-141261122D01*
X112087809Y-141318827D01*
X112091516Y-141333055D01*
X112097342Y-141362476D01*
X112482472Y-142457190D01*
X112489500Y-142498342D01*
X112489500Y-148179940D01*
X112484476Y-148214877D01*
X112477064Y-148240118D01*
X112445769Y-148292862D01*
X110498058Y-150240573D01*
X110469807Y-150261722D01*
X110446719Y-150274330D01*
X110387289Y-150289500D01*
X107838986Y-150289500D01*
X107793096Y-150280696D01*
X107777115Y-150274330D01*
X107428682Y-150135528D01*
X106476333Y-149756150D01*
X106476333Y-149756149D01*
X106471006Y-149754027D01*
X106447606Y-149742104D01*
X106447603Y-149742103D01*
X106412184Y-149730594D01*
X106408430Y-149729099D01*
X106408425Y-149729098D01*
X106370153Y-149713853D01*
X106370154Y-149713853D01*
X106370138Y-149713847D01*
X106350266Y-149706410D01*
X106350253Y-149706405D01*
X106349357Y-149706091D01*
X106279319Y-149687253D01*
X106273218Y-149685443D01*
X106259204Y-149680889D01*
X106237953Y-149673985D01*
X106237945Y-149673983D01*
X106129086Y-149656742D01*
X106020227Y-149639500D01*
X106020222Y-149639500D01*
X105799778Y-149639500D01*
X105799774Y-149639500D01*
X105741716Y-149648696D01*
X105727201Y-149650995D01*
X105582043Y-149673985D01*
X105372419Y-149742094D01*
X105372396Y-149742102D01*
X105372392Y-149742104D01*
X105175972Y-149842187D01*
X104997658Y-149971739D01*
X104997629Y-149971761D01*
X104997627Y-149971763D01*
X104959683Y-150009708D01*
X104931430Y-150030859D01*
X104919248Y-150037511D01*
X104850975Y-150052363D01*
X104785511Y-150027947D01*
X104785507Y-150027944D01*
X104781835Y-150025195D01*
X104739967Y-149969265D01*
X104713354Y-149897913D01*
X104713350Y-149897906D01*
X104627190Y-149782812D01*
X104627187Y-149782809D01*
X104627185Y-149782807D01*
X104535066Y-149713847D01*
X104512093Y-149696649D01*
X104512086Y-149696645D01*
X104389691Y-149650995D01*
X104377377Y-149646402D01*
X104377370Y-149646400D01*
X104317852Y-149640000D01*
X104317844Y-149640000D01*
X103620000Y-149640000D01*
X103620000Y-150479513D01*
X103600315Y-150546552D01*
X103547511Y-150592307D01*
X103478353Y-150602251D01*
X103463907Y-150599288D01*
X103429244Y-150590000D01*
X103429243Y-150590000D01*
X103310756Y-150590000D01*
X103276093Y-150599288D01*
X103206243Y-150597625D01*
X103148381Y-150558462D01*
X103120877Y-150494233D01*
X103120000Y-150479513D01*
X103120000Y-149640000D01*
X102422155Y-149640000D01*
X102422146Y-149640000D01*
X102362628Y-149646400D01*
X102362621Y-149646402D01*
X102227910Y-149696646D01*
X102227907Y-149696648D01*
X102112813Y-149782807D01*
X102112807Y-149782813D01*
X102026648Y-149897907D01*
X102026646Y-149897910D01*
X101976402Y-150032621D01*
X101976400Y-150032628D01*
X101970000Y-150092146D01*
X83822773Y-150092146D01*
X84304069Y-149610850D01*
X84304073Y-149610848D01*
X84443430Y-149471491D01*
X84552923Y-149307623D01*
X84628342Y-149125544D01*
X84661781Y-148957437D01*
X84666791Y-148932252D01*
X84666791Y-148504869D01*
X84672409Y-148467968D01*
X84815265Y-148009665D01*
X84829200Y-147954019D01*
X84829200Y-147954013D01*
X84829606Y-147952393D01*
X84829753Y-147951557D01*
X84831151Y-147944694D01*
X84837231Y-147925986D01*
X84844688Y-147878903D01*
X84866791Y-147739354D01*
X84866791Y-147550381D01*
X84837231Y-147363749D01*
X84834921Y-147356641D01*
X84829884Y-147334288D01*
X84829399Y-147330561D01*
X84829399Y-147330549D01*
X84596694Y-146185793D01*
X84594209Y-146161092D01*
X84594209Y-145010866D01*
X84598436Y-144978765D01*
X84759534Y-144377685D01*
X84913114Y-143804655D01*
X84945203Y-143749081D01*
X85597213Y-143097072D01*
X85658532Y-143063590D01*
X85728224Y-143068574D01*
X85784157Y-143110446D01*
X85792277Y-143122756D01*
X85813626Y-143159734D01*
X85813628Y-143159736D01*
X85813629Y-143159738D01*
X85888103Y-143234212D01*
X85888104Y-143234213D01*
X85888106Y-143234214D01*
X85925082Y-143255562D01*
X85973297Y-143306128D01*
X85986521Y-143374735D01*
X85960553Y-143439600D01*
X85950763Y-143450630D01*
X85264601Y-144136789D01*
X85264602Y-144136789D01*
X85264602Y-144136790D01*
X85347537Y-144197046D01*
X85557906Y-144304234D01*
X85689491Y-144346989D01*
X85718961Y-144367139D01*
X85782458Y-144377196D01*
X85782461Y-144377197D01*
X85782460Y-144377197D01*
X86015657Y-144414132D01*
X86251760Y-144414132D01*
X86251761Y-144414132D01*
X86484956Y-144377197D01*
X86709511Y-144304234D01*
X86919872Y-144197050D01*
X86919878Y-144197046D01*
X86970218Y-144160472D01*
X86996956Y-144150931D01*
X87002814Y-144136789D01*
X86316653Y-143450630D01*
X86283168Y-143389307D01*
X86288152Y-143319616D01*
X86330023Y-143263682D01*
X86342323Y-143255569D01*
X86379315Y-143234212D01*
X86453789Y-143159738D01*
X86475139Y-143122757D01*
X86525703Y-143074543D01*
X86594310Y-143061318D01*
X86659175Y-143087285D01*
X86670207Y-143097076D01*
X87356364Y-143783235D01*
X87356364Y-143783234D01*
X87356366Y-143783236D01*
X87358344Y-143783080D01*
X87393552Y-143785345D01*
X87412825Y-143789394D01*
X87468871Y-143817325D01*
X87474190Y-143821967D01*
X87475614Y-143823210D01*
X87494389Y-143843741D01*
X87529191Y-143891641D01*
X87529192Y-143891642D01*
X87696199Y-144058649D01*
X87887276Y-144197475D01*
X87974220Y-144241775D01*
X88091268Y-144301415D01*
X88092863Y-144302348D01*
X88096568Y-144304143D01*
X88098572Y-144305139D01*
X88102338Y-144306201D01*
X88218119Y-144343820D01*
X88218120Y-144343821D01*
X88218121Y-144343821D01*
X88322340Y-144377685D01*
X88555612Y-144414632D01*
X88555617Y-144414632D01*
X88791805Y-144414632D01*
X88791806Y-144414632D01*
X89025077Y-144377685D01*
X89026579Y-144377197D01*
X89249701Y-144304700D01*
X89460142Y-144197475D01*
X89651219Y-144058649D01*
X89818226Y-143891642D01*
X89832911Y-143871428D01*
X89857507Y-143846118D01*
X89868501Y-143837641D01*
X89933608Y-143812293D01*
X90002081Y-143826166D01*
X90008260Y-143829426D01*
X90050716Y-143866213D01*
X90069187Y-143891636D01*
X90069191Y-143891641D01*
X90069192Y-143891642D01*
X90236199Y-144058649D01*
X90427276Y-144197475D01*
X90514220Y-144241775D01*
X90631268Y-144301415D01*
X90632863Y-144302348D01*
X90636568Y-144304143D01*
X90638572Y-144305139D01*
X90642338Y-144306201D01*
X90758119Y-144343820D01*
X90758120Y-144343821D01*
X90758121Y-144343821D01*
X90862340Y-144377685D01*
X91095612Y-144414632D01*
X91095617Y-144414632D01*
X91331805Y-144414632D01*
X91331806Y-144414632D01*
X91565077Y-144377685D01*
X91566579Y-144377197D01*
X91789701Y-144304700D01*
X92000142Y-144197475D01*
X92191219Y-144058649D01*
X92358226Y-143891642D01*
X92497052Y-143700565D01*
X92604277Y-143490124D01*
X92677262Y-143265500D01*
X92679154Y-143253553D01*
X92714209Y-143032229D01*
X92714209Y-142796034D01*
X92677262Y-142562763D01*
X92604275Y-142338135D01*
X92543259Y-142218386D01*
X92520155Y-142173042D01*
X92497053Y-142127700D01*
X92442624Y-142052786D01*
X92358226Y-141936622D01*
X92191219Y-141769615D01*
X92000142Y-141630789D01*
X91789705Y-141523565D01*
X91565077Y-141450578D01*
X91565071Y-141450577D01*
X91331811Y-141413632D01*
X91331806Y-141413632D01*
X91331801Y-141413632D01*
X91095617Y-141413632D01*
X91095612Y-141413632D01*
X91095607Y-141413632D01*
X90862345Y-141450577D01*
X90862343Y-141450577D01*
X90862340Y-141450578D01*
X90637712Y-141523565D01*
X90467746Y-141610168D01*
X90427271Y-141630791D01*
X90318258Y-141709993D01*
X90318259Y-141709994D01*
X90248070Y-141760990D01*
X90240689Y-141765123D01*
X90069196Y-141936615D01*
X90069190Y-141936622D01*
X90054505Y-141956835D01*
X90029905Y-141982147D01*
X90018915Y-141990621D01*
X89953805Y-142015968D01*
X89885344Y-142002099D01*
X89879162Y-141998838D01*
X89836696Y-141962044D01*
X89818231Y-141936628D01*
X89818227Y-141936623D01*
X89651221Y-141769617D01*
X89651219Y-141769615D01*
X89460142Y-141630789D01*
X89249705Y-141523565D01*
X89025077Y-141450578D01*
X89025071Y-141450577D01*
X88791811Y-141413632D01*
X88791806Y-141413632D01*
X88791801Y-141413632D01*
X88555617Y-141413632D01*
X88555612Y-141413632D01*
X88555607Y-141413632D01*
X88322345Y-141450577D01*
X88322343Y-141450577D01*
X88322340Y-141450578D01*
X88097712Y-141523565D01*
X87927746Y-141610168D01*
X87887271Y-141630791D01*
X87778258Y-141709993D01*
X87778259Y-141709994D01*
X87708070Y-141760990D01*
X87700689Y-141765123D01*
X87529190Y-141936622D01*
X87496639Y-141981425D01*
X87472043Y-142006734D01*
X87456454Y-142018755D01*
X87398813Y-142043233D01*
X87392611Y-142044148D01*
X87389965Y-142044538D01*
X87362152Y-142045480D01*
X87356369Y-142045024D01*
X87356366Y-142045025D01*
X86670206Y-142731185D01*
X86608883Y-142764670D01*
X86539191Y-142759686D01*
X86483258Y-142717814D01*
X86475139Y-142705506D01*
X86453789Y-142668526D01*
X86379315Y-142594052D01*
X86379314Y-142594051D01*
X86379311Y-142594049D01*
X86342335Y-142572701D01*
X86294119Y-142522134D01*
X86280897Y-142453527D01*
X86306865Y-142388662D01*
X86316648Y-142377638D01*
X87002814Y-141691472D01*
X87002813Y-141691470D01*
X86919883Y-141631219D01*
X86878568Y-141610168D01*
X86709515Y-141524030D01*
X86640108Y-141501478D01*
X86577924Y-141481273D01*
X86548455Y-141461123D01*
X86251766Y-141414132D01*
X86251761Y-141414132D01*
X86015657Y-141414132D01*
X86015652Y-141414132D01*
X85782464Y-141451065D01*
X85557903Y-141524030D01*
X85347534Y-141631218D01*
X85264603Y-141691471D01*
X85264602Y-141691472D01*
X85950764Y-142377633D01*
X85984249Y-142438956D01*
X85979265Y-142508647D01*
X85937393Y-142564581D01*
X85925083Y-142572701D01*
X85888106Y-142594049D01*
X85888101Y-142594053D01*
X85813630Y-142668524D01*
X85813624Y-142668532D01*
X85792277Y-142705506D01*
X85741710Y-142753721D01*
X85673102Y-142766943D01*
X85608238Y-142740975D01*
X85597210Y-142731186D01*
X84945205Y-142079181D01*
X84913114Y-142023603D01*
X84623826Y-140944230D01*
X84598436Y-140849497D01*
X84594574Y-140826904D01*
X84594209Y-140822158D01*
X84594209Y-140695165D01*
X84579736Y-140622409D01*
X84562903Y-140537782D01*
X84555760Y-140501873D01*
X84512340Y-140397049D01*
X84493184Y-140350801D01*
X84482023Y-140323857D01*
X84480720Y-140320364D01*
X84480283Y-140319708D01*
X84480283Y-140319707D01*
X84370851Y-140155930D01*
X84231490Y-140016569D01*
X83494580Y-139279660D01*
X83494554Y-139279634D01*
X83492863Y-139277942D01*
X83492853Y-139277924D01*
X83477395Y-139259069D01*
X83460468Y-139233679D01*
X83431682Y-139216761D01*
X83337779Y-139122858D01*
X83173914Y-139013367D01*
X83152651Y-139004560D01*
X83101315Y-138983296D01*
X83045165Y-138960038D01*
X83008236Y-138944742D01*
X82995883Y-138939625D01*
X82993334Y-138938461D01*
X82991829Y-138937946D01*
X82895188Y-138918724D01*
X82895188Y-138918723D01*
X82895185Y-138918723D01*
X82798546Y-138899500D01*
X82798544Y-138899500D01*
X82798541Y-138899500D01*
X75801459Y-138899500D01*
X75801454Y-138899500D01*
X75769391Y-138905876D01*
X75696514Y-138920368D01*
X75696498Y-138920376D01*
X75608182Y-138937942D01*
X75608174Y-138937944D01*
X75608154Y-138937951D01*
X75426093Y-139013362D01*
X75426083Y-139013367D01*
X75327240Y-139079413D01*
X75262221Y-139122858D01*
X75262218Y-139122860D01*
X75262213Y-139122863D01*
X75262209Y-139122866D01*
X72578780Y-141806298D01*
X72517457Y-141839783D01*
X72467351Y-141840322D01*
X71422851Y-141636513D01*
X71422851Y-141636512D01*
X71415449Y-141635067D01*
X71404534Y-141631522D01*
X71365964Y-141625413D01*
X71363816Y-141624994D01*
X71363788Y-141624989D01*
X71354076Y-141623094D01*
X71287807Y-141610163D01*
X71264382Y-141606161D01*
X71263325Y-141606006D01*
X71233494Y-141603945D01*
X71222651Y-141602714D01*
X71202353Y-141599500D01*
X71202352Y-141599500D01*
X70997648Y-141599500D01*
X70997647Y-141599500D01*
X70973327Y-141603351D01*
X70973326Y-141603350D01*
X70795468Y-141631521D01*
X70600777Y-141694780D01*
X70600764Y-141694786D01*
X70418397Y-141787708D01*
X70418385Y-141787715D01*
X70252787Y-141908027D01*
X70252784Y-141908029D01*
X70108029Y-142052784D01*
X70108027Y-142052787D01*
X69987715Y-142218385D01*
X69987708Y-142218397D01*
X69894786Y-142400764D01*
X69894780Y-142400777D01*
X69831521Y-142595468D01*
X69799500Y-142797642D01*
X67399994Y-142797642D01*
X67367990Y-142595582D01*
X67304755Y-142400968D01*
X67304753Y-142400965D01*
X67304753Y-142400963D01*
X67211859Y-142218650D01*
X67203156Y-142206672D01*
X67193615Y-142179933D01*
X67179473Y-142174075D01*
X66636497Y-142717053D01*
X66575174Y-142750538D01*
X66505483Y-142745554D01*
X66449549Y-142703683D01*
X66441430Y-142691374D01*
X66420080Y-142654394D01*
X66345606Y-142579920D01*
X66308625Y-142558569D01*
X66260410Y-142508003D01*
X66247186Y-142439396D01*
X66273154Y-142374531D01*
X66282936Y-142363509D01*
X66825922Y-141820524D01*
X66825921Y-141820523D01*
X66825920Y-141820522D01*
X66825919Y-141820521D01*
X66825914Y-141820517D01*
X66781360Y-141788147D01*
X66781357Y-141788144D01*
X66716198Y-141754944D01*
X66599031Y-141695244D01*
X66404417Y-141632009D01*
X66404411Y-141632008D01*
X66202322Y-141600000D01*
X66202317Y-141600000D01*
X65997683Y-141600000D01*
X65997678Y-141600000D01*
X65795587Y-141632008D01*
X65795585Y-141632008D01*
X65795582Y-141632009D01*
X65698275Y-141663626D01*
X65600963Y-141695245D01*
X65418640Y-141788145D01*
X65374077Y-141820522D01*
X65374077Y-141820523D01*
X65374077Y-141820524D01*
X65681258Y-142127705D01*
X65917055Y-142363501D01*
X65950540Y-142424824D01*
X65945556Y-142494515D01*
X65903685Y-142550449D01*
X65891374Y-142558569D01*
X65854397Y-142579917D01*
X65854392Y-142579921D01*
X65779921Y-142654392D01*
X65779915Y-142654400D01*
X65758568Y-142691374D01*
X65708001Y-142739589D01*
X65639393Y-142752811D01*
X65574529Y-142726843D01*
X65563501Y-142717054D01*
X65020524Y-142174077D01*
X65020523Y-142174077D01*
X65020522Y-142174077D01*
X64988145Y-142218640D01*
X64895245Y-142400963D01*
X64878166Y-142453527D01*
X64832009Y-142595582D01*
X64832008Y-142595585D01*
X64832008Y-142595587D01*
X64800000Y-142797676D01*
X47600500Y-142797676D01*
X47600500Y-133197676D01*
X64900000Y-133197676D01*
X64900000Y-133402322D01*
X64926977Y-133572644D01*
X64932009Y-133604417D01*
X64995244Y-133799031D01*
X65035504Y-133878045D01*
X65088144Y-133981357D01*
X65088147Y-133981360D01*
X65120517Y-134025914D01*
X65120521Y-134025919D01*
X65120523Y-134025921D01*
X65120524Y-134025922D01*
X65663503Y-133482942D01*
X65724824Y-133449459D01*
X65794515Y-133454443D01*
X65850449Y-133496314D01*
X65858567Y-133508622D01*
X65879920Y-133545606D01*
X65954394Y-133620080D01*
X65954395Y-133620081D01*
X65954397Y-133620082D01*
X65991373Y-133641430D01*
X66039588Y-133691996D01*
X66052812Y-133760603D01*
X66026844Y-133825468D01*
X66017054Y-133836498D01*
X65474075Y-134379473D01*
X65474076Y-134379473D01*
X65474076Y-134379474D01*
X65518650Y-134411859D01*
X65604786Y-134455747D01*
X65700963Y-134504753D01*
X65700965Y-134504753D01*
X65700968Y-134504755D01*
X65895582Y-134567990D01*
X66097683Y-134600000D01*
X66302316Y-134600000D01*
X66302317Y-134600000D01*
X66504417Y-134567990D01*
X66699031Y-134504755D01*
X66704572Y-134501932D01*
X66881347Y-134411860D01*
X66881346Y-134411860D01*
X66881349Y-134411859D01*
X66925921Y-134379474D01*
X66382945Y-133836498D01*
X66349460Y-133775175D01*
X66354444Y-133705483D01*
X66396316Y-133649550D01*
X66408618Y-133641434D01*
X66445606Y-133620080D01*
X66520080Y-133545606D01*
X66541430Y-133508625D01*
X66591995Y-133460411D01*
X66660602Y-133447187D01*
X66725467Y-133473154D01*
X66736498Y-133482945D01*
X67279473Y-134025920D01*
X67279474Y-134025921D01*
X67311859Y-133981349D01*
X67404755Y-133799031D01*
X67467990Y-133604417D01*
X67500000Y-133402317D01*
X67500000Y-133197682D01*
X67467990Y-132995582D01*
X67404755Y-132800968D01*
X67404753Y-132800965D01*
X67404753Y-132800963D01*
X67311859Y-132618650D01*
X67303156Y-132606672D01*
X67293615Y-132579933D01*
X67279473Y-132574075D01*
X66736497Y-133117053D01*
X66675174Y-133150538D01*
X66605483Y-133145554D01*
X66549549Y-133103683D01*
X66541430Y-133091374D01*
X66520080Y-133054394D01*
X66445606Y-132979920D01*
X66408625Y-132958569D01*
X66360410Y-132908003D01*
X66347186Y-132839396D01*
X66373154Y-132774531D01*
X66382936Y-132763509D01*
X66925922Y-132220524D01*
X66925921Y-132220523D01*
X66925920Y-132220522D01*
X66925919Y-132220521D01*
X66925914Y-132220517D01*
X66881360Y-132188147D01*
X66881357Y-132188144D01*
X66798919Y-132146140D01*
X66699031Y-132095244D01*
X66504417Y-132032009D01*
X66504411Y-132032008D01*
X66302322Y-132000000D01*
X66302317Y-132000000D01*
X66097683Y-132000000D01*
X66097678Y-132000000D01*
X65895587Y-132032008D01*
X65895585Y-132032008D01*
X65895582Y-132032009D01*
X65813643Y-132058633D01*
X65700963Y-132095245D01*
X65518640Y-132188145D01*
X65474077Y-132220522D01*
X65474077Y-132220523D01*
X65474077Y-132220524D01*
X65802238Y-132548685D01*
X66017055Y-132763501D01*
X66050540Y-132824824D01*
X66045556Y-132894515D01*
X66003685Y-132950449D01*
X65991374Y-132958569D01*
X65954397Y-132979917D01*
X65954392Y-132979921D01*
X65879921Y-133054392D01*
X65879915Y-133054400D01*
X65858568Y-133091374D01*
X65808001Y-133139589D01*
X65739393Y-133152811D01*
X65674529Y-133126843D01*
X65663501Y-133117054D01*
X65120524Y-132574077D01*
X65120523Y-132574077D01*
X65120522Y-132574077D01*
X65088145Y-132618640D01*
X64995245Y-132800963D01*
X64982321Y-132840739D01*
X64932009Y-132995582D01*
X64932008Y-132995585D01*
X64932008Y-132995587D01*
X64900000Y-133197676D01*
X47600500Y-133197676D01*
X47600500Y-81635521D01*
X52249500Y-81635521D01*
X52249500Y-81944477D01*
X52284083Y-82251422D01*
X52284089Y-82251457D01*
X52310232Y-82365996D01*
X52352831Y-82552635D01*
X52352832Y-82552638D01*
X52352835Y-82552650D01*
X52352842Y-82552671D01*
X52454859Y-82844216D01*
X52454862Y-82844222D01*
X52454868Y-82844236D01*
X52546916Y-83035375D01*
X52588902Y-83122560D01*
X52589106Y-83122918D01*
X52589792Y-83123977D01*
X52628440Y-83185485D01*
X52753265Y-83384143D01*
X52809958Y-83455234D01*
X52854812Y-83511479D01*
X52854812Y-83511480D01*
X52938996Y-83617044D01*
X52945873Y-83625666D01*
X52945879Y-83625672D01*
X52945880Y-83625674D01*
X53164326Y-83844120D01*
X53405857Y-84036735D01*
X53667435Y-84201095D01*
X53945771Y-84335135D01*
X53945775Y-84335136D01*
X53945877Y-84335178D01*
X53946639Y-84335438D01*
X53974324Y-84345126D01*
X54237327Y-84437156D01*
X54237348Y-84437163D01*
X54237352Y-84437164D01*
X54237364Y-84437168D01*
X54462889Y-84488642D01*
X54537381Y-84505645D01*
X54537380Y-84505645D01*
X54538539Y-84505909D01*
X54538548Y-84505911D01*
X54538554Y-84505911D01*
X54538562Y-84505913D01*
X54743206Y-84528970D01*
X54842520Y-84540159D01*
X54844994Y-84540500D01*
X55154468Y-84540500D01*
X55164262Y-84540500D01*
X55171860Y-84538539D01*
X55311356Y-84522822D01*
X55460751Y-84505990D01*
X55461379Y-84505923D01*
X55461447Y-84505911D01*
X55461452Y-84505911D01*
X55762636Y-84437168D01*
X56054229Y-84335135D01*
X56332565Y-84201095D01*
X56594143Y-84036735D01*
X56835674Y-83844120D01*
X57054120Y-83625674D01*
X57246735Y-83384143D01*
X57411095Y-83122565D01*
X57545135Y-82844229D01*
X57647168Y-82552636D01*
X57715911Y-82251452D01*
X57728315Y-82141368D01*
X57750437Y-81945020D01*
X57750500Y-81944485D01*
X57750500Y-81635511D01*
X57750435Y-81634961D01*
X57715913Y-81328562D01*
X57715910Y-81328544D01*
X57688179Y-81207048D01*
X57647168Y-81027364D01*
X57644526Y-81019815D01*
X57545417Y-80736578D01*
X57545177Y-80735876D01*
X57545133Y-80735767D01*
X57411096Y-80457437D01*
X57411095Y-80457435D01*
X57246735Y-80195857D01*
X57054120Y-79954326D01*
X56835674Y-79735880D01*
X56835671Y-79735878D01*
X56774334Y-79686963D01*
X56594143Y-79543265D01*
X56333977Y-79379792D01*
X56332918Y-79379106D01*
X56332560Y-79378902D01*
X56304917Y-79365589D01*
X56054236Y-79244868D01*
X56054227Y-79244864D01*
X56054216Y-79244859D01*
X55762671Y-79142842D01*
X55762650Y-79142835D01*
X55762638Y-79142832D01*
X55762635Y-79142831D01*
X55639601Y-79114749D01*
X55461457Y-79074089D01*
X55461422Y-79074083D01*
X55154477Y-79039500D01*
X55154471Y-79039500D01*
X55154465Y-79039500D01*
X54845535Y-79039500D01*
X54845528Y-79039500D01*
X54845521Y-79039500D01*
X54538576Y-79074083D01*
X54538541Y-79074089D01*
X54237360Y-79142832D01*
X54237348Y-79142835D01*
X54237327Y-79142842D01*
X53945782Y-79244859D01*
X53945767Y-79244865D01*
X53945765Y-79244866D01*
X53667442Y-79378899D01*
X53405859Y-79543263D01*
X53164326Y-79735878D01*
X52945878Y-79954326D01*
X52753263Y-80195859D01*
X52588899Y-80457442D01*
X52454866Y-80735765D01*
X52454865Y-80735767D01*
X52454859Y-80735782D01*
X52352842Y-81027327D01*
X52352835Y-81027348D01*
X52352832Y-81027360D01*
X52284089Y-81328541D01*
X52284083Y-81328576D01*
X52249500Y-81635521D01*
X47600500Y-81635521D01*
X47600500Y-76501896D01*
X62999500Y-76501896D01*
X62999500Y-76738102D01*
X63036445Y-76971362D01*
X63036446Y-76971368D01*
X63109433Y-77195996D01*
X63216657Y-77406433D01*
X63355483Y-77597510D01*
X63522490Y-77764517D01*
X63522493Y-77764519D01*
X63604638Y-77824201D01*
X63629946Y-77848795D01*
X63638422Y-77859786D01*
X63663774Y-77924894D01*
X63649901Y-77993373D01*
X63649890Y-77993393D01*
X63646628Y-77999573D01*
X63609854Y-78042007D01*
X63534360Y-78096858D01*
X63526981Y-78100990D01*
X63350991Y-78276980D01*
X63346858Y-78284361D01*
X63295862Y-78354550D01*
X63295861Y-78354549D01*
X63216659Y-78463562D01*
X63216657Y-78463566D01*
X63109433Y-78674003D01*
X63036446Y-78898631D01*
X63036445Y-78898634D01*
X63036445Y-78898636D01*
X62999500Y-79131896D01*
X62999500Y-79368102D01*
X63036445Y-79601362D01*
X63036446Y-79601368D01*
X63109433Y-79825996D01*
X63174821Y-79954326D01*
X63216657Y-80036433D01*
X63355483Y-80227510D01*
X63355486Y-80227513D01*
X63522486Y-80394514D01*
X63522495Y-80394521D01*
X63542703Y-80409204D01*
X63568015Y-80433804D01*
X63576489Y-80444794D01*
X63601836Y-80509904D01*
X63587959Y-80578381D01*
X63587956Y-80578387D01*
X63584695Y-80584566D01*
X63547926Y-80627001D01*
X63539375Y-80633215D01*
X63539367Y-80633220D01*
X63522491Y-80645481D01*
X63522485Y-80645486D01*
X63350992Y-80816979D01*
X63346859Y-80824358D01*
X63310659Y-80874185D01*
X63310658Y-80874184D01*
X63216661Y-81003560D01*
X63216657Y-81003566D01*
X63216655Y-81003568D01*
X63216653Y-81003573D01*
X63167378Y-81100280D01*
X63109433Y-81214003D01*
X63036446Y-81438631D01*
X63036445Y-81438634D01*
X63036445Y-81438636D01*
X62999500Y-81671896D01*
X62999500Y-81908102D01*
X63005263Y-81944485D01*
X63036446Y-82141368D01*
X63109433Y-82365996D01*
X63169457Y-82483799D01*
X63198347Y-82540499D01*
X63216655Y-82576431D01*
X63226097Y-82589426D01*
X63355483Y-82767510D01*
X63355486Y-82767513D01*
X63522486Y-82934514D01*
X63522495Y-82934521D01*
X63542703Y-82949204D01*
X63568015Y-82973804D01*
X63576489Y-82984794D01*
X63601836Y-83049904D01*
X63587959Y-83118381D01*
X63587956Y-83118387D01*
X63584695Y-83124566D01*
X63547926Y-83167001D01*
X63539375Y-83173215D01*
X63539367Y-83173220D01*
X63522491Y-83185481D01*
X63522485Y-83185486D01*
X63350990Y-83356981D01*
X63346860Y-83364357D01*
X63332489Y-83384138D01*
X63332487Y-83384141D01*
X63216657Y-83543565D01*
X63174821Y-83625673D01*
X63109433Y-83754003D01*
X63036446Y-83978631D01*
X63036445Y-83978634D01*
X63036445Y-83978636D01*
X62999500Y-84211896D01*
X62999500Y-84448102D01*
X63014135Y-84540500D01*
X63036446Y-84681368D01*
X63109433Y-84905996D01*
X63158127Y-85001563D01*
X63198347Y-85080499D01*
X63216655Y-85116431D01*
X63258365Y-85173839D01*
X63355483Y-85307510D01*
X63355486Y-85307513D01*
X63522486Y-85474514D01*
X63522495Y-85474521D01*
X63542703Y-85489204D01*
X63568015Y-85513804D01*
X63576489Y-85524794D01*
X63601836Y-85589904D01*
X63587959Y-85658381D01*
X63587956Y-85658387D01*
X63584695Y-85664566D01*
X63547926Y-85707001D01*
X63539375Y-85713215D01*
X63539367Y-85713220D01*
X63522491Y-85725481D01*
X63522485Y-85725486D01*
X63350991Y-85896980D01*
X63346858Y-85904361D01*
X63295862Y-85974550D01*
X63295861Y-85974549D01*
X63216659Y-86083562D01*
X63216657Y-86083566D01*
X63109433Y-86294003D01*
X63036446Y-86518631D01*
X63036445Y-86518634D01*
X63036445Y-86518636D01*
X62999500Y-86751896D01*
X62999500Y-86988102D01*
X63025161Y-87150117D01*
X63036446Y-87221368D01*
X63109433Y-87445996D01*
X63178977Y-87582482D01*
X63216657Y-87656433D01*
X63355483Y-87847510D01*
X63355486Y-87847513D01*
X63522486Y-88014514D01*
X63522495Y-88014521D01*
X63542703Y-88029204D01*
X63568015Y-88053804D01*
X63576489Y-88064794D01*
X63601836Y-88129904D01*
X63587959Y-88198381D01*
X63587956Y-88198387D01*
X63584695Y-88204566D01*
X63547926Y-88247001D01*
X63539375Y-88253215D01*
X63539367Y-88253220D01*
X63522491Y-88265481D01*
X63522485Y-88265486D01*
X63350991Y-88436980D01*
X63346858Y-88444361D01*
X63295862Y-88514550D01*
X63295861Y-88514549D01*
X63216659Y-88623562D01*
X63216657Y-88623566D01*
X63109433Y-88834003D01*
X63036446Y-89058631D01*
X63036445Y-89058634D01*
X63036445Y-89058636D01*
X62999500Y-89291896D01*
X62999500Y-89528102D01*
X63013667Y-89617546D01*
X63036446Y-89761368D01*
X63109433Y-89985996D01*
X63216657Y-90196433D01*
X63355483Y-90387510D01*
X63355486Y-90387513D01*
X63522486Y-90554514D01*
X63522495Y-90554521D01*
X63542703Y-90569204D01*
X63568015Y-90593804D01*
X63576489Y-90604794D01*
X63601836Y-90669904D01*
X63587959Y-90738381D01*
X63587956Y-90738387D01*
X63584695Y-90744566D01*
X63547926Y-90787001D01*
X63539375Y-90793215D01*
X63539367Y-90793220D01*
X63522491Y-90805481D01*
X63522485Y-90805486D01*
X63350991Y-90976980D01*
X63346858Y-90984361D01*
X63295862Y-91054550D01*
X63295861Y-91054549D01*
X63216659Y-91163562D01*
X63216657Y-91163566D01*
X63109433Y-91374003D01*
X63036446Y-91598631D01*
X63036445Y-91598634D01*
X63036445Y-91598636D01*
X62999500Y-91831896D01*
X62999500Y-92068102D01*
X63023091Y-92217049D01*
X63036446Y-92301368D01*
X63109433Y-92525996D01*
X63208378Y-92720185D01*
X63216657Y-92736433D01*
X63355483Y-92927510D01*
X63355486Y-92927513D01*
X63522486Y-93094514D01*
X63522495Y-93094521D01*
X63542703Y-93109204D01*
X63568015Y-93133804D01*
X63576489Y-93144794D01*
X63601836Y-93209904D01*
X63587959Y-93278381D01*
X63587956Y-93278387D01*
X63584695Y-93284566D01*
X63547926Y-93327001D01*
X63539375Y-93333215D01*
X63539367Y-93333220D01*
X63522491Y-93345481D01*
X63522485Y-93345486D01*
X63350990Y-93516981D01*
X63346858Y-93524360D01*
X63300063Y-93588768D01*
X63226214Y-93690412D01*
X63216657Y-93703566D01*
X63216655Y-93703568D01*
X63216653Y-93703573D01*
X63167378Y-93800280D01*
X63109433Y-93914003D01*
X63036446Y-94138631D01*
X63036445Y-94138634D01*
X63036445Y-94138636D01*
X62999500Y-94371896D01*
X62999500Y-94608102D01*
X63017474Y-94721584D01*
X63036446Y-94841368D01*
X63109433Y-95065996D01*
X63171665Y-95188132D01*
X63216657Y-95276433D01*
X63355483Y-95467510D01*
X63355486Y-95467513D01*
X63522486Y-95634514D01*
X63522495Y-95634521D01*
X63542703Y-95649204D01*
X63568015Y-95673804D01*
X63576489Y-95684794D01*
X63601836Y-95749904D01*
X63587959Y-95818381D01*
X63587956Y-95818387D01*
X63584695Y-95824566D01*
X63547926Y-95867001D01*
X63539375Y-95873215D01*
X63539367Y-95873220D01*
X63522491Y-95885481D01*
X63522485Y-95885486D01*
X63350992Y-96056979D01*
X63346859Y-96064359D01*
X63313069Y-96110868D01*
X63313068Y-96110867D01*
X63216661Y-96243560D01*
X63216657Y-96243566D01*
X63216655Y-96243568D01*
X63216653Y-96243573D01*
X63167378Y-96340280D01*
X63109433Y-96454003D01*
X63036446Y-96678631D01*
X63036445Y-96678634D01*
X63036445Y-96678636D01*
X62999500Y-96911896D01*
X62999500Y-97148102D01*
X63023806Y-97301563D01*
X63036446Y-97381368D01*
X63109433Y-97605996D01*
X63169457Y-97723799D01*
X63198347Y-97780499D01*
X63216655Y-97816431D01*
X63226097Y-97829426D01*
X63355483Y-98007510D01*
X63355486Y-98007513D01*
X63522486Y-98174514D01*
X63522495Y-98174521D01*
X63542703Y-98189204D01*
X63568015Y-98213804D01*
X63576489Y-98224794D01*
X63601836Y-98289904D01*
X63587959Y-98358381D01*
X63587956Y-98358387D01*
X63584695Y-98364566D01*
X63547926Y-98407001D01*
X63539375Y-98413215D01*
X63539367Y-98413220D01*
X63522491Y-98425481D01*
X63522485Y-98425486D01*
X63350991Y-98596980D01*
X63346858Y-98604361D01*
X63295862Y-98674550D01*
X63295861Y-98674549D01*
X63216659Y-98783562D01*
X63216657Y-98783566D01*
X63109433Y-98994003D01*
X63036446Y-99218631D01*
X63036445Y-99218634D01*
X63036445Y-99218636D01*
X62999500Y-99451896D01*
X62999500Y-99688102D01*
X63036445Y-99921362D01*
X63036446Y-99921368D01*
X63109433Y-100145996D01*
X63169457Y-100263799D01*
X63198347Y-100320499D01*
X63216655Y-100356431D01*
X63226097Y-100369426D01*
X63355483Y-100547510D01*
X63355486Y-100547513D01*
X63522486Y-100714514D01*
X63522495Y-100714521D01*
X63542703Y-100729204D01*
X63568015Y-100753804D01*
X63576489Y-100764794D01*
X63601836Y-100829904D01*
X63587959Y-100898381D01*
X63587956Y-100898387D01*
X63584695Y-100904566D01*
X63547926Y-100947001D01*
X63539375Y-100953215D01*
X63539367Y-100953220D01*
X63522491Y-100965481D01*
X63522485Y-100965486D01*
X63350991Y-101136980D01*
X63346858Y-101144361D01*
X63295862Y-101214550D01*
X63295861Y-101214549D01*
X63216659Y-101323562D01*
X63216657Y-101323566D01*
X63109433Y-101534003D01*
X63036446Y-101758631D01*
X63036445Y-101758634D01*
X63036445Y-101758636D01*
X62999500Y-101991896D01*
X62999500Y-102228102D01*
X63036445Y-102461362D01*
X63036446Y-102461368D01*
X63109433Y-102685996D01*
X63169457Y-102803799D01*
X63198347Y-102860499D01*
X63216655Y-102896431D01*
X63226097Y-102909426D01*
X63355483Y-103087510D01*
X63355486Y-103087513D01*
X63522486Y-103254514D01*
X63522495Y-103254521D01*
X63542703Y-103269204D01*
X63568015Y-103293804D01*
X63576489Y-103304794D01*
X63601836Y-103369904D01*
X63587959Y-103438381D01*
X63587956Y-103438387D01*
X63584695Y-103444566D01*
X63547926Y-103487001D01*
X63539375Y-103493215D01*
X63539367Y-103493220D01*
X63522491Y-103505481D01*
X63522485Y-103505486D01*
X63350989Y-103676982D01*
X63346860Y-103684356D01*
X63328205Y-103710034D01*
X63328203Y-103710038D01*
X63216657Y-103863566D01*
X63109433Y-104074003D01*
X63036446Y-104298631D01*
X63036445Y-104298634D01*
X63036445Y-104298636D01*
X62999500Y-104531896D01*
X62999500Y-104768102D01*
X63024522Y-104926083D01*
X63036446Y-105001368D01*
X63109433Y-105225996D01*
X63109434Y-105225997D01*
X63109435Y-105226001D01*
X63147883Y-105301457D01*
X63147883Y-105301459D01*
X63147884Y-105301459D01*
X63216657Y-105436433D01*
X63355483Y-105627510D01*
X63355486Y-105627513D01*
X63522486Y-105794514D01*
X63522495Y-105794521D01*
X63542703Y-105809204D01*
X63568015Y-105833804D01*
X63576489Y-105844794D01*
X63601836Y-105909904D01*
X63587959Y-105978381D01*
X63587956Y-105978387D01*
X63584695Y-105984566D01*
X63547926Y-106027001D01*
X63539375Y-106033215D01*
X63539367Y-106033220D01*
X63522491Y-106045481D01*
X63522485Y-106045486D01*
X63350991Y-106216980D01*
X63346858Y-106224361D01*
X63295862Y-106294550D01*
X63295861Y-106294549D01*
X63216659Y-106403562D01*
X63216657Y-106403566D01*
X63109433Y-106614003D01*
X63036446Y-106838631D01*
X63036445Y-106838634D01*
X63036445Y-106838636D01*
X62999500Y-107071896D01*
X62999500Y-107308102D01*
X63036445Y-107541362D01*
X63036446Y-107541368D01*
X63109433Y-107765996D01*
X63216657Y-107976433D01*
X63355483Y-108167510D01*
X63522490Y-108334517D01*
X63567293Y-108367068D01*
X63592602Y-108391664D01*
X63604621Y-108407250D01*
X63629100Y-108464886D01*
X63630405Y-108473738D01*
X63631348Y-108501556D01*
X63630892Y-108507337D01*
X63630893Y-108507339D01*
X63630893Y-108507340D01*
X64017041Y-108893488D01*
X64317055Y-109193501D01*
X64350540Y-109254824D01*
X64345556Y-109324515D01*
X64303685Y-109380449D01*
X64291374Y-109388569D01*
X64254397Y-109409917D01*
X64254392Y-109409921D01*
X64179921Y-109484392D01*
X64179917Y-109484397D01*
X64158569Y-109521374D01*
X64108002Y-109569590D01*
X64039395Y-109582812D01*
X63974530Y-109556844D01*
X63963501Y-109547055D01*
X63277340Y-108860893D01*
X63277339Y-108860894D01*
X63217088Y-108943823D01*
X63217085Y-108943828D01*
X63217084Y-108943830D01*
X63168799Y-109038594D01*
X63109898Y-109154194D01*
X63036933Y-109378755D01*
X63000000Y-109611941D01*
X63000000Y-109848057D01*
X63035379Y-110071430D01*
X63036934Y-110081247D01*
X63097126Y-110266498D01*
X63109898Y-110305804D01*
X63217086Y-110516172D01*
X63217087Y-110516174D01*
X63277337Y-110599103D01*
X63277339Y-110599105D01*
X63277339Y-110599104D01*
X63277340Y-110599105D01*
X63963502Y-109912942D01*
X64024823Y-109879459D01*
X64094514Y-109884443D01*
X64150448Y-109926314D01*
X64158567Y-109938624D01*
X64179915Y-109975599D01*
X64179919Y-109975604D01*
X64179920Y-109975606D01*
X64254394Y-110050080D01*
X64254395Y-110050081D01*
X64254397Y-110050082D01*
X64291373Y-110071430D01*
X64339588Y-110121996D01*
X64352812Y-110190603D01*
X64326844Y-110255468D01*
X64317054Y-110266498D01*
X63630894Y-110952656D01*
X63630892Y-110952659D01*
X63631048Y-110954629D01*
X63628783Y-110989850D01*
X63624735Y-111009117D01*
X63596804Y-111065165D01*
X63590921Y-111071905D01*
X63570388Y-111090681D01*
X63522496Y-111125477D01*
X63522487Y-111125484D01*
X63350991Y-111296980D01*
X63346858Y-111304361D01*
X63295862Y-111374550D01*
X63295861Y-111374549D01*
X63216659Y-111483562D01*
X63216657Y-111483566D01*
X63109433Y-111694003D01*
X63036446Y-111918631D01*
X63036445Y-111918634D01*
X63036445Y-111918636D01*
X62999500Y-112151896D01*
X62999500Y-112388102D01*
X63036445Y-112621362D01*
X63036446Y-112621368D01*
X63109433Y-112845996D01*
X63216657Y-113056433D01*
X63355483Y-113247510D01*
X63522490Y-113414517D01*
X63713567Y-113553343D01*
X63812991Y-113604002D01*
X63924003Y-113660566D01*
X63924876Y-113661011D01*
X63928630Y-113662070D01*
X63976335Y-113677569D01*
X64044410Y-113699688D01*
X64044411Y-113699689D01*
X64044412Y-113699689D01*
X64148631Y-113733553D01*
X64381903Y-113770500D01*
X64381908Y-113770500D01*
X64618096Y-113770500D01*
X64618097Y-113770500D01*
X64851368Y-113733553D01*
X65075992Y-113660568D01*
X65286433Y-113553343D01*
X65477510Y-113414517D01*
X65644517Y-113247510D01*
X65783343Y-113056433D01*
X65890568Y-112845992D01*
X65963553Y-112621368D01*
X66000500Y-112388097D01*
X66000500Y-112151902D01*
X65963553Y-111918631D01*
X65890566Y-111694003D01*
X65783342Y-111483566D01*
X65644517Y-111292490D01*
X65477510Y-111125483D01*
X65477509Y-111125482D01*
X65432703Y-111092928D01*
X65407395Y-111068333D01*
X65395375Y-111052744D01*
X65370897Y-110995109D01*
X65369590Y-110986246D01*
X65368648Y-110958448D01*
X65369104Y-110952657D01*
X65369102Y-110952655D01*
X65369103Y-110952655D01*
X64682944Y-110266498D01*
X64649459Y-110205175D01*
X64654443Y-110135484D01*
X64696314Y-110079550D01*
X64708614Y-110071437D01*
X64745606Y-110050080D01*
X64820080Y-109975606D01*
X64841430Y-109938625D01*
X64891995Y-109890411D01*
X64960602Y-109877187D01*
X65025467Y-109903154D01*
X65036498Y-109912945D01*
X65722657Y-110599105D01*
X65722657Y-110599104D01*
X65722658Y-110599105D01*
X65722658Y-110599104D01*
X65736126Y-110593525D01*
X65742343Y-110572355D01*
X65746340Y-110566509D01*
X65754103Y-110555822D01*
X65782914Y-110516169D01*
X65782918Y-110516163D01*
X65890102Y-110305802D01*
X65963065Y-110081247D01*
X66000000Y-109848052D01*
X66000000Y-109611947D01*
X65963065Y-109378752D01*
X65890102Y-109154197D01*
X65782914Y-108943828D01*
X65746338Y-108893487D01*
X65736799Y-108866750D01*
X65722657Y-108860892D01*
X65036497Y-109547053D01*
X64975174Y-109580538D01*
X64905482Y-109575554D01*
X64849549Y-109533682D01*
X64841430Y-109521374D01*
X64820080Y-109484394D01*
X64745606Y-109409920D01*
X64745605Y-109409919D01*
X64745602Y-109409917D01*
X64708626Y-109388569D01*
X64660410Y-109338002D01*
X64647188Y-109269395D01*
X64673156Y-109204530D01*
X64682939Y-109193506D01*
X65369105Y-108507340D01*
X65368949Y-108505361D01*
X65371214Y-108470154D01*
X65375263Y-108450880D01*
X65403191Y-108394838D01*
X65409084Y-108388087D01*
X65429607Y-108369320D01*
X65477510Y-108334517D01*
X65644517Y-108167510D01*
X65783343Y-107976433D01*
X65890568Y-107765992D01*
X65963553Y-107541368D01*
X66000500Y-107308097D01*
X66000500Y-107071902D01*
X65963553Y-106838631D01*
X65890566Y-106614003D01*
X65783342Y-106403566D01*
X65644517Y-106212490D01*
X65550984Y-106118957D01*
X65517499Y-106057634D01*
X65522483Y-105987942D01*
X65564355Y-105932009D01*
X65606559Y-105911505D01*
X66534013Y-105662933D01*
X66564631Y-105654727D01*
X66596732Y-105650500D01*
X66766388Y-105650500D01*
X66801320Y-105655521D01*
X66826564Y-105662934D01*
X66879310Y-105694230D01*
X66950573Y-105765493D01*
X66971723Y-105793745D01*
X66984331Y-105816834D01*
X66999500Y-105876263D01*
X66999500Y-118598542D01*
X66999499Y-118598546D01*
X67035430Y-118779176D01*
X67035430Y-118779177D01*
X67037941Y-118791804D01*
X67037949Y-118791839D01*
X67113360Y-118973900D01*
X67113365Y-118973909D01*
X67113375Y-118973926D01*
X67212169Y-119121782D01*
X67222860Y-119137781D01*
X67222863Y-119137785D01*
X67366537Y-119281459D01*
X67366547Y-119281468D01*
X67367580Y-119282501D01*
X67367623Y-119282543D01*
X73618273Y-125533193D01*
X73618304Y-125533225D01*
X73619749Y-125534670D01*
X73619764Y-125534686D01*
X73762214Y-125677136D01*
X73762218Y-125677139D01*
X73926079Y-125786628D01*
X73926092Y-125786635D01*
X73926094Y-125786635D01*
X73926098Y-125786638D01*
X74054833Y-125839961D01*
X74097744Y-125857735D01*
X74108164Y-125862051D01*
X74204812Y-125881275D01*
X74253135Y-125890887D01*
X74274056Y-125895049D01*
X74301457Y-125900500D01*
X74301458Y-125900500D01*
X74301459Y-125900500D01*
X74301460Y-125900500D01*
X74498540Y-125900500D01*
X82451379Y-125900500D01*
X82486315Y-125905523D01*
X82501313Y-125909927D01*
X82560064Y-125947672D01*
X82561251Y-125949041D01*
X82588727Y-126003902D01*
X82590372Y-126011460D01*
X82593209Y-126037831D01*
X82593209Y-130498395D01*
X82588982Y-130530496D01*
X82332204Y-131488566D01*
X82295835Y-131548224D01*
X82232986Y-131578749D01*
X82163611Y-131570450D01*
X82124750Y-131544146D01*
X82031221Y-131450617D01*
X82031219Y-131450615D01*
X81840142Y-131311789D01*
X81629705Y-131204565D01*
X81405077Y-131131578D01*
X81405071Y-131131577D01*
X81171811Y-131094632D01*
X81171806Y-131094632D01*
X81171801Y-131094632D01*
X80935617Y-131094632D01*
X80935612Y-131094632D01*
X80935607Y-131094632D01*
X80702345Y-131131577D01*
X80702343Y-131131577D01*
X80702340Y-131131578D01*
X80477712Y-131204565D01*
X80406681Y-131240757D01*
X80267275Y-131311788D01*
X80183756Y-131372470D01*
X80183755Y-131372470D01*
X80088069Y-131441990D01*
X80080690Y-131446122D01*
X79909196Y-131617615D01*
X79909190Y-131617622D01*
X79894505Y-131637835D01*
X79869905Y-131663147D01*
X79858915Y-131671621D01*
X79793805Y-131696968D01*
X79725344Y-131683099D01*
X79719162Y-131679838D01*
X79676696Y-131643044D01*
X79658231Y-131617628D01*
X79658227Y-131617623D01*
X79491221Y-131450617D01*
X79491219Y-131450615D01*
X79300142Y-131311789D01*
X79089705Y-131204565D01*
X78865077Y-131131578D01*
X78865071Y-131131577D01*
X78631811Y-131094632D01*
X78631806Y-131094632D01*
X78631801Y-131094632D01*
X78395617Y-131094632D01*
X78395612Y-131094632D01*
X78395607Y-131094632D01*
X78162345Y-131131577D01*
X78162343Y-131131577D01*
X78162340Y-131131578D01*
X77937712Y-131204565D01*
X77866681Y-131240757D01*
X77727275Y-131311788D01*
X77643756Y-131372470D01*
X77643755Y-131372470D01*
X77548069Y-131441990D01*
X77540690Y-131446122D01*
X77364699Y-131622113D01*
X77360567Y-131629492D01*
X77326161Y-131676848D01*
X77289302Y-131727580D01*
X77230366Y-131808698D01*
X77123142Y-132019135D01*
X77050155Y-132243763D01*
X77050154Y-132243766D01*
X77050154Y-132243768D01*
X77013209Y-132477028D01*
X77013209Y-132713234D01*
X77050146Y-132946446D01*
X77050155Y-132946500D01*
X77123142Y-133171128D01*
X77188807Y-133300001D01*
X77230366Y-133381565D01*
X77369192Y-133572642D01*
X77536199Y-133739649D01*
X77727276Y-133878475D01*
X77826700Y-133929134D01*
X77937712Y-133985698D01*
X77938585Y-133986143D01*
X77942339Y-133987202D01*
X77980747Y-133999681D01*
X78058119Y-134024820D01*
X78058120Y-134024821D01*
X78058121Y-134024821D01*
X78162340Y-134058685D01*
X78395612Y-134095632D01*
X78395617Y-134095632D01*
X78631805Y-134095632D01*
X78631806Y-134095632D01*
X78865077Y-134058685D01*
X78866579Y-134058197D01*
X79089701Y-133985700D01*
X79300142Y-133878475D01*
X79491219Y-133739649D01*
X79658226Y-133572642D01*
X79672911Y-133552428D01*
X79697507Y-133527118D01*
X79708501Y-133518641D01*
X79773608Y-133493293D01*
X79842081Y-133507166D01*
X79848260Y-133510426D01*
X79890716Y-133547213D01*
X79909187Y-133572636D01*
X79909191Y-133572641D01*
X79909192Y-133572642D01*
X80076199Y-133739649D01*
X80267276Y-133878475D01*
X80366700Y-133929134D01*
X80477712Y-133985698D01*
X80478585Y-133986143D01*
X80482339Y-133987202D01*
X80520747Y-133999681D01*
X80598119Y-134024820D01*
X80598120Y-134024821D01*
X80598121Y-134024821D01*
X80702340Y-134058685D01*
X80935612Y-134095632D01*
X80935617Y-134095632D01*
X81171805Y-134095632D01*
X81171806Y-134095632D01*
X81405077Y-134058685D01*
X81406579Y-134058197D01*
X81629701Y-133985700D01*
X81840142Y-133878475D01*
X82031219Y-133739649D01*
X82124750Y-133646118D01*
X82186073Y-133612633D01*
X82255765Y-133617617D01*
X82311698Y-133659489D01*
X82332204Y-133701698D01*
X82522654Y-134412287D01*
X82563563Y-134564926D01*
X82588982Y-134659765D01*
X82593209Y-134691866D01*
X82593209Y-134810096D01*
X82588186Y-134845032D01*
X82580775Y-134870271D01*
X82549479Y-134923016D01*
X82421920Y-135050575D01*
X82393670Y-135071724D01*
X82370586Y-135084330D01*
X82311155Y-135099500D01*
X76583612Y-135099500D01*
X76548676Y-135094477D01*
X76523434Y-135087065D01*
X76470689Y-135055769D01*
X74082543Y-132667623D01*
X74082501Y-132667580D01*
X74081468Y-132666547D01*
X74081459Y-132666537D01*
X73937785Y-132522863D01*
X73937784Y-132522862D01*
X73937783Y-132522861D01*
X73773917Y-132413368D01*
X73772493Y-132412671D01*
X73769846Y-132411683D01*
X73690275Y-132378724D01*
X73643864Y-132359500D01*
X73591836Y-132337949D01*
X73591828Y-132337947D01*
X73482170Y-132316135D01*
X73477922Y-132315290D01*
X73438232Y-132307395D01*
X73398544Y-132299500D01*
X73398543Y-132299500D01*
X73398541Y-132299500D01*
X72882616Y-132299500D01*
X72858868Y-132297205D01*
X72745336Y-132275052D01*
X72584984Y-132243763D01*
X71522851Y-132036513D01*
X71522851Y-132036512D01*
X71515449Y-132035067D01*
X71504534Y-132031522D01*
X71465964Y-132025413D01*
X71463816Y-132024994D01*
X71463788Y-132024989D01*
X71454076Y-132023094D01*
X71387807Y-132010163D01*
X71364382Y-132006161D01*
X71363325Y-132006006D01*
X71333494Y-132003945D01*
X71322651Y-132002714D01*
X71302353Y-131999500D01*
X71302352Y-131999500D01*
X71097648Y-131999500D01*
X71097647Y-131999500D01*
X71073327Y-132003351D01*
X71073326Y-132003350D01*
X70895468Y-132031521D01*
X70700777Y-132094780D01*
X70700764Y-132094786D01*
X70518397Y-132187708D01*
X70518385Y-132187715D01*
X70352787Y-132308027D01*
X70352784Y-132308029D01*
X70208029Y-132452784D01*
X70208027Y-132452787D01*
X70087715Y-132618385D01*
X70087708Y-132618397D01*
X69994786Y-132800764D01*
X69994780Y-132800777D01*
X69931521Y-132995468D01*
X69899500Y-133197642D01*
X69899500Y-133402356D01*
X69931503Y-133604417D01*
X69931522Y-133604534D01*
X69944931Y-133645801D01*
X69994780Y-133799221D01*
X69994783Y-133799228D01*
X70035162Y-133878473D01*
X70035162Y-133878475D01*
X70035163Y-133878475D01*
X70087537Y-133981265D01*
X70087715Y-133981614D01*
X70208026Y-134147211D01*
X70208028Y-134147213D01*
X70352786Y-134291971D01*
X70449215Y-134362029D01*
X70451010Y-134363333D01*
X70451011Y-134363335D01*
X70485338Y-134388274D01*
X70518390Y-134412287D01*
X70634607Y-134471503D01*
X70675984Y-134492586D01*
X70694327Y-134501932D01*
X70694326Y-134501932D01*
X70698600Y-134504109D01*
X70699867Y-134504755D01*
X70701650Y-134505663D01*
X70705403Y-134506722D01*
X70721860Y-134512069D01*
X70805135Y-134539126D01*
X70805136Y-134539127D01*
X70817087Y-134543010D01*
X70895465Y-134568477D01*
X70971375Y-134580500D01*
X71097648Y-134600500D01*
X71097649Y-134600500D01*
X71302350Y-134600500D01*
X71302351Y-134600500D01*
X71302352Y-134600500D01*
X71361376Y-134591151D01*
X71387832Y-134589830D01*
X71465917Y-134574593D01*
X71468090Y-134574249D01*
X71468099Y-134574248D01*
X71482525Y-134571962D01*
X71504534Y-134568477D01*
X71508288Y-134567257D01*
X71522848Y-134563484D01*
X72818371Y-134310695D01*
X72887939Y-134317176D01*
X72929799Y-134344719D01*
X75318273Y-136733193D01*
X75318304Y-136733225D01*
X75319749Y-136734670D01*
X75319764Y-136734686D01*
X75462217Y-136877139D01*
X75626080Y-136986628D01*
X75626086Y-136986632D01*
X75733399Y-137031082D01*
X75808164Y-137062051D01*
X75904812Y-137081275D01*
X75984836Y-137097193D01*
X76001458Y-137100500D01*
X76001459Y-137100500D01*
X76001463Y-137100500D01*
X82885960Y-137100500D01*
X82885961Y-137100500D01*
X82889368Y-137099822D01*
X82906409Y-137096432D01*
X82982606Y-137081275D01*
X83079254Y-137062051D01*
X83154019Y-137031082D01*
X83261332Y-136986632D01*
X83425200Y-136877139D01*
X83495522Y-136806815D01*
X83523769Y-136785670D01*
X83537494Y-136778176D01*
X83605760Y-136763327D01*
X83613088Y-136763851D01*
X83673134Y-136784433D01*
X83706637Y-136806819D01*
X83826079Y-136886628D01*
X83826092Y-136886635D01*
X83826094Y-136886635D01*
X83826098Y-136886638D01*
X83954828Y-136939959D01*
X83954833Y-136939961D01*
X83997744Y-136957735D01*
X84008164Y-136962051D01*
X84104812Y-136981275D01*
X84153135Y-136990887D01*
X84174056Y-136995049D01*
X84201457Y-137000500D01*
X84201458Y-137000500D01*
X84201459Y-137000500D01*
X98098541Y-137000500D01*
X98098542Y-137000500D01*
X98113848Y-136997454D01*
X98129562Y-136994329D01*
X98129563Y-136994328D01*
X98129566Y-136994328D01*
X98195188Y-136981275D01*
X98291836Y-136962051D01*
X98345165Y-136939961D01*
X98473914Y-136886632D01*
X98637782Y-136777139D01*
X98777139Y-136637782D01*
X98777140Y-136637779D01*
X98784206Y-136630714D01*
X98784207Y-136630712D01*
X98787316Y-136627603D01*
X98787325Y-136627593D01*
X98791260Y-136623657D01*
X98791263Y-136623656D01*
X98791269Y-136623648D01*
X101005496Y-134409423D01*
X101033746Y-134388275D01*
X101056838Y-134375667D01*
X101116263Y-134360500D01*
X101922340Y-134360500D01*
X101941754Y-134362029D01*
X102107317Y-134388274D01*
X102965511Y-134524315D01*
X103028642Y-134554253D01*
X103065565Y-134613569D01*
X103064558Y-134683432D01*
X103025941Y-134741659D01*
X102984415Y-134764717D01*
X102971495Y-134768914D01*
X102971482Y-134768920D01*
X102800325Y-134856130D01*
X102800321Y-134856132D01*
X102746874Y-134894965D01*
X102746873Y-134894965D01*
X102656768Y-134960430D01*
X102649389Y-134964562D01*
X102504575Y-135109376D01*
X102500464Y-135116722D01*
X102499622Y-135117882D01*
X102499589Y-135117926D01*
X102396139Y-135260312D01*
X102396135Y-135260318D01*
X102396134Y-135260320D01*
X102396125Y-135260335D01*
X102308920Y-135431482D01*
X102308913Y-135431498D01*
X102249553Y-135614193D01*
X102219500Y-135803939D01*
X102219500Y-135996059D01*
X102249553Y-136185803D01*
X102308916Y-136368507D01*
X102311262Y-136373351D01*
X102312207Y-136374965D01*
X102390794Y-136529199D01*
X102396135Y-136539681D01*
X102509055Y-136695102D01*
X102644898Y-136830945D01*
X102800319Y-136943865D01*
X102911471Y-137000500D01*
X102935114Y-137012547D01*
X102971494Y-137031084D01*
X102971500Y-137031086D01*
X103019934Y-137046823D01*
X103076772Y-137085246D01*
X103077625Y-137086267D01*
X103086941Y-137092636D01*
X103114144Y-137156993D01*
X103102235Y-137225840D01*
X103082315Y-137254976D01*
X103080220Y-137257259D01*
X103027177Y-137291351D01*
X102971673Y-137309385D01*
X102800569Y-137396568D01*
X102796422Y-137399110D01*
X102795265Y-137397223D01*
X102777207Y-137403658D01*
X102771350Y-137417798D01*
X103257055Y-137903501D01*
X103290540Y-137964824D01*
X103285556Y-138034515D01*
X103243685Y-138090449D01*
X103231374Y-138098569D01*
X103194397Y-138119917D01*
X103194392Y-138119921D01*
X103119921Y-138194392D01*
X103119915Y-138194400D01*
X103098568Y-138231374D01*
X103048001Y-138279589D01*
X102979393Y-138292811D01*
X102914529Y-138266843D01*
X102903501Y-138257054D01*
X102417798Y-137771350D01*
X102404329Y-137776930D01*
X102398682Y-137796160D01*
X102399110Y-137796422D01*
X102398141Y-137798002D01*
X102398113Y-137798100D01*
X102397810Y-137798542D01*
X102396568Y-137800569D01*
X102350737Y-137890516D01*
X102309383Y-137971678D01*
X102309383Y-137971679D01*
X102309382Y-137971681D01*
X102250039Y-138154318D01*
X102220000Y-138343978D01*
X102220000Y-138536020D01*
X102250039Y-138725680D01*
X102250040Y-138725684D01*
X102309383Y-138908321D01*
X102396561Y-139079415D01*
X102417798Y-139108646D01*
X102903503Y-138622940D01*
X102964823Y-138589458D01*
X103034514Y-138594442D01*
X103090448Y-138636313D01*
X103098568Y-138648624D01*
X103119917Y-138685602D01*
X103119919Y-138685604D01*
X103119920Y-138685606D01*
X103194394Y-138760080D01*
X103194395Y-138760081D01*
X103194397Y-138760082D01*
X103231373Y-138781430D01*
X103279588Y-138831996D01*
X103292812Y-138900603D01*
X103266844Y-138965468D01*
X103257054Y-138976498D01*
X102771351Y-139462199D01*
X102771351Y-139462200D01*
X102771355Y-139462204D01*
X102800576Y-139483434D01*
X102971671Y-139570613D01*
X102971675Y-139570614D01*
X102971678Y-139570616D01*
X103154315Y-139629959D01*
X103343985Y-139660000D01*
X103536014Y-139660000D01*
X103536015Y-139660000D01*
X103725684Y-139629959D01*
X103908321Y-139570616D01*
X104079419Y-139483436D01*
X104108646Y-139462201D01*
X104108646Y-139462200D01*
X103880125Y-139233679D01*
X103622945Y-138976498D01*
X103589460Y-138915175D01*
X103594444Y-138845483D01*
X103636316Y-138789550D01*
X103648618Y-138781434D01*
X103685606Y-138760080D01*
X103760080Y-138685606D01*
X103781430Y-138648625D01*
X103831994Y-138600411D01*
X103900601Y-138587186D01*
X103965466Y-138613153D01*
X103976498Y-138622944D01*
X104462200Y-139108646D01*
X104462201Y-139108646D01*
X104483436Y-139079419D01*
X104570616Y-138908321D01*
X104629959Y-138725684D01*
X104660000Y-138536015D01*
X104660000Y-138343984D01*
X104629959Y-138154315D01*
X104570616Y-137971678D01*
X104570614Y-137971675D01*
X104570613Y-137971671D01*
X104483434Y-137800576D01*
X104462204Y-137771355D01*
X104462200Y-137771351D01*
X104462199Y-137771351D01*
X103976497Y-138257053D01*
X103915174Y-138290538D01*
X103845482Y-138285554D01*
X103789549Y-138243682D01*
X103781430Y-138231374D01*
X103760080Y-138194394D01*
X103685606Y-138119920D01*
X103648625Y-138098569D01*
X103600410Y-138048003D01*
X103587186Y-137979396D01*
X103613154Y-137914531D01*
X103622933Y-137903512D01*
X104108646Y-137417798D01*
X104089183Y-137403658D01*
X104079415Y-137396561D01*
X104079413Y-137396560D01*
X103908321Y-137309383D01*
X103908317Y-137309381D01*
X103908312Y-137309379D01*
X103860064Y-137293703D01*
X103828385Y-137278127D01*
X103821265Y-137273258D01*
X103777040Y-137219167D01*
X103769078Y-137149753D01*
X103799909Y-137087053D01*
X103849502Y-137054146D01*
X104868410Y-136689758D01*
X104957936Y-136657742D01*
X104999692Y-136650500D01*
X111721658Y-136650500D01*
X111762809Y-136657527D01*
X112857525Y-137042657D01*
X112867268Y-137045974D01*
X112867529Y-137046059D01*
X112867714Y-137046121D01*
X112867721Y-137046123D01*
X112867739Y-137046129D01*
X112891699Y-137052332D01*
X112936837Y-137064018D01*
X112944054Y-137066122D01*
X112958881Y-137070940D01*
X113145514Y-137100500D01*
X113145519Y-137100500D01*
X113334485Y-137100500D01*
X113334486Y-137100500D01*
X113521118Y-137070940D01*
X113548475Y-137062051D01*
X113700832Y-137012547D01*
X113869199Y-136926760D01*
X114022073Y-136815690D01*
X114155690Y-136682073D01*
X114266760Y-136529199D01*
X114352547Y-136360832D01*
X114410940Y-136181118D01*
X114440251Y-135996055D01*
X114440500Y-135994486D01*
X114440500Y-135805513D01*
X114410940Y-135618881D01*
X114352545Y-135439163D01*
X114266759Y-135270800D01*
X114259144Y-135260319D01*
X114155690Y-135117927D01*
X114022073Y-134984310D01*
X113869199Y-134873240D01*
X113700836Y-134787454D01*
X113521118Y-134729059D01*
X113521112Y-134729058D01*
X113334491Y-134699500D01*
X113334486Y-134699500D01*
X113334481Y-134699500D01*
X113145519Y-134699500D01*
X113145514Y-134699500D01*
X113145509Y-134699500D01*
X112958880Y-134729059D01*
X112958877Y-134729059D01*
X112901173Y-134747809D01*
X112886947Y-134751515D01*
X112857527Y-134757341D01*
X112857515Y-134757345D01*
X111762808Y-135142472D01*
X111721656Y-135149500D01*
X104999691Y-135149500D01*
X104957935Y-135142258D01*
X104473629Y-134969057D01*
X103848466Y-134745481D01*
X103791972Y-134704372D01*
X103766670Y-134639245D01*
X103780596Y-134570777D01*
X103798850Y-134544898D01*
X103800586Y-134543006D01*
X103853627Y-134508914D01*
X103903890Y-134492583D01*
X103907634Y-134491527D01*
X103908501Y-134491084D01*
X103908504Y-134491084D01*
X103908504Y-134491083D01*
X103908507Y-134491082D01*
X103908509Y-134491082D01*
X104079681Y-134403865D01*
X104235102Y-134290945D01*
X104370945Y-134155102D01*
X104483865Y-133999681D01*
X104571082Y-133828509D01*
X104630447Y-133645801D01*
X104660500Y-133456055D01*
X104660500Y-133263945D01*
X104630447Y-133074199D01*
X104589666Y-132948686D01*
X104588954Y-132946494D01*
X104571085Y-132891497D01*
X104524958Y-132800968D01*
X104513293Y-132778075D01*
X104483865Y-132720319D01*
X104370945Y-132564898D01*
X104235102Y-132429055D01*
X104079681Y-132316135D01*
X104047033Y-132299500D01*
X104047033Y-132299499D01*
X104047031Y-132299499D01*
X103908510Y-132228917D01*
X103908500Y-132228913D01*
X103725804Y-132169553D01*
X103725805Y-132169553D01*
X103536059Y-132139500D01*
X103536055Y-132139500D01*
X103343945Y-132139500D01*
X103343938Y-132139500D01*
X103313156Y-132144374D01*
X103295562Y-132145887D01*
X103278048Y-132146140D01*
X103278039Y-132146141D01*
X102205666Y-132316135D01*
X101995026Y-132349526D01*
X101941752Y-132357971D01*
X101922338Y-132359500D01*
X100541453Y-132359500D01*
X100450707Y-132377550D01*
X100450693Y-132377554D01*
X100444812Y-132378724D01*
X100348167Y-132397947D01*
X100348161Y-132397949D01*
X100294834Y-132420037D01*
X100294834Y-132420038D01*
X100273061Y-132429057D01*
X100254374Y-132436797D01*
X100254365Y-132436800D01*
X100166083Y-132473368D01*
X100166080Y-132473370D01*
X100002218Y-132582859D01*
X100002216Y-132582860D01*
X99966695Y-132618384D01*
X97634506Y-134950573D01*
X97606255Y-134971722D01*
X97583167Y-134984330D01*
X97523737Y-134999500D01*
X84783613Y-134999500D01*
X84748677Y-134994477D01*
X84723435Y-134987065D01*
X84670690Y-134955769D01*
X84643135Y-134928214D01*
X84621983Y-134899958D01*
X84609376Y-134876869D01*
X84594209Y-134817444D01*
X84594209Y-134691866D01*
X84598436Y-134659765D01*
X84621264Y-134574592D01*
X84913114Y-133485655D01*
X84945203Y-133430081D01*
X85597213Y-132778072D01*
X85658532Y-132744590D01*
X85728224Y-132749574D01*
X85784157Y-132791446D01*
X85792277Y-132803756D01*
X85813626Y-132840734D01*
X85813628Y-132840736D01*
X85813629Y-132840738D01*
X85888103Y-132915212D01*
X85888104Y-132915213D01*
X85888106Y-132915214D01*
X85925082Y-132936562D01*
X85973297Y-132987128D01*
X85986521Y-133055735D01*
X85960553Y-133120600D01*
X85950763Y-133131630D01*
X85264601Y-133817789D01*
X85264602Y-133817789D01*
X85264602Y-133817790D01*
X85347537Y-133878046D01*
X85557906Y-133985234D01*
X85689491Y-134027989D01*
X85718961Y-134048139D01*
X85782458Y-134058196D01*
X85782461Y-134058197D01*
X85782460Y-134058197D01*
X86015657Y-134095132D01*
X86251760Y-134095132D01*
X86251761Y-134095132D01*
X86484956Y-134058197D01*
X86709511Y-133985234D01*
X86919872Y-133878050D01*
X86919878Y-133878046D01*
X86970218Y-133841472D01*
X86996956Y-133831931D01*
X87002814Y-133817789D01*
X86316653Y-133131630D01*
X86283168Y-133070307D01*
X86288152Y-133000616D01*
X86330023Y-132944682D01*
X86342323Y-132936569D01*
X86379315Y-132915212D01*
X86453789Y-132840738D01*
X86475139Y-132803757D01*
X86525703Y-132755543D01*
X86594310Y-132742318D01*
X86659175Y-132768285D01*
X86670207Y-132778076D01*
X87356364Y-133464235D01*
X87356364Y-133464234D01*
X87356366Y-133464236D01*
X87358344Y-133464080D01*
X87393552Y-133466345D01*
X87412825Y-133470394D01*
X87468871Y-133498325D01*
X87474190Y-133502967D01*
X87475614Y-133504210D01*
X87494389Y-133524741D01*
X87529191Y-133572641D01*
X87529192Y-133572642D01*
X87696199Y-133739649D01*
X87887276Y-133878475D01*
X87986700Y-133929134D01*
X88097712Y-133985698D01*
X88098585Y-133986143D01*
X88102339Y-133987202D01*
X88140747Y-133999681D01*
X88218119Y-134024820D01*
X88218120Y-134024821D01*
X88218121Y-134024821D01*
X88322340Y-134058685D01*
X88555612Y-134095632D01*
X88555617Y-134095632D01*
X88791805Y-134095632D01*
X88791806Y-134095632D01*
X89025077Y-134058685D01*
X89026579Y-134058197D01*
X89249701Y-133985700D01*
X89460142Y-133878475D01*
X89651219Y-133739649D01*
X89818226Y-133572642D01*
X89832911Y-133552428D01*
X89857507Y-133527118D01*
X89868501Y-133518641D01*
X89933608Y-133493293D01*
X90002081Y-133507166D01*
X90008260Y-133510426D01*
X90050716Y-133547213D01*
X90069187Y-133572636D01*
X90069191Y-133572641D01*
X90069192Y-133572642D01*
X90236199Y-133739649D01*
X90427276Y-133878475D01*
X90526700Y-133929134D01*
X90637712Y-133985698D01*
X90638585Y-133986143D01*
X90642339Y-133987202D01*
X90680747Y-133999681D01*
X90758119Y-134024820D01*
X90758120Y-134024821D01*
X90758121Y-134024821D01*
X90862340Y-134058685D01*
X91095612Y-134095632D01*
X91095617Y-134095632D01*
X91331805Y-134095632D01*
X91331806Y-134095632D01*
X91565077Y-134058685D01*
X91566579Y-134058197D01*
X91789701Y-133985700D01*
X92000142Y-133878475D01*
X92191219Y-133739649D01*
X92358226Y-133572642D01*
X92497052Y-133381565D01*
X92604277Y-133171124D01*
X92677262Y-132946500D01*
X92677271Y-132946446D01*
X92678837Y-132936562D01*
X92707507Y-132755543D01*
X92714209Y-132713229D01*
X92714209Y-132477034D01*
X92677262Y-132243763D01*
X92604275Y-132019135D01*
X92497051Y-131808698D01*
X92438115Y-131727580D01*
X92438115Y-131727579D01*
X92438114Y-131727579D01*
X92436984Y-131726024D01*
X92358226Y-131617622D01*
X92191219Y-131450615D01*
X92000142Y-131311789D01*
X91789705Y-131204565D01*
X91565077Y-131131578D01*
X91565071Y-131131577D01*
X91331811Y-131094632D01*
X91331806Y-131094632D01*
X91331801Y-131094632D01*
X91095617Y-131094632D01*
X91095612Y-131094632D01*
X91095607Y-131094632D01*
X90862345Y-131131577D01*
X90862343Y-131131577D01*
X90862340Y-131131578D01*
X90637712Y-131204565D01*
X90566681Y-131240757D01*
X90427275Y-131311788D01*
X90343756Y-131372470D01*
X90343755Y-131372470D01*
X90248069Y-131441990D01*
X90240690Y-131446122D01*
X90069196Y-131617615D01*
X90069190Y-131617622D01*
X90054505Y-131637835D01*
X90029905Y-131663147D01*
X90018915Y-131671621D01*
X89953805Y-131696968D01*
X89885344Y-131683099D01*
X89879162Y-131679838D01*
X89836696Y-131643044D01*
X89818231Y-131617628D01*
X89818227Y-131617623D01*
X89651221Y-131450617D01*
X89651219Y-131450615D01*
X89460142Y-131311789D01*
X89249705Y-131204565D01*
X89025077Y-131131578D01*
X89025071Y-131131577D01*
X88791811Y-131094632D01*
X88791806Y-131094632D01*
X88791801Y-131094632D01*
X88555617Y-131094632D01*
X88555612Y-131094632D01*
X88555607Y-131094632D01*
X88322345Y-131131577D01*
X88322343Y-131131577D01*
X88322340Y-131131578D01*
X88097712Y-131204565D01*
X88026681Y-131240757D01*
X87887275Y-131311788D01*
X87803756Y-131372470D01*
X87803755Y-131372470D01*
X87708069Y-131441990D01*
X87700690Y-131446122D01*
X87529190Y-131617622D01*
X87496639Y-131662425D01*
X87472043Y-131687734D01*
X87456454Y-131699755D01*
X87398813Y-131724233D01*
X87392611Y-131725148D01*
X87389965Y-131725538D01*
X87362152Y-131726480D01*
X87356369Y-131726024D01*
X87356366Y-131726025D01*
X86670206Y-132412185D01*
X86608883Y-132445670D01*
X86539191Y-132440686D01*
X86483258Y-132398814D01*
X86475139Y-132386506D01*
X86453789Y-132349526D01*
X86379315Y-132275052D01*
X86379314Y-132275051D01*
X86379311Y-132275049D01*
X86342335Y-132253701D01*
X86294119Y-132203134D01*
X86280897Y-132134527D01*
X86306865Y-132069662D01*
X86316648Y-132058638D01*
X87002814Y-131372472D01*
X87002813Y-131372470D01*
X86919883Y-131312219D01*
X86916089Y-131310286D01*
X86709515Y-131205030D01*
X86640108Y-131182478D01*
X86577924Y-131162273D01*
X86548455Y-131142123D01*
X86251766Y-131095132D01*
X86251761Y-131095132D01*
X86015657Y-131095132D01*
X86015652Y-131095132D01*
X85782464Y-131132065D01*
X85557903Y-131205030D01*
X85347534Y-131312218D01*
X85264603Y-131372471D01*
X85264602Y-131372472D01*
X85950764Y-132058633D01*
X85984249Y-132119956D01*
X85979265Y-132189647D01*
X85937393Y-132245581D01*
X85925083Y-132253701D01*
X85888106Y-132275049D01*
X85888101Y-132275053D01*
X85813630Y-132349524D01*
X85813624Y-132349532D01*
X85792277Y-132386506D01*
X85741710Y-132434721D01*
X85673102Y-132447943D01*
X85608238Y-132421975D01*
X85597210Y-132412186D01*
X84945205Y-131760181D01*
X84913114Y-131704603D01*
X84598436Y-130530496D01*
X84594209Y-130498396D01*
X84594209Y-125395162D01*
X84555821Y-125202180D01*
X84555821Y-125202181D01*
X84555761Y-125201879D01*
X84555760Y-125201878D01*
X84555520Y-125200673D01*
X84553444Y-125196282D01*
X84480344Y-125019801D01*
X84480337Y-125019788D01*
X84370848Y-124855927D01*
X84370845Y-124855923D01*
X84228395Y-124713473D01*
X84228379Y-124713458D01*
X84226934Y-124712013D01*
X84226934Y-124712012D01*
X84226902Y-124711982D01*
X83782543Y-124267623D01*
X83782501Y-124267580D01*
X83781468Y-124266547D01*
X83781459Y-124266537D01*
X83637785Y-124122863D01*
X83637784Y-124122862D01*
X83637783Y-124122861D01*
X83473914Y-124013367D01*
X83452651Y-124004560D01*
X83401315Y-123983296D01*
X83345165Y-123960038D01*
X83308236Y-123944742D01*
X83295883Y-123939625D01*
X83293334Y-123938461D01*
X83291829Y-123937946D01*
X83195188Y-123918724D01*
X83195188Y-123918723D01*
X83195185Y-123918723D01*
X83098546Y-123899500D01*
X83098544Y-123899500D01*
X83098541Y-123899500D01*
X74883612Y-123899500D01*
X74848676Y-123894477D01*
X74823434Y-123887065D01*
X74770689Y-123855769D01*
X70419180Y-119504260D01*
X70398031Y-119476010D01*
X70391501Y-119464051D01*
X70376650Y-119395781D01*
X70401066Y-119330317D01*
X70449830Y-119291377D01*
X70457381Y-119288010D01*
X70483685Y-119279644D01*
X70533497Y-119269737D01*
X70679179Y-119209394D01*
X70810289Y-119121789D01*
X70831579Y-119100499D01*
X70849718Y-119082361D01*
X70849724Y-119082357D01*
X70877963Y-119061217D01*
X70891689Y-119053722D01*
X70909116Y-119049930D01*
X70911043Y-119048879D01*
X70913230Y-119049035D01*
X70959946Y-119038871D01*
X70961756Y-119039000D01*
X71019953Y-119058366D01*
X71026471Y-119062555D01*
X71047107Y-119079186D01*
X71089702Y-119121782D01*
X71089707Y-119121786D01*
X71089711Y-119121789D01*
X71220814Y-119209390D01*
X71220827Y-119209397D01*
X71366498Y-119269735D01*
X71366503Y-119269737D01*
X71513994Y-119299075D01*
X71521153Y-119300499D01*
X71521156Y-119300500D01*
X71521158Y-119300500D01*
X71678844Y-119300500D01*
X71678845Y-119300499D01*
X71833497Y-119269737D01*
X71979179Y-119209394D01*
X72110289Y-119121789D01*
X72221789Y-119010289D01*
X72309394Y-118879179D01*
X72316092Y-118863006D01*
X72359930Y-118808605D01*
X72426223Y-118786538D01*
X72493923Y-118803815D01*
X72525153Y-118830174D01*
X72525454Y-118830528D01*
X72666988Y-118998347D01*
X72673388Y-119004654D01*
X72676501Y-119008318D01*
X72678216Y-119010296D01*
X72789701Y-119121781D01*
X72789707Y-119121786D01*
X72789711Y-119121789D01*
X72920814Y-119209390D01*
X72920827Y-119209397D01*
X73066498Y-119269735D01*
X73066503Y-119269737D01*
X73213994Y-119299075D01*
X73221153Y-119300499D01*
X73221156Y-119300500D01*
X73221158Y-119300500D01*
X73378844Y-119300500D01*
X73378845Y-119300499D01*
X73533497Y-119269737D01*
X73679179Y-119209394D01*
X73810289Y-119121789D01*
X73921789Y-119010289D01*
X74009394Y-118879179D01*
X74009395Y-118879176D01*
X74009397Y-118879173D01*
X74009405Y-118879151D01*
X74010096Y-118877742D01*
X74011073Y-118875127D01*
X74027600Y-118835226D01*
X74043870Y-118795944D01*
X74087709Y-118741541D01*
X74154003Y-118719475D01*
X74221702Y-118736753D01*
X74253220Y-118763452D01*
X74366986Y-118898345D01*
X74366989Y-118898348D01*
X74369479Y-118900802D01*
X74376118Y-118907877D01*
X74378216Y-118910296D01*
X74489701Y-119021781D01*
X74489707Y-119021786D01*
X74489711Y-119021789D01*
X74620814Y-119109390D01*
X74620827Y-119109397D01*
X74689363Y-119137785D01*
X74766503Y-119169737D01*
X74766505Y-119169737D01*
X74766510Y-119169739D01*
X74850279Y-119186401D01*
X74921153Y-119200499D01*
X74921156Y-119200500D01*
X74921158Y-119200500D01*
X75078844Y-119200500D01*
X75078845Y-119200499D01*
X75233497Y-119169737D01*
X75379179Y-119109394D01*
X75510289Y-119021789D01*
X75621789Y-118910289D01*
X75670908Y-118836775D01*
X75694491Y-118810523D01*
X75694768Y-118810292D01*
X75705138Y-118801625D01*
X75769201Y-118773739D01*
X75838165Y-118784912D01*
X75846325Y-118788815D01*
X75882436Y-118814978D01*
X75901797Y-118835226D01*
X75909319Y-118841398D01*
X75989707Y-118921786D01*
X75989711Y-118921789D01*
X76120814Y-119009390D01*
X76120827Y-119009397D01*
X76266498Y-119069735D01*
X76266503Y-119069737D01*
X76421153Y-119100499D01*
X76421156Y-119100500D01*
X76421158Y-119100500D01*
X76578844Y-119100500D01*
X76578845Y-119100499D01*
X76733497Y-119069737D01*
X76877021Y-119010288D01*
X76879172Y-119009397D01*
X76879172Y-119009396D01*
X76879179Y-119009394D01*
X76879183Y-119009390D01*
X76881520Y-119008423D01*
X76881521Y-119008422D01*
X76881526Y-119008421D01*
X76890792Y-119004583D01*
X76899678Y-118995697D01*
X77010289Y-118921789D01*
X77121786Y-118810292D01*
X77121789Y-118810289D01*
X77209394Y-118679179D01*
X77209395Y-118679176D01*
X77209397Y-118679173D01*
X77209405Y-118679151D01*
X77210095Y-118677745D01*
X77211066Y-118675142D01*
X77242794Y-118598544D01*
X77249026Y-118583495D01*
X77292861Y-118529091D01*
X77359153Y-118507020D01*
X77426854Y-118524294D01*
X77458380Y-118550998D01*
X77668393Y-118800013D01*
X77682108Y-118814978D01*
X77696034Y-118830174D01*
X77696521Y-118830705D01*
X77696520Y-118830705D01*
X77696524Y-118830708D01*
X77698057Y-118831861D01*
X77711182Y-118843261D01*
X77789707Y-118921786D01*
X77789711Y-118921789D01*
X77920814Y-119009390D01*
X77920827Y-119009397D01*
X78066498Y-119069735D01*
X78066503Y-119069737D01*
X78221153Y-119100499D01*
X78221156Y-119100500D01*
X78221158Y-119100500D01*
X78378844Y-119100500D01*
X78378845Y-119100499D01*
X78533497Y-119069737D01*
X78677021Y-119010288D01*
X78679172Y-119009397D01*
X78679172Y-119009396D01*
X78679179Y-119009394D01*
X78679183Y-119009390D01*
X78681520Y-119008423D01*
X78681521Y-119008422D01*
X78681526Y-119008421D01*
X78690792Y-119004583D01*
X78699678Y-118995697D01*
X78810289Y-118921789D01*
X78921786Y-118810292D01*
X78921789Y-118810289D01*
X79009394Y-118679179D01*
X79069737Y-118533497D01*
X79100500Y-118378842D01*
X79100500Y-118221158D01*
X79100500Y-118221155D01*
X79100500Y-118220973D01*
X79100065Y-118218972D01*
X79091103Y-118173918D01*
X79091103Y-118173917D01*
X79069738Y-118066510D01*
X79069737Y-118066503D01*
X79069735Y-118066498D01*
X79009397Y-117920827D01*
X79009390Y-117920814D01*
X78921789Y-117789711D01*
X78921786Y-117789707D01*
X78921781Y-117789701D01*
X78810289Y-117678209D01*
X78809588Y-117677601D01*
X78803291Y-117671385D01*
X78803192Y-117671487D01*
X78800022Y-117668401D01*
X78429006Y-117355495D01*
X78388441Y-117321283D01*
X78366648Y-117304080D01*
X78355803Y-117294435D01*
X78099426Y-117038058D01*
X78078274Y-117009802D01*
X78065667Y-116986713D01*
X78050500Y-116927288D01*
X78050500Y-113565282D01*
X78055522Y-113530350D01*
X78059170Y-113517925D01*
X78096943Y-113459146D01*
X78160498Y-113430120D01*
X78224784Y-113437961D01*
X78233370Y-113441446D01*
X78259621Y-113456024D01*
X78393567Y-113553343D01*
X78492991Y-113604002D01*
X78604003Y-113660566D01*
X78604876Y-113661011D01*
X78608630Y-113662070D01*
X78656335Y-113677569D01*
X78724410Y-113699688D01*
X78724411Y-113699689D01*
X78724412Y-113699689D01*
X78828631Y-113733553D01*
X79061903Y-113770500D01*
X79061908Y-113770500D01*
X79298096Y-113770500D01*
X79298097Y-113770500D01*
X79531368Y-113733553D01*
X79755992Y-113660568D01*
X79966433Y-113553343D01*
X80157510Y-113414517D01*
X80324517Y-113247510D01*
X80463343Y-113056433D01*
X80570568Y-112845992D01*
X80643553Y-112621368D01*
X80680500Y-112388097D01*
X80680500Y-112151902D01*
X80643553Y-111918631D01*
X80570566Y-111694003D01*
X80463342Y-111483566D01*
X80324517Y-111292490D01*
X80157510Y-111125483D01*
X80137294Y-111110795D01*
X80111988Y-111086203D01*
X80103509Y-111075208D01*
X80078161Y-111010102D01*
X80092036Y-110941624D01*
X80092035Y-110941624D01*
X80095300Y-110935437D01*
X80132082Y-110892991D01*
X80157510Y-110874517D01*
X80324517Y-110707510D01*
X80463343Y-110516433D01*
X80570568Y-110305992D01*
X80643553Y-110081368D01*
X80643571Y-110081251D01*
X80643580Y-110081252D01*
X80643599Y-110081171D01*
X80643597Y-110081088D01*
X80680500Y-109848097D01*
X80680500Y-109611902D01*
X80643553Y-109378631D01*
X80570566Y-109154003D01*
X80570564Y-109154000D01*
X80570564Y-109153998D01*
X80463477Y-108943830D01*
X80463474Y-108943823D01*
X80463345Y-108943569D01*
X80403277Y-108860894D01*
X80324517Y-108752490D01*
X80157510Y-108585483D01*
X80137294Y-108570795D01*
X80111988Y-108546203D01*
X80103509Y-108535208D01*
X80078161Y-108470102D01*
X80092036Y-108401624D01*
X80092035Y-108401624D01*
X80095300Y-108395437D01*
X80132082Y-108352991D01*
X80157510Y-108334517D01*
X80324517Y-108167510D01*
X80463343Y-107976433D01*
X80570568Y-107765992D01*
X80643553Y-107541368D01*
X80680500Y-107308097D01*
X80680500Y-107071902D01*
X80643553Y-106838631D01*
X80570566Y-106614003D01*
X80463342Y-106403566D01*
X80324517Y-106212490D01*
X80157510Y-106045483D01*
X80137294Y-106030795D01*
X80111988Y-106006203D01*
X80103509Y-105995208D01*
X80078161Y-105930102D01*
X80092036Y-105861624D01*
X80092035Y-105861624D01*
X80095300Y-105855437D01*
X80132082Y-105812991D01*
X80157510Y-105794517D01*
X80324517Y-105627510D01*
X80463343Y-105436433D01*
X80570568Y-105225992D01*
X80643553Y-105001368D01*
X80655476Y-104926088D01*
X80680500Y-104768097D01*
X80680500Y-104531902D01*
X80643553Y-104298631D01*
X80570566Y-104074003D01*
X80514002Y-103962991D01*
X80463343Y-103863567D01*
X80324517Y-103672490D01*
X80164120Y-103512093D01*
X80130635Y-103450770D01*
X80135619Y-103381078D01*
X80177491Y-103325145D01*
X80204295Y-103309873D01*
X81265090Y-102869959D01*
X81312591Y-102860500D01*
X91429940Y-102860500D01*
X91464872Y-102865521D01*
X91490116Y-102872934D01*
X91542862Y-102904230D01*
X91800573Y-103161941D01*
X91821723Y-103190193D01*
X91834331Y-103213282D01*
X91849500Y-103272711D01*
X91849500Y-115729551D01*
X91844237Y-115747471D01*
X91878338Y-115918899D01*
X91878341Y-115918911D01*
X91878346Y-115918926D01*
X91926889Y-116036116D01*
X91927833Y-116044896D01*
X91953261Y-116082952D01*
X92017046Y-116178414D01*
X92017052Y-116178421D01*
X94200499Y-118361867D01*
X100421585Y-124582952D01*
X100445429Y-124598883D01*
X100445433Y-124598886D01*
X100462373Y-124610205D01*
X100544505Y-124665084D01*
X100544507Y-124665085D01*
X100544511Y-124665087D01*
X100601079Y-124688518D01*
X100601080Y-124688518D01*
X100681088Y-124721659D01*
X100719453Y-124729290D01*
X100797237Y-124744763D01*
X100816425Y-124748579D01*
X100816443Y-124748582D01*
X100816468Y-124748587D01*
X100826081Y-124750500D01*
X100826082Y-124750500D01*
X108173920Y-124750500D01*
X108271462Y-124731096D01*
X108318913Y-124721658D01*
X108455495Y-124665084D01*
X108504729Y-124632186D01*
X108578416Y-124582952D01*
X115682952Y-117478416D01*
X115752774Y-117373918D01*
X115765084Y-117355495D01*
X115821658Y-117218913D01*
X115850500Y-117073918D01*
X115850500Y-103580059D01*
X115855522Y-103545126D01*
X115862934Y-103519881D01*
X115894228Y-103467139D01*
X116451944Y-102909423D01*
X116480194Y-102888275D01*
X116503286Y-102875667D01*
X116562711Y-102860500D01*
X117047408Y-102860500D01*
X117094909Y-102869959D01*
X118155699Y-103309872D01*
X118210083Y-103353735D01*
X118232120Y-103420038D01*
X118214812Y-103487730D01*
X118195878Y-103512093D01*
X118030990Y-103676981D01*
X118026860Y-103684356D01*
X118008205Y-103710034D01*
X118008203Y-103710038D01*
X117896657Y-103863566D01*
X117789433Y-104074003D01*
X117716446Y-104298631D01*
X117716445Y-104298634D01*
X117716445Y-104298636D01*
X117679500Y-104531896D01*
X117679500Y-104768102D01*
X117704522Y-104926083D01*
X117716446Y-105001368D01*
X117789433Y-105225996D01*
X117789434Y-105225997D01*
X117789435Y-105226001D01*
X117827883Y-105301457D01*
X117827883Y-105301459D01*
X117827884Y-105301459D01*
X117896657Y-105436433D01*
X118035483Y-105627510D01*
X118035486Y-105627513D01*
X118202486Y-105794514D01*
X118202495Y-105794521D01*
X118222703Y-105809204D01*
X118248015Y-105833804D01*
X118256489Y-105844794D01*
X118281836Y-105909904D01*
X118267959Y-105978381D01*
X118267956Y-105978387D01*
X118264695Y-105984566D01*
X118227926Y-106027001D01*
X118219375Y-106033215D01*
X118219367Y-106033220D01*
X118202491Y-106045481D01*
X118202485Y-106045486D01*
X118030991Y-106216980D01*
X118026858Y-106224361D01*
X117975862Y-106294550D01*
X117975861Y-106294549D01*
X117896659Y-106403562D01*
X117896657Y-106403566D01*
X117789433Y-106614003D01*
X117716446Y-106838631D01*
X117716445Y-106838634D01*
X117716445Y-106838636D01*
X117679500Y-107071896D01*
X117679500Y-107308102D01*
X117716445Y-107541362D01*
X117716446Y-107541368D01*
X117789433Y-107765996D01*
X117896657Y-107976433D01*
X118035483Y-108167510D01*
X118035486Y-108167513D01*
X118202486Y-108334514D01*
X118202495Y-108334521D01*
X118222703Y-108349204D01*
X118248015Y-108373804D01*
X118256489Y-108384794D01*
X118281836Y-108449904D01*
X118267959Y-108518381D01*
X118267956Y-108518387D01*
X118264695Y-108524566D01*
X118227926Y-108567001D01*
X118219375Y-108573215D01*
X118219367Y-108573220D01*
X118202491Y-108585481D01*
X118202485Y-108585486D01*
X118030991Y-108756980D01*
X118026858Y-108764361D01*
X117975862Y-108834550D01*
X117975861Y-108834549D01*
X117896659Y-108943562D01*
X117896522Y-108943830D01*
X117789433Y-109154003D01*
X117716446Y-109378631D01*
X117716445Y-109378634D01*
X117716445Y-109378636D01*
X117679500Y-109611896D01*
X117679500Y-109848102D01*
X117711491Y-110050082D01*
X117716446Y-110081368D01*
X117776599Y-110266498D01*
X117789436Y-110306005D01*
X117896484Y-110516095D01*
X117896519Y-110516163D01*
X117896524Y-110516172D01*
X117896659Y-110516437D01*
X117933039Y-110566509D01*
X118035483Y-110707510D01*
X118035486Y-110707513D01*
X118202486Y-110874514D01*
X118202495Y-110874521D01*
X118222703Y-110889204D01*
X118248015Y-110913804D01*
X118256489Y-110924794D01*
X118281836Y-110989904D01*
X118267959Y-111058381D01*
X118267956Y-111058387D01*
X118264695Y-111064566D01*
X118227926Y-111107001D01*
X118219375Y-111113215D01*
X118219367Y-111113220D01*
X118202491Y-111125481D01*
X118202485Y-111125486D01*
X118030991Y-111296980D01*
X118026858Y-111304361D01*
X117975862Y-111374550D01*
X117975861Y-111374549D01*
X117896659Y-111483562D01*
X117896657Y-111483566D01*
X117789433Y-111694003D01*
X117716446Y-111918631D01*
X117716445Y-111918634D01*
X117716445Y-111918636D01*
X117679500Y-112151896D01*
X117679500Y-112388102D01*
X117716445Y-112621362D01*
X117716446Y-112621368D01*
X117789433Y-112845996D01*
X117896657Y-113056433D01*
X118035483Y-113247510D01*
X118202490Y-113414517D01*
X118393567Y-113553343D01*
X118492991Y-113604002D01*
X118604003Y-113660566D01*
X118604876Y-113661011D01*
X118608630Y-113662070D01*
X118656335Y-113677569D01*
X118724410Y-113699688D01*
X118724411Y-113699689D01*
X118724412Y-113699689D01*
X118828631Y-113733553D01*
X119061903Y-113770500D01*
X119061908Y-113770500D01*
X119298096Y-113770500D01*
X119298097Y-113770500D01*
X119531368Y-113733553D01*
X119755992Y-113660568D01*
X119966433Y-113553343D01*
X120157510Y-113414517D01*
X120324517Y-113247510D01*
X120463343Y-113056433D01*
X120570568Y-112845992D01*
X120643553Y-112621368D01*
X120680500Y-112388097D01*
X120680500Y-112151902D01*
X120643553Y-111918631D01*
X120570566Y-111694003D01*
X120463342Y-111483566D01*
X120324517Y-111292490D01*
X120157510Y-111125483D01*
X120137294Y-111110795D01*
X120111988Y-111086203D01*
X120103509Y-111075208D01*
X120078161Y-111010102D01*
X120092036Y-110941624D01*
X120092035Y-110941624D01*
X120095300Y-110935437D01*
X120132082Y-110892991D01*
X120157510Y-110874517D01*
X120324517Y-110707510D01*
X120463343Y-110516433D01*
X120570568Y-110305992D01*
X120643553Y-110081368D01*
X120643571Y-110081251D01*
X120643580Y-110081252D01*
X120643599Y-110081171D01*
X120643597Y-110081088D01*
X120680500Y-109848097D01*
X120680500Y-109611902D01*
X120643553Y-109378631D01*
X120570566Y-109154003D01*
X120570564Y-109154000D01*
X120570564Y-109153998D01*
X120463477Y-108943830D01*
X120463474Y-108943823D01*
X120463345Y-108943569D01*
X120403277Y-108860894D01*
X120324517Y-108752490D01*
X120157510Y-108585483D01*
X120137294Y-108570795D01*
X120111988Y-108546203D01*
X120103509Y-108535208D01*
X120078161Y-108470102D01*
X120092036Y-108401624D01*
X120092035Y-108401624D01*
X120095300Y-108395437D01*
X120132082Y-108352991D01*
X120157510Y-108334517D01*
X120324517Y-108167510D01*
X120463343Y-107976433D01*
X120570568Y-107765992D01*
X120643553Y-107541368D01*
X120680500Y-107308097D01*
X120680500Y-107071902D01*
X120643553Y-106838631D01*
X120570566Y-106614003D01*
X120463342Y-106403566D01*
X120324517Y-106212490D01*
X120157510Y-106045483D01*
X120137294Y-106030795D01*
X120111988Y-106006203D01*
X120103509Y-105995208D01*
X120078161Y-105930102D01*
X120092036Y-105861624D01*
X120092035Y-105861624D01*
X120095300Y-105855437D01*
X120132082Y-105812991D01*
X120157510Y-105794517D01*
X120324517Y-105627510D01*
X120463343Y-105436433D01*
X120570568Y-105225992D01*
X120643553Y-105001368D01*
X120655476Y-104926088D01*
X120680500Y-104768097D01*
X120680500Y-104531902D01*
X120643553Y-104298631D01*
X120570566Y-104074003D01*
X120514002Y-103962991D01*
X120463343Y-103863567D01*
X120324517Y-103672490D01*
X120157510Y-103505483D01*
X120137294Y-103490795D01*
X120111988Y-103466203D01*
X120103509Y-103455208D01*
X120078161Y-103390102D01*
X120092036Y-103321624D01*
X120092035Y-103321624D01*
X120095300Y-103315437D01*
X120132082Y-103272991D01*
X120157510Y-103254517D01*
X120324517Y-103087510D01*
X120463343Y-102896433D01*
X120570568Y-102685992D01*
X120643553Y-102461368D01*
X120680500Y-102228097D01*
X120680500Y-101991902D01*
X120643553Y-101758631D01*
X120570566Y-101534003D01*
X120496346Y-101388340D01*
X120463343Y-101323567D01*
X120324517Y-101132490D01*
X120157510Y-100965483D01*
X120137294Y-100950795D01*
X120111988Y-100926203D01*
X120103509Y-100915208D01*
X120078161Y-100850102D01*
X120092036Y-100781624D01*
X120092035Y-100781624D01*
X120095300Y-100775437D01*
X120132082Y-100732991D01*
X120157510Y-100714517D01*
X120324517Y-100547510D01*
X120463343Y-100356433D01*
X120570568Y-100145992D01*
X120643553Y-99921368D01*
X120680500Y-99688097D01*
X120680500Y-99451902D01*
X120643553Y-99218631D01*
X120570566Y-98994003D01*
X120481835Y-98819860D01*
X120463343Y-98783567D01*
X120324517Y-98592490D01*
X120157510Y-98425483D01*
X120137294Y-98410795D01*
X120111988Y-98386203D01*
X120103509Y-98375208D01*
X120078161Y-98310102D01*
X120092036Y-98241624D01*
X120092035Y-98241624D01*
X120095300Y-98235437D01*
X120132082Y-98192991D01*
X120157510Y-98174517D01*
X120324517Y-98007510D01*
X120463343Y-97816433D01*
X120570568Y-97605992D01*
X120643553Y-97381368D01*
X120659215Y-97282482D01*
X120680500Y-97148097D01*
X120680500Y-96911902D01*
X120643553Y-96678631D01*
X120570566Y-96454003D01*
X120496346Y-96308340D01*
X120463343Y-96243567D01*
X120324517Y-96052490D01*
X120157510Y-95885483D01*
X120137294Y-95870795D01*
X120111988Y-95846203D01*
X120103509Y-95835208D01*
X120078161Y-95770102D01*
X120092036Y-95701624D01*
X120092035Y-95701624D01*
X120095300Y-95695437D01*
X120132082Y-95652991D01*
X120157510Y-95634517D01*
X120324517Y-95467510D01*
X120463343Y-95276433D01*
X120570568Y-95065992D01*
X120643553Y-94841368D01*
X120662525Y-94721584D01*
X120680500Y-94608097D01*
X120680500Y-94371902D01*
X120643553Y-94138631D01*
X120586236Y-93962229D01*
X120570568Y-93914008D01*
X120570566Y-93914005D01*
X120570566Y-93914003D01*
X120568328Y-93909611D01*
X120568018Y-93908816D01*
X120567283Y-93907559D01*
X120484573Y-93745234D01*
X120463343Y-93703567D01*
X120324517Y-93512490D01*
X120157510Y-93345483D01*
X120137294Y-93330795D01*
X120111988Y-93306203D01*
X120103509Y-93295208D01*
X120078161Y-93230102D01*
X120092036Y-93161624D01*
X120092035Y-93161624D01*
X120095300Y-93155437D01*
X120132082Y-93112991D01*
X120157510Y-93094517D01*
X120324517Y-92927510D01*
X120463343Y-92736433D01*
X120570568Y-92525992D01*
X120643553Y-92301368D01*
X120656908Y-92217049D01*
X120680500Y-92068097D01*
X120680500Y-91831902D01*
X120643553Y-91598631D01*
X120590358Y-91434916D01*
X120590357Y-91434914D01*
X120573178Y-91382041D01*
X120570568Y-91374008D01*
X120570566Y-91374005D01*
X120570566Y-91374003D01*
X120568326Y-91369607D01*
X120568014Y-91368807D01*
X120567281Y-91367556D01*
X120551136Y-91335871D01*
X120496346Y-91228340D01*
X120463343Y-91163567D01*
X120324517Y-90972490D01*
X120157510Y-90805483D01*
X120137294Y-90790795D01*
X120111988Y-90766203D01*
X120103509Y-90755208D01*
X120078161Y-90690102D01*
X120092036Y-90621624D01*
X120092035Y-90621624D01*
X120095300Y-90615437D01*
X120132082Y-90572991D01*
X120157510Y-90554517D01*
X120324517Y-90387510D01*
X120463343Y-90196433D01*
X120570568Y-89985992D01*
X120643553Y-89761368D01*
X120680500Y-89528097D01*
X120680500Y-89291902D01*
X120643553Y-89058631D01*
X120570566Y-88834003D01*
X120491251Y-88678340D01*
X120463343Y-88623567D01*
X120324517Y-88432490D01*
X120157510Y-88265483D01*
X120137294Y-88250795D01*
X120111988Y-88226203D01*
X120103509Y-88215208D01*
X120078161Y-88150102D01*
X120092036Y-88081624D01*
X120092035Y-88081624D01*
X120095300Y-88075437D01*
X120132082Y-88032991D01*
X120157510Y-88014517D01*
X120324517Y-87847510D01*
X120463343Y-87656433D01*
X120570568Y-87445992D01*
X120643553Y-87221368D01*
X120654838Y-87150117D01*
X120675195Y-87021590D01*
X120675195Y-87021589D01*
X120680500Y-86988095D01*
X120680500Y-86751902D01*
X120680499Y-86751896D01*
X120643553Y-86518631D01*
X120570566Y-86294003D01*
X120496346Y-86148340D01*
X120463343Y-86083567D01*
X120324517Y-85892490D01*
X120157510Y-85725483D01*
X120137294Y-85710795D01*
X120111988Y-85686203D01*
X120103509Y-85675208D01*
X120078161Y-85610102D01*
X120092033Y-85541628D01*
X120095295Y-85535445D01*
X120132085Y-85492988D01*
X120137892Y-85488770D01*
X120157510Y-85474517D01*
X120324517Y-85307510D01*
X120463343Y-85116433D01*
X120570568Y-84905992D01*
X120643553Y-84681368D01*
X120680500Y-84448097D01*
X120680500Y-84211902D01*
X120643553Y-83978631D01*
X120570566Y-83754003D01*
X120481652Y-83579501D01*
X120463343Y-83543567D01*
X120324517Y-83352490D01*
X120157510Y-83185483D01*
X120137294Y-83170795D01*
X120111988Y-83146203D01*
X120103509Y-83135208D01*
X120078161Y-83070102D01*
X120092036Y-83001624D01*
X120092035Y-83001624D01*
X120095300Y-82995437D01*
X120132082Y-82952991D01*
X120157510Y-82934517D01*
X120324517Y-82767510D01*
X120463343Y-82576433D01*
X120570568Y-82365992D01*
X120643553Y-82141368D01*
X120680500Y-81908097D01*
X120680500Y-81671903D01*
X120677261Y-81651455D01*
X120677261Y-81651454D01*
X120674737Y-81635521D01*
X125929500Y-81635521D01*
X125929500Y-81944477D01*
X125964083Y-82251422D01*
X125964089Y-82251457D01*
X125990232Y-82365996D01*
X126032831Y-82552635D01*
X126032832Y-82552638D01*
X126032835Y-82552650D01*
X126032842Y-82552671D01*
X126134859Y-82844216D01*
X126134862Y-82844222D01*
X126134868Y-82844236D01*
X126226916Y-83035375D01*
X126268902Y-83122560D01*
X126269106Y-83122918D01*
X126269792Y-83123977D01*
X126308440Y-83185485D01*
X126433265Y-83384143D01*
X126489958Y-83455234D01*
X126534812Y-83511479D01*
X126534812Y-83511480D01*
X126618996Y-83617044D01*
X126625873Y-83625666D01*
X126625879Y-83625672D01*
X126625880Y-83625674D01*
X126844326Y-83844120D01*
X127085857Y-84036735D01*
X127347435Y-84201095D01*
X127625771Y-84335135D01*
X127625775Y-84335136D01*
X127625877Y-84335178D01*
X127626639Y-84335438D01*
X127654324Y-84345126D01*
X127917327Y-84437156D01*
X127917348Y-84437163D01*
X127917352Y-84437164D01*
X127917364Y-84437168D01*
X128142889Y-84488642D01*
X128217381Y-84505645D01*
X128217380Y-84505645D01*
X128218539Y-84505909D01*
X128218548Y-84505911D01*
X128218554Y-84505911D01*
X128218562Y-84505913D01*
X128423206Y-84528970D01*
X128522520Y-84540159D01*
X128524994Y-84540500D01*
X128834468Y-84540500D01*
X128844262Y-84540500D01*
X128851860Y-84538539D01*
X128991356Y-84522822D01*
X129140751Y-84505990D01*
X129141379Y-84505923D01*
X129141447Y-84505911D01*
X129141452Y-84505911D01*
X129442636Y-84437168D01*
X129734229Y-84335135D01*
X130012565Y-84201095D01*
X130274143Y-84036735D01*
X130515674Y-83844120D01*
X130734120Y-83625674D01*
X130926735Y-83384143D01*
X131091095Y-83122565D01*
X131225135Y-82844229D01*
X131327168Y-82552636D01*
X131395911Y-82251452D01*
X131408315Y-82141368D01*
X131430437Y-81945020D01*
X131430500Y-81944485D01*
X131430500Y-81635511D01*
X131430435Y-81634961D01*
X131395913Y-81328562D01*
X131395910Y-81328544D01*
X131368179Y-81207048D01*
X131327168Y-81027364D01*
X131324526Y-81019815D01*
X131225417Y-80736578D01*
X131225177Y-80735876D01*
X131225133Y-80735767D01*
X131091096Y-80457437D01*
X131091095Y-80457435D01*
X130926735Y-80195857D01*
X130734120Y-79954326D01*
X130515674Y-79735880D01*
X130515671Y-79735878D01*
X130454334Y-79686963D01*
X130274143Y-79543265D01*
X130013977Y-79379792D01*
X130012918Y-79379106D01*
X130012560Y-79378902D01*
X129984917Y-79365589D01*
X129734236Y-79244868D01*
X129734227Y-79244864D01*
X129734216Y-79244859D01*
X129442671Y-79142842D01*
X129442650Y-79142835D01*
X129442638Y-79142832D01*
X129442635Y-79142831D01*
X129319601Y-79114749D01*
X129141457Y-79074089D01*
X129141422Y-79074083D01*
X128834477Y-79039500D01*
X128834471Y-79039500D01*
X128834465Y-79039500D01*
X128525535Y-79039500D01*
X128525528Y-79039500D01*
X128525521Y-79039500D01*
X128218576Y-79074083D01*
X128218541Y-79074089D01*
X127917360Y-79142832D01*
X127917348Y-79142835D01*
X127917327Y-79142842D01*
X127625782Y-79244859D01*
X127625767Y-79244865D01*
X127625765Y-79244866D01*
X127347442Y-79378899D01*
X127085859Y-79543263D01*
X126844326Y-79735878D01*
X126625878Y-79954326D01*
X126433263Y-80195859D01*
X126268899Y-80457442D01*
X126134866Y-80735765D01*
X126134865Y-80735767D01*
X126134859Y-80735782D01*
X126032842Y-81027327D01*
X126032835Y-81027348D01*
X126032832Y-81027360D01*
X125964089Y-81328541D01*
X125964083Y-81328576D01*
X125929500Y-81635521D01*
X120674737Y-81635521D01*
X120643553Y-81438631D01*
X120570566Y-81214003D01*
X120496346Y-81068340D01*
X120463343Y-81003567D01*
X120324517Y-80812490D01*
X120157510Y-80645483D01*
X120137294Y-80630795D01*
X120111988Y-80606203D01*
X120103509Y-80595208D01*
X120078161Y-80530102D01*
X120092036Y-80461624D01*
X120092035Y-80461624D01*
X120095300Y-80455437D01*
X120132082Y-80412991D01*
X120157510Y-80394517D01*
X120324517Y-80227510D01*
X120463343Y-80036433D01*
X120570568Y-79825992D01*
X120643553Y-79601368D01*
X120652756Y-79543264D01*
X120680500Y-79368097D01*
X120680500Y-79131902D01*
X120643553Y-78898631D01*
X120570566Y-78674003D01*
X120496346Y-78528340D01*
X120463343Y-78463567D01*
X120324517Y-78272490D01*
X120157510Y-78105483D01*
X120075357Y-78045795D01*
X120050049Y-78021200D01*
X120041574Y-78010209D01*
X120016225Y-77945102D01*
X120030100Y-77876624D01*
X120030101Y-77876621D01*
X120033363Y-77870439D01*
X120070142Y-77827992D01*
X120157510Y-77764517D01*
X120324517Y-77597510D01*
X120463343Y-77406433D01*
X120570568Y-77195992D01*
X120643553Y-76971368D01*
X120680500Y-76738097D01*
X120680500Y-76501902D01*
X120643553Y-76268631D01*
X120570566Y-76044003D01*
X120463342Y-75833566D01*
X120324517Y-75642490D01*
X120157510Y-75475483D01*
X119966433Y-75336657D01*
X119755996Y-75229433D01*
X119531368Y-75156446D01*
X119531362Y-75156445D01*
X119298102Y-75119500D01*
X119298097Y-75119500D01*
X119298092Y-75119500D01*
X119061908Y-75119500D01*
X119061903Y-75119500D01*
X119061898Y-75119500D01*
X118828636Y-75156445D01*
X118828634Y-75156445D01*
X118828631Y-75156446D01*
X118604003Y-75229433D01*
X118408210Y-75329195D01*
X118393562Y-75336659D01*
X118284549Y-75415861D01*
X118284550Y-75415862D01*
X118214361Y-75466858D01*
X118206980Y-75470991D01*
X118030991Y-75646980D01*
X118026858Y-75654361D01*
X117975862Y-75724550D01*
X117975861Y-75724549D01*
X117896659Y-75833562D01*
X117896657Y-75833566D01*
X117789433Y-76044003D01*
X117716446Y-76268631D01*
X117716445Y-76268634D01*
X117716445Y-76268636D01*
X117679500Y-76501896D01*
X117679500Y-76738102D01*
X117716445Y-76971362D01*
X117716446Y-76971368D01*
X117789433Y-77195996D01*
X117896657Y-77406433D01*
X118035483Y-77597510D01*
X118202490Y-77764517D01*
X118202493Y-77764519D01*
X118256703Y-77803905D01*
X118299369Y-77859235D01*
X118305348Y-77928848D01*
X118272742Y-77990643D01*
X118231319Y-78018764D01*
X117094905Y-78490041D01*
X117047404Y-78499500D01*
X108076078Y-78499500D01*
X107931096Y-78528338D01*
X107931079Y-78528344D01*
X107794517Y-78584908D01*
X107794508Y-78584913D01*
X107794491Y-78584923D01*
X107671581Y-78667049D01*
X107671580Y-78667050D01*
X107671574Y-78667055D01*
X105685617Y-80653013D01*
X105657361Y-80674165D01*
X105643640Y-80681657D01*
X105575376Y-80696509D01*
X105571066Y-80696201D01*
X105505600Y-80671788D01*
X105492224Y-80660197D01*
X105477509Y-80645482D01*
X105454665Y-80628885D01*
X105424566Y-80597632D01*
X105418613Y-80588755D01*
X105397623Y-80522112D01*
X105411930Y-80461823D01*
X105414242Y-80457442D01*
X105415297Y-80455441D01*
X105452081Y-80412991D01*
X105477510Y-80394517D01*
X105644517Y-80227510D01*
X105783343Y-80036433D01*
X105890568Y-79825992D01*
X105963553Y-79601368D01*
X105972756Y-79543264D01*
X106000500Y-79368097D01*
X106000500Y-79131902D01*
X105963553Y-78898631D01*
X105890566Y-78674003D01*
X105816346Y-78528340D01*
X105783343Y-78463567D01*
X105644517Y-78272490D01*
X105477510Y-78105483D01*
X105395357Y-78045795D01*
X105370049Y-78021200D01*
X105361574Y-78010209D01*
X105336225Y-77945102D01*
X105350100Y-77876624D01*
X105350101Y-77876621D01*
X105353363Y-77870439D01*
X105390142Y-77827992D01*
X105477510Y-77764517D01*
X105644517Y-77597510D01*
X105783343Y-77406433D01*
X105890568Y-77195992D01*
X105963553Y-76971368D01*
X106000500Y-76738097D01*
X106000500Y-76501902D01*
X105963553Y-76268631D01*
X105890566Y-76044003D01*
X105783342Y-75833566D01*
X105644517Y-75642490D01*
X105477510Y-75475483D01*
X105286433Y-75336657D01*
X105075996Y-75229433D01*
X104851368Y-75156446D01*
X104851362Y-75156445D01*
X104618102Y-75119500D01*
X104618097Y-75119500D01*
X104618092Y-75119500D01*
X104381908Y-75119500D01*
X104381903Y-75119500D01*
X104381898Y-75119500D01*
X104148636Y-75156445D01*
X104148634Y-75156445D01*
X104148631Y-75156446D01*
X103924003Y-75229433D01*
X103728210Y-75329195D01*
X103713562Y-75336659D01*
X103604549Y-75415861D01*
X103604550Y-75415862D01*
X103534361Y-75466858D01*
X103526980Y-75470991D01*
X103350991Y-75646980D01*
X103346858Y-75654361D01*
X103295862Y-75724550D01*
X103295861Y-75724549D01*
X103216659Y-75833562D01*
X103216657Y-75833566D01*
X103109433Y-76044003D01*
X103036446Y-76268631D01*
X103036445Y-76268634D01*
X103036445Y-76268636D01*
X102999500Y-76501896D01*
X102999500Y-76738102D01*
X103036445Y-76971362D01*
X103036446Y-76971368D01*
X103109433Y-77195996D01*
X103216657Y-77406433D01*
X103355483Y-77597510D01*
X103522490Y-77764517D01*
X103522493Y-77764519D01*
X103604638Y-77824201D01*
X103629946Y-77848795D01*
X103638422Y-77859786D01*
X103663774Y-77924894D01*
X103649901Y-77993373D01*
X103649890Y-77993393D01*
X103646628Y-77999573D01*
X103609854Y-78042007D01*
X103534360Y-78096858D01*
X103526981Y-78100990D01*
X103350991Y-78276980D01*
X103346858Y-78284361D01*
X103295862Y-78354550D01*
X103295861Y-78354549D01*
X103216659Y-78463562D01*
X103216657Y-78463566D01*
X103109433Y-78674003D01*
X103036446Y-78898631D01*
X103036445Y-78898634D01*
X103036445Y-78898636D01*
X102999500Y-79131896D01*
X102999500Y-79368102D01*
X103036445Y-79601362D01*
X103036446Y-79601368D01*
X103109433Y-79825996D01*
X103174821Y-79954326D01*
X103216657Y-80036433D01*
X103355483Y-80227510D01*
X103355486Y-80227513D01*
X103522486Y-80394514D01*
X103522495Y-80394521D01*
X103542703Y-80409204D01*
X103568015Y-80433804D01*
X103576489Y-80444794D01*
X103601836Y-80509904D01*
X103587959Y-80578381D01*
X103587956Y-80578387D01*
X103584695Y-80584566D01*
X103547926Y-80627001D01*
X103539375Y-80633215D01*
X103539367Y-80633220D01*
X103522491Y-80645481D01*
X103522485Y-80645486D01*
X103355480Y-80812491D01*
X103355476Y-80812496D01*
X103332789Y-80843723D01*
X103308190Y-80869035D01*
X103297199Y-80877510D01*
X103232089Y-80902858D01*
X103163613Y-80888982D01*
X103152096Y-80882905D01*
X103122288Y-80860920D01*
X103078417Y-80817050D01*
X103078416Y-80817049D01*
X100928429Y-78667060D01*
X100928424Y-78667055D01*
X100928421Y-78667052D01*
X100928414Y-78667046D01*
X100854730Y-78617813D01*
X100805493Y-78584914D01*
X100805488Y-78584912D01*
X100788571Y-78577904D01*
X100668932Y-78528348D01*
X100668921Y-78528345D01*
X100668917Y-78528343D01*
X100668907Y-78528340D01*
X100668904Y-78528339D01*
X100668900Y-78528338D01*
X100523922Y-78499500D01*
X100523920Y-78499500D01*
X100523918Y-78499500D01*
X81312594Y-78499500D01*
X81265093Y-78490041D01*
X80128679Y-78018765D01*
X80074294Y-77974901D01*
X80052257Y-77908598D01*
X80069565Y-77840906D01*
X80103291Y-77803909D01*
X80157510Y-77764517D01*
X80324517Y-77597510D01*
X80463343Y-77406433D01*
X80570568Y-77195992D01*
X80643553Y-76971368D01*
X80680500Y-76738097D01*
X80680500Y-76501902D01*
X80643553Y-76268631D01*
X80570566Y-76044003D01*
X80463342Y-75833566D01*
X80324517Y-75642490D01*
X80157510Y-75475483D01*
X79966433Y-75336657D01*
X79755996Y-75229433D01*
X79531368Y-75156446D01*
X79531362Y-75156445D01*
X79298102Y-75119500D01*
X79298097Y-75119500D01*
X79298092Y-75119500D01*
X79061908Y-75119500D01*
X79061903Y-75119500D01*
X79061898Y-75119500D01*
X78828636Y-75156445D01*
X78828634Y-75156445D01*
X78828631Y-75156446D01*
X78604003Y-75229433D01*
X78408210Y-75329195D01*
X78393562Y-75336659D01*
X78284549Y-75415861D01*
X78284550Y-75415862D01*
X78214361Y-75466858D01*
X78206980Y-75470991D01*
X78030991Y-75646980D01*
X78026858Y-75654361D01*
X77975862Y-75724550D01*
X77975861Y-75724549D01*
X77896659Y-75833562D01*
X77896657Y-75833566D01*
X77789433Y-76044003D01*
X77716446Y-76268631D01*
X77716445Y-76268634D01*
X77716445Y-76268636D01*
X77679500Y-76501896D01*
X77679500Y-76738102D01*
X77716445Y-76971362D01*
X77716446Y-76971368D01*
X77789433Y-77195996D01*
X77896657Y-77406433D01*
X78035483Y-77597510D01*
X78202490Y-77764517D01*
X78202493Y-77764519D01*
X78284638Y-77824201D01*
X78309946Y-77848795D01*
X78318422Y-77859786D01*
X78343774Y-77924894D01*
X78329901Y-77993373D01*
X78329890Y-77993393D01*
X78326628Y-77999573D01*
X78289854Y-78042007D01*
X78214360Y-78096858D01*
X78206981Y-78100990D01*
X78030991Y-78276980D01*
X78026858Y-78284361D01*
X77975862Y-78354550D01*
X77975861Y-78354549D01*
X77896659Y-78463562D01*
X77896657Y-78463566D01*
X77789433Y-78674003D01*
X77716446Y-78898631D01*
X77716445Y-78898634D01*
X77716445Y-78898636D01*
X77679500Y-79131896D01*
X77679500Y-79368102D01*
X77716445Y-79601362D01*
X77716446Y-79601368D01*
X77789433Y-79825996D01*
X77854821Y-79954326D01*
X77896657Y-80036433D01*
X78035483Y-80227510D01*
X78035486Y-80227513D01*
X78202486Y-80394514D01*
X78202495Y-80394521D01*
X78222703Y-80409204D01*
X78248015Y-80433804D01*
X78256489Y-80444794D01*
X78281836Y-80509904D01*
X78267959Y-80578381D01*
X78267956Y-80578387D01*
X78264695Y-80584566D01*
X78227926Y-80627001D01*
X78219375Y-80633215D01*
X78219367Y-80633220D01*
X78202491Y-80645481D01*
X78202485Y-80645486D01*
X78030992Y-80816979D01*
X78026859Y-80824358D01*
X77990659Y-80874185D01*
X77990658Y-80874184D01*
X77896661Y-81003560D01*
X77896657Y-81003566D01*
X77896655Y-81003568D01*
X77896653Y-81003573D01*
X77847378Y-81100280D01*
X77789433Y-81214003D01*
X77716446Y-81438631D01*
X77716445Y-81438634D01*
X77716445Y-81438636D01*
X77679500Y-81671896D01*
X77679500Y-81908102D01*
X77685263Y-81944485D01*
X77716446Y-82141368D01*
X77789433Y-82365996D01*
X77849457Y-82483799D01*
X77878347Y-82540499D01*
X77896655Y-82576431D01*
X77906097Y-82589426D01*
X78035483Y-82767510D01*
X78035486Y-82767513D01*
X78202486Y-82934514D01*
X78202495Y-82934521D01*
X78222703Y-82949204D01*
X78248015Y-82973804D01*
X78256489Y-82984794D01*
X78281836Y-83049904D01*
X78267959Y-83118381D01*
X78267956Y-83118387D01*
X78264695Y-83124566D01*
X78227926Y-83167001D01*
X78219375Y-83173215D01*
X78219367Y-83173220D01*
X78202491Y-83185481D01*
X78202485Y-83185486D01*
X78030990Y-83356981D01*
X78026860Y-83364357D01*
X78012489Y-83384138D01*
X78012487Y-83384141D01*
X77896657Y-83543565D01*
X77854821Y-83625673D01*
X77789433Y-83754003D01*
X77789433Y-83754004D01*
X77716447Y-83978626D01*
X77716446Y-83978629D01*
X77705833Y-84045634D01*
X77695409Y-84079347D01*
X77689864Y-84091045D01*
X77643362Y-84143192D01*
X77576049Y-84161919D01*
X77513786Y-84144122D01*
X77505847Y-84139335D01*
X77482195Y-84120826D01*
X77108429Y-83747060D01*
X77108421Y-83747052D01*
X77108414Y-83747046D01*
X77034730Y-83697813D01*
X76985493Y-83664914D01*
X76848932Y-83608348D01*
X76848921Y-83608345D01*
X76848917Y-83608343D01*
X76848907Y-83608340D01*
X76848904Y-83608339D01*
X76848900Y-83608338D01*
X76703922Y-83579500D01*
X76703920Y-83579500D01*
X76703918Y-83579500D01*
X66632594Y-83579500D01*
X66585093Y-83570041D01*
X65524302Y-83130126D01*
X65469917Y-83086262D01*
X65447880Y-83019959D01*
X65465188Y-82952267D01*
X65484115Y-82927911D01*
X65644517Y-82767510D01*
X65783343Y-82576433D01*
X65890568Y-82365992D01*
X65963553Y-82141368D01*
X66000500Y-81908097D01*
X66000500Y-81671902D01*
X65963553Y-81438631D01*
X65890566Y-81214003D01*
X65816346Y-81068340D01*
X65783343Y-81003567D01*
X65644517Y-80812490D01*
X65477510Y-80645483D01*
X65457294Y-80630795D01*
X65431988Y-80606203D01*
X65423509Y-80595208D01*
X65398161Y-80530102D01*
X65412036Y-80461624D01*
X65412035Y-80461624D01*
X65415300Y-80455437D01*
X65452082Y-80412991D01*
X65477510Y-80394517D01*
X65644517Y-80227510D01*
X65783343Y-80036433D01*
X65890568Y-79825992D01*
X65963553Y-79601368D01*
X65972756Y-79543264D01*
X66000500Y-79368097D01*
X66000500Y-79131902D01*
X65963553Y-78898631D01*
X65890566Y-78674003D01*
X65816346Y-78528340D01*
X65783343Y-78463567D01*
X65644517Y-78272490D01*
X65477510Y-78105483D01*
X65395357Y-78045795D01*
X65370049Y-78021200D01*
X65361574Y-78010209D01*
X65336225Y-77945102D01*
X65350100Y-77876624D01*
X65350101Y-77876621D01*
X65353363Y-77870439D01*
X65390142Y-77827992D01*
X65477510Y-77764517D01*
X65644517Y-77597510D01*
X65783343Y-77406433D01*
X65890568Y-77195992D01*
X65963553Y-76971368D01*
X66000500Y-76738097D01*
X66000500Y-76501902D01*
X65963553Y-76268631D01*
X65890566Y-76044003D01*
X65783342Y-75833566D01*
X65644517Y-75642490D01*
X65477510Y-75475483D01*
X65286433Y-75336657D01*
X65075996Y-75229433D01*
X64851368Y-75156446D01*
X64851362Y-75156445D01*
X64618102Y-75119500D01*
X64618097Y-75119500D01*
X64618092Y-75119500D01*
X64381908Y-75119500D01*
X64381903Y-75119500D01*
X64381898Y-75119500D01*
X64148636Y-75156445D01*
X64148634Y-75156445D01*
X64148631Y-75156446D01*
X63924003Y-75229433D01*
X63728210Y-75329195D01*
X63713562Y-75336659D01*
X63604549Y-75415861D01*
X63604550Y-75415862D01*
X63534361Y-75466858D01*
X63526980Y-75470991D01*
X63350991Y-75646980D01*
X63346858Y-75654361D01*
X63295862Y-75724550D01*
X63295861Y-75724549D01*
X63216659Y-75833562D01*
X63216657Y-75833566D01*
X63109433Y-76044003D01*
X63036446Y-76268631D01*
X63036445Y-76268634D01*
X63036445Y-76268636D01*
X62999500Y-76501896D01*
X47600500Y-76501896D01*
X47600500Y-74642329D01*
X47605523Y-74607393D01*
X47609927Y-74592395D01*
X47647672Y-74533644D01*
X47649041Y-74532457D01*
X47703920Y-74504977D01*
X47711479Y-74503333D01*
X47737832Y-74500500D01*
X135857670Y-74500500D01*
X135892606Y-74505523D01*
G37*
%TD.AperFunction*%
%TD*%
M02*
