%TF.GenerationSoftware,KiCad,Pcbnew,10.0.0*%
%TF.CreationDate,2026-04-17T00:25:35-07:00*%
%TF.ProjectId,PC2GCAdaptorPCB,50433247-4341-4646-9170-746f72504342,rev?*%
%TF.SameCoordinates,Original*%
%TF.FileFunction,Soldermask,Top*%
%TF.FilePolarity,Negative*%
%FSLAX46Y46*%
G04 Gerber Fmt 4.6, Leading zero omitted, Abs format (unit mm)*
G04 Created by KiCad (PCBNEW 10.0.0) date 2026-04-17 00:25:35*
%MOMM*%
%LPD*%
G01*
G04 APERTURE LIST*
%ADD10C,1.400000*%
%ADD11C,5.000000*%
%ADD12C,1.600000*%
%ADD13C,1.500000*%
%ADD14R,1.800000X1.800000*%
%ADD15C,1.800000*%
%ADD16C,2.000000*%
%ADD17C,1.440000*%
G04 APERTURE END LIST*
D10*
%TO.C,LED_Resistor1*%
X113240000Y-140980000D03*
X113240000Y-135900000D03*
%TD*%
%TO.C,Pullup_Resistor1*%
X78586291Y-147644868D03*
X83666291Y-147644868D03*
%TD*%
D11*
%TO.C,H4*%
X128680000Y-150290000D03*
%TD*%
D12*
%TO.C,Decouple_3_3V1*%
X71100000Y-142900000D03*
X66100000Y-142900000D03*
%TD*%
D13*
%TO.C,GameCubePinOut1*%
X79426291Y-154444868D03*
X81126291Y-154444868D03*
X82826291Y-154444868D03*
X84526291Y-154444868D03*
X86226291Y-154444868D03*
X87926291Y-154444868D03*
%TD*%
D14*
%TO.C,SwitchLED1*%
X103370000Y-151040000D03*
D15*
X105910000Y-151040000D03*
%TD*%
D16*
%TO.C,Level_Shifter_5V_3_3V1*%
X78513709Y-132595132D03*
X81053709Y-132595132D03*
X83593709Y-132595132D03*
X86133709Y-132595132D03*
X88673709Y-132595132D03*
X91213709Y-132595132D03*
X78513709Y-142914132D03*
X81053709Y-142914132D03*
X83593709Y-142914132D03*
X86133709Y-142914132D03*
X88673709Y-142914132D03*
X91213709Y-142914132D03*
%TD*%
%TO.C,Transmitter1*%
X119180000Y-112270000D03*
X119180000Y-109730000D03*
X119180000Y-107190000D03*
X119180000Y-104650000D03*
X119180000Y-102110000D03*
X119180000Y-99570000D03*
X119180000Y-97030000D03*
X119180000Y-94490000D03*
X119180000Y-91950000D03*
X119180000Y-89410000D03*
X119180000Y-86870000D03*
X119180000Y-84330000D03*
X119180000Y-81790000D03*
X119180000Y-79250000D03*
X119180000Y-76620000D03*
X104500000Y-76620000D03*
X104500000Y-79250000D03*
X104500000Y-81790000D03*
X104500000Y-84330000D03*
X104500000Y-86870000D03*
X104500000Y-89410000D03*
X104500000Y-91950000D03*
X104500000Y-94490000D03*
X104500000Y-97030000D03*
X104500000Y-99570000D03*
X104500000Y-102110000D03*
X104500000Y-104650000D03*
X104500000Y-107190000D03*
X104500000Y-109730000D03*
X104500000Y-112270000D03*
%TD*%
%TO.C,Reciever1*%
X79180000Y-112270000D03*
X79180000Y-109730000D03*
X79180000Y-107190000D03*
X79180000Y-104650000D03*
X79180000Y-102110000D03*
X79180000Y-99570000D03*
X79180000Y-97030000D03*
X79180000Y-94490000D03*
X79180000Y-91950000D03*
X79180000Y-89410000D03*
X79180000Y-86870000D03*
X79180000Y-84330000D03*
X79180000Y-81790000D03*
X79180000Y-79250000D03*
X79180000Y-76620000D03*
X64500000Y-76620000D03*
X64500000Y-79250000D03*
X64500000Y-81790000D03*
X64500000Y-84330000D03*
X64500000Y-86870000D03*
X64500000Y-89410000D03*
X64500000Y-91950000D03*
X64500000Y-94490000D03*
X64500000Y-97030000D03*
X64500000Y-99570000D03*
X64500000Y-102110000D03*
X64500000Y-104650000D03*
X64500000Y-107190000D03*
X64500000Y-109730000D03*
X64500000Y-112270000D03*
%TD*%
D11*
%TO.C,H3*%
X55000000Y-150290000D03*
%TD*%
D17*
%TO.C,R1*%
X103440000Y-138440000D03*
X103440000Y-135900000D03*
X103440000Y-133360000D03*
%TD*%
D11*
%TO.C,H2*%
X128680000Y-81790000D03*
%TD*%
%TO.C,H1*%
X55000000Y-81790000D03*
%TD*%
D12*
%TO.C,Decouple_5V1*%
X71200000Y-133300000D03*
X66200000Y-133300000D03*
%TD*%
M02*
